<svg width="730" height="729" viewBox="0 0 730 729" fill="none" xmlns="http://www.w3.org/2000/svg">
<g clip-path="url(#clip0_897_9104)">
<g opacity="0.1">
<path opacity="0.1" d="M297.829 109.882C298.186 111.091 297.636 111.878 296.226 112.294L292.946 113.262L291.859 109.578L295.111 108.619C296.492 108.212 297.464 108.645 297.829 109.882ZM295.14 102.355C295.488 103.535 294.91 104.331 293.529 104.739L290.68 105.579L289.628 102.011L292.476 101.17C293.858 100.763 294.784 101.147 295.14 102.355ZM303.851 108.982C303.172 106.68 301.102 105.07 298.523 105.236C300.348 104.104 301.311 102.068 300.59 99.622C299.597 96.256 296.505 95.103 292.39 96.317L282.664 99.185L288.647 119.471L298.689 116.51C303.034 115.228 304.86 112.406 303.851 108.982Z" fill="black"/>
<path opacity="0.1" d="M327.999 110.52L334.119 109.467L322.963 89.9256L316.281 91.075L312.27 113.227L318.361 112.179L318.899 108.585L326.29 107.313L327.999 110.52ZM324.078 103.128L319.614 103.896L320.671 96.774L324.078 103.128Z" fill="black"/>
<path opacity="0.1" d="M350.698 108.182L356.57 107.864L355.427 86.7448L349.555 87.0626L350.698 108.182Z" fill="black"/>
<path opacity="0.1" d="M375.352 99.944L388.916 100.79L389.22 95.91L375.657 95.064L375.352 99.944Z" fill="black"/>
<path opacity="0.1" d="M419.862 92.13L406.547 89.7253L402.789 110.539L416.104 112.943L416.941 108.308L409.412 106.949L410.089 103.199L416.732 104.399L417.526 100L410.884 98.8L411.497 95.405L419.025 96.765L419.862 92.13Z" fill="black"/>
<path opacity="0.1" d="M450.064 100.255L437.119 96.322L430.969 116.558L443.915 120.492L445.284 115.985L437.965 113.761L439.073 110.115L445.531 112.078L446.831 107.801L440.372 105.839L441.375 102.538L448.695 104.762L450.064 100.255Z" fill="black"/>
<path opacity="0.1" d="M494.141 137.83C496.473 139.19 499.33 138.459 500.675 136.152C502.034 133.819 501.277 130.947 498.945 129.588C496.638 128.243 493.766 129 492.406 131.333C491.062 133.64 491.834 136.485 494.141 137.83Z" fill="black"/>
<path opacity="0.1" d="M539.466 179.352L543.965 183.633L552.978 163.015L548.065 158.342L527.902 168.352L532.38 172.612L535.583 170.898L541.018 176.067L539.466 179.352ZM543.054 171.793L539.772 168.671L546.116 165.266L543.054 171.793Z" fill="black"/>
<path opacity="0.1" d="M569.398 180.518L553.141 194.046L561.104 203.616L564.563 200.738L560.361 195.688L573.159 185.038L569.398 180.518Z" fill="black"/>
<path opacity="0.1" d="M582.535 213.611L586.38 211.105L587.658 213.065C588.624 214.548 588.263 215.642 587.082 216.412C585.926 217.166 584.779 217.054 583.812 215.571L582.535 213.611ZM590.359 221.439C593.776 219.211 594.807 215.352 591.94 210.954L587.14 203.59L569.422 215.14L572.632 220.066L578.614 216.167L580.203 218.605C583.135 223.103 587.267 223.454 590.359 221.439Z" fill="black"/>
<path opacity="0.1" d="M588.617 248.416L591.235 253.681L610.174 244.267L607.557 239.002L600.438 242.54L597.246 236.12L604.365 232.581L601.748 227.316L582.809 236.73L585.426 241.996L593.028 238.216L596.22 244.637L588.617 248.416Z" fill="black"/>
<path opacity="0.1" d="M599.971 276.294L602.071 282.138L619.378 267.758L617.085 261.378L594.574 261.274L596.664 267.09L600.296 266.996L602.832 274.054L599.971 276.294ZM606.57 271.149L605.038 266.886L612.236 266.691L606.57 271.149Z" fill="black"/>
<path opacity="0.1" d="M626.764 317.39L627.389 322.935L611.023 324.779L611.681 330.622L628.048 328.778L628.68 334.382L633.33 333.858L631.415 316.866L626.764 317.39Z" fill="black"/>
<path opacity="0.1" d="M634.037 363.566L634.092 350.036L612.942 349.949L612.887 363.479L617.597 363.499L617.628 355.849L621.438 355.864L621.41 362.614L625.88 362.633L625.908 355.883L629.358 355.897L629.327 363.547L634.037 363.566Z" fill="black"/>
<path opacity="0.1" d="M616.504 394.197C623.235 395.012 623.443 384.793 626.57 385.172C627.583 385.294 628.006 386.041 627.872 386.901C627.742 387.973 627.05 388.705 625.732 388.606L624.965 394.95C629.159 395.246 631.894 392.374 632.478 387.549C633.016 383.111 631.226 379.419 627.116 378.922C619.83 377.949 620.176 388.326 616.807 387.948C615.824 387.829 615.384 386.96 615.51 385.918C615.64 384.846 616.289 383.988 617.882 384.059L618.635 377.835C614.109 377.529 611.436 380.892 610.87 385.568C610.268 390.541 612.811 393.75 616.504 394.197Z" fill="black"/>
<path opacity="0.1" d="M624.015 409.145L622.706 414.569L606.695 410.705L605.316 416.421L621.326 420.285L620.003 425.768L624.552 426.866L628.564 410.243L624.015 409.145Z" fill="black"/>
<path opacity="0.1" d="M601.802 483.356L607.924 471.29L589.063 461.72L582.941 473.786L587.141 475.917L590.602 469.095L594 470.819L590.946 476.839L594.932 478.861L597.986 472.842L601.063 474.403L597.602 481.225L601.802 483.356Z" fill="black"/>
<path opacity="0.1" d="M590.052 494.427L586.966 499.076L573.243 489.969L569.992 494.869L583.715 503.976L580.596 508.675L584.496 511.263L593.951 497.015L590.052 494.427Z" fill="black"/>
<path opacity="0.1" d="M567.358 517.511C562.343 513.267 557.288 512.135 553.219 516.944C549.15 521.754 551.084 526.573 556.1 530.817C561.046 535.003 566.143 536.132 570.212 531.323C574.282 526.513 572.305 521.697 567.358 517.511ZM559.859 526.374C557.477 524.359 555.77 522.522 557.456 520.529C559.142 518.537 561.236 519.916 563.618 521.931C565.931 523.888 567.661 525.745 565.975 527.738C564.29 529.73 562.172 528.331 559.859 526.374Z" fill="black"/>
<path opacity="0.1" d="M547.178 539.884C542.689 535.086 537.8 533.375 533.2 537.679C528.6 541.983 529.962 546.995 534.451 551.793C538.878 556.524 543.809 558.237 548.409 553.933C553.009 549.629 551.605 544.615 547.178 539.884ZM538.7 547.816C536.568 545.538 535.086 543.515 536.992 541.732C538.898 539.948 540.818 541.561 542.95 543.84C545.02 546.052 546.523 548.097 544.617 549.88C542.711 551.664 540.77 550.029 538.7 547.816Z" fill="black"/>
<path opacity="0.1" d="M512.596 554.558L507.648 558.21L520.671 575.855L528.105 570.367L524.827 565.926L522.341 567.761L512.596 554.558Z" fill="black"/>
<path opacity="0.1" d="M462.779 588.86C460.296 589.919 459.176 592.647 460.224 595.103C461.283 597.586 464.038 598.694 466.522 597.635C468.978 596.587 470.086 593.832 469.026 591.348C467.979 588.892 465.235 587.812 462.779 588.86Z" fill="black"/>
<path opacity="0.1" d="M419.274 608.292C418.2 602.054 413.338 598.385 407.07 599.464C401.837 600.365 398.63 604.021 398.41 608.93L404.648 607.856C405.117 606.162 406.359 605.066 408.074 604.77C410.735 604.313 412.836 606.082 413.39 609.305C413.94 612.498 412.552 614.867 409.891 615.325C408.176 615.62 406.639 615.002 405.63 613.562L399.392 614.636C401.241 619.188 405.485 621.563 410.718 620.662C416.986 619.584 420.342 614.501 419.274 608.292Z" fill="black"/>
<path opacity="0.1" d="M373.721 603.082L367.52 603.417L376.332 624.121L383.102 623.755L389.658 602.219L383.487 602.553L382.535 606.06L375.046 606.465L373.721 603.082ZM376.757 610.879L381.28 610.634L379.403 617.586L376.757 610.879Z" fill="black"/>
<path opacity="0.1" d="M357.289 619.669L351.719 619.322L352.745 602.884L346.876 602.518L345.851 618.956L340.222 618.605L339.93 623.276L356.997 624.34L357.289 619.669Z" fill="black"/>
<path opacity="0.1" d="M289.755 591.438L284.129 589.729L277.98 609.965L283.606 611.675L285.917 604.068L292.778 606.153L290.466 613.759L296.092 615.469L302.241 595.233L296.615 593.523L294.147 601.646L287.287 599.562L289.755 591.438Z" fill="black"/>
<path opacity="0.1" d="M261.581 593.416L259.746 597.623L257.601 596.687C255.979 595.979 255.679 594.867 256.243 593.574C256.794 592.309 257.814 591.772 259.437 592.48L261.581 593.416ZM250.743 591.175C249.112 594.915 250.371 598.705 255.184 600.804L263.24 604.318L271.697 584.933L266.308 582.582L263.453 589.126L260.785 587.962C255.863 585.815 252.219 587.793 250.743 591.175Z" fill="black"/>
<path opacity="0.1" d="M241.437 570.047L236.357 567.086L225.707 585.359L230.787 588.32L241.437 570.047Z" fill="black"/>
<path opacity="0.1" d="M213.406 571.854L208.944 568.503L218.833 555.333L214.131 551.802L204.242 564.973L199.732 561.586L196.922 565.329L210.596 575.596L213.406 571.854Z" fill="black"/>
<path opacity="0.1" d="M191.685 547.859C196.213 543.098 197.638 538.119 193.073 533.776C188.508 529.434 183.584 531.085 179.056 535.845C174.59 540.541 173.166 545.563 177.731 549.905C182.295 554.247 187.218 552.554 191.685 547.859ZM183.273 539.857C185.423 537.596 187.357 535.999 189.248 537.798C191.139 539.597 189.64 541.607 187.49 543.868C185.401 546.063 183.447 547.683 181.556 545.884C179.665 544.085 181.184 542.052 183.273 539.857Z" fill="black"/>
<path opacity="0.1" d="M156.808 516.738C154.356 519.091 153.101 522.789 156.267 526.594C159.933 530.998 164.239 530.498 170.211 525.528C175.1 521.46 177.708 517.183 173.448 512.064C170.397 508.397 166.337 508.068 162.924 510.908C159.396 513.844 159.282 517.412 161.68 520.294C162.87 521.724 164.487 522.447 165.95 522.283C163.187 524.544 161.369 525.315 160.122 523.816C159.297 522.824 159.482 521.968 160.301 520.935L156.808 516.738ZM166.107 518.485C165.166 517.355 165.302 516.11 166.432 515.17C167.631 514.172 168.829 514.346 169.731 515.43C170.71 516.606 170.639 517.835 169.417 518.852C168.241 519.83 166.97 519.522 166.107 518.485Z" fill="black"/>
<path opacity="0.1" d="M137.884 466.451C136.682 464.033 133.894 463.074 131.503 464.263C129.085 465.465 128.139 468.28 129.341 470.698C130.53 473.088 133.345 474.034 135.763 472.832C138.154 471.644 139.073 468.842 137.884 466.451Z" fill="black"/>
<path opacity="0.1" d="M122.833 406.855L121.426 400.806L102.566 413.079L104.103 419.683L126.45 422.399L125.049 416.38L121.431 416.052L119.731 408.747L122.833 406.855ZM115.681 411.198L116.708 415.61L109.536 414.969L115.681 411.198Z" fill="black"/>
<path opacity="0.1" d="M109.666 394.747C115.956 394.038 119.901 389.397 119.189 383.077C118.594 377.8 115.13 374.387 110.242 373.881L110.951 380.171C112.615 380.738 113.638 382.042 113.833 383.771C114.135 386.454 112.247 388.448 108.997 388.814C105.778 389.177 103.493 387.654 103.19 384.971C102.995 383.242 103.702 381.743 105.198 380.82L104.489 374.53C99.8366 376.111 97.2192 380.21 97.814 385.486C98.5264 391.806 103.406 395.453 109.666 394.747Z" fill="black"/>
<path opacity="0.1" d="M117.49 355.572L117.514 349.692L96.364 349.605L96.3398 355.485L117.49 355.572Z" fill="black"/>
<path opacity="0.1" d="M98.1738 324.132L97.168 332.442L118.164 334.983L119.17 326.674C119.981 319.973 116.059 315.177 109.984 314.441C103.819 313.695 98.985 317.431 98.1738 324.132ZM113.719 328.522L102.937 327.217L103.182 325.192C103.59 321.827 105.782 319.946 109.266 320.368C112.721 320.786 114.371 323.132 113.964 326.497L113.719 328.522Z" fill="black"/>
<path opacity="0.1" d="M128.3 262.864C129.483 263.3 129.786 264.211 129.278 265.59L128.095 268.799L124.492 267.471L125.664 264.29C126.162 262.939 127.09 262.418 128.3 262.864ZM120.657 260.526C121.811 260.952 122.104 261.891 121.606 263.242L120.579 266.029L117.089 264.742L118.116 261.955C118.614 260.604 119.475 260.09 120.657 260.526ZM131.174 257.497C128.922 256.667 126.394 257.366 124.988 259.533C125.169 257.393 124.112 255.405 121.719 254.523C118.426 253.309 115.655 255.101 114.171 259.126L110.664 268.641L130.508 275.956L134.13 266.132C135.697 261.882 134.524 258.732 131.174 257.497Z" fill="black"/>
<path opacity="0.1" d="M128.602 227.583L122.48 239.649L141.342 249.219L147.463 237.153L143.263 235.022L139.802 241.844L136.404 240.12L139.458 234.101L135.472 232.078L132.418 238.098L129.341 236.537L132.803 229.715L128.602 227.583Z" fill="black"/>
<path opacity="0.1" d="M161.5 214.438L164.934 209.263L143.065 203.968L139.316 209.617L152.676 227.736L156.093 222.587L153.848 219.729L157.996 213.48L161.5 214.438ZM153.433 212.217L150.928 215.991L146.473 210.334L153.433 212.217Z" fill="black"/>
<path opacity="0.1" d="M161.276 196.55C166.109 200.639 172.192 200.323 176.3 195.468C179.73 191.415 179.835 186.552 176.849 182.65L172.76 187.483C173.49 189.082 173.243 190.721 172.119 192.049C170.375 194.11 167.629 194.105 165.133 191.993C162.659 189.9 162.199 187.192 163.943 185.131C165.067 183.803 166.642 183.288 168.34 183.743L172.429 178.91C168.087 176.612 163.309 177.521 159.879 181.574C155.771 186.429 156.467 192.481 161.276 196.55Z" fill="black"/>
<path opacity="0.1" d="M198.569 172.147L202.863 168.129L188.412 152.686L184.119 156.703L189.551 162.508L184.315 167.407L178.883 161.602L174.59 165.619L189.041 181.063L193.334 177.045L187.533 170.846L192.769 165.947L198.569 172.147Z" fill="black"/>
<path opacity="0.1" d="M241.195 134.984C243.539 133.644 244.334 130.805 243.009 128.487C241.669 126.143 238.803 125.363 236.459 126.703C234.142 128.029 233.361 130.894 234.702 133.238C236.027 135.556 238.878 136.31 241.195 134.984Z" fill="black"/>
</g>
<g opacity="0.1">
<path d="M242.386 124.733C242.229 124.44 242.046 124.2 241.836 124.013C241.621 123.818 241.342 123.679 240.999 123.597C240.656 123.514 240.21 123.486 239.66 123.514C239.114 123.529 238.426 123.608 237.595 123.753C236.621 123.918 235.659 124.033 234.708 124.098C233.753 124.154 232.849 124.11 231.998 123.967C231.142 123.815 230.37 123.519 229.681 123.078C228.987 122.629 228.415 121.983 227.965 121.138C227.532 120.328 227.325 119.504 227.342 118.665C227.354 117.817 227.562 116.992 227.964 116.191C228.371 115.376 228.949 114.613 229.699 113.903C230.444 113.184 231.338 112.547 232.381 111.99C233.759 111.255 235.103 110.848 236.411 110.769C237.724 110.678 238.912 110.912 239.975 111.474C241.043 112.022 241.894 112.891 242.528 114.08L238.018 116.487C237.765 116.013 237.443 115.648 237.052 115.392C236.669 115.131 236.229 115.001 235.731 115.001C235.233 115.001 234.691 115.158 234.105 115.47C233.537 115.774 233.104 116.115 232.809 116.494C232.513 116.874 232.344 117.262 232.302 117.661C232.256 118.051 232.325 118.419 232.509 118.763C232.66 119.047 232.876 119.265 233.155 119.414C233.438 119.551 233.779 119.64 234.178 119.682C234.585 119.719 235.048 119.716 235.567 119.671C236.094 119.622 236.671 119.542 237.297 119.429C238.467 119.214 239.545 119.098 240.532 119.081C241.523 119.05 242.418 119.142 243.219 119.357C244.024 119.558 244.732 119.9 245.344 120.381C245.964 120.859 246.485 121.493 246.908 122.286C247.359 123.13 247.595 123.967 247.617 124.797C247.639 125.626 247.466 126.433 247.098 127.216C246.725 127.99 246.175 128.721 245.446 129.409C244.717 130.097 243.827 130.721 242.776 131.282C241.811 131.797 240.795 132.185 239.727 132.445C238.663 132.691 237.617 132.763 236.587 132.659C235.553 132.547 234.594 132.212 233.71 131.654C232.83 131.084 232.093 130.242 231.5 129.131L236.049 126.703C236.343 127.255 236.664 127.681 237.013 127.982C237.362 128.283 237.741 128.474 238.149 128.555C238.553 128.627 238.989 128.604 239.458 128.487C239.922 128.361 240.421 128.156 240.955 127.87C241.533 127.562 241.954 127.232 242.22 126.88C242.481 126.519 242.62 126.157 242.637 125.794C242.649 125.423 242.565 125.069 242.386 124.733Z" fill="black"/>
<path d="M285.21 108.645L286.544 112.368L276.395 116.005L275.06 112.282L285.21 108.645ZM270.923 95.3097L278.118 115.387L273.278 117.122L266.083 97.0442L270.923 95.3097Z" fill="black"/>
<path d="M313.735 83.7038L318.776 82.6924L321.516 96.3509C321.843 97.9787 321.78 99.4256 321.326 100.692C320.871 101.948 320.089 102.987 318.978 103.807C317.868 104.628 316.485 105.204 314.828 105.536C313.191 105.865 311.692 105.867 310.332 105.542C308.982 105.215 307.845 104.562 306.921 103.582C306.005 102.59 305.384 101.281 305.057 99.6529L302.317 85.9944L307.373 84.9802L310.113 98.6387C310.286 99.5004 310.551 100.179 310.91 100.675C311.266 101.161 311.709 101.481 312.238 101.634C312.766 101.787 313.37 101.795 314.05 101.659C314.74 101.52 315.294 101.28 315.713 100.936C316.132 100.593 316.408 100.13 316.54 99.5456C316.67 98.9518 316.648 98.224 316.475 97.3623L313.735 83.7038Z" fill="black"/>
<path d="M345.023 79.4968L349.207 79.2796L354.73 93.8517L358.715 78.786L362.899 78.5688L356.764 100.244L353.37 100.42L345.023 79.4968ZM342.477 79.629L346.807 79.4042L348.46 95.6881L348.718 100.662L343.583 100.928L342.477 79.629ZM361.114 78.6615L365.459 78.4359L366.565 99.7353L361.415 100.003L361.157 95.0289L361.114 78.6615Z" fill="black"/>
<path d="M443.069 99.1967L440.984 107.705C440.538 108.007 439.895 108.292 439.055 108.559C438.227 108.819 437.225 108.97 436.048 109.013C434.871 109.057 433.538 108.896 432.049 108.531C430.674 108.194 429.48 107.67 428.468 106.959C427.458 106.239 426.654 105.354 426.057 104.302C425.472 103.244 425.114 102.04 424.982 100.69C424.862 99.3339 425 97.8493 425.395 96.2369L425.677 95.0845C426.072 93.4721 426.642 92.0933 427.385 90.9483C428.128 89.8032 428.998 88.9004 429.994 88.2397C431.003 87.5719 432.097 87.1464 433.278 86.9633C434.469 86.7826 435.709 86.8503 436.999 87.1665C438.906 87.6338 440.382 88.3174 441.428 89.2173C442.477 90.1078 443.179 91.1598 443.535 92.3732C443.894 93.5771 443.97 94.8878 443.763 96.3051L438.969 95.1299C439.041 94.4237 439.003 93.801 438.853 93.2616C438.716 92.7151 438.435 92.2593 438.012 91.8941C437.591 91.5195 436.997 91.238 436.228 91.0497C435.631 90.9032 435.054 90.8976 434.498 91.0328C433.951 91.1703 433.444 91.458 432.974 91.896C432.507 92.3245 432.084 92.9044 431.703 93.6356C431.332 94.3692 431.019 95.2577 430.763 96.301L430.474 97.4819C430.221 98.5157 430.084 99.4425 430.064 100.262C430.054 101.084 430.16 101.799 430.383 102.406C430.618 103.007 430.978 103.507 431.463 103.908C431.96 104.301 432.587 104.591 433.346 104.777C433.877 104.907 434.343 104.976 434.743 104.984C435.146 104.982 435.487 104.945 435.766 104.872C436.057 104.793 436.284 104.708 436.447 104.617L437.235 101.401L433.764 100.551L434.604 97.1218L443.069 99.1967Z" fill="black"/>
<path d="M481.244 113.59L480.919 114.39C480.304 115.901 479.539 117.171 478.624 118.201C477.722 119.226 476.714 120.007 475.599 120.544C474.488 121.072 473.316 121.349 472.082 121.375C470.853 121.391 469.605 121.141 468.338 120.626C467.063 120.107 465.986 119.41 465.108 118.536C464.243 117.657 463.593 116.639 463.157 115.481C462.734 114.318 462.553 113.053 462.614 111.686C462.688 110.313 463.032 108.872 463.647 107.361L463.972 106.561C464.587 105.05 465.347 103.778 466.253 102.744C467.168 101.714 468.176 100.933 469.278 100.401C470.393 99.864 471.565 99.5872 472.795 99.571C474.037 99.5494 475.296 99.7981 476.572 100.317C477.838 100.833 478.904 101.53 479.769 102.409C480.647 103.283 481.297 104.302 481.72 105.465C482.147 106.619 482.328 107.884 482.263 109.26C482.199 110.636 481.859 112.079 481.244 113.59ZM476.088 112.425L476.425 111.597C476.823 110.62 477.086 109.726 477.216 108.914C477.359 108.097 477.371 107.369 477.251 106.73C477.132 106.091 476.884 105.547 476.508 105.099C476.144 104.645 475.659 104.295 475.053 104.048C474.42 103.791 473.815 103.697 473.238 103.768C472.664 103.83 472.116 104.05 471.593 104.427C471.071 104.805 470.575 105.336 470.107 106.021C469.651 106.7 469.225 107.528 468.827 108.505L468.49 109.332C468.096 110.3 467.824 111.191 467.672 112.004C467.533 112.812 467.517 113.538 467.623 114.183C467.739 114.831 467.979 115.382 468.343 115.836C468.715 116.293 469.218 116.651 469.851 116.908C470.457 117.155 471.049 117.243 471.626 117.172C472.203 117.101 472.755 116.872 473.281 116.485C473.817 116.102 474.317 115.573 474.781 114.898C475.259 114.217 475.694 113.392 476.088 112.425Z" fill="black"/>
<path d="M500.222 136.156L496.146 133.754L498.18 130.362L502.23 132.749C503.072 133.245 503.902 133.462 504.72 133.401C505.547 133.344 506.348 133.005 507.121 132.384C507.909 131.76 508.65 130.859 509.344 129.682L509.812 128.886C510.333 128.003 510.701 127.177 510.916 126.408C511.145 125.636 511.222 124.928 511.148 124.284C511.079 123.631 510.86 123.042 510.489 122.518C510.126 121.998 509.621 121.547 508.973 121.165L504.885 118.755L506.9 115.335L510.989 117.745C512.234 118.479 513.248 119.366 514.03 120.405C514.825 121.44 515.368 122.577 515.659 123.814C515.964 125.047 516.004 126.324 515.782 127.644C515.573 128.96 515.084 130.271 514.315 131.575L513.862 132.344C513.098 133.64 512.188 134.702 511.133 135.531C510.086 136.365 508.953 136.95 507.735 137.286C506.517 137.622 505.264 137.7 503.976 137.519C502.702 137.335 501.45 136.88 500.222 136.156ZM509.513 116.875L498.683 135.249L494.253 132.638L505.083 114.264L509.513 116.875Z" fill="black"/>
<path d="M567.951 176.742L568.349 176.374C569.109 175.672 569.955 175.342 570.886 175.386C571.831 175.43 572.685 175.865 573.447 176.689C574.236 177.543 574.612 178.439 574.575 179.377C574.545 180.309 574.15 181.126 573.389 181.829L572.991 182.196C572.238 182.892 571.396 183.218 570.465 183.175C569.547 183.132 568.698 182.687 567.916 181.841C567.147 181.009 566.771 180.126 566.787 179.194C566.81 178.255 567.198 177.438 567.951 176.742Z" fill="black"/>
<path d="M624.986 241.639L605.816 250.987L603.562 246.366L622.733 237.018L624.986 241.639ZM627.798 247.406L624.23 249.146L616.417 233.122L619.985 231.382L627.798 247.406Z" fill="black"/>
<path d="M637.547 272.277L640.088 280.277C640.585 281.84 640.784 283.273 640.685 284.575C640.586 285.877 640.18 286.985 639.466 287.898C638.755 288.821 637.729 289.495 636.389 289.921C635.225 290.29 634.195 290.418 633.298 290.303C632.401 290.188 631.593 289.887 630.874 289.398C630.167 288.915 629.515 288.298 628.917 287.545L627.5 286.228L625.367 279.512L629.141 278.283L630.72 283.253C630.918 283.876 631.194 284.357 631.547 284.696C631.901 285.034 632.315 285.241 632.789 285.316C633.276 285.397 633.808 285.346 634.385 285.162C634.972 284.976 635.44 284.709 635.791 284.362C636.142 284.015 636.362 283.597 636.453 283.107C636.546 282.626 636.497 282.084 636.304 281.479L635.32 278.379L618.776 283.635L617.219 278.734L637.547 272.277ZM620.754 289.861L628.317 282.51L629.995 287.694L622.631 295.044L622.422 295.111L620.754 289.861Z" fill="black"/>
<path d="M644.756 319.934L627.293 317.509L626.405 312.059L648.716 316.365L649.279 319.82L644.756 319.934ZM628.821 326.893L644.61 319.037L648.926 317.652L649.495 321.151L629.712 332.358L628.821 326.893ZM636.639 325.411L632.721 326.05L630.962 315.25L634.88 314.611L636.639 325.411Z" fill="black"/>
<path d="M638.748 364.492L638.827 369.618C637.342 369.572 636.027 369.192 634.883 368.477C633.739 367.762 632.84 366.76 632.186 365.471C631.541 364.192 631.205 362.673 631.178 360.916C631.156 359.49 631.376 358.212 631.837 357.082C632.299 355.962 632.972 355.004 633.859 354.209C634.745 353.424 635.825 352.816 637.098 352.387C638.371 351.967 639.808 351.744 641.409 351.72L642.566 351.702C644.168 351.677 645.611 351.865 646.897 352.266C648.192 352.675 649.295 353.264 650.206 354.031C651.126 354.808 651.834 355.745 652.329 356.841C652.824 357.937 653.082 359.159 653.103 360.506C653.132 362.361 652.824 363.934 652.179 365.223C651.535 366.512 650.637 367.518 649.486 368.238C648.345 368.959 647.038 369.394 645.565 369.544L645.486 364.417C646.287 364.386 646.954 364.239 647.487 363.977C648.03 363.714 648.434 363.308 648.699 362.757C648.964 362.206 649.089 361.476 649.075 360.568C649.066 359.933 648.94 359.383 648.698 358.918C648.457 358.453 648.08 358.068 647.567 357.764C647.055 357.459 646.392 357.235 645.579 357.091C644.776 356.957 643.808 356.898 642.676 356.916L641.489 356.934C640.357 356.951 639.391 357.035 638.592 357.183C637.794 357.332 637.143 357.562 636.64 357.873C636.137 358.183 635.767 358.58 635.53 359.062C635.303 359.554 635.195 360.151 635.206 360.854C635.218 361.635 635.35 362.292 635.602 362.826C635.865 363.359 636.252 363.768 636.764 364.053C637.286 364.338 637.948 364.484 638.748 364.492Z" fill="black"/>
<path d="M650.501 401.213L629.355 398.431L630.026 393.334L651.172 396.115L650.501 401.213ZM648.841 413.834L639.2 404.233L634.588 398.75L639.386 398.436L643.631 402.112L649.668 407.545L648.841 413.834ZM628.488 405.025L638.733 400.817L641.131 405.166L627.695 411.052L628.488 405.025Z" fill="black"/>
<path d="M609.83 469.737L627.835 481.698L626.644 484.343L608.634 472.395L609.83 469.737ZM607.665 474.545L625.67 486.507L624.474 489.165L606.469 477.204L607.665 474.545ZM615.498 487.727L621.758 473.822L624.203 474.922L617.943 488.827L615.498 487.727ZM609.985 484.023L616.239 470.132L618.683 471.232L612.429 485.124L609.985 484.023Z" fill="black"/>
<path d="M587.878 517.43L584.67 515.378L592.69 502.841L595.405 504.578L597.782 514.237C598.039 515.12 598.299 515.866 598.559 516.473C598.828 517.086 599.107 517.583 599.396 517.965C599.68 518.355 599.974 518.648 600.278 518.842C600.796 519.174 601.278 519.372 601.724 519.437C602.172 519.515 602.582 519.464 602.952 519.284C603.317 519.111 603.637 518.811 603.91 518.384C604.184 517.956 604.3 517.503 604.258 517.024C604.217 516.545 604.04 516.079 603.728 515.624C603.411 515.178 602.985 514.783 602.45 514.441L605.118 510.271C606.221 510.976 607.057 511.888 607.629 513.007C608.194 514.134 608.441 515.352 608.368 516.662C608.303 517.977 607.866 519.268 607.055 520.535C606.208 521.859 605.292 522.838 604.307 523.472C603.322 524.105 602.294 524.398 601.223 524.351C600.155 524.317 599.074 523.95 597.98 523.25C597.355 522.85 596.817 522.367 596.368 521.801C595.918 521.235 595.528 520.586 595.197 519.852C594.875 519.124 594.588 518.304 594.338 517.39C594.083 516.485 593.838 515.481 593.603 514.381L592.409 510.348L587.878 517.43Z" fill="black"/>
<path d="M547.38 572.603L547.733 573.015C548.407 573.8 548.706 574.657 548.628 575.586C548.549 576.529 548.084 577.366 547.232 578.098C546.35 578.855 545.441 579.197 544.505 579.126C543.574 579.062 542.772 578.638 542.098 577.852L541.745 577.441C541.077 576.663 540.782 575.809 540.86 574.88C540.936 573.965 541.412 573.132 542.286 572.382C543.145 571.644 544.041 571.3 544.972 571.35C545.909 571.408 546.712 571.825 547.38 572.603Z" fill="black"/>
<path d="M468.44 613.551L466.838 609.935L477.23 605.329L478.833 608.945L468.44 613.551ZM484.198 625.57L475.556 606.071L480.257 603.988L488.898 623.487L484.198 625.57ZM473.388 621.1L471.839 617.604L480.892 613.592L482.441 617.087L473.388 621.1ZM475.439 629.452L473.831 625.822L484.263 621.199L485.872 624.828L475.439 629.452Z" fill="black"/>
<path d="M441.006 640.978L435.295 620.428L440.249 619.052L445.959 639.601L441.006 640.978ZM434.824 642.696L433.761 638.871L450.937 634.098L452 637.922L434.824 642.696Z" fill="black"/>
<path d="M392.043 641.049L391.557 637.183C391.366 635.662 391.379 634.317 391.597 633.148C391.804 631.98 392.191 630.986 392.758 630.167C393.314 629.349 394.021 628.705 394.877 628.233C395.733 627.761 396.704 627.457 397.789 627.321C398.661 627.211 399.489 627.221 400.273 627.349C401.058 627.486 401.785 627.749 402.453 628.138C403.114 628.537 403.706 629.063 404.231 629.716C404.756 630.368 405.195 631.159 405.548 632.09C405.902 633.029 406.156 634.11 406.309 635.33L406.795 639.197C406.987 640.728 406.979 642.072 406.77 643.23C406.553 644.399 406.161 645.393 405.594 646.212C405.028 647.032 404.317 647.677 403.461 648.149C402.605 648.62 401.634 648.924 400.549 649.061C399.677 649.17 398.853 649.155 398.078 649.017C397.294 648.889 396.567 648.626 395.897 648.227C395.228 647.839 394.636 647.318 394.121 646.664C393.596 646.012 393.156 645.215 392.802 644.276C392.449 643.346 392.196 642.27 392.043 641.049ZM396.38 635.972L397.019 641.059C397.104 641.737 397.217 642.324 397.358 642.818C397.489 643.313 397.649 643.726 397.839 644.057C398.018 644.388 398.223 644.648 398.453 644.836C398.685 645.033 398.937 645.164 399.211 645.228C399.476 645.303 399.764 645.321 400.074 645.282C400.462 645.233 400.8 645.107 401.089 644.903C401.37 644.71 401.596 644.426 401.765 644.051C401.934 643.675 402.041 643.189 402.084 642.593C402.117 641.999 402.081 641.28 401.975 640.437L401.337 635.35C401.25 634.662 401.141 634.065 401.009 633.56C400.868 633.066 400.707 632.648 400.526 632.307C400.337 631.976 400.127 631.712 399.895 631.515C399.665 631.327 399.413 631.202 399.139 631.137C398.866 631.073 398.574 631.061 398.264 631.1C397.886 631.147 397.556 631.267 397.275 631.46C396.994 631.653 396.769 631.937 396.6 632.313C396.422 632.699 396.316 633.19 396.283 633.785C396.241 634.39 396.273 635.119 396.38 635.972Z" fill="black"/>
<path d="M351.547 641.777L351.63 637.881C351.663 636.348 351.871 635.019 352.257 633.894C352.632 632.769 353.16 631.843 353.839 631.115C354.509 630.387 355.302 629.852 356.218 629.51C357.133 629.168 358.138 629.008 359.231 629.031C360.11 629.05 360.928 629.18 361.685 629.42C362.441 629.671 363.122 630.037 363.727 630.519C364.322 631.01 364.832 631.616 365.256 632.338C365.681 633.061 366 633.907 366.214 634.879C366.427 635.86 366.521 636.966 366.495 638.196L366.412 642.092C366.38 643.634 366.176 644.963 365.8 646.079C365.415 647.204 364.883 648.13 364.203 648.858C363.523 649.586 362.726 650.121 361.81 650.463C360.894 650.805 359.89 650.964 358.796 650.941C357.918 650.922 357.105 650.788 356.358 650.538C355.601 650.297 354.92 649.931 354.315 649.44C353.71 648.958 353.2 648.356 352.786 647.634C352.362 646.912 352.043 646.061 351.829 645.079C351.615 644.108 351.521 643.007 351.547 641.777ZM356.578 637.385L356.47 642.511C356.455 643.194 356.481 643.791 356.549 644.3C356.606 644.809 356.705 645.241 356.844 645.596C356.973 645.95 357.138 646.237 357.338 646.456C357.539 646.685 357.769 646.851 358.031 646.954C358.283 647.067 358.565 647.127 358.877 647.133C359.268 647.142 359.621 647.066 359.937 646.907C360.243 646.757 360.507 646.509 360.729 646.162C360.951 645.815 361.127 645.35 361.257 644.766C361.377 644.183 361.446 643.466 361.464 642.617L361.572 637.491C361.587 636.798 361.566 636.192 361.508 635.673C361.441 635.164 361.343 634.727 361.214 634.363C361.075 634.008 360.905 633.716 360.705 633.487C360.504 633.268 360.273 633.107 360.012 633.004C359.75 632.901 359.463 632.846 359.151 632.839C358.77 632.831 358.427 632.902 358.121 633.052C357.815 633.201 357.55 633.45 357.328 633.797C357.096 634.153 356.92 634.623 356.8 635.207C356.67 635.8 356.596 636.526 356.578 637.385Z" fill="black"/>
<path d="M312.765 627.907L313.399 624.151L328.074 626.63L327.538 629.808L319.578 635.772C318.865 636.355 318.28 636.885 317.823 637.363C317.365 637.85 317.016 638.301 316.778 638.716C316.53 639.13 316.375 639.515 316.315 639.871C316.213 640.478 316.219 640.999 316.334 641.434C316.437 641.878 316.644 642.234 316.955 642.505C317.256 642.774 317.657 642.95 318.158 643.035C318.659 643.119 319.121 643.049 319.546 642.823C319.97 642.598 320.33 642.253 320.627 641.788C320.913 641.321 321.11 640.775 321.215 640.149L326.097 640.974C325.879 642.264 325.367 643.391 324.561 644.354C323.745 645.315 322.72 646.019 321.486 646.464C320.25 646.919 318.891 647.021 317.408 646.771C315.858 646.509 314.599 646.049 313.63 645.39C312.662 644.731 311.99 643.9 311.615 642.895C311.229 641.899 311.144 640.761 311.36 639.48C311.484 638.748 311.718 638.065 312.063 637.43C312.408 636.795 312.853 636.182 313.399 635.59C313.943 635.009 314.586 634.424 315.329 633.837C316.062 633.247 316.89 632.629 317.811 631.983L321.056 629.307L312.765 627.907Z" fill="black"/>
<path d="M246.149 612.201L245.909 612.686C245.45 613.614 244.777 614.224 243.892 614.516C242.994 614.812 242.041 614.711 241.035 614.213C239.993 613.698 239.322 612.995 239.021 612.105C238.716 611.224 238.793 610.32 239.253 609.392L239.493 608.907C239.948 607.988 240.618 607.382 241.503 607.09C242.376 606.803 243.328 606.915 244.361 607.426C245.376 607.928 246.043 608.618 246.361 609.494C246.675 610.38 246.604 611.282 246.149 612.201Z" fill="black"/>
<path d="M174.247 570.091L189.55 561.337L193.584 565.108L173.293 575.336L170.736 572.945L174.247 570.091ZM182.606 554.844L174.91 570.711L172.341 574.445L169.752 572.024L178.561 551.063L182.606 554.844ZM177.323 560.794L180.034 557.895L188.027 565.368L185.316 568.268L177.323 560.794Z" fill="black"/>
<path d="M150.79 524.687L153.883 522.222L160.603 530.654L157.51 533.119L150.79 524.687ZM142.782 542.514L159.461 529.222L162.666 533.243L145.987 546.535L142.782 542.514Z" fill="black"/>
<path d="M130.593 499.422L133.259 504.006L129.827 506.002L127.161 501.418C126.798 500.794 126.398 500.348 125.961 500.083C125.524 499.817 125.068 499.704 124.594 499.743C124.106 499.778 123.625 499.933 123.153 500.208C122.646 500.502 122.232 500.868 121.909 501.304C121.582 501.731 121.4 502.216 121.364 502.756C121.32 503.301 121.479 503.887 121.843 504.511L123.537 507.424L138.542 498.697L141.127 503.142L122.69 513.864L118.411 506.507C117.552 505.03 117.083 503.602 117.005 502.224C116.922 500.838 117.186 499.583 117.798 498.459C118.401 497.34 119.306 496.429 120.513 495.727C121.703 495.035 122.909 494.718 124.129 494.777C125.349 494.835 126.52 495.256 127.642 496.038C128.75 496.817 129.734 497.945 130.593 499.422Z" fill="black"/>
<path d="M107.138 462.799L110.81 461.33L114.875 471.489L111.203 472.958L107.138 462.799ZM102.706 474.513L122.507 466.589L124.418 471.363L104.616 479.286L102.706 474.513ZM97.993 462.735L117.795 454.811L119.699 459.571L99.8978 467.495L97.993 462.735Z" fill="black"/>
<path d="M92.9167 429.743L110.51 430.886L111.793 436.258L89.2275 433.591L88.414 430.186L92.9167 429.743ZM108.3 421.64L93.1277 430.626L88.9246 432.323L88.1008 428.876L107.014 416.254L108.3 421.64ZM100.612 423.688L104.473 422.765L107.016 433.408L103.154 434.33L100.612 423.688Z" fill="black"/>
<path d="M81.4564 345.766L102.749 346.996L102.452 352.129L81.1598 350.899L81.4564 345.766ZM81.8266 339.361L85.7897 339.59L84.7612 357.387L80.7981 357.158L81.8266 339.361Z" fill="black"/>
<path d="M105.363 302.626L109.236 303.426L106.935 314.558L103.062 313.757L105.363 302.626ZM86.419 308.447L107.306 312.765L106.265 317.8L85.3782 313.483L86.419 308.447ZM96.3444 302.257L100.089 303.031L98.0839 312.729L94.3398 311.955L96.3444 302.257ZM88.3584 299.066L92.2459 299.869L89.9359 311.044L86.0483 310.241L88.3584 299.066Z" fill="black"/>
<path d="M113.984 269.033C113.672 268.919 113.375 268.862 113.094 268.864C112.804 268.862 112.503 268.944 112.193 269.112C111.882 269.279 111.531 269.557 111.14 269.944C110.744 270.319 110.284 270.837 109.762 271.499C109.147 272.273 108.507 273.001 107.842 273.683C107.168 274.363 106.466 274.933 105.736 275.394C104.997 275.852 104.224 276.147 103.417 276.279C102.601 276.407 101.744 276.307 100.845 275.979C99.9824 275.664 99.2775 275.189 98.7301 274.552C98.1735 273.913 97.7777 273.16 97.5426 272.294C97.3017 271.416 97.2236 270.463 97.3083 269.433C97.3837 268.4 97.6241 267.329 98.0292 266.219C98.5649 264.751 99.2939 263.551 100.216 262.62C101.133 261.676 102.174 261.058 103.341 260.766C104.502 260.462 105.715 260.541 106.981 261.003L105.228 265.806C104.724 265.622 104.24 265.565 103.778 265.635C103.319 265.696 102.904 265.893 102.533 266.226C102.163 266.558 101.863 267.036 101.636 267.66C101.415 268.265 101.32 268.808 101.353 269.288C101.386 269.768 101.52 270.17 101.755 270.495C101.981 270.816 102.277 271.044 102.644 271.178C102.947 271.288 103.252 271.306 103.56 271.232C103.862 271.144 104.175 270.983 104.5 270.748C104.829 270.504 105.171 270.193 105.528 269.813C105.888 269.425 106.263 268.98 106.654 268.478C107.382 267.538 108.108 266.732 108.831 266.06C109.549 265.376 110.277 264.847 111.017 264.472C111.751 264.085 112.506 263.867 113.283 263.818C114.063 263.76 114.875 263.885 115.719 264.193C116.618 264.521 117.353 264.986 117.923 265.589C118.493 266.192 118.902 266.908 119.15 267.737C119.39 268.563 119.467 269.475 119.384 270.473C119.3 271.472 119.054 272.531 118.645 273.65C118.27 274.677 117.772 275.644 117.15 276.55C116.522 277.444 115.79 278.196 114.955 278.805C114.109 279.412 113.172 279.802 112.141 279.977C111.105 280.14 109.995 280.005 108.811 279.573L110.579 274.729C111.166 274.943 111.69 275.046 112.151 275.038C112.611 275.029 113.021 274.919 113.379 274.706C113.728 274.49 114.038 274.183 114.308 273.782C114.57 273.379 114.805 272.893 115.012 272.324C115.237 271.709 115.33 271.182 115.293 270.742C115.247 270.299 115.109 269.937 114.879 269.656C114.64 269.371 114.342 269.163 113.984 269.033Z" fill="black"/>
<path d="M116.489 226.432L135.247 236.584L132.799 241.106L114.042 230.954L116.489 226.432ZM119.543 220.789L123.035 222.679L114.549 238.357L111.058 236.468L119.543 220.789Z" fill="black"/>
<path d="M171.598 170.633L171.216 170.248C170.486 169.514 170.126 168.681 170.135 167.749C170.145 166.803 170.548 165.934 171.344 165.142C172.169 164.323 173.05 163.914 173.989 163.917C174.922 163.913 175.753 164.278 176.482 165.012L176.865 165.397C177.587 166.124 177.944 166.953 177.934 167.886C177.925 168.804 177.511 169.669 176.694 170.482C175.891 171.28 175.023 171.689 174.091 171.707C173.152 171.718 172.321 171.36 171.598 170.633Z" fill="black"/>
</g>
</g>
<defs>
<clipPath id="clip0_897_9104">
<rect width="730" height="729" fill="white"/>
</clipPath>
</defs>
</svg>
