<svg width="172" height="47" viewBox="0 0 172 47" fill="none" xmlns="http://www.w3.org/2000/svg">
<rect width="172" height="47" fill="#4B4F53"/>
<path d="M60.0944 23.46C60.0944 25.57 61.4844 27.05 63.6044 27.05C65.3744 27.05 66.6344 26.03 66.9844 24.43H64.8744C64.6244 24.96 64.1544 25.25 63.5744 25.25C62.6744 25.25 62.0844 24.55 62.0844 23.46C62.0844 22.38 62.6744 21.68 63.5744 21.68C64.1544 21.68 64.6244 21.97 64.8744 22.5H66.9844C66.6344 20.9 65.3744 19.88 63.6044 19.88C61.4844 19.88 60.0944 21.36 60.0944 23.46ZM74.9025 23.45C74.9025 21.33 73.3025 19.84 71.2925 19.84C69.2925 19.84 67.6725 21.33 67.6725 23.45C67.6725 25.57 69.2925 27.07 71.2925 27.07C73.2925 27.07 74.9025 25.57 74.9025 23.45ZM69.6725 23.45C69.6725 22.34 70.2725 21.64 71.2925 21.64C72.3025 21.64 72.9125 22.34 72.9125 23.45C72.9125 24.54 72.3025 25.25 71.2925 25.25C70.2725 25.25 69.6725 24.54 69.6725 23.45ZM80.3536 19.95V23.94L77.7436 19.95H75.7836V27H77.7436V23.06L80.3536 27H82.3136V19.95H80.3536ZM83.0401 21.51H84.9001V27H86.8601V21.51H88.7401V19.95H83.0401V21.51ZM89.4653 27H91.4253V19.95H89.4653V27ZM97.1114 19.95V23.94L94.5014 19.95H92.5414V27H94.5014V23.06L97.1114 27H99.0714V19.95H97.1114ZM100.158 24.04C100.158 26.05 101.438 27.07 103.138 27.07C104.828 27.07 106.228 26.05 106.228 24.04V19.95H104.268V24.04C104.268 24.77 103.918 25.23 103.178 25.23C102.438 25.23 102.108 24.77 102.108 24.04V19.95H100.158V24.04ZM111.817 19.95H107.307V27H111.817V25.43H109.267V24.16H111.517V22.67H109.267V21.52H111.817V19.95Z" fill="white"/>
</svg>
