<svg width="413" height="687" viewBox="0 0 413 687" fill="none" xmlns="http://www.w3.org/2000/svg">
<path opacity="0.2" d="M29.1562 319.685V307.255C29.1562 306.204 30.1897 305.543 31.0251 306.059L40.9087 312.165C41.7514 312.686 41.7606 314.012 40.9252 314.546L31.0416 320.87C30.2061 321.405 29.1562 320.745 29.1562 319.685Z" fill="white"/>
<g opacity="0.5">
<path opacity="0.5" d="M85.0078 307.787V319.516H92.2059V316.733H88.6731V307.787H85.0078Z" fill="white"/>
<path opacity="0.5" d="M102.708 314.845C102.708 311.862 100.594 310.057 97.7874 310.057C94.9805 310.057 92.8672 311.862 92.8672 314.845C92.8672 317.826 94.9805 319.632 97.7874 319.632C100.594 319.632 102.708 317.826 102.708 314.845ZM96.5823 314.845C96.5823 313.735 97.1436 313.237 97.7874 313.237C98.4313 313.237 98.9926 313.735 98.9926 314.845C98.9926 315.955 98.4313 316.451 97.7874 316.451C97.1265 316.451 96.5823 315.955 96.5823 314.845Z" fill="white"/>
<path opacity="0.5" d="M113.2 314.845C113.2 311.862 111.087 310.057 108.28 310.057C105.473 310.057 103.359 311.862 103.359 314.845C103.359 317.826 105.473 319.632 108.28 319.632C111.087 319.632 113.2 317.826 113.2 314.845ZM107.074 314.845C107.074 313.735 107.636 313.237 108.28 313.237C108.924 313.237 109.485 313.735 109.485 314.845C109.485 315.955 108.924 316.451 108.28 316.451C107.619 316.451 107.074 315.955 107.074 314.845Z" fill="white"/>
<path opacity="0.5" d="M118.017 311.449V310.173H114.352V323.989H118.017V318.241C118.463 319.085 119.338 319.632 120.577 319.632C122.723 319.632 124.424 317.86 124.424 314.845C124.424 311.829 122.723 310.057 120.577 310.057C119.338 310.057 118.463 310.604 118.017 311.449ZM120.708 314.845C120.708 315.872 120.114 316.418 119.354 316.418C118.595 316.418 118 315.872 118 314.845C118 313.818 118.595 313.271 119.354 313.271C120.114 313.271 120.708 313.818 120.708 314.845Z" fill="white"/>
<path opacity="0.5" d="M128.022 319.351H136.558V316.385H132.777C134.693 315.176 136.509 313.172 136.509 310.769C136.509 308.847 135.436 307.141 132.431 307.141C130.169 307.141 128.088 308.383 127.973 311.597H131.523C131.456 310.62 131.787 310.222 132.183 310.222C132.562 310.222 132.81 310.521 132.81 311.05C132.81 312.79 130.35 314.828 128.022 316.584V319.351Z" fill="white"/>
</g>
<g opacity="0.5">
<path opacity="0.5" d="M160.73 313.316C160.73 315.716 161.449 317.507 163.762 317.507C166.076 317.507 166.794 315.716 166.794 313.316C166.794 310.939 166.076 309.158 163.762 309.158C161.449 309.158 160.73 310.939 160.73 313.316ZM165.245 313.316C165.245 314.78 165.087 316.042 163.762 316.042C162.437 316.042 162.28 314.78 162.28 313.316C162.28 311.907 162.437 310.623 163.762 310.623C165.087 310.623 165.245 311.907 165.245 313.316Z" fill="white"/>
<path opacity="0.5" d="M167.988 313.316C167.988 315.716 168.707 317.507 171.02 317.507C173.333 317.507 174.052 315.716 174.052 313.316C174.052 310.939 173.333 309.158 171.02 309.158C168.707 309.158 167.988 310.939 167.988 313.316ZM172.502 313.316C172.502 314.78 172.345 316.042 171.02 316.042C169.695 316.042 169.538 314.78 169.538 313.316C169.538 311.907 169.695 310.623 171.02 310.623C172.345 310.623 172.502 311.907 172.502 313.316Z" fill="white"/>
<path opacity="0.5" d="M177.076 316.684C177.076 316.166 176.672 315.76 176.121 315.76C175.549 315.76 175.145 316.166 175.145 316.684C175.145 317.203 175.549 317.609 176.121 317.609C176.672 317.609 177.076 317.203 177.076 316.684ZM177.076 312.02C177.076 311.502 176.672 311.096 176.121 311.096C175.549 311.096 175.145 311.502 175.145 312.02C175.145 312.538 175.549 312.944 176.121 312.944C176.672 312.944 177.076 312.538 177.076 312.02Z" fill="white"/>
<path opacity="0.5" d="M178.191 313.316C178.191 315.716 178.91 317.507 181.224 317.507C183.537 317.507 184.255 315.716 184.255 313.316C184.255 310.939 183.537 309.158 181.224 309.158C178.91 309.158 178.191 310.939 178.191 313.316ZM182.705 313.316C182.705 314.78 182.549 316.042 181.224 316.042C179.899 316.042 179.741 314.78 179.741 313.316C179.741 311.907 179.899 310.623 181.224 310.623C182.549 310.623 182.705 311.907 182.705 313.316Z" fill="white"/>
<path opacity="0.5" d="M185.876 309.293V314.116H187.381C187.55 313.609 187.965 313.248 188.616 313.248C189.504 313.248 189.964 313.755 189.964 314.679C189.964 315.547 189.548 316.2 188.628 316.2C187.864 316.2 187.404 315.783 187.269 315.209H185.742C185.876 316.549 186.887 317.53 188.65 317.53C190.514 317.53 191.48 316.335 191.48 314.657C191.48 313.383 190.829 311.941 188.92 311.941C188.235 311.941 187.617 312.234 187.314 312.606V310.679H190.952V309.293H185.876Z" fill="white"/>
<path opacity="0.5" d="M194.513 316.684C194.513 316.166 194.109 315.76 193.559 315.76C192.986 315.76 192.582 316.166 192.582 316.684C192.582 317.203 192.986 317.609 193.559 317.609C194.109 317.609 194.513 317.203 194.513 316.684ZM194.513 312.02C194.513 311.502 194.109 311.096 193.559 311.096C192.986 311.096 192.582 311.502 192.582 312.02C192.582 312.538 192.986 312.944 193.559 312.944C194.109 312.944 194.513 312.538 194.513 312.02Z" fill="white"/>
<path opacity="0.5" d="M195.629 313.316C195.629 315.716 196.348 317.507 198.661 317.507C200.974 317.507 201.693 315.716 201.693 313.316C201.693 310.939 200.974 309.158 198.661 309.158C196.348 309.158 195.629 310.939 195.629 313.316ZM200.144 313.316C200.144 314.78 199.986 316.042 198.661 316.042C197.336 316.042 197.179 314.78 197.179 313.316C197.179 311.907 197.336 310.623 198.661 310.623C199.986 310.623 200.144 311.907 200.144 313.316Z" fill="white"/>
<path opacity="0.5" d="M202.887 313.316C202.887 315.716 203.605 317.507 205.919 317.507C208.232 317.507 208.951 315.716 208.951 313.316C208.951 310.939 208.232 309.158 205.919 309.158C203.605 309.158 202.887 310.939 202.887 313.316ZM207.401 313.316C207.401 314.78 207.244 316.042 205.919 316.042C204.594 316.042 204.437 314.78 204.437 313.316C204.437 311.907 204.594 310.623 205.919 310.623C207.244 310.623 207.401 311.907 207.401 313.316Z" fill="white"/>
</g>
<path opacity="0.2" d="M381.711 304.5H370.438C369.485 304.5 368.886 303.464 369.354 302.626L374.892 292.719C375.363 291.874 376.566 291.865 377.051 292.702L382.786 302.61C383.271 303.447 382.672 304.5 381.711 304.5Z" fill="white"/>
<path opacity="0.2" d="M370.439 321.06H381.711C382.664 321.06 383.264 322.096 382.796 322.934L377.258 332.841C376.786 333.686 375.583 333.695 375.099 332.857L369.363 322.95C368.878 322.113 369.477 321.06 370.439 321.06Z" fill="white"/>
<path opacity="0.5" d="M325.484 308.64H329.268V297.6H323.762V300.742H325.484V308.64Z" fill="white"/>
<g opacity="0.5">
<path opacity="0.5" d="M317.879 319.267V324.819H320.812V323.936H318.988V319.267H317.879Z" fill="white"/>
<path opacity="0.5" d="M325.76 322.615C325.76 321.224 324.77 320.34 323.502 320.34C322.233 320.34 321.242 321.224 321.242 322.615C321.242 323.999 322.201 324.89 323.47 324.89C324.746 324.89 325.76 323.999 325.76 322.615ZM322.368 322.615C322.368 321.733 322.899 321.311 323.486 321.311C324.072 321.311 324.619 321.733 324.619 322.615C324.619 323.49 324.056 323.92 323.47 323.92C322.875 323.92 322.368 323.49 322.368 322.615Z" fill="white"/>
<path opacity="0.5" d="M330.811 322.615C330.811 321.224 329.82 320.34 328.552 320.34C327.284 320.34 326.293 321.224 326.293 322.615C326.293 323.999 327.252 324.89 328.52 324.89C329.797 324.89 330.811 323.999 330.811 322.615ZM327.419 322.615C327.419 321.733 327.95 321.311 328.537 321.311C329.123 321.311 329.67 321.733 329.67 322.615C329.67 323.49 329.107 323.92 328.52 323.92C327.926 323.92 327.419 323.49 327.419 322.615Z" fill="white"/>
<path opacity="0.5" d="M332.73 321.049V320.412H331.621V326.918H332.73V324.19C333 324.548 333.492 324.89 334.181 324.89C335.307 324.89 336.187 323.975 336.187 322.6C336.187 321.224 335.307 320.34 334.181 320.34C333.5 320.34 332.992 320.674 332.73 321.049ZM335.053 322.6C335.053 323.435 334.491 323.911 333.888 323.911C333.294 323.911 332.73 323.451 332.73 322.615C332.73 321.78 333.294 321.319 333.888 321.319C334.491 321.319 335.053 321.764 335.053 322.6Z" fill="white"/>
</g>
<path d="M389.932 311.4H373.232C372.242 311.4 371.624 310.34 372.12 309.492L380.324 295.474C380.814 294.636 382.034 294.627 382.537 295.457L391.034 309.475C391.547 310.323 390.93 311.4 389.932 311.4Z" fill="#4C4F53"/>
<path d="M373.232 316.92H389.932C390.922 316.92 391.54 318.069 391.044 318.987L382.84 334.173C382.35 335.081 381.13 335.091 380.627 334.191L372.13 319.005C371.617 318.087 372.234 316.92 373.232 316.92Z" fill="#4C4F53"/>
<path opacity="0.5" d="M18.1445 326.58V301.74L40.1712 313.942L18.1445 326.58Z" fill="#4B4F53"/>
<path d="M104.75 233.305H206.315V207.59H104.75V233.305Z" fill="white"/>
<path fill-rule="evenodd" clip-rule="evenodd" d="M105.41 232.642H205.655V208.253H105.41V232.642ZM104.75 233.305V207.59H206.315V233.305H104.75Z" fill="black"/>
<path d="M205.371 233.305H306.936V207.59H205.371V233.305Z" fill="white"/>
<path fill-rule="evenodd" clip-rule="evenodd" d="M206.031 232.642H306.276V208.253H206.031V232.642ZM205.371 233.305V207.59H306.936V233.305H205.371Z" fill="black"/>
<path d="M305.867 233.305H407.433V207.59H305.867V233.305Z" fill="white"/>
<path fill-rule="evenodd" clip-rule="evenodd" d="M306.527 232.642H406.772V208.253H306.527V232.642ZM305.867 233.305V207.59H407.433V233.305H305.867Z" fill="black"/>
<path d="M3 233.305H105.208V207.59H3V233.305Z" fill="black"/>
<path d="M46.2831 220.635C46.2831 221.372 46.1595 222.055 45.9121 222.686C45.6694 223.311 45.3241 223.853 44.876 224.312C44.428 224.77 43.8889 225.13 43.2589 225.389C42.6289 225.644 41.9288 225.771 41.1587 225.771C40.3934 225.771 39.6956 225.644 39.0656 225.389C38.4355 225.13 37.8942 224.77 37.4415 224.312C36.9934 223.853 36.6458 223.311 36.3984 222.686C36.151 222.055 36.0273 221.372 36.0273 220.635C36.0273 219.898 36.151 219.218 36.3984 218.592C36.6458 217.962 36.9934 217.417 37.4415 216.959C37.8942 216.5 38.4355 216.143 39.0656 215.889C39.6956 215.629 40.3934 215.499 41.1587 215.499C41.6721 215.499 42.1552 215.559 42.6078 215.68C43.0606 215.796 43.4759 215.962 43.8539 216.181C44.232 216.393 44.5704 216.655 44.869 216.966C45.1724 217.272 45.4291 217.614 45.6391 217.994C45.8491 218.374 46.0078 218.787 46.1151 219.231C46.2271 219.676 46.2831 220.144 46.2831 220.635ZM44.358 220.635C44.358 220.084 44.2833 219.591 44.134 219.155C43.9847 218.715 43.7723 218.342 43.4969 218.036C43.2216 217.73 42.8856 217.496 42.4888 217.334C42.0968 217.172 41.6535 217.091 41.1587 217.091C40.6641 217.091 40.2184 217.172 39.8216 217.334C39.4296 217.496 39.0936 217.73 38.8135 218.036C38.5382 218.342 38.3259 218.715 38.1765 219.155C38.0272 219.591 37.9525 220.084 37.9525 220.635C37.9525 221.186 38.0272 221.682 38.1765 222.123C38.3259 222.558 38.5382 222.929 38.8135 223.234C39.0936 223.535 39.4296 223.768 39.8216 223.93C40.2184 224.092 40.6641 224.173 41.1587 224.173C41.6535 224.173 42.0968 224.092 42.4888 223.93C42.8856 223.768 43.2216 223.535 43.4969 223.234C43.7723 222.929 43.9847 222.558 44.134 222.123C44.2833 221.682 44.358 221.186 44.358 220.635ZM50.9962 220.392C51.3508 220.392 51.6588 220.348 51.9203 220.26C52.1863 220.172 52.4033 220.051 52.5713 219.898C52.744 219.741 52.8723 219.556 52.9563 219.343C53.0403 219.129 53.0824 218.895 53.0824 218.64C53.0824 218.131 52.912 217.74 52.5713 217.466C52.2353 217.193 51.7195 217.056 51.0242 217.056H49.8201V220.392H50.9962ZM55.8406 225.66H54.1394C53.8174 225.66 53.584 225.535 53.4394 225.285L51.3112 222.067C51.2318 221.946 51.1432 221.86 51.0452 221.81C50.9518 221.759 50.8118 221.733 50.6252 221.733H49.8201V225.66H47.937V215.611H51.0242C51.7102 215.611 52.2983 215.682 52.7883 215.826C53.283 215.965 53.6867 216.162 53.9994 216.416C54.3167 216.671 54.5501 216.977 54.6995 217.334C54.8488 217.686 54.9235 218.075 54.9235 218.502C54.9235 218.84 54.8721 219.16 54.7695 219.461C54.6715 219.762 54.5268 220.035 54.3355 220.281C54.1487 220.526 53.9154 220.742 53.6354 220.927C53.36 221.113 53.045 221.258 52.6903 221.365C52.8116 221.434 52.9236 221.518 53.0264 221.615C53.129 221.708 53.2224 221.819 53.3064 221.949L55.8406 225.66ZM58.8239 225.66H56.9337V215.611H58.8239V225.66ZM69.4348 220.621V224.687C68.9215 225.062 68.373 225.338 67.7898 225.514C67.2109 225.686 66.5901 225.771 65.9274 225.771C65.1013 225.771 64.3523 225.644 63.6805 225.389C63.0129 225.134 62.4413 224.78 61.9651 224.326C61.4937 223.872 61.1299 223.329 60.8732 222.699C60.6166 222.069 60.4883 221.381 60.4883 220.635C60.4883 219.88 60.6119 219.187 60.8593 218.557C61.1068 217.927 61.4567 217.385 61.9092 216.931C62.3666 216.477 62.92 216.124 63.5687 215.875C64.2175 215.624 64.9452 215.499 65.7525 215.499C66.1631 215.499 66.5458 215.531 66.9005 215.597C67.2601 215.661 67.5912 215.751 67.8949 215.867C68.2029 215.979 68.4829 216.115 68.735 216.277C68.9871 216.44 69.2179 216.618 69.4281 216.813L68.8887 217.66C68.8049 217.795 68.6955 217.879 68.5601 217.911C68.4246 217.939 68.2776 217.904 68.1191 217.807C67.9648 217.718 67.8111 217.631 67.6568 217.543C67.5025 217.454 67.33 217.378 67.1387 217.313C66.9522 217.248 66.7396 217.195 66.5015 217.153C66.2682 217.112 65.9979 217.091 65.6899 217.091C65.19 217.091 64.7375 217.174 64.3317 217.341C63.9302 217.508 63.587 217.746 63.3027 218.057C63.0178 218.367 62.7985 218.74 62.6442 219.176C62.4905 219.611 62.4134 220.098 62.4134 220.635C62.4134 221.21 62.4948 221.724 62.6582 222.178C62.8265 222.628 63.0597 223.01 63.3586 223.325C63.6617 223.635 64.0262 223.874 64.4508 224.041C64.8753 224.203 65.3491 224.284 65.8715 224.284C66.2451 224.284 66.5786 224.245 66.8726 224.166C67.1666 224.087 67.4539 223.98 67.734 223.846V222.025H66.4595C66.3387 222.025 66.2427 221.993 66.1728 221.928C66.1072 221.859 66.0744 221.775 66.0744 221.678V220.621H69.4348Z" fill="white"/>
<path d="M110.32 157.026C110.32 161.919 113.534 165.352 118.434 165.352C122.526 165.352 125.438 162.986 126.247 159.275H121.37C120.792 160.505 119.705 161.177 118.365 161.177C116.284 161.177 114.92 159.554 114.92 157.026C114.92 154.521 116.284 152.897 118.365 152.897C119.705 152.897 120.792 153.57 121.37 154.799H126.247C125.438 151.088 122.526 148.722 118.434 148.722C113.534 148.722 110.32 152.155 110.32 157.026Z" fill="black"/>
<path d="M135.63 154.382C135.63 155.495 135.005 156.098 133.78 156.098H131.538V152.688H133.78C135.005 152.688 135.63 153.361 135.63 154.382ZM127.008 148.885V165.236H131.538V159.206H132.023L135.26 165.236H140.322L136.647 158.858C139.074 158.116 140.229 156.26 140.229 154.126C140.229 151.204 138.196 148.885 134.15 148.885H127.008Z" fill="black"/>
<path d="M151.323 148.885H140.898V165.236H151.323V161.595H145.429V158.649H150.63V155.193H145.429V152.526H151.323V148.885Z" fill="black"/>
<path d="M163.363 165.236H168.148L162.23 148.885H157.007L151.066 165.236H155.828L156.706 162.569H162.485L163.363 165.236ZM161.352 159.09H157.862L159.595 153.802L161.352 159.09Z" fill="black"/>
<path d="M167.34 152.503H171.639V165.236H176.17V152.503H180.515V148.885H167.34V152.503Z" fill="black"/>
<path d="M191.226 148.885H180.801V165.236H191.226V161.595H185.332V158.649H190.533V155.193H185.332V152.526H191.226V148.885Z" fill="black"/>
<path d="M207.208 152.99C207.254 150.717 205.52 148.56 202.007 148.56C198.563 148.56 196.667 150.555 196.667 152.944C196.667 153.941 196.968 154.799 197.754 155.796C195.65 156.84 194.656 158.556 194.656 160.481C194.656 163.473 197.084 165.491 200.967 165.491C203.024 165.491 204.757 164.981 206.214 163.984L207.531 165.236H212.64L208.757 161.432C209.45 160.481 210.051 159.345 210.583 158.069L211.253 156.77H206.769L206.306 157.605C206.168 157.953 206.029 158.278 205.867 158.603L202.053 154.869C201.29 154.103 200.898 153.477 200.898 152.897C200.898 152.271 201.383 151.9 201.984 151.9C202.538 151.9 203.024 152.248 203.024 152.99H207.208ZM201.267 161.85C199.834 161.85 199.025 161.038 199.025 160.087C199.025 159.415 199.418 158.742 200.227 158.255L203.44 161.316C202.816 161.664 202.099 161.85 201.267 161.85Z" fill="black"/>
<path d="M222.043 148.885L215.594 148.885V165.236H222.043C227.244 165.236 230.549 161.78 230.549 157.049C230.549 152.248 227.244 148.885 222.043 148.885ZM220.125 161.224V152.828H221.696C224.308 152.828 225.949 154.335 225.949 157.049C225.949 159.739 224.308 161.224 221.696 161.224H220.125Z" fill="black"/>
<path d="M247.365 157.002C247.365 152.085 243.666 148.63 239.02 148.63C234.397 148.63 230.652 152.085 230.652 157.002C230.652 161.919 234.397 165.398 239.02 165.398C243.643 165.398 247.365 161.919 247.365 157.002ZM235.276 157.002C235.276 154.428 236.662 152.804 239.02 152.804C241.355 152.804 242.765 154.428 242.765 157.002C242.765 159.53 241.355 161.177 239.02 161.177C236.662 161.177 235.276 159.53 235.276 157.002Z" fill="black"/>
<path d="M251.296 165.236H256.867L259.155 155.216L261.397 165.236H266.968L270.967 148.885H266.067L264.172 159.971L261.675 148.885H256.705L254.139 160.064L252.244 148.885H247.344L251.296 165.236Z" fill="black"/>
<path d="M282.063 148.885V158.139L276.031 148.885H271.5V165.236H276.031V156.098L282.063 165.236H286.594V148.885H282.063Z" fill="black"/>
<path d="M287.789 148.885V165.236H297.382V161.757H292.32V148.885H287.789Z" fill="black"/>
<path d="M313.912 157.002C313.912 152.085 310.213 148.63 305.567 148.63C300.944 148.63 297.199 152.085 297.199 157.002C297.199 161.919 300.944 165.398 305.567 165.398C310.19 165.398 313.912 161.919 313.912 157.002ZM301.822 157.002C301.822 154.428 303.209 152.804 305.567 152.804C307.902 152.804 309.312 154.428 309.312 157.002C309.312 159.53 307.902 161.177 305.567 161.177C303.209 161.177 301.822 159.53 301.822 157.002Z" fill="black"/>
<path d="M325.75 165.236H330.535L324.617 148.885H319.393L313.453 165.236H318.215L319.093 162.569H324.872L325.75 165.236ZM323.739 159.09H320.249L321.982 153.802L323.739 159.09Z" fill="black"/>
<path d="M337.078 148.885H330.629V165.236H337.078C342.279 165.236 345.584 161.78 345.584 157.049C345.584 152.248 342.279 148.885 337.078 148.885ZM335.159 161.224V152.828H336.731C339.343 152.828 340.984 154.335 340.984 157.049C340.984 159.739 339.343 161.224 336.731 161.224H335.159Z" fill="black"/>
<path d="M359.698 148.885H349.273V165.236H359.698V161.595H353.804V158.649H359.005V155.193H353.804V152.526H359.698V148.885Z" fill="black"/>
<path d="M367 148.885H360.551V165.236H367C372.201 165.236 375.506 161.78 375.506 157.049C375.506 152.248 372.201 148.885 367 148.885ZM365.081 161.224V152.828H366.653C369.265 152.828 370.906 154.335 370.906 157.049C370.906 159.739 369.265 161.224 366.653 161.224H365.081Z" fill="black"/>
<path d="M376.156 165.236H380.687V148.885H376.156V165.236Z" fill="black"/>
<path d="M380.984 152.503H385.284V165.236H389.814V152.503H394.16V148.885H380.984V152.503Z" fill="black"/>
<path d="M406.679 160.273C406.679 155.031 398.843 155.819 398.843 153.384C398.843 152.596 399.374 152.201 400.044 152.225C400.876 152.225 401.501 152.688 401.547 153.709H406.47C406.309 150.462 403.858 148.63 400.114 148.63C396.67 148.63 394.012 150.346 394.012 153.547C393.942 159.229 401.848 158 401.871 160.621C401.871 161.386 401.246 161.803 400.437 161.803C399.605 161.803 398.889 161.386 398.796 160.157H393.965C394.15 163.659 396.97 165.398 400.599 165.398C404.46 165.398 406.679 163.149 406.679 160.273Z" fill="black"/>
<path d="M3 282.42H409.117V340.38H3V282.42Z" fill="white"/>
<path fill-rule="evenodd" clip-rule="evenodd" d="M408.456 283.086H3.66035V339.714H408.456V283.086ZM3 282.42V340.38H409.117V282.42H3Z" fill="black"/>
<path d="M20.8984 321.06V298.98L38.7951 309.826L20.8984 321.06Z" fill="#4C4F53"/>
<path d="M389.932 308.64H373.232C372.242 308.64 371.624 307.58 372.12 306.732L380.324 292.714C380.814 291.876 382.034 291.867 382.537 292.697L391.034 306.716C391.547 307.563 390.93 308.64 389.932 308.64Z" fill="#4C4F53"/>
<path d="M373.232 315.54H389.932C390.922 315.54 391.54 316.601 391.044 317.448L382.84 331.466C382.349 332.304 381.13 332.313 380.627 331.483L372.13 317.465C371.617 316.618 372.234 315.54 373.232 315.54Z" fill="#4C4F53"/>
<path d="M3 387.3H409.117V445.26H3V387.3Z" fill="white"/>
<path fill-rule="evenodd" clip-rule="evenodd" d="M408.456 387.966H3.66035V444.594H408.456V387.966ZM3 387.3V445.26H409.117V387.3H3Z" fill="black"/>
<path d="M389.932 414.9H373.232C372.242 414.9 371.624 413.751 372.12 412.833L380.324 397.647C380.814 396.739 382.034 396.729 382.537 397.629L391.034 412.816C391.547 413.733 390.93 414.9 389.932 414.9Z" fill="#4C4F53"/>
<path d="M373.232 421.8H389.932C390.922 421.8 391.54 422.861 391.044 423.708L382.84 437.726C382.349 438.564 381.13 438.573 380.627 437.743L372.13 423.725C371.617 422.878 372.234 421.8 373.232 421.8Z" fill="#4C4F53"/>
<path d="M49.8056 439.74H7.12891V395.58H49.8056V439.74Z" fill="#4B4F53"/>
<path d="M49.8078 438.36H8.50781L8.50787 395.58H49.8078V438.36Z" fill="#4B4F53"/>
<path fill-rule="evenodd" clip-rule="evenodd" d="M9.175 437.669H49.1407V396.271H9.175V437.669ZM49.8078 438.36V395.58H8.50787L8.50781 438.36H49.8078Z" fill="#4B4F53"/>
<path d="M22.2734 428.7V406.62L40.1701 417.466L22.2734 428.7Z" fill="white"/>
<path fill-rule="evenodd" clip-rule="evenodd" d="M61.5096 437.669H102.807V396.271H61.5096V437.669ZM103.497 438.36V395.58H60.8203V438.36H103.497Z" fill="#4B4F53"/>
<rect x="103.496" y="438.36" width="42.6767" height="42.78" transform="rotate(-180 103.496 438.36)" fill="#4B4F53"/>
<rect x="101.98" y="436.702" width="39.6444" height="39.7429" transform="rotate(-180 101.98 436.702)" fill="#4B4F53" stroke="#4B4F53"/>
<rect x="63.4453" y="398.213" width="37.4242" height="37.5148" fill="white"/>
<g clip-path="url(#clip0_763_8829)">
<path d="M89.4394 413.844V410.835C89.4394 406.983 86.324 403.86 82.4807 403.86C78.6374 403.86 75.522 406.983 75.522 410.835V413.844H73.0391V428.87H91.9224V413.844H89.4394ZM83.3621 422.112L83.6244 424.827H81.3369L81.5991 422.111C80.8233 421.771 80.2813 420.995 80.2811 420.092C80.2811 418.874 81.2659 417.887 82.4808 417.886C83.6955 417.887 84.6802 418.874 84.6804 420.092C84.6802 420.995 84.1381 421.771 83.3621 422.112ZM85.6641 413.844H79.2975V410.835C79.2975 409.076 80.7255 407.645 82.4807 407.645C84.236 407.645 85.6641 409.076 85.6641 410.835V413.844Z" fill="#4B4F53"/>
<rect x="75.3086" y="415.986" width="10.5846" height="10.6102" fill="#4B4F53"/>
<path d="M79.8438 416.744H85.1361V421.291H79.8438V416.744Z" fill="white"/>
<path d="M88.161 421.291H76.8203L82.3374 426.596L88.161 421.291Z" fill="white"/>
</g>
<rect opacity="0.5" x="356.805" y="387.3" width="52.3134" height="57.96" fill="#DEA462"/>
<rect opacity="0.5" x="356.805" y="282.42" width="52.3134" height="57.96" fill="#6294E1"/>
<rect opacity="0.5" x="3" y="282.42" width="48.1833" height="57.96" fill="#FF0000"/>
<path opacity="0.5" d="M203.992 207.555H305.866V233.361H203.992V207.555Z" fill="#57FFEC"/>
<path opacity="0.5" d="M104.484 207.555H203.99V233.361H104.484V207.555Z" fill="#57FFEC"/>
<rect opacity="0.5" x="3" y="387.3" width="53.69" height="57.96" fill="#30A729"/>
<rect opacity="0.5" x="56.6914" y="387.3" width="53.69" height="57.96" fill="#FF0099"/>
<rect x="121.395" y="464.58" width="8.26" height="9.65997" fill="#FF0099"/>
<rect x="3" y="463.2" width="9.63667" height="11.04" fill="#3D7B3E"/>
<rect x="3" y="356.94" width="9.63667" height="9.66" fill="#FF0000"/>
<rect x="3" y="253.44" width="9.63667" height="9.65999" fill="#57FFEC"/>
<path d="M149.206 220.635C149.206 221.372 149.083 222.048 148.837 222.664C148.591 223.281 148.245 223.811 147.8 224.256C147.355 224.701 146.82 225.046 146.194 225.292C145.567 225.537 144.872 225.66 144.106 225.66H140.273V215.611H144.106C144.872 215.611 145.567 215.736 146.194 215.986C146.82 216.231 147.355 216.577 147.8 217.021C148.245 217.461 148.591 217.99 148.837 218.606C149.083 219.222 149.206 219.898 149.206 220.635ZM147.286 220.635C147.286 220.084 147.212 219.591 147.063 219.155C146.919 218.715 146.708 218.344 146.43 218.043C146.156 217.737 145.822 217.503 145.428 217.341C145.039 217.179 144.598 217.098 144.106 217.098H142.152V224.173H144.106C144.598 224.173 145.039 224.092 145.428 223.93C145.822 223.768 146.156 223.535 146.43 223.234C146.708 222.929 146.919 222.558 147.063 222.123C147.212 221.682 147.286 221.186 147.286 220.635ZM154.907 224.152C155.268 224.152 155.591 224.092 155.873 223.971C156.161 223.85 156.402 223.682 156.597 223.464C156.791 223.246 156.94 222.982 157.042 222.672C157.149 222.361 157.202 222.013 157.202 221.629V215.611H159.073V221.629C159.073 222.227 158.976 222.78 158.781 223.29C158.591 223.795 158.315 224.233 157.954 224.604C157.596 224.969 157.16 225.257 156.646 225.466C156.131 225.669 155.551 225.771 154.907 225.771C154.257 225.771 153.675 225.669 153.16 225.466C152.646 225.257 152.207 224.969 151.846 224.604C151.489 224.233 151.212 223.795 151.018 223.29C150.828 222.78 150.732 222.227 150.732 221.629V215.611H152.604V221.622C152.604 222.007 152.655 222.354 152.757 222.664C152.863 222.975 153.014 223.242 153.209 223.464C153.409 223.682 153.65 223.85 153.932 223.971C154.22 224.092 154.545 224.152 154.907 224.152ZM164.947 224.2C165.295 224.2 165.587 224.159 165.823 224.075C166.06 223.992 166.248 223.881 166.387 223.742C166.531 223.603 166.633 223.441 166.693 223.256C166.758 223.07 166.791 222.873 166.791 222.664C166.791 222.447 166.756 222.252 166.687 222.081C166.617 221.905 166.508 221.756 166.359 221.636C166.211 221.511 166.018 221.416 165.782 221.351C165.55 221.286 165.269 221.254 164.94 221.254H163.055V224.2H164.947ZM163.055 217.056V219.961H164.544C165.184 219.961 165.666 219.845 165.991 219.614C166.32 219.382 166.484 219.014 166.484 218.509C166.484 217.985 166.336 217.612 166.039 217.39C165.743 217.167 165.279 217.056 164.648 217.056H163.055ZM164.648 215.611C165.307 215.611 165.87 215.673 166.339 215.798C166.807 215.923 167.19 216.101 167.487 216.333C167.788 216.565 168.008 216.846 168.147 217.174C168.287 217.503 168.356 217.874 168.356 218.286C168.356 218.522 168.321 218.75 168.251 218.967C168.182 219.181 168.073 219.382 167.925 219.572C167.781 219.757 167.595 219.927 167.368 220.08C167.145 220.232 166.879 220.362 166.568 220.468C167.95 220.779 168.641 221.525 168.641 222.706C168.641 223.132 168.56 223.526 168.398 223.888C168.235 224.249 167.999 224.562 167.688 224.826C167.377 225.085 166.995 225.289 166.54 225.438C166.086 225.586 165.567 225.66 164.982 225.66H161.184V215.611H164.648Z" fill="black"/>
<rect x="267.32" y="253.44" width="9.63672" height="9.65999" fill="#FFF500"/>
<rect x="301.738" y="356.94" width="9.63666" height="9.66" fill="#0064FF"/>
<path d="M119.559 184.283C119.559 185.315 118.961 185.807 117.79 185.807H115.065V182.661H117.766C118.914 182.661 119.559 183.226 119.559 184.283ZM119.201 177.746C119.201 178.754 118.579 179.245 117.431 179.245H115.065V176.198H117.431C118.579 176.198 119.201 176.714 119.201 177.746ZM124.364 184.971C124.364 183.005 123.145 181.26 121.137 180.793C122.787 180.326 123.982 178.95 123.982 176.861C123.982 173.986 121.878 172.364 118.459 172.364H110.379V189.69H118.722C122.332 189.69 124.364 187.896 124.364 184.971Z" fill="black"/>
<path d="M129.669 184.185V189.69H134.379V184.185L140.308 172.364H135.024L132.06 179.049L129.096 172.364H123.74L129.669 184.185Z" fill="black"/>
<path d="M152.371 178.188C152.371 179.368 151.725 180.007 150.458 180.007H148.139V176.394H150.458C151.725 176.394 152.371 177.107 152.371 178.188ZM143.454 172.364V189.69H148.139V183.3H148.641L151.988 189.69H157.224L153.423 182.931C155.933 182.145 157.128 180.179 157.128 177.918C157.128 174.822 155.024 172.364 150.841 172.364H143.454Z" fill="black"/>
<path d="M168.607 172.364H157.825V189.69H168.607V185.831H162.51V182.71H167.89V179.049H162.51V176.222H168.607V172.364Z" fill="black"/>
<path d="M174.173 180.007V176.247H176.038C177.449 176.247 178.022 176.984 178.022 178.139C178.022 179.27 177.449 180.007 176.038 180.007H174.173ZM182.804 178.139C182.804 174.797 180.676 172.364 176.492 172.364H169.488V189.69H174.173V183.841H176.492C180.772 183.841 182.804 181.162 182.804 178.139Z" fill="black"/>
<path d="M194.034 172.364H183.252V189.69H194.034V185.831H187.938V182.71H193.317V179.049H187.938V176.222H194.034V172.364Z" fill="black"/>
<path d="M206.486 189.69H211.435L205.314 172.364H199.911L193.767 189.69H198.692L199.601 186.863H205.577L206.486 189.69ZM204.406 183.177H200.796L202.589 177.574L204.406 183.177Z" fill="black"/>
<path d="M210.595 176.198H215.042V189.69H219.727V176.198H224.222V172.364H210.595V176.198Z" fill="black"/>
<path d="M224.521 189.69H229.207V172.364H224.521V189.69Z" fill="black"/>
<path d="M241.366 172.364V182.17L235.127 172.364H230.441V189.69H235.127V180.007L241.366 189.69H246.052V172.364H241.366Z" fill="black"/>
<path d="M255.248 172.192C250.084 172.192 246.713 175.829 246.713 180.99C246.713 186.175 250.108 189.813 255.272 189.813C259.671 189.813 262.277 187.011 263.281 184.48V179.81H254.531V183.275H259.24C258.547 184.775 257.352 185.561 255.726 185.561C252.953 185.561 251.471 183.964 251.471 180.99C251.471 178.336 252.905 176.64 255.272 176.64C256.563 176.64 257.519 177.156 258.045 178.066H263.089C262.42 174.453 259.503 172.192 255.248 172.192Z" fill="black"/>
<path d="M267.088 172.364V189.69H277.009V186.003H271.773V172.364H267.088Z" fill="black"/>
<path d="M294.107 180.965C294.107 175.755 290.282 172.094 285.477 172.094C280.696 172.094 276.823 175.755 276.823 180.965C276.823 186.175 280.696 189.862 285.477 189.862C290.258 189.862 294.107 186.175 294.107 180.965ZM281.604 180.965C281.604 178.238 283.039 176.517 285.477 176.517C287.892 176.517 289.35 178.238 289.35 180.965C289.35 183.644 287.892 185.389 285.477 185.389C283.039 185.389 281.604 183.644 281.604 180.965Z" fill="black"/>
<path d="M311.49 180.965C311.49 175.755 307.665 172.094 302.86 172.094C298.079 172.094 294.206 175.755 294.206 180.965C294.206 186.175 298.079 189.862 302.86 189.862C307.641 189.862 311.49 186.175 311.49 180.965ZM298.987 180.965C298.987 178.238 300.421 176.517 302.86 176.517C305.275 176.517 306.733 178.238 306.733 180.965C306.733 183.644 305.275 185.389 302.86 185.389C300.421 185.389 298.987 183.644 298.987 180.965Z" fill="black"/>
<path d="M316.848 180.007V176.247H318.713C320.123 176.247 320.697 176.984 320.697 178.139C320.697 179.27 320.123 180.007 318.713 180.007H316.848ZM325.478 178.139C325.478 174.797 323.351 172.364 319.167 172.364H312.162V189.69H316.848V183.841H319.167C323.446 183.841 325.478 181.162 325.478 178.139Z" fill="black"/>
<path d="M338.573 184.431C338.573 178.877 330.469 179.712 330.469 177.132C330.469 176.296 331.019 175.878 331.712 175.903C332.573 175.903 333.218 176.394 333.266 177.476H338.358C338.191 174.035 335.657 172.094 331.784 172.094C328.222 172.094 325.472 173.912 325.472 177.304C325.401 183.325 333.577 182.022 333.601 184.799C333.601 185.61 332.955 186.053 332.118 186.053C331.258 186.053 330.517 185.61 330.421 184.308H325.425C325.616 188.019 328.532 189.862 332.286 189.862C336.278 189.862 338.573 187.478 338.573 184.431Z" fill="black"/>
<path d="M380.094 176.714C380.142 174.305 378.349 172.02 374.715 172.02C371.153 172.02 369.193 174.133 369.193 176.665C369.193 177.721 369.503 178.631 370.316 179.687C368.141 180.793 367.113 182.612 367.113 184.652C367.113 187.822 369.623 189.96 373.639 189.96C375.767 189.96 377.56 189.419 379.066 188.363L380.429 189.69H385.712L381.696 185.659C382.413 184.652 383.035 183.448 383.585 182.096L384.278 180.72H379.64L379.162 181.604C379.018 181.973 378.875 182.317 378.708 182.661L374.763 178.704C373.974 177.893 373.568 177.23 373.568 176.616C373.568 175.952 374.07 175.559 374.691 175.559C375.265 175.559 375.767 175.927 375.767 176.714H380.094ZM373.95 186.102C372.468 186.102 371.631 185.242 371.631 184.234C371.631 183.521 372.038 182.809 372.874 182.292L376.197 185.536C375.552 185.905 374.811 186.102 373.95 186.102Z" fill="black"/>
<rect x="311.375" y="464.58" width="9.63669" height="9.65997" fill="#F88500"/>
<rect x="344.414" y="172.02" width="17.8967" height="17.94" fill="#0064FF"/>
<rect x="389.844" y="172.02" width="17.8967" height="17.94" fill="#FF0099"/>
<path d="M20.7452 257.925V254.792H22.4798C23.705 254.792 24.2557 255.372 24.2557 256.366C24.2557 257.332 23.705 257.925 22.4798 257.925H20.7452ZM25.8664 256.366C25.8664 254.806 24.7513 253.509 22.4798 253.509H19.1758V263.1H20.7452V259.208H22.4798C24.9715 259.208 25.8664 257.732 25.8664 256.366Z" fill="black"/>
<path d="M32.4431 256.379C32.4431 257.332 31.8924 258.008 30.6672 258.008H28.9326V254.792H30.6672C31.8924 254.792 32.4431 255.413 32.4431 256.379ZM27.3632 253.509V263.1H28.9326V259.264H30.1303L32.333 263.1H34.2052L31.8374 259.126C33.4481 258.725 34.0538 257.511 34.0538 256.379C34.0538 254.82 32.9387 253.509 30.6672 253.509H27.3632Z" fill="black"/>
<path d="M41.3479 253.495H36.0615V263.1H41.3479V261.817H37.6309V258.877H40.9349V257.594H37.6309V254.779H41.3479V253.495Z" fill="black"/>
<path d="M49.7375 260.381C49.7375 256.876 44.6713 258.229 44.6713 256.062C44.6713 255.137 45.3734 254.696 46.282 254.723C47.2732 254.751 47.8377 255.344 47.8927 255.993H49.6273C49.4897 254.351 48.1956 253.385 46.3646 253.385C44.4098 253.385 43.0744 254.434 43.0744 256.117C43.0744 259.65 48.1543 258.146 48.1543 260.464C48.1543 261.278 47.5348 261.872 46.4335 261.872C45.3459 261.872 44.7952 261.237 44.7264 260.45H43.0469C43.0469 262.148 44.5199 263.197 46.4335 263.197C48.5673 263.197 49.7375 261.817 49.7375 260.381Z" fill="black"/>
<path d="M56.8757 253.495H51.5893V263.1H56.8757V261.817H53.1587V258.877H56.4627V257.594H53.1587V254.779H56.8757V253.495Z" fill="black"/>
<path d="M58.3131 254.792H60.8737V263.1H62.4431V254.792H64.99V253.509H58.3131V254.792Z" fill="black"/>
<path d="M75.4419 253.495H70.1555V263.1H75.4419V261.817H71.7249V258.877H75.0289V257.594H71.7249V254.779H75.4419V253.495Z" fill="black"/>
<path d="M80.4999 253.509H77.3749V263.1H80.4999C83.5699 263.1 85.5798 261.292 85.5798 258.339C85.5798 255.372 83.5699 253.509 80.4999 253.509ZM78.9443 261.817V254.792H80.4999C82.7577 254.792 83.9691 256.145 83.9691 258.339C83.9691 260.519 82.7577 261.817 80.4999 261.817H78.9443Z" fill="black"/>
<path d="M87.1353 263.1H88.7047V253.509H87.1353V263.1Z" fill="black"/>
<path d="M90.2695 254.792H92.8301V263.1H94.3995V254.792H96.9464V253.509H90.2695V254.792Z" fill="black"/>
<path d="M104.992 260.381C104.992 256.876 99.9262 258.229 99.9262 256.062C99.9262 255.137 100.628 254.696 101.537 254.723C102.528 254.751 103.093 255.344 103.148 255.993H104.882C104.745 254.351 103.45 253.385 101.62 253.385C99.6646 253.385 98.3293 254.434 98.3293 256.117C98.3293 259.65 103.409 258.146 103.409 260.464C103.409 261.278 102.79 261.872 101.688 261.872C100.601 261.872 100.05 261.237 99.9813 260.45H98.3017C98.3017 262.148 99.7748 263.197 101.688 263.197C103.822 263.197 104.992 261.817 104.992 260.381Z" fill="black"/>
<path d="M110.228 265.515H111.769L115.514 250.073H113.958L110.228 265.515Z" fill="black"/>
<path d="M127.525 260.381C127.525 256.876 122.458 258.229 122.458 256.062C122.458 255.137 123.16 254.696 124.069 254.723C125.06 254.751 125.625 255.344 125.68 255.993H127.414C127.277 254.351 125.983 253.385 124.152 253.385C122.197 253.385 120.861 254.434 120.861 256.117C120.861 259.65 125.941 258.146 125.941 260.464C125.941 261.278 125.322 261.872 124.221 261.872C123.133 261.872 122.582 261.237 122.513 260.45H120.834C120.834 262.148 122.307 263.197 124.221 263.197C126.354 263.197 127.525 261.817 127.525 260.381Z" fill="black"/>
<path d="M128.881 254.792H131.441V263.1H133.011V254.792H135.558V253.509H128.881V254.792Z" fill="black"/>
<path d="M143.604 263.1H145.256L141.828 253.495H140.01L136.583 263.1H138.221L138.909 261.14H142.915L143.604 263.1ZM142.475 259.857H139.35L140.919 255.4L142.475 259.857Z" fill="black"/>
<path d="M151.826 256.379C151.826 257.332 151.275 258.008 150.05 258.008H148.315V254.792H150.05C151.275 254.792 151.826 255.413 151.826 256.379ZM146.746 253.509V263.1H148.315V259.264H149.513L151.716 263.1H153.588L151.22 259.126C152.831 258.725 153.437 257.511 153.437 256.379C153.437 254.82 152.321 253.509 150.05 253.509H146.746Z" fill="black"/>
<path d="M154.949 254.792H157.509V263.1H159.079V254.792H161.626V253.509H154.949V254.792Z" fill="black"/>
<path d="M168.36 257.925V254.792H170.095C171.32 254.792 171.871 255.372 171.871 256.366C171.871 257.332 171.32 257.925 170.095 257.925H168.36ZM173.482 256.366C173.482 254.806 172.367 253.509 170.095 253.509H166.791V263.1H168.36V259.208H170.095C172.587 259.208 173.482 257.732 173.482 256.366Z" fill="black"/>
<path d="M184.23 258.284C184.23 255.413 182.068 253.385 179.342 253.385C176.644 253.385 174.455 255.413 174.455 258.284C174.455 261.168 176.644 263.197 179.342 263.197C182.068 263.197 184.23 261.168 184.23 258.284ZM176.066 258.284C176.066 256.117 177.443 254.765 179.342 254.765C181.242 254.765 182.619 256.117 182.619 258.284C182.619 260.45 181.242 261.83 179.342 261.83C177.443 261.83 176.066 260.45 176.066 258.284Z" fill="black"/>
<path d="M185.774 263.1H187.343V253.509H185.774V263.1Z" fill="black"/>
<path d="M195.695 253.495V260.644L190.973 253.495H189.404V263.1H190.973V255.938L195.695 263.1H197.265V253.495H195.695Z" fill="black"/>
<path d="M198.83 254.792H201.391V263.1H202.96V254.792H205.507V253.509H198.83V254.792Z" fill="black"/>
<path d="M213.553 260.381C213.553 256.876 208.487 258.229 208.487 256.062C208.487 255.137 209.189 254.696 210.097 254.723C211.088 254.751 211.653 255.344 211.708 255.993H213.443C213.305 254.351 212.011 253.385 210.18 253.385C208.225 253.385 206.89 254.434 206.89 256.117C206.89 259.65 211.97 258.146 211.97 260.464C211.97 261.278 211.35 261.872 210.249 261.872C209.161 261.872 208.61 261.237 208.542 260.45H206.862C206.862 262.148 208.335 263.197 210.249 263.197C212.383 263.197 213.553 261.817 213.553 260.381Z" fill="black"/>
<path d="M20.7452 361.425V358.292H22.4798C23.705 358.292 24.2557 358.872 24.2557 359.866C24.2557 360.832 23.705 361.425 22.4798 361.425H20.7452ZM25.8664 359.866C25.8664 358.306 24.7513 357.009 22.4798 357.009H19.1758V366.6H20.7452V362.708H22.4798C24.9715 362.708 25.8664 361.232 25.8664 359.866Z" fill="black"/>
<path d="M27.3632 357.009V366.6H32.1677V365.33H28.9326V357.009H27.3632Z" fill="black"/>
<path d="M39.9368 366.6H41.5888L38.1609 356.995H36.3437L32.9158 366.6H34.554L35.2423 364.64H39.2484L39.9368 366.6ZM38.8079 363.357H35.6829L37.2523 358.9L38.8079 363.357Z" fill="black"/>
<path d="M45.4333 363.122V366.6H47.0027V363.122L50.1691 357.009H48.4345L46.218 361.715L44.0016 357.009H42.2532L45.4333 363.122Z" fill="black"/>
<path d="M54.9906 357.009V366.6H59.7952V365.33H56.56V357.009H54.9906Z" fill="black"/>
<path d="M70.3588 361.784C70.3588 358.913 68.1975 356.885 65.4717 356.885C62.7734 356.885 60.5845 358.913 60.5845 361.784C60.5845 364.668 62.7734 366.697 65.4717 366.697C68.1975 366.697 70.3588 364.668 70.3588 361.784ZM62.1952 361.784C62.1952 359.617 63.5719 358.265 65.4717 358.265C67.3715 358.265 68.7481 359.617 68.7481 361.784C68.7481 363.95 67.3715 365.33 65.4717 365.33C63.5719 365.33 62.1952 363.95 62.1952 361.784Z" fill="black"/>
<path d="M81.1544 361.784C81.1544 358.913 78.993 356.885 76.2672 356.885C73.569 356.885 71.3801 358.913 71.3801 361.784C71.3801 364.668 73.569 366.697 76.2672 366.697C78.993 366.697 81.1544 364.668 81.1544 361.784ZM72.9908 361.784C72.9908 359.617 74.3674 358.265 76.2672 358.265C78.167 358.265 79.5437 359.617 79.5437 361.784C79.5437 363.95 78.167 365.33 76.2672 365.33C74.3674 365.33 72.9908 363.95 72.9908 361.784Z" fill="black"/>
<path d="M84.2681 361.425V358.292H86.0027C87.228 358.292 87.7786 358.872 87.7786 359.866C87.7786 360.832 87.228 361.425 86.0027 361.425H84.2681ZM89.3893 359.866C89.3893 358.306 88.2742 357.009 86.0027 357.009H82.6987V366.6H84.2681V362.708H86.0027C88.4945 362.708 89.3893 361.232 89.3893 359.866Z" fill="black"/>
<path d="M20.7452 469.065V465.932H22.4798C23.705 465.932 24.2557 466.512 24.2557 467.506C24.2557 468.472 23.705 469.065 22.4798 469.065H20.7452ZM25.8664 467.506C25.8664 465.946 24.7513 464.649 22.4798 464.649H19.1758V474.24H20.7452V470.348H22.4798C24.9715 470.348 25.8664 468.872 25.8664 467.506Z" fill="black"/>
<path d="M27.3632 464.649V474.24H32.1677V472.97H28.9326V464.649H27.3632Z" fill="black"/>
<path d="M39.9368 474.24H41.5888L38.1609 464.635H36.3437L32.9158 474.24H34.554L35.2423 472.28H39.2484L39.9368 474.24ZM38.8079 470.997H35.6829L37.2523 466.54L38.8079 470.997Z" fill="black"/>
<path d="M45.4333 470.762V474.24H47.0027V470.762L50.1691 464.649H48.4345L46.218 469.355L44.0016 464.649H42.2532L45.4333 470.762Z" fill="black"/>
<path d="M60.277 464.635H54.9906V474.24H60.277V472.957H56.56V470.017H59.864V468.734H56.56V465.919H60.277V464.635Z" fill="black"/>
<path d="M65.3351 464.649H62.2101V474.24H65.3351C68.4051 474.24 70.415 472.432 70.415 469.479C70.415 466.512 68.4051 464.649 65.3351 464.649ZM63.7795 472.957V465.932H65.3351C67.5928 465.932 68.8043 467.285 68.8043 469.479C68.8043 471.659 67.5928 472.957 65.3351 472.957H63.7795Z" fill="black"/>
<path d="M71.9704 474.24H73.5398V464.649H71.9704V474.24Z" fill="black"/>
<path d="M75.1047 465.932H77.6653V474.24H79.2347V465.932H81.7815V464.649H75.1047V465.932Z" fill="black"/>
<path d="M139.316 464.649H136.191V474.24H139.316C142.386 474.24 144.396 472.432 144.396 469.479C144.396 466.512 142.386 464.649 139.316 464.649ZM137.761 472.957V465.932H139.316C141.574 465.932 142.786 467.285 142.786 469.479C142.786 471.659 141.574 472.957 139.316 472.957H137.761Z" fill="black"/>
<path d="M155.203 469.424C155.203 466.553 153.042 464.525 150.316 464.525C147.618 464.525 145.429 466.553 145.429 469.424C145.429 472.308 147.618 474.337 150.316 474.337C153.042 474.337 155.203 472.308 155.203 469.424ZM147.039 469.424C147.039 467.257 148.416 465.905 150.316 465.905C152.216 465.905 153.592 467.257 153.592 469.424C153.592 471.59 152.216 472.97 150.316 472.97C148.416 472.97 147.039 471.59 147.039 469.424Z" fill="black"/>
<path d="M158.688 474.254L160.451 474.24L162.584 466.981L164.594 474.24H166.37L169.206 464.649H167.527L165.53 472.418L163.534 464.649H161.772L159.625 472.46L157.642 464.649H155.976L158.688 474.254Z" fill="black"/>
<path d="M176.792 464.635V471.784L172.07 464.635H170.501V474.24H172.07V467.078L176.792 474.24H178.361V464.635H176.792Z" fill="black"/>
<path d="M180.422 464.649V474.24H185.227V472.97H181.992V464.649H180.422Z" fill="black"/>
<path d="M195.79 469.424C195.79 466.553 193.629 464.525 190.903 464.525C188.205 464.525 186.016 466.553 186.016 469.424C186.016 472.308 188.205 474.337 190.903 474.337C193.629 474.337 195.79 472.308 195.79 469.424ZM187.627 469.424C187.627 467.257 189.003 465.905 190.903 465.905C192.803 465.905 194.18 467.257 194.18 469.424C194.18 471.59 192.803 472.97 190.903 472.97C189.003 472.97 187.627 471.59 187.627 469.424Z" fill="black"/>
<path d="M203.791 474.24H205.443L202.015 464.635H200.198L196.77 474.24H198.409L199.097 472.28H203.103L203.791 474.24ZM202.662 470.997H199.537L201.107 466.54L202.662 470.997Z" fill="black"/>
<path d="M210.059 464.649H206.934V474.24H210.059C213.129 474.24 215.139 472.432 215.139 469.479C215.139 466.512 213.129 464.649 210.059 464.649ZM208.503 472.957V465.932H210.059C212.317 465.932 213.528 467.285 213.528 469.479C213.528 471.659 212.317 472.957 210.059 472.957H208.503Z" fill="black"/>
<path d="M221.895 473.329C221.895 472.763 221.454 472.322 220.904 472.322C220.339 472.322 219.899 472.763 219.899 473.329C219.899 473.895 220.339 474.337 220.904 474.337C221.454 474.337 221.895 473.895 221.895 473.329Z" fill="black"/>
<path d="M225.532 474.254L227.294 474.24L229.428 466.981L231.438 474.24H233.214L236.05 464.649H234.37L232.374 472.418L230.378 464.649H228.616L226.468 472.46L224.486 464.649H222.82L225.532 474.254Z" fill="black"/>
<path d="M243.801 474.24H245.453L242.025 464.635H240.208L236.78 474.24H238.418L239.106 472.28H243.112L243.801 474.24ZM242.672 470.997H239.547L241.116 466.54L242.672 470.997Z" fill="black"/>
<path d="M250.688 472.625L247.852 464.649H246.172L249.779 474.24H251.596L255.189 464.649H253.537L250.688 472.625Z" fill="black"/>
<path d="M332.631 467.519C332.631 468.472 332.08 469.148 330.855 469.148H329.12V465.932H330.855C332.08 465.932 332.631 466.553 332.631 467.519ZM327.551 464.649V474.24H329.12V470.404H330.318L332.521 474.24H334.393L332.025 470.266C333.636 469.865 334.241 468.651 334.241 467.519C334.241 465.96 333.126 464.649 330.855 464.649H327.551Z" fill="black"/>
<path d="M341.535 464.635H336.249V474.24H341.535V472.957H337.818V470.017H341.122V468.734H337.818V465.919H341.535V464.635Z" fill="black"/>
<path d="M345.038 469.065V465.932H346.772C347.998 465.932 348.548 466.512 348.548 467.506C348.548 468.472 347.998 469.065 346.772 469.065H345.038ZM350.159 467.506C350.159 465.946 349.044 464.649 346.772 464.649H343.468V474.24H345.038V470.348H346.772C349.264 470.348 350.159 468.872 350.159 467.506Z" fill="black"/>
<path d="M356.942 464.635H351.656V474.24H356.942V472.957H353.225V470.017H356.529V468.734H353.225V465.919H356.942V464.635Z" fill="black"/>
<path d="M365.332 474.24H366.984L363.556 464.635H361.739L358.311 474.24H359.949L360.637 472.28H364.644L365.332 474.24ZM364.203 470.997H361.078L362.647 466.54L364.203 470.997Z" fill="black"/>
<path d="M367.979 465.932H370.539V474.24H372.109V465.932H374.656V464.649H367.979V465.932Z" fill="black"/>
<path d="M385.107 464.635H379.821V474.24H385.107V472.957H381.39V470.017H384.694V468.734H381.39V465.919H385.107V464.635Z" fill="black"/>
<path d="M390.166 464.649H387.041V474.24H390.166C393.236 474.24 395.245 472.432 395.245 469.479C395.245 466.512 393.236 464.649 390.166 464.649ZM388.61 472.957V465.932H390.166C392.423 465.932 393.635 467.285 393.635 469.479C393.635 471.659 392.423 472.957 390.166 472.957H388.61Z" fill="black"/>
<path d="M396.801 474.24H398.37V464.649H396.801V474.24Z" fill="black"/>
<path d="M399.935 465.932H402.496V474.24H404.065V465.932H406.612V464.649H399.935V465.932Z" fill="black"/>
<path d="M322.994 359.879C322.994 360.832 322.443 361.508 321.218 361.508H319.483V358.292H321.218C322.443 358.292 322.994 358.913 322.994 359.879ZM317.914 357.009V366.6H319.483V362.764H320.681L322.884 366.6H324.756L322.388 362.626C323.999 362.225 324.605 361.011 324.605 359.879C324.605 358.32 323.49 357.009 321.218 357.009H317.914Z" fill="black"/>
<path d="M331.899 356.995H326.612V366.6H331.899V365.317H328.182V362.377H331.486V361.094H328.182V358.279H331.899V356.995Z" fill="black"/>
<path d="M335.401 361.425V358.292H337.136C338.361 358.292 338.912 358.872 338.912 359.866C338.912 360.832 338.361 361.425 337.136 361.425H335.401ZM340.522 359.866C340.522 358.306 339.407 357.009 337.136 357.009H333.832V366.6H335.401V362.708H337.136C339.628 362.708 340.522 361.232 340.522 359.866Z" fill="black"/>
<path d="M347.306 356.995H342.019V366.6H347.306V365.317H343.589V362.377H346.893V361.094H343.589V358.279H347.306V356.995Z" fill="black"/>
<path d="M355.695 366.6H357.347L353.919 356.995H352.102L348.674 366.6H350.312L351.001 364.64H355.007L355.695 366.6ZM354.566 363.357H351.441L353.011 358.9L354.566 363.357Z" fill="black"/>
<path d="M358.342 358.292H360.903V366.6H362.472V358.292H365.019V357.009H358.342V358.292Z" fill="black"/>
<path d="M370.184 357.009V366.6H374.989V365.33H371.754V357.009H370.184Z" fill="black"/>
<path d="M385.553 361.784C385.553 358.913 383.391 356.885 380.665 356.885C377.967 356.885 375.778 358.913 375.778 361.784C375.778 364.668 377.967 366.697 380.665 366.697C383.391 366.697 385.553 364.668 385.553 361.784ZM377.389 361.784C377.389 359.617 378.766 358.265 380.665 358.265C382.565 358.265 383.942 359.617 383.942 361.784C383.942 363.95 382.565 365.33 380.665 365.33C378.766 365.33 377.389 363.95 377.389 361.784Z" fill="black"/>
<path d="M396.348 361.784C396.348 358.913 394.187 356.885 391.461 356.885C388.763 356.885 386.574 358.913 386.574 361.784C386.574 364.668 388.763 366.697 391.461 366.697C394.187 366.697 396.348 364.668 396.348 361.784ZM388.184 361.784C388.184 359.617 389.561 358.265 391.461 358.265C393.361 358.265 394.737 359.617 394.737 361.784C394.737 363.95 393.361 365.33 391.461 365.33C389.561 365.33 388.184 363.95 388.184 361.784Z" fill="black"/>
<path d="M399.462 361.425V358.292H401.196C402.422 358.292 402.972 358.872 402.972 359.866C402.972 360.832 402.422 361.425 401.196 361.425H399.462ZM404.583 359.866C404.583 358.306 403.468 357.009 401.196 357.009H397.892V366.6H399.462V362.708H401.196C403.688 362.708 404.583 361.232 404.583 359.866Z" fill="black"/>
<path d="M289.457 253.509H283.152V254.875H287.585L283.152 261.872V263.1H289.457V261.734H285.011L289.457 254.737V253.509Z" fill="black"/>
<path d="M295.633 253.495H290.347V263.1H295.633V261.817H291.916V258.877H295.22V257.594H291.916V254.779H295.633V253.495Z" fill="black"/>
<path d="M301.82 256.379C301.82 257.332 301.27 258.008 300.044 258.008H298.31V254.792H300.044C301.27 254.792 301.82 255.413 301.82 256.379ZM296.74 253.509V263.1H298.31V259.264H299.508L301.71 263.1H303.583L301.215 259.126C302.825 258.725 303.431 257.511 303.431 256.379C303.431 254.82 302.316 253.509 300.044 253.509H296.74Z" fill="black"/>
<path d="M313.864 258.284C313.864 255.413 311.703 253.385 308.977 253.385C306.279 253.385 304.09 255.413 304.09 258.284C304.09 261.168 306.279 263.197 308.977 263.197C311.703 263.197 313.864 261.168 313.864 258.284ZM305.7 258.284C305.7 256.117 307.077 254.765 308.977 254.765C310.877 254.765 312.253 256.117 312.253 258.284C312.253 260.45 310.877 261.83 308.977 261.83C307.077 261.83 305.7 260.45 305.7 258.284Z" fill="black"/>
<path d="M326.584 258.284C326.584 255.413 324.422 253.385 321.696 253.385C318.998 253.385 316.809 255.413 316.809 258.284C316.809 261.168 318.998 263.197 321.696 263.197C324.422 263.197 326.584 261.168 326.584 258.284ZM318.42 258.284C318.42 256.117 319.797 254.765 321.696 254.765C323.596 254.765 324.973 256.117 324.973 258.284C324.973 260.45 323.596 261.83 321.696 261.83C319.797 261.83 318.42 260.45 318.42 258.284Z" fill="black"/>
<path d="M327.288 259.595C327.288 262.037 328.995 263.197 331.005 263.197C333.001 263.197 334.763 262.037 334.763 259.595V253.509H333.194V259.622C333.194 261.113 332.354 261.817 331.019 261.817C329.697 261.817 328.858 261.113 328.858 259.622V253.509H327.288V259.595Z" fill="black"/>
<path d="M335.485 254.792H338.046V263.1H339.615V254.792H342.162V253.509H335.485V254.792Z" fill="black"/>
<path d="M352.132 263.1H353.784L350.356 253.495H348.539L345.111 263.1H346.749L347.438 261.14H351.444L352.132 263.1ZM351.003 259.857H347.878L349.448 255.4L351.003 259.857Z" fill="black"/>
<path d="M354.449 253.509V263.1H359.253V261.83H356.018V253.509H354.449Z" fill="black"/>
<path d="M359.74 253.509V263.1H364.544V261.83H361.309V253.509H359.74Z" fill="black"/>
<path d="M367.781 253.509V263.1H372.585V261.83H369.35V253.509H367.781Z" fill="black"/>
<path d="M382.323 258.284C382.323 255.413 380.162 253.385 377.436 253.385C374.738 253.385 372.549 255.413 372.549 258.284C372.549 261.168 374.738 263.197 377.436 263.197C380.162 263.197 382.323 261.168 382.323 258.284ZM374.159 258.284C374.159 256.117 375.536 254.765 377.436 254.765C379.336 254.765 380.712 256.117 380.712 258.284C380.712 260.45 379.336 261.83 377.436 261.83C375.536 261.83 374.159 260.45 374.159 258.284Z" fill="black"/>
<path d="M392.293 258.284C392.293 255.413 390.131 253.385 387.405 253.385C384.707 253.385 382.518 255.413 382.518 258.284C382.518 261.168 384.707 263.197 387.405 263.197C390.131 263.197 392.293 261.168 392.293 258.284ZM384.129 258.284C384.129 256.117 385.506 254.765 387.405 254.765C389.305 254.765 390.682 256.117 390.682 258.284C390.682 260.45 389.305 261.83 387.405 261.83C385.506 261.83 384.129 260.45 384.129 258.284Z" fill="black"/>
<path d="M394.58 257.925V254.792H396.315C397.54 254.792 398.091 255.372 398.091 256.366C398.091 257.332 397.54 257.925 396.315 257.925H394.58ZM399.702 256.366C399.702 254.806 398.586 253.509 396.315 253.509H393.011V263.1H394.58V259.208H396.315C398.807 259.208 399.702 257.732 399.702 256.366Z" fill="black"/>
<path d="M406.829 260.381C406.829 256.876 401.763 258.229 401.763 256.062C401.763 255.137 402.465 254.696 403.373 254.723C404.365 254.751 404.929 255.344 404.984 255.993H406.719C406.581 254.351 405.287 253.385 403.456 253.385C401.501 253.385 400.166 254.434 400.166 256.117C400.166 259.65 405.246 258.146 405.246 260.464C405.246 261.278 404.626 261.872 403.525 261.872C402.437 261.872 401.887 261.237 401.818 260.45H400.138C400.138 262.148 401.611 263.197 403.525 263.197C405.659 263.197 406.829 261.817 406.829 260.381Z" fill="black"/>
<rect opacity="0.5" x="305.867" y="207.555" width="101.57" height="25.806" fill="#FFF500"/>
<path d="M40.8023 143.633H39.9128C27.1397 143.633 16.7852 154.012 16.7852 166.816C16.7852 179.62 27.1397 190 39.9128 190H40.8023C53.5753 190 63.9299 179.62 63.9299 166.816C63.9299 154.012 53.5753 143.633 40.8023 143.633Z" fill="#515151" fill-opacity="0.1"/>
<path d="M15.2542 181.045C12.3992 181.872 9.11436 182.723 6.93641 183.16C8.00192 182.241 9.34163 181.18 10.0701 180.572C12.3339 178.754 12.5296 178.605 12.3469 177.826C12.1699 177.072 11.8686 176.989 9.57936 176.295C8.72964 176.059 7.24161 175.614 6.23053 175.236C7.55739 174.229 10.0597 172.664 11.1881 172.012C11.6236 172.449 12.3075 173.289 12.883 174.104C13.2628 174.631 14.0111 174.763 14.5367 174.382C15.0623 174.001 15.1753 173.281 14.7897 172.73C12.2738 169.214 11.5454 169.385 10.9627 169.523C10.38 169.66 7.04644 171.833 6.99787 171.844C3.37725 174.213 3.04724 174.882 3.19281 175.72C3.37116 176.809 4.49649 177.237 8.85213 178.547C8.79075 178.613 8.70505 178.685 8.61365 178.732C3.65745 182.725 2.779 183.677 3.04163 184.797C3.12156 185.138 3.34718 185.444 3.67132 185.624C3.97123 185.81 4.59527 186.177 9.37828 185.05C11.0292 184.66 13.1544 184.108 15.9123 183.304C16.5321 183.106 16.8921 182.457 16.7193 181.829C16.5466 181.202 15.874 180.847 15.2542 181.045Z" fill="black"/>
<path d="M26.9769 162.924C26.3244 162.872 25.7671 163.337 25.6857 163.973L24.8291 172.881C24.105 171.434 23.2115 170.027 22.2673 169.607C21.8403 169.425 21.3747 169.406 20.9548 169.583C19.081 170.332 17.3104 180.15 17.2744 182.29C17.2473 182.939 17.214 184.436 18.3267 184.919C18.5309 185.025 18.8733 185.175 19.4075 185.049C20.3544 184.826 21.8772 183.671 24.1855 179.531L23.9094 182.396C23.828 183.031 24.2976 183.614 24.9505 183.666C25.0831 183.686 25.2103 183.681 25.3317 183.653C25.8174 183.538 26.1856 183.143 26.2417 182.617L28.0234 164.218C28.0995 163.558 27.6053 162.981 26.9769 162.924ZM19.5992 182.153C19.7112 179.79 20.9415 174.44 21.7998 172.311C22.2797 173.046 22.9451 174.353 23.5006 175.737C22.1677 178.466 20.5892 181.021 19.5992 182.153Z" fill="black"/>
<path d="M29.8141 172.707C29.1616 172.655 28.6159 173.169 28.5888 173.818C28.5728 174.078 28.3166 180.303 28.2819 181.467C28.2606 182.14 28.7676 182.662 29.4387 182.684C29.5174 182.691 29.6144 182.668 29.7114 182.645C30.2215 182.525 30.6027 182.075 30.6285 181.53C30.6387 180.372 30.9336 173.984 30.9465 173.93C30.9736 173.281 30.4612 172.734 29.8141 172.707ZM30.3234 166.577C29.6709 166.525 29.0896 166.996 29.0322 167.626L28.7849 170.176C28.7089 170.836 29.179 171.418 29.8314 171.47C29.9644 171.49 30.0916 171.486 30.2126 171.457C30.6983 171.343 31.067 170.948 31.1226 170.421L31.3699 167.871C31.4215 167.217 30.9576 166.659 30.3234 166.577Z" fill="black"/>
<path d="M41.4288 168.017C39.9504 168.16 38.5494 168.413 37.3241 168.651L37.373 166.893C37.4001 166.244 36.8873 165.697 36.2406 165.67C35.5748 165.673 35.0536 166.181 35.0264 166.829L34.969 169.206C33.6334 169.52 32.7768 169.8 32.7039 169.817C32.0897 170.039 31.7539 170.683 31.9509 171.304C32.1479 171.925 32.8151 172.256 33.4346 172.059C33.4346 172.059 33.9817 171.878 34.8743 171.642L34.6435 179.941C34.6404 180.584 35.1287 181.137 35.7941 181.134C35.9026 181.16 36 181.137 36.097 181.114C36.5826 180.999 36.9638 180.55 36.9896 180.005L37.2538 171.081C38.5463 170.802 40.0687 170.521 41.6681 170.349C41.717 170.338 41.7655 170.326 41.8139 170.315C42.3966 170.177 42.7853 169.649 42.7208 169.048C42.6452 168.398 42.0772 167.941 41.4288 168.017Z" fill="black"/>
<path d="M59.9465 154.278C53.8893 155.218 38.5477 160.812 37.885 161.045C37.2952 161.261 36.9652 161.93 37.1862 162.546C37.3962 163.113 37.9846 163.436 38.5672 163.299C38.6157 163.287 38.6584 163.252 38.6829 163.246C38.7558 163.229 41.1878 162.347 44.483 161.211L43.0784 175.54C43.0269 176.194 43.4912 176.752 44.125 176.834C44.258 176.854 44.3794 176.825 44.5008 176.797C44.9865 176.682 45.3547 176.287 45.4166 175.785L46.9265 160.378C51.6797 158.795 57.2939 157.061 60.2889 156.612C60.9258 156.487 61.3755 155.893 61.2816 155.273C61.1816 154.629 60.5647 154.184 59.9465 154.278Z" fill="black"/>
<path d="M52.4538 172.918C52.581 172.914 52.7139 172.934 52.8354 172.905C52.8594 172.9 52.8838 172.894 52.9083 172.888C53.3935 172.774 53.7849 172.476 54.0509 172.079C56.1493 168.682 56.5971 162.182 55.246 161.01C54.9836 160.764 54.549 160.661 54.2034 160.717C53.7796 160.765 53.1667 160.884 50.6058 164.929L50.6787 163.602C50.7058 162.954 50.2175 162.401 49.5948 162.368C48.9419 162.317 48.3664 162.812 48.3393 163.46L47.9972 169.32C47.9345 169.489 47.9256 169.671 47.9657 169.841L47.419 178.651C47.3919 179.299 47.8803 179.852 48.527 179.879C48.6355 179.905 48.7569 179.877 48.8543 179.854C49.364 179.734 49.7269 179.314 49.758 178.793L50.06 174.073L60.6307 185.712C60.906 185.904 61.256 185.975 61.5958 185.895C61.8631 185.832 62.0828 185.678 62.2616 185.456C62.6499 184.927 62.5272 184.186 62.0006 183.796L52.4538 172.918ZM53.6475 164.572C53.5932 166.306 53.2388 168.726 52.2087 170.562C51.8289 170.471 51.1075 170.128 50.4421 169.694C51.5264 167.872 52.7388 165.942 53.6475 164.572Z" fill="black"/>
<path d="M65.4771 161.064C64.8246 161.012 64.2674 161.478 64.1917 162.138L64.0614 163.658C63.332 162.186 62.4381 160.779 61.4943 160.359C61.0673 160.177 60.6016 160.159 60.1818 160.335C58.308 161.085 56.537 170.902 56.5009 173.043C56.4738 173.691 56.4409 175.188 57.5532 175.671C57.7574 175.777 58.1003 175.927 58.6345 175.801C59.5814 175.578 61.1038 174.423 63.4121 170.283L63.1363 173.148C63.0549 173.784 63.5246 174.366 64.1771 174.418C64.3101 174.438 64.4373 174.434 64.5587 174.405C65.0439 174.291 65.4126 173.896 65.4682 173.369L66.5236 162.358C66.6055 161.723 66.1354 161.14 65.4771 161.064ZM58.8262 172.905C58.9378 170.542 60.168 165.192 61.0268 163.063C61.5067 163.798 62.1721 165.105 62.7272 166.489C61.3946 169.218 59.8162 171.773 58.8262 172.905Z" fill="black"/>
<path d="M75.3127 157.436C74.7358 157.161 74.03 157.43 73.7614 158.032L71.4757 163.143L69.2528 159.455C68.9157 158.892 68.1858 158.73 67.649 159.062C67.0877 159.4 66.896 160.113 67.2332 160.676L70.3203 165.753L67.6343 171.779C67.3599 172.358 67.6286 173.065 68.2299 173.334C68.458 173.434 68.7182 173.45 68.9611 173.393C69.3009 173.313 69.6064 173.087 69.7563 172.743L71.792 168.205L73.9268 171.734C74.1866 172.187 74.7163 172.37 75.202 172.256C75.2994 172.233 75.4208 172.204 75.5306 172.127C76.0919 171.789 76.2592 171.082 75.922 170.519L72.9479 165.596L75.9078 158.991C76.1764 158.388 75.9136 157.705 75.3127 157.436Z" fill="black"/>
<path d="M64.7302 180.747C64.7302 180.394 64.4527 180.116 64.0106 180.116C63.5627 180.116 63.2852 180.394 63.2852 180.747C63.2852 181.094 63.5627 181.367 64.0106 181.367C64.4527 181.367 64.7302 181.094 64.7302 180.747Z" fill="black"/>
<path d="M67.7891 177.295V179.354L66.4574 177.295H65.1992V181.321H66.4574V179.297L67.7891 181.321H69.0473V177.295H67.7891Z" fill="black"/>
<path d="M69.6133 181.321H70.8715V179.803H72.0048V178.853H70.8715V178.296H72.4469V177.295H69.6133V181.321Z" fill="black"/>
<path d="M72.6484 178.296H73.7025V181.321H74.9608V178.296H76.0264V177.295H72.6484V178.296Z" fill="black"/>
<path d="M344.216 219.182C344.216 220.148 343.656 220.834 342.41 220.834H340.646V217.572H342.41C343.656 217.572 344.216 218.202 344.216 219.182ZM339.05 216.27V226H340.646V222.108H341.864L344.104 226H346.008L343.6 221.968C345.238 221.562 345.854 220.33 345.854 219.182C345.854 217.6 344.72 216.27 342.41 216.27H339.05ZM353.272 216.256H347.896V226H353.272V224.698H349.492V221.716H352.852V220.414H349.492V217.558H353.272V216.256ZM361.804 223.242C361.804 219.686 356.652 221.058 356.652 218.86C356.652 217.922 357.366 217.474 358.29 217.502C359.298 217.53 359.872 218.132 359.928 218.79H361.692C361.552 217.124 360.236 216.144 358.374 216.144C356.386 216.144 355.028 217.208 355.028 218.916C355.028 222.5 360.194 220.974 360.194 223.326C360.194 224.152 359.564 224.754 358.444 224.754C357.338 224.754 356.778 224.11 356.708 223.312H355C355 225.034 356.498 226.098 358.444 226.098C360.614 226.098 361.804 224.698 361.804 223.242ZM369.063 216.256H363.687V226H369.063V224.698H365.283V221.716H368.643V220.414H365.283V217.558H369.063V216.256ZM370.525 217.572H373.129V226H374.725V217.572H377.315V216.27H370.525V217.572Z" fill="black"/>
<path d="M242.088 219.052C242.088 220.023 241.536 220.712 240.309 220.712H238.572V217.435H240.309C241.536 217.435 242.088 218.068 242.088 219.052ZM237 216.127V225.902H238.572V221.992H239.771L241.977 225.902H243.852L241.481 221.851C243.094 221.443 243.701 220.205 243.701 219.052C243.701 217.463 242.584 216.127 240.309 216.127H237Z" fill="black"/>
<path d="M252.178 225.902H253.832L250.399 216.113H248.579L245.146 225.902H246.787L247.476 223.904H251.488L252.178 225.902ZM251.047 222.596H247.917L249.489 218.053L251.047 222.596Z" fill="black"/>
<path d="M258.454 216.127H255.325V225.902H258.454C261.529 225.902 263.542 224.059 263.542 221.049C263.542 218.025 261.529 216.127 258.454 216.127ZM256.896 224.594V217.435H258.454C260.716 217.435 261.929 218.813 261.929 221.049C261.929 223.271 260.716 224.594 258.454 224.594H256.896Z" fill="black"/>
<path d="M265.1 225.902H266.671V216.127H265.1V225.902Z" fill="black"/>
<path d="M278 220.993C278 218.068 275.835 216 273.106 216C270.403 216 268.211 218.068 268.211 220.993C268.211 223.932 270.403 226 273.106 226C275.835 226 278 223.932 278 220.993ZM269.824 220.993C269.824 218.785 271.203 217.406 273.106 217.406C275.008 217.406 276.387 218.785 276.387 220.993C276.387 223.201 275.008 224.608 273.106 224.608C271.203 224.608 269.824 223.201 269.824 220.993Z" fill="black"/>
<defs>
<clipPath id="clip0_763_8829">
<rect width="24.9494" height="25.0099" fill="white" transform="translate(70.0156 403.86)"/>
</clipPath>
</defs>
</svg>
