<svg width="65" height="65" viewBox="0 0 65 65" fill="none" xmlns="http://www.w3.org/2000/svg">
<path d="M24 26C24 25.4477 24.4477 25 25 25H41C41.5523 25 42 25.4477 42 26V39C42 39.5523 41.5523 40 41 40H25C24.4477 40 24 39.5523 24 39V26Z" fill="white"/>
<path d="M48.971 40.7561C49.6712 40.1501 49.2426 39 48.3165 39H17.5772C16.6644 39 16.2288 40.1226 16.9027 40.7383L31.8569 54.4002C32.2313 54.7422 32.8024 54.7499 33.1858 54.4181L48.971 40.7561Z" fill="white"/>
<path d="M22.5577 19.8668C22.5577 19.2272 22.0551 18.7223 21.2845 18.7223C20.5026 18.7223 20 19.2272 20 19.8668C20 20.5063 20.5026 21 21.2845 21C22.0551 21 22.5577 20.5063 22.5577 19.8668ZM23.2701 20.9102H25.9619L27.0676 16.0631L28.151 20.9102H30.8428L32.7751 13H30.4072L29.4913 18.3633L28.2851 13H25.8837L24.6439 18.4081L23.7281 13H21.3602L23.2701 20.9102ZM37.2112 20.9102H39.5232L36.6639 13H34.1397L31.2692 20.9102H33.57L33.9945 19.6199H36.7868L37.2112 20.9102ZM36.2395 17.9369H34.5529L35.3906 15.3787L36.2395 17.9369ZM41.8897 18.7111L40.1027 13H37.7571L40.4824 20.9102H43.2859L46 13H43.6656L41.8897 18.7111Z" fill="white"/>
<rect x="0.5" y="0.5" width="64" height="64" stroke="white"/>
</svg>
