<svg width="908" height="509" viewBox="0 0 908 509" fill="none" xmlns="http://www.w3.org/2000/svg">
<g clip-path="url(#clip0_338_69)">
<g filter="url(#filter0_b_338_69)">
<path d="M880.084 6.62095L880.084 6.621L900.326 24.0386C900.437 24.1335 900.5 24.2719 900.5 24.4176V195C900.5 195.276 900.276 195.5 900 195.5H28.1314L7.5 174.389V7C7.5 6.72386 7.72386 6.5 8 6.5H879.758C879.878 6.5 879.993 6.54293 880.084 6.62095Z" stroke="black" stroke-width="3"/>
</g>
<path d="M225.027 53.021C227.373 50.261 228.822 47.087 228.822 43.982C228.822 36.668 225.441 31.7 214.47 31.7H172.38V80H216.54C227.511 80 232.272 73.652 232.272 65.717C232.272 60.473 229.236 56.057 225.027 53.021ZM190.32 43.43H206.88C208.674 43.43 210.882 43.43 210.882 46.052C210.882 48.674 208.674 48.674 206.88 48.674H190.32V43.43ZM210.33 66.89H190.32V61.784H210.33C212.124 61.784 214.332 61.784 214.332 64.337C214.332 66.89 212.124 66.89 210.33 66.89ZM276.492 80H296.226L276.216 31.7H249.582L229.572 80H249.306L252.618 71.306H273.18L276.492 80ZM257.31 58.886L262.899 44.12L268.488 58.886H257.31ZM315.585 31.7H297.645V80H315.585V31.7ZM319.711 49.64V63.44H374.911V49.64H319.711ZM430.103 45.5V31.7H379.043V80H430.103V66.2H396.983V61.715H430.103V49.985H396.983V45.5H430.103ZM483.201 45.5V31.7H432.141V80H483.201V66.2H450.081V61.715H483.201V49.985H450.081V45.5H483.201Z" fill="url(#paint0_linear_338_69)"/>
<path d="M225.027 53.021L224.646 52.6972L224.295 53.1097L224.735 53.4265L225.027 53.021ZM172.38 31.7V31.2H171.88V31.7H172.38ZM172.38 80H171.88V80.5H172.38V80ZM190.32 43.43V42.93H189.82V43.43H190.32ZM190.32 48.674H189.82V49.174H190.32V48.674ZM190.32 66.89H189.82V67.39H190.32V66.89ZM190.32 61.784V61.284H189.82V61.784H190.32ZM225.408 53.3448C227.805 50.5254 229.322 47.2408 229.322 43.982H228.322C228.322 46.9332 226.941 49.9966 224.646 52.6972L225.408 53.3448ZM229.322 43.982C229.322 40.2565 228.461 37.0282 226.109 34.7398C223.76 32.4553 220.02 31.2 214.47 31.2V32.2C219.891 32.2 223.327 33.4287 225.411 35.4566C227.492 37.4808 228.322 40.3935 228.322 43.982H229.322ZM214.47 31.2H172.38V32.2H214.47V31.2ZM171.88 31.7V80H172.88V31.7H171.88ZM172.38 80.5H216.54V79.5H172.38V80.5ZM216.54 80.5C222.122 80.5 226.197 78.8828 228.875 76.1865C231.551 73.4924 232.772 69.7827 232.772 65.717H231.772C231.772 69.5863 230.613 73.0181 228.165 75.4818C225.72 77.9432 221.929 79.5 216.54 79.5V80.5ZM232.772 65.717C232.772 60.2648 229.615 55.7137 225.32 52.6155L224.735 53.4265C228.857 56.4003 231.772 60.6812 231.772 65.717H232.772ZM190.32 43.93H206.88V42.93H190.32V43.93ZM206.88 43.93C207.806 43.93 208.695 43.9378 209.359 44.2184C209.674 44.3511 209.917 44.5382 210.087 44.8049C210.259 45.0743 210.382 45.4664 210.382 46.052H211.382C211.382 45.3266 211.229 44.7354 210.931 44.2674C210.631 43.7967 210.21 43.4921 209.748 43.2971C208.86 42.9221 207.748 42.93 206.88 42.93V43.93ZM210.382 46.052C210.382 46.6376 210.259 47.0297 210.087 47.2991C209.917 47.5658 209.674 47.7529 209.359 47.8856C208.695 48.1661 207.806 48.174 206.88 48.174V49.174C207.748 49.174 208.86 49.1819 209.748 48.8069C210.21 48.6119 210.631 48.3073 210.931 47.8366C211.229 47.3686 211.382 46.7774 211.382 46.052H210.382ZM206.88 48.174H190.32V49.174H206.88V48.174ZM190.82 48.674V43.43H189.82V48.674H190.82ZM210.33 66.39H190.32V67.39H210.33V66.39ZM190.82 66.89V61.784H189.82V66.89H190.82ZM190.32 62.284H210.33V61.284H190.32V62.284ZM210.33 62.284C211.255 62.284 212.147 62.2915 212.814 62.5656C213.13 62.6955 213.372 62.8778 213.541 63.1349C213.71 63.3938 213.832 63.771 213.832 64.337H214.832C214.832 63.6265 214.678 63.0463 214.377 62.5872C214.076 62.1263 213.654 61.8298 213.194 61.6407C212.308 61.2765 211.199 61.284 210.33 61.284V62.284ZM213.832 64.337C213.832 64.903 213.71 65.2802 213.541 65.5391C213.372 65.7962 213.13 65.9785 212.814 66.1084C212.147 66.3825 211.255 66.39 210.33 66.39V67.39C211.199 67.39 212.308 67.3975 213.194 67.0333C213.654 66.8441 214.076 66.5477 214.377 66.0868C214.678 65.6277 214.832 65.0475 214.832 64.337H213.832ZM276.492 80L276.025 80.178L276.147 80.5H276.492V80ZM296.226 80V80.5H296.974L296.688 79.8086L296.226 80ZM276.216 31.7L276.678 31.5086L276.55 31.2H276.216V31.7ZM249.582 31.7V31.2H249.248L249.12 31.5086L249.582 31.7ZM229.572 80L229.11 79.8086L228.823 80.5H229.572V80ZM249.306 80V80.5H249.65L249.773 80.178L249.306 80ZM252.618 71.306V70.806H252.273L252.151 71.128L252.618 71.306ZM273.18 71.306L273.647 71.128L273.524 70.806H273.18V71.306ZM257.31 58.886L256.842 58.709L256.586 59.386H257.31V58.886ZM262.899 44.12L263.366 43.943L262.899 42.7075L262.431 43.943L262.899 44.12ZM268.488 58.886V59.386H269.212L268.955 58.709L268.488 58.886ZM276.492 80.5H296.226V79.5H276.492V80.5ZM296.688 79.8086L276.678 31.5086L275.754 31.8914L295.764 80.1914L296.688 79.8086ZM276.216 31.2H249.582V32.2H276.216V31.2ZM249.12 31.5086L229.11 79.8086L230.034 80.1914L250.044 31.8914L249.12 31.5086ZM229.572 80.5H249.306V79.5H229.572V80.5ZM249.773 80.178L253.085 71.484L252.151 71.128L248.839 79.822L249.773 80.178ZM252.618 71.806H273.18V70.806H252.618V71.806ZM272.713 71.484L276.025 80.178L276.959 79.822L273.647 71.128L272.713 71.484ZM257.777 59.063L263.366 44.297L262.431 43.943L256.842 58.709L257.777 59.063ZM262.431 44.297L268.02 59.063L268.955 58.709L263.366 43.943L262.431 44.297ZM268.488 58.386H257.31V59.386H268.488V58.386ZM315.585 31.7H316.085V31.2H315.585V31.7ZM297.645 31.7V31.2H297.145V31.7H297.645ZM297.645 80H297.145V80.5H297.645V80ZM315.585 80V80.5H316.085V80H315.585ZM315.585 31.2H297.645V32.2H315.585V31.2ZM297.145 31.7V80H298.145V31.7H297.145ZM297.645 80.5H315.585V79.5H297.645V80.5ZM316.085 80V31.7H315.085V80H316.085ZM319.711 49.64V49.14H319.211V49.64H319.711ZM319.711 63.44H319.211V63.94H319.711V63.44ZM374.911 63.44V63.94H375.411V63.44H374.911ZM374.911 49.64H375.411V49.14H374.911V49.64ZM319.211 49.64V63.44H320.211V49.64H319.211ZM319.711 63.94H374.911V62.94H319.711V63.94ZM375.411 63.44V49.64H374.411V63.44H375.411ZM374.911 49.14H319.711V50.14H374.911V49.14ZM430.103 45.5V46H430.603V45.5H430.103ZM430.103 31.7H430.603V31.2H430.103V31.7ZM379.043 31.7V31.2H378.543V31.7H379.043ZM379.043 80H378.543V80.5H379.043V80ZM430.103 80V80.5H430.603V80H430.103ZM430.103 66.2H430.603V65.7H430.103V66.2ZM396.983 66.2H396.483V66.7H396.983V66.2ZM396.983 61.715V61.215H396.483V61.715H396.983ZM430.103 61.715V62.215H430.603V61.715H430.103ZM430.103 49.985H430.603V49.485H430.103V49.985ZM396.983 49.985H396.483V50.485H396.983V49.985ZM396.983 45.5V45H396.483V45.5H396.983ZM430.603 45.5V31.7H429.603V45.5H430.603ZM430.103 31.2H379.043V32.2H430.103V31.2ZM378.543 31.7V80H379.543V31.7H378.543ZM379.043 80.5H430.103V79.5H379.043V80.5ZM430.603 80V66.2H429.603V80H430.603ZM430.103 65.7H396.983V66.7H430.103V65.7ZM397.483 66.2V61.715H396.483V66.2H397.483ZM396.983 62.215H430.103V61.215H396.983V62.215ZM430.603 61.715V49.985H429.603V61.715H430.603ZM430.103 49.485H396.983V50.485H430.103V49.485ZM397.483 49.985V45.5H396.483V49.985H397.483ZM396.983 46H430.103V45H396.983V46ZM483.201 45.5V46H483.701V45.5H483.201ZM483.201 31.7H483.701V31.2H483.201V31.7ZM432.141 31.7V31.2H431.641V31.7H432.141ZM432.141 80H431.641V80.5H432.141V80ZM483.201 80V80.5H483.701V80H483.201ZM483.201 66.2H483.701V65.7H483.201V66.2ZM450.081 66.2H449.581V66.7H450.081V66.2ZM450.081 61.715V61.215H449.581V61.715H450.081ZM483.201 61.715V62.215H483.701V61.715H483.201ZM483.201 49.985H483.701V49.485H483.201V49.985ZM450.081 49.985H449.581V50.485H450.081V49.985ZM450.081 45.5V45H449.581V45.5H450.081ZM483.701 45.5V31.7H482.701V45.5H483.701ZM483.201 31.2H432.141V32.2H483.201V31.2ZM431.641 31.7V80H432.641V31.7H431.641ZM432.141 80.5H483.201V79.5H432.141V80.5ZM483.701 80V66.2H482.701V80H483.701ZM483.201 65.7H450.081V66.7H483.201V65.7ZM450.581 66.2V61.715H449.581V66.2H450.581ZM450.081 62.215H483.201V61.215H450.081V62.215ZM483.701 61.715V49.985H482.701V61.715H483.701ZM483.201 49.485H450.081V50.485H483.201V49.485ZM450.581 49.985V45.5H449.581V49.985H450.581ZM450.081 46H483.201V45H450.081V46Z" fill="url(#paint1_linear_338_69)"/>
<path d="M41.3361 112H38.7361V119H41.3361V112ZM49.3541 112V116.13L46.3341 112H42.9341V119H45.5341V114.87L48.5541 119H51.9541V112H49.3541ZM62.058 112H53.458V114.2H56.458V119H59.058V114.2H62.058V112ZM70.9568 114V112H63.5568V119H70.9568V117H66.1568V116.35H70.9568V114.65H66.1568V114H70.9568ZM80.6321 114.68C80.6321 113.12 79.5421 112 77.9521 112H72.4521V119H75.0521V117.36H76.5821L77.5521 119H80.6321L79.3921 116.99C80.1621 116.54 80.6321 115.7 80.6321 114.68ZM75.0521 114.2H77.4521C77.7121 114.2 78.0321 114.2 78.0321 114.68C78.0321 115.16 77.7121 115.16 77.4521 115.16H75.0521V114.2ZM88.8287 119H91.6887L88.7887 112H84.9287L82.0287 119H84.8887L85.3687 117.74H88.3487L88.8287 119ZM86.0487 115.94L86.8587 113.8L87.6687 115.94H86.0487ZM92.1935 115.49C92.1935 117.93 93.5135 119.1 96.5935 119.1C99.4035 119.1 100.854 118.11 100.964 115.89H98.3035C98.2035 116.56 97.6935 116.9 96.5935 116.9C95.0635 116.9 94.7935 116.24 94.7935 115.49C94.7935 114.75 95.0535 114.1 96.5935 114.1C97.6935 114.1 98.2035 114.43 98.3035 115.09H100.964C100.854 112.88 99.3935 111.9 96.5935 111.9C93.5135 111.9 92.1935 113.06 92.1935 115.49ZM110.87 112H102.27V114.2H105.27V119H107.87V114.2H110.87V112ZM114.969 112H112.369V119H114.969V112ZM123.267 112L121.297 117.2L119.327 112H116.467L119.367 119H123.227L126.127 112H123.267ZM134.933 114V112H127.533V119H134.933V117H130.133V116.35H134.933V114.65H130.133V114H134.933Z" fill="black"/>
<path d="M50.8102 128.806C50.8169 128.952 50.8502 129.086 50.9102 129.206C50.9635 129.306 51.0402 129.396 51.1402 129.476C51.2469 129.556 51.4002 129.596 51.6002 129.596V130.776H50.4202C50.2202 130.776 50.0435 130.756 49.8902 130.716C49.7435 130.669 49.6135 130.609 49.5002 130.536C49.3935 130.462 49.3002 130.379 49.2202 130.286C49.1469 130.192 49.0869 130.096 49.0402 129.996C48.9202 129.769 48.8535 129.506 48.8402 129.206V128.026C48.8335 127.952 48.8169 127.886 48.7902 127.826C48.7635 127.772 48.7235 127.726 48.6702 127.686C48.6169 127.646 48.5435 127.626 48.4502 127.626H48.0602V130.776H45.7002V123.696H49.6302C49.8302 123.696 50.0035 123.719 50.1502 123.766C50.3035 123.812 50.4335 123.872 50.5402 123.946C50.6535 124.019 50.7469 124.102 50.8202 124.196C50.8935 124.289 50.9569 124.386 51.0102 124.486C51.1302 124.712 51.1969 124.972 51.2102 125.266V125.656C51.1969 125.956 51.1469 126.219 51.0602 126.446C50.9869 126.646 50.8702 126.829 50.7102 126.996C50.5502 127.156 50.3235 127.236 50.0302 127.236C50.1702 127.242 50.3002 127.276 50.4202 127.336C50.5135 127.389 50.6002 127.469 50.6802 127.576C50.7669 127.682 50.8102 127.832 50.8102 128.026V128.806ZM48.8402 124.876C48.8335 124.736 48.8002 124.606 48.7402 124.486C48.6869 124.386 48.6069 124.296 48.5002 124.216C48.4002 124.129 48.2535 124.086 48.0602 124.086V126.846C48.2535 126.846 48.4002 126.806 48.5002 126.726C48.6069 126.646 48.6869 126.556 48.7402 126.456C48.8002 126.336 48.8335 126.202 48.8402 126.056V124.876ZM58.1345 123.686V124.676H56.1745V126.836H56.9545V127.626H56.1745V129.786H58.1345V130.776H53.8045V123.686H58.1345ZM64.4126 123.686V124.676H62.4526V126.836H63.2326V127.626H62.4526V129.786H64.4126V130.776H60.0826V123.686H64.4126ZM70.2007 123.686C70.3941 123.686 70.5641 123.709 70.7107 123.756C70.8641 123.802 70.9941 123.862 71.1007 123.936C71.2141 124.009 71.3074 124.092 71.3807 124.186C71.4541 124.279 71.5174 124.376 71.5707 124.476C71.6907 124.709 71.7574 124.972 71.7707 125.266V129.206C71.7707 129.406 71.7474 129.579 71.7007 129.726C71.6541 129.872 71.5941 130.002 71.5207 130.116C71.4474 130.222 71.3641 130.316 71.2707 130.396C71.1774 130.469 71.0807 130.529 70.9807 130.576C70.7541 130.696 70.4941 130.762 70.2007 130.776H67.8407C67.5407 130.762 67.2774 130.696 67.0507 130.576C66.9507 130.529 66.8541 130.469 66.7607 130.396C66.6674 130.316 66.5807 130.222 66.5007 130.116C66.4274 130.002 66.3674 129.872 66.3207 129.726C66.2807 129.579 66.2607 129.406 66.2607 129.206V125.266C66.2607 124.879 66.3407 124.579 66.5007 124.366C66.6674 124.146 66.8507 123.986 67.0507 123.886C67.2774 123.766 67.5407 123.699 67.8407 123.686H70.2007ZM69.4107 124.476C69.4041 124.409 69.3874 124.346 69.3607 124.286C69.3341 124.232 69.2941 124.186 69.2407 124.146C69.1874 124.106 69.1141 124.086 69.0207 124.086C68.9207 124.086 68.8441 124.106 68.7907 124.146C68.7374 124.186 68.6974 124.232 68.6707 124.286C68.6441 124.346 68.6274 124.409 68.6207 124.476V129.986C68.6274 130.059 68.6441 130.126 68.6707 130.186C68.6974 130.239 68.7374 130.286 68.7907 130.326C68.8441 130.366 68.9207 130.386 69.0207 130.386C69.1141 130.386 69.1874 130.366 69.2407 130.326C69.2941 130.286 69.3341 130.239 69.3607 130.186C69.3874 130.126 69.4041 130.059 69.4107 129.986V124.476ZM76.2293 123.686V129.986C76.236 130.059 76.2527 130.126 76.2793 130.186C76.306 130.239 76.3427 130.286 76.3893 130.326C76.4427 130.359 76.5193 130.376 76.6193 130.376C76.7193 130.376 76.796 130.359 76.8493 130.326C76.9027 130.286 76.9427 130.239 76.9693 130.186C76.996 130.126 77.0127 130.059 77.0193 129.986V123.686H79.3793V129.196C79.366 129.496 79.2993 129.759 79.1793 129.986C79.0793 130.186 78.9227 130.369 78.7093 130.536C78.496 130.696 78.1927 130.776 77.7993 130.776H75.4393C75.1393 130.762 74.876 130.696 74.6493 130.576C74.5493 130.529 74.4527 130.469 74.3593 130.396C74.266 130.316 74.1827 130.222 74.1093 130.116C74.036 130.002 73.976 129.872 73.9293 129.726C73.8893 129.572 73.8693 129.396 73.8693 129.196V123.686H76.2293ZM83.153 124.676H81.183V123.686H87.483V124.676H85.513V130.776H83.153V124.676ZM91.6569 123.686V130.776H89.2869V123.686H91.6569ZM93.8561 130.776V123.686H94.6461L96.6161 126.256V123.686H98.9761V130.776H98.1861L96.2261 128.226V130.776H93.8561ZM101.179 125.266C101.179 125.066 101.199 124.892 101.239 124.746C101.286 124.592 101.346 124.462 101.419 124.356C101.492 124.242 101.576 124.149 101.669 124.076C101.762 124.002 101.859 123.939 101.959 123.886C102.186 123.766 102.449 123.699 102.749 123.686H104.919C105.139 123.686 105.332 123.712 105.499 123.766C105.666 123.812 105.812 123.879 105.939 123.966C106.066 124.052 106.172 124.149 106.259 124.256C106.346 124.362 106.416 124.469 106.469 124.576C106.596 124.836 106.669 125.129 106.689 125.456H104.329V124.476C104.322 124.409 104.306 124.346 104.279 124.286C104.252 124.232 104.212 124.186 104.159 124.146C104.106 124.106 104.029 124.086 103.929 124.086C103.829 124.086 103.752 124.106 103.699 124.146C103.652 124.186 103.616 124.232 103.589 124.286C103.562 124.346 103.546 124.409 103.539 124.476V129.986C103.546 130.059 103.562 130.126 103.589 130.186C103.616 130.239 103.652 130.286 103.699 130.326C103.752 130.359 103.829 130.376 103.929 130.376C104.029 130.376 104.106 130.359 104.159 130.326C104.212 130.286 104.252 130.239 104.279 130.186C104.306 130.126 104.322 130.059 104.329 129.986V128.416H103.929V127.626H106.689V129.006C106.669 129.339 106.596 129.636 106.469 129.896C106.416 130.009 106.346 130.119 106.259 130.226C106.172 130.326 106.066 130.419 105.939 130.506C105.812 130.586 105.666 130.652 105.499 130.706C105.332 130.752 105.139 130.776 104.919 130.776H102.749C102.449 130.762 102.186 130.696 101.959 130.576C101.859 130.529 101.762 130.469 101.669 130.396C101.576 130.316 101.492 130.222 101.419 130.116C101.346 130.002 101.286 129.872 101.239 129.726C101.199 129.572 101.179 129.396 101.179 129.196V125.266ZM113.091 125.266C113.091 125.066 113.111 124.892 113.151 124.746C113.197 124.592 113.257 124.462 113.331 124.356C113.404 124.242 113.487 124.149 113.581 124.076C113.674 124.002 113.771 123.939 113.871 123.886C114.097 123.766 114.361 123.699 114.661 123.686H116.831C117.051 123.686 117.244 123.712 117.411 123.766C117.577 123.812 117.724 123.879 117.851 123.966C117.977 124.052 118.084 124.149 118.171 124.256C118.257 124.362 118.327 124.469 118.381 124.576C118.507 124.836 118.581 125.129 118.601 125.456H116.241V124.476C116.234 124.409 116.217 124.346 116.191 124.286C116.164 124.232 116.124 124.186 116.071 124.146C116.017 124.106 115.941 124.086 115.841 124.086C115.741 124.086 115.664 124.106 115.611 124.146C115.564 124.186 115.527 124.232 115.501 124.286C115.474 124.346 115.457 124.409 115.451 124.476V129.986C115.457 130.059 115.474 130.126 115.501 130.186C115.527 130.239 115.564 130.286 115.611 130.326C115.664 130.359 115.741 130.376 115.841 130.376C115.941 130.376 116.017 130.359 116.071 130.326C116.124 130.286 116.164 130.239 116.191 130.186C116.217 130.126 116.234 130.059 116.241 129.986V129.006H118.601C118.581 129.339 118.507 129.636 118.381 129.896C118.327 130.009 118.257 130.119 118.171 130.226C118.084 130.326 117.977 130.419 117.851 130.506C117.724 130.586 117.577 130.652 117.411 130.706C117.244 130.752 117.051 130.776 116.831 130.776H114.661C114.361 130.762 114.097 130.696 113.871 130.576C113.771 130.529 113.674 130.469 113.581 130.396C113.487 130.316 113.404 130.222 113.331 130.116C113.257 130.002 113.197 129.872 113.151 129.726C113.111 129.572 113.091 129.396 113.091 129.196V125.266ZM124.491 123.686C124.684 123.686 124.854 123.709 125.001 123.756C125.154 123.802 125.284 123.862 125.391 123.936C125.504 124.009 125.597 124.092 125.671 124.186C125.744 124.279 125.807 124.376 125.861 124.476C125.981 124.709 126.047 124.972 126.061 125.266V130.776H123.701V127.626H122.911V130.776H120.551V125.266C120.551 124.872 120.631 124.569 120.791 124.356C120.957 124.142 121.141 123.986 121.341 123.886C121.567 123.766 121.831 123.699 122.131 123.686H124.491ZM123.701 124.476C123.694 124.409 123.677 124.346 123.651 124.286C123.624 124.232 123.584 124.186 123.531 124.146C123.477 124.106 123.404 124.086 123.311 124.086C123.211 124.086 123.134 124.106 123.081 124.146C123.027 124.186 122.987 124.232 122.961 124.286C122.934 124.346 122.917 124.409 122.911 124.476V126.836H123.701V124.476ZM129.834 124.676H127.864V123.686H134.164V124.676H132.194V130.776H129.834V124.676Z" fill="black" fill-opacity="0.6"/>
<g clip-path="url(#clip1_338_69)">
<path d="M38.9142 126.785L36.6964 129.29V124.281L38.9142 126.785Z" fill="black"/>
</g>
<g clip-path="url(#clip2_338_69)">
<path d="M51.1144 139.311L48.8966 141.816V136.806L51.1144 139.311Z" fill="black" fill-opacity="0.6"/>
</g>
<g clip-path="url(#clip3_338_69)">
<path d="M51.1144 151.837L48.8966 154.342V149.332L51.1144 151.837Z" fill="black" fill-opacity="0.6"/>
</g>
<g clip-path="url(#clip4_338_69)">
<path d="M51.1144 164.359L48.8966 166.864V161.854L51.1144 164.359Z" fill="black" fill-opacity="0.6"/>
</g>
<path d="M56.7871 143.302V136.222H57.5771L59.7371 138.582L61.9071 136.222H62.6971V143.302H60.3271V140.752L59.7371 141.342L59.1471 140.752V143.302H56.7871ZM68.8412 136.212C69.0345 136.212 69.2045 136.235 69.3512 136.282C69.5045 136.328 69.6345 136.388 69.7412 136.462C69.8545 136.535 69.9478 136.618 70.0212 136.712C70.0945 136.805 70.1578 136.902 70.2112 137.002C70.3312 137.235 70.3978 137.498 70.4112 137.792V143.302H68.0512V140.152H67.2612V143.302H64.9012V137.792C64.9012 137.398 64.9812 137.095 65.1412 136.882C65.3078 136.668 65.4912 136.512 65.6912 136.412C65.9178 136.292 66.1812 136.225 66.4812 136.212H68.8412ZM68.0512 137.002C68.0445 136.935 68.0278 136.872 68.0012 136.812C67.9745 136.758 67.9345 136.712 67.8812 136.672C67.8278 136.632 67.7545 136.612 67.6612 136.612C67.5612 136.612 67.4845 136.632 67.4312 136.672C67.3778 136.712 67.3378 136.758 67.3112 136.812C67.2845 136.872 67.2678 136.935 67.2612 137.002V139.362H68.0512V137.002ZM74.1848 137.202H72.2148V136.212H78.5148V137.202H76.5448V143.302H74.1848V137.202ZM82.6988 136.212L82.6888 139.372H83.6688V136.212H86.0288V143.302H83.6688V140.152H82.6888V143.302H80.3188V136.212H82.6988Z" fill="black" fill-opacity="0.6"/>
<path d="M60.7271 148.737C60.9204 148.737 61.0904 148.76 61.2371 148.807C61.3904 148.854 61.5204 148.914 61.6271 148.987C61.7404 149.06 61.8338 149.144 61.9071 149.237C61.9804 149.33 62.0438 149.427 62.0971 149.527C62.2171 149.76 62.2838 150.024 62.2971 150.317V154.247C62.2838 154.547 62.2171 154.81 62.0971 155.037C61.9971 155.237 61.8404 155.42 61.6271 155.587C61.4138 155.747 61.1138 155.827 60.7271 155.827H56.7871V148.737H60.7271ZM59.9371 149.917C59.9304 149.777 59.8971 149.647 59.8371 149.527C59.7838 149.434 59.7038 149.347 59.5971 149.267C59.4904 149.18 59.3404 149.137 59.1471 149.137V155.427C59.3404 155.427 59.4904 155.387 59.5971 155.307C59.7038 155.227 59.7838 155.137 59.8371 155.037C59.8971 154.924 59.9304 154.794 59.9371 154.647V149.917ZM68.8308 148.737V149.727H66.8708V151.887H67.6508V152.677H66.8708V154.837H68.8308V155.827H64.5008V148.737H68.8308ZM74.7189 148.737C74.9122 148.737 75.0822 148.76 75.2289 148.807C75.3822 148.854 75.5122 148.914 75.6189 148.987C75.7322 149.06 75.8256 149.144 75.8989 149.237C75.9722 149.33 76.0356 149.427 76.0889 149.527C76.2089 149.76 76.2756 150.024 76.2889 150.317V154.247C76.2756 154.547 76.2089 154.81 76.0889 155.037C75.9889 155.237 75.8322 155.42 75.6189 155.587C75.4056 155.747 75.1056 155.827 74.7189 155.827H70.7789V148.737H74.7189ZM73.9289 149.917C73.9222 149.777 73.8889 149.647 73.8289 149.527C73.7756 149.434 73.6956 149.347 73.5889 149.267C73.4822 149.18 73.3322 149.137 73.1389 149.137V155.427C73.3322 155.427 73.4822 155.387 73.5889 155.307C73.6956 155.227 73.7756 155.137 73.8289 155.037C73.8889 154.924 73.9222 154.794 73.9289 154.647V149.917ZM80.8526 148.737V155.037C80.8592 155.11 80.8759 155.177 80.9026 155.237C80.9292 155.29 80.9659 155.337 81.0126 155.377C81.0659 155.41 81.1426 155.427 81.2426 155.427C81.3426 155.427 81.4192 155.41 81.4726 155.377C81.5259 155.337 81.5659 155.29 81.5926 155.237C81.6192 155.177 81.6359 155.11 81.6426 155.037V148.737H84.0026V154.247C83.9892 154.547 83.9226 154.81 83.8026 155.037C83.7026 155.237 83.5459 155.42 83.3326 155.587C83.1192 155.747 82.8159 155.827 82.4226 155.827H80.0626C79.7626 155.814 79.4992 155.747 79.2726 155.627C79.1726 155.58 79.0759 155.52 78.9826 155.447C78.8892 155.367 78.8059 155.274 78.7326 155.167C78.6592 155.054 78.5992 154.924 78.5526 154.777C78.5126 154.624 78.4926 154.447 78.4926 154.247V148.737H80.8526ZM86.2062 150.317C86.2062 150.117 86.2262 149.944 86.2662 149.797C86.3129 149.644 86.3729 149.514 86.4462 149.407C86.5196 149.294 86.6029 149.2 86.6962 149.127C86.7896 149.054 86.8862 148.99 86.9862 148.937C87.2129 148.817 87.4762 148.75 87.7762 148.737H89.9462C90.1662 148.737 90.3596 148.764 90.5262 148.817C90.6929 148.864 90.8396 148.93 90.9662 149.017C91.0929 149.104 91.1996 149.2 91.2862 149.307C91.3729 149.414 91.4429 149.52 91.4962 149.627C91.6229 149.887 91.6962 150.18 91.7162 150.507H89.3562V149.527C89.3496 149.46 89.3329 149.397 89.3062 149.337C89.2796 149.284 89.2396 149.237 89.1862 149.197C89.1329 149.157 89.0562 149.137 88.9562 149.137C88.8562 149.137 88.7796 149.157 88.7262 149.197C88.6796 149.237 88.6429 149.284 88.6162 149.337C88.5896 149.397 88.5729 149.46 88.5662 149.527V155.037C88.5729 155.11 88.5896 155.177 88.6162 155.237C88.6429 155.29 88.6796 155.337 88.7262 155.377C88.7796 155.41 88.8562 155.427 88.9562 155.427C89.0562 155.427 89.1329 155.41 89.1862 155.377C89.2396 155.337 89.2796 155.29 89.3062 155.237C89.3329 155.177 89.3496 155.11 89.3562 155.037V154.057H91.7162C91.6962 154.39 91.6229 154.687 91.4962 154.947C91.4429 155.06 91.3729 155.17 91.2862 155.277C91.1996 155.377 91.0929 155.47 90.9662 155.557C90.8396 155.637 90.6929 155.704 90.5262 155.757C90.3596 155.804 90.1662 155.827 89.9462 155.827H87.7762C87.4762 155.814 87.2129 155.747 86.9862 155.627C86.8862 155.58 86.7896 155.52 86.6962 155.447C86.6029 155.367 86.5196 155.274 86.4462 155.167C86.3729 155.054 86.3129 154.924 86.2662 154.777C86.2262 154.624 86.2062 154.447 86.2062 154.247V150.317ZM95.236 149.727H93.266V148.737H99.566V149.727H97.596V155.827H95.236V149.727ZM103.74 148.737V155.827H101.37V148.737H103.74ZM109.779 148.737C109.972 148.737 110.142 148.76 110.289 148.807C110.442 148.854 110.572 148.914 110.679 148.987C110.792 149.06 110.886 149.144 110.959 149.237C111.032 149.33 111.096 149.427 111.149 149.527C111.269 149.76 111.336 150.024 111.349 150.317V154.257C111.349 154.457 111.326 154.63 111.279 154.777C111.232 154.924 111.172 155.054 111.099 155.167C111.026 155.274 110.942 155.367 110.849 155.447C110.756 155.52 110.659 155.58 110.559 155.627C110.332 155.747 110.072 155.814 109.779 155.827H107.419C107.119 155.814 106.856 155.747 106.629 155.627C106.529 155.58 106.432 155.52 106.339 155.447C106.246 155.367 106.159 155.274 106.079 155.167C106.006 155.054 105.946 154.924 105.899 154.777C105.859 154.63 105.839 154.457 105.839 154.257V150.317C105.839 149.93 105.919 149.63 106.079 149.417C106.246 149.197 106.429 149.037 106.629 148.937C106.856 148.817 107.119 148.75 107.419 148.737H109.779ZM108.989 149.527C108.982 149.46 108.966 149.397 108.939 149.337C108.912 149.284 108.872 149.237 108.819 149.197C108.766 149.157 108.692 149.137 108.599 149.137C108.499 149.137 108.422 149.157 108.369 149.197C108.316 149.237 108.276 149.284 108.249 149.337C108.222 149.397 108.206 149.46 108.199 149.527V155.037C108.206 155.11 108.222 155.177 108.249 155.237C108.276 155.29 108.316 155.337 108.369 155.377C108.422 155.417 108.499 155.437 108.599 155.437C108.692 155.437 108.766 155.417 108.819 155.377C108.872 155.337 108.912 155.29 108.939 155.237C108.966 155.177 108.982 155.11 108.989 155.037V149.527ZM113.448 155.827V148.737H114.238L116.208 151.307V148.737H118.568V155.827H117.778L115.818 153.277V155.827H113.448Z" fill="black" fill-opacity="0.6"/>
<path d="M60.7271 161.259C60.9204 161.259 61.0904 161.282 61.2371 161.329C61.3904 161.376 61.5204 161.436 61.6271 161.509C61.7404 161.582 61.8338 161.666 61.9071 161.759C61.9804 161.852 62.0438 161.949 62.0971 162.049C62.2171 162.282 62.2838 162.546 62.2971 162.839V166.769C62.2838 167.069 62.2171 167.332 62.0971 167.559C61.9971 167.759 61.8404 167.942 61.6271 168.109C61.4138 168.269 61.1138 168.349 60.7271 168.349H56.7871V161.259H60.7271ZM59.9371 162.439C59.9304 162.299 59.8971 162.169 59.8371 162.049C59.7838 161.956 59.7038 161.869 59.5971 161.789C59.4904 161.702 59.3404 161.659 59.1471 161.659V167.949C59.3404 167.949 59.4904 167.909 59.5971 167.829C59.7038 167.749 59.7838 167.659 59.8371 167.559C59.8971 167.446 59.9304 167.316 59.9371 167.169V162.439ZM68.8308 161.259V162.249H66.8708V164.409H67.6508V165.199H66.8708V167.359H68.8308V168.349H64.5008V161.259H68.8308ZM70.7789 162.839C70.7789 162.639 70.7989 162.466 70.8389 162.319C70.8856 162.166 70.9456 162.036 71.0189 161.929C71.0922 161.816 71.1756 161.722 71.2689 161.649C71.3622 161.576 71.4589 161.512 71.5589 161.459C71.7856 161.339 72.0489 161.272 72.3489 161.259H74.5189C74.7389 161.259 74.9322 161.286 75.0989 161.339C75.2656 161.386 75.4122 161.452 75.5389 161.539C75.6656 161.626 75.7722 161.722 75.8589 161.829C75.9456 161.936 76.0156 162.042 76.0689 162.149C76.1956 162.409 76.2689 162.702 76.2889 163.029H73.9289V162.049C73.9222 161.982 73.9056 161.919 73.8789 161.859C73.8522 161.806 73.8122 161.759 73.7589 161.719C73.7056 161.679 73.6289 161.659 73.5289 161.659C73.4289 161.659 73.3522 161.679 73.2989 161.719C73.2522 161.759 73.2156 161.806 73.1889 161.859C73.1622 161.919 73.1456 161.982 73.1389 162.049V167.559C73.1456 167.632 73.1622 167.699 73.1889 167.759C73.2156 167.812 73.2522 167.859 73.2989 167.899C73.3522 167.932 73.4289 167.949 73.5289 167.949C73.6289 167.949 73.7056 167.932 73.7589 167.899C73.8122 167.859 73.8522 167.812 73.8789 167.759C73.9056 167.699 73.9222 167.632 73.9289 167.559V166.579H76.2889C76.2689 166.912 76.1956 167.209 76.0689 167.469C76.0156 167.582 75.9456 167.692 75.8589 167.799C75.7722 167.899 75.6656 167.992 75.5389 168.079C75.4122 168.159 75.2656 168.226 75.0989 168.279C74.9322 168.326 74.7389 168.349 74.5189 168.349H72.3489C72.0489 168.336 71.7856 168.269 71.5589 168.149C71.4589 168.102 71.3622 168.042 71.2689 167.969C71.1756 167.889 71.0922 167.796 71.0189 167.689C70.9456 167.576 70.8856 167.446 70.8389 167.299C70.7989 167.146 70.7789 166.969 70.7789 166.769V162.839ZM80.6087 161.259V168.349H78.2387V161.259H80.6087ZM82.7078 162.839C82.7078 162.452 82.7878 162.152 82.9478 161.939C83.1145 161.726 83.2978 161.569 83.4978 161.469C83.7245 161.349 83.9878 161.282 84.2878 161.269H86.6478C86.8411 161.269 87.0111 161.292 87.1578 161.339C87.3111 161.386 87.4411 161.446 87.5478 161.519C87.6611 161.592 87.7545 161.676 87.8278 161.769C87.9011 161.862 87.9645 161.959 88.0178 162.059C88.1378 162.286 88.2045 162.546 88.2178 162.839H85.8578V162.049C85.8511 161.982 85.8345 161.919 85.8078 161.859C85.7811 161.806 85.7411 161.759 85.6878 161.719C85.6345 161.679 85.5611 161.659 85.4678 161.659C85.3678 161.659 85.2911 161.679 85.2378 161.719C85.1845 161.759 85.1445 161.806 85.1178 161.859C85.0911 161.919 85.0745 161.982 85.0678 162.049V163.629C85.0678 163.729 85.0878 163.806 85.1278 163.859C85.1678 163.906 85.2145 163.942 85.2678 163.969C85.3278 163.996 85.3945 164.012 85.4678 164.019H86.6478C86.8411 164.019 87.0111 164.042 87.1578 164.089C87.3111 164.136 87.4411 164.196 87.5478 164.269C87.6611 164.342 87.7545 164.426 87.8278 164.519C87.9011 164.612 87.9645 164.709 88.0178 164.809C88.1378 165.042 88.2045 165.306 88.2178 165.599V166.779C88.2178 166.979 88.1945 167.152 88.1478 167.299C88.1011 167.446 88.0411 167.576 87.9678 167.689C87.8945 167.796 87.8111 167.889 87.7178 167.969C87.6245 168.042 87.5278 168.102 87.4278 168.149C87.2011 168.269 86.9411 168.336 86.6478 168.349H84.2878C84.0878 168.349 83.9111 168.329 83.7578 168.289C83.6111 168.242 83.4811 168.182 83.3678 168.109C83.2611 168.036 83.1678 167.952 83.0878 167.859C83.0145 167.766 82.9545 167.669 82.9078 167.569C82.7878 167.342 82.7211 167.079 82.7078 166.779H85.0678V167.559C85.0745 167.632 85.0911 167.699 85.1178 167.759C85.1445 167.812 85.1845 167.859 85.2378 167.899C85.2911 167.939 85.3678 167.959 85.4678 167.959C85.5611 167.959 85.6345 167.939 85.6878 167.899C85.7411 167.859 85.7811 167.812 85.8078 167.759C85.8345 167.699 85.8511 167.632 85.8578 167.559V165.989C85.8578 165.896 85.8378 165.822 85.7978 165.769C85.7578 165.716 85.7111 165.676 85.6578 165.649C85.5978 165.622 85.5345 165.606 85.4678 165.599H84.2878C83.8945 165.599 83.5911 165.519 83.3778 165.359C83.1645 165.192 83.0078 165.009 82.9078 164.809C82.7878 164.582 82.7211 164.319 82.7078 164.019V162.839ZM92.6864 161.259V168.349H90.3164V161.259H92.6864ZM98.7255 161.259C98.9189 161.259 99.0889 161.282 99.2355 161.329C99.3889 161.376 99.5189 161.436 99.6255 161.509C99.7389 161.582 99.8322 161.666 99.9055 161.759C99.9789 161.852 100.042 161.949 100.096 162.049C100.216 162.282 100.282 162.546 100.296 162.839V166.779C100.296 166.979 100.272 167.152 100.226 167.299C100.179 167.446 100.119 167.576 100.046 167.689C99.9722 167.796 99.8889 167.889 99.7955 167.969C99.7022 168.042 99.6055 168.102 99.5055 168.149C99.2789 168.269 99.0189 168.336 98.7255 168.349H96.3655C96.0655 168.336 95.8022 168.269 95.5755 168.149C95.4755 168.102 95.3789 168.042 95.2855 167.969C95.1922 167.889 95.1055 167.796 95.0255 167.689C94.9522 167.576 94.8922 167.446 94.8455 167.299C94.8055 167.152 94.7855 166.979 94.7855 166.779V162.839C94.7855 162.452 94.8655 162.152 95.0255 161.939C95.1922 161.719 95.3755 161.559 95.5755 161.459C95.8022 161.339 96.0655 161.272 96.3655 161.259H98.7255ZM97.9355 162.049C97.9289 161.982 97.9122 161.919 97.8855 161.859C97.8589 161.806 97.8189 161.759 97.7655 161.719C97.7122 161.679 97.6389 161.659 97.5455 161.659C97.4455 161.659 97.3689 161.679 97.3155 161.719C97.2622 161.759 97.2222 161.806 97.1955 161.859C97.1689 161.919 97.1522 161.982 97.1455 162.049V167.559C97.1522 167.632 97.1689 167.699 97.1955 167.759C97.2222 167.812 97.2622 167.859 97.3155 167.899C97.3689 167.939 97.4455 167.959 97.5455 167.959C97.6389 167.959 97.7122 167.939 97.7655 167.899C97.8189 167.859 97.8589 167.812 97.8855 167.759C97.9122 167.699 97.9289 167.632 97.9355 167.559V162.049ZM102.394 168.349V161.259H103.184L105.154 163.829V161.259H107.514V168.349H106.724L104.764 165.799V168.349H102.394Z" fill="black" fill-opacity="0.6"/>
<path d="M184.728 147.296H194.184V152H173.4V117.968H184.728V147.296ZM216.207 117.968C217.135 117.968 217.951 118.08 218.655 118.304C219.391 118.528 220.015 118.816 220.527 119.168C221.071 119.52 221.519 119.92 221.871 120.368C222.223 120.816 222.527 121.28 222.783 121.76C223.359 122.88 223.679 124.144 223.743 125.552V144.464C223.743 145.424 223.631 146.256 223.407 146.96C223.183 147.664 222.895 148.288 222.543 148.832C222.191 149.344 221.791 149.792 221.343 150.176C220.895 150.528 220.431 150.816 219.951 151.04C218.863 151.616 217.615 151.936 216.207 152H204.879C203.439 151.936 202.175 151.616 201.087 151.04C200.607 150.816 200.143 150.528 199.695 150.176C199.247 149.792 198.831 149.344 198.447 148.832C198.095 148.288 197.807 147.664 197.583 146.96C197.391 146.256 197.295 145.424 197.295 144.464V125.552C197.295 123.696 197.679 122.256 198.447 121.232C199.247 120.176 200.127 119.408 201.087 118.928C202.175 118.352 203.439 118.032 204.879 117.968H216.207ZM212.415 121.76C212.383 121.44 212.303 121.136 212.175 120.848C212.047 120.592 211.855 120.368 211.599 120.176C211.343 119.984 210.991 119.888 210.543 119.888C210.063 119.888 209.695 119.984 209.439 120.176C209.183 120.368 208.991 120.592 208.863 120.848C208.735 121.136 208.655 121.44 208.623 121.76V148.208C208.655 148.56 208.735 148.88 208.863 149.168C208.991 149.424 209.183 149.648 209.439 149.84C209.695 150.032 210.063 150.128 210.543 150.128C210.991 150.128 211.343 150.032 211.599 149.84C211.855 149.648 212.047 149.424 212.175 149.168C212.303 148.88 212.383 148.56 212.415 148.208V121.76ZM246.488 117.968C247.416 117.968 248.232 118.08 248.936 118.304C249.672 118.528 250.296 118.816 250.808 119.168C251.352 119.52 251.8 119.92 252.152 120.368C252.504 120.816 252.808 121.28 253.064 121.76C253.64 122.88 253.96 124.144 254.024 125.552V144.464C254.024 145.424 253.912 146.256 253.688 146.96C253.464 147.664 253.176 148.288 252.824 148.832C252.472 149.344 252.072 149.792 251.624 150.176C251.176 150.528 250.712 150.816 250.232 151.04C249.144 151.616 247.896 151.936 246.488 152H235.16C233.72 151.936 232.456 151.616 231.368 151.04C230.888 150.816 230.424 150.528 229.976 150.176C229.528 149.792 229.112 149.344 228.728 148.832C228.376 148.288 228.088 147.664 227.864 146.96C227.672 146.256 227.576 145.424 227.576 144.464V125.552C227.576 123.696 227.96 122.256 228.728 121.232C229.528 120.176 230.408 119.408 231.368 118.928C232.456 118.352 233.72 118.032 235.16 117.968H246.488ZM242.696 121.76C242.664 121.44 242.584 121.136 242.456 120.848C242.328 120.592 242.136 120.368 241.88 120.176C241.624 119.984 241.272 119.888 240.824 119.888C240.344 119.888 239.976 119.984 239.72 120.176C239.464 120.368 239.272 120.592 239.144 120.848C239.016 121.136 238.936 121.44 238.904 121.76V148.208C238.936 148.56 239.016 148.88 239.144 149.168C239.272 149.424 239.464 149.648 239.72 149.84C239.976 150.032 240.344 150.128 240.824 150.128C241.272 150.128 241.624 150.032 241.88 149.84C242.136 149.648 242.328 149.424 242.456 149.168C242.584 148.88 242.664 148.56 242.696 148.208V121.76ZM277.25 118.016C278.21 118.016 279.042 118.128 279.746 118.352C280.482 118.576 281.106 118.864 281.618 119.216C282.162 119.568 282.61 119.968 282.962 120.416C283.314 120.864 283.618 121.328 283.874 121.808C284.45 122.896 284.77 124.144 284.834 125.552V127.424C284.77 128.864 284.45 130.128 283.874 131.216C283.394 132.176 282.642 133.056 281.618 133.856C280.594 134.624 279.138 135.008 277.25 135.008H269.714V152H258.338V118.016H277.25ZM273.458 123.68C273.426 123.008 273.266 122.384 272.978 121.808C272.722 121.328 272.338 120.896 271.826 120.512C271.346 120.096 270.642 119.888 269.714 119.888V133.136C270.642 133.136 271.346 132.944 271.826 132.56C272.338 132.176 272.722 131.744 272.978 131.264C273.266 130.688 273.426 130.048 273.458 129.344V123.68ZM302.119 123.584C303.527 123.584 304.615 123.296 305.383 122.72C306.151 122.144 306.711 121.488 307.063 120.752C307.479 119.92 307.719 118.976 307.783 117.92H313.447V151.952H302.119V123.584Z" fill="black"/>
<rect x="537" y="33" width="145" height="35" rx="2" stroke="black" stroke-width="2"/>
<path d="M579.4 57.2C585.54 57.2 588.2 54.84 588.2 49.98C588.2 45.14 585.54 42.8 579.4 42.8C573.24 42.8 570.6 45.12 570.6 49.98C570.6 54.86 573.24 57.2 579.4 57.2ZM579.4 52.8C576.34 52.8 575.8 51.48 575.8 49.98C575.8 48.5 576.32 47.2 579.4 47.2C582.48 47.2 583 48.52 583 49.98C583 51.46 582.46 52.8 579.4 52.8ZM602.808 43H591.808V57H597.008V53.72H602.808C605.988 53.72 608.168 51.48 608.168 48.36C608.168 45.24 605.988 43 602.808 43ZM601.808 49.32H597.008V47.4H601.808C602.328 47.4 602.968 47.4 602.968 48.36C602.968 49.32 602.328 49.32 601.808 49.32ZM626.561 47V43H611.761V57H626.561V53H616.961V51.7H626.561V48.3H616.961V47H626.561ZM642.992 43V51.26L636.952 43H630.152V57H635.352V48.74L641.392 57H648.192V43H642.992Z" fill="black"/>
<rect x="537" y="86" width="145" height="35" rx="2" stroke="black" stroke-width="2"/>
<path d="M553.036 97.5H545.236V108H553.036C555.571 108 557.956 106.32 557.956 102.75C557.956 99.18 555.571 97.5 553.036 97.5ZM551.836 104.7H549.136V100.8H551.836C552.676 100.8 554.056 100.8 554.056 102.75C554.056 104.7 552.676 104.7 551.836 104.7ZM567.104 108.15C571.709 108.15 573.704 106.38 573.704 102.735C573.704 99.105 571.709 97.35 567.104 97.35C562.484 97.35 560.504 99.09 560.504 102.735C560.504 106.395 562.484 108.15 567.104 108.15ZM567.104 104.85C564.809 104.85 564.404 103.86 564.404 102.735C564.404 101.625 564.794 100.65 567.104 100.65C569.414 100.65 569.804 101.64 569.804 102.735C569.804 103.845 569.399 104.85 567.104 104.85ZM593.112 97.5L590.937 104.91L588.657 97.5H584.007L581.727 104.91L579.552 97.5H575.367L578.817 108H584.607L586.332 101.955L588.057 108H593.847L597.297 97.5H593.112ZM609.633 97.5V103.695L605.103 97.5H600.003V108H603.903V101.805L608.433 108H613.533V97.5H609.633ZM620.289 104.7V97.5H616.389V108H627.189V104.7H620.289ZM636.339 108.15C640.944 108.15 642.939 106.38 642.939 102.735C642.939 99.105 640.944 97.35 636.339 97.35C631.719 97.35 629.739 99.09 629.739 102.735C629.739 106.395 631.719 108.15 636.339 108.15ZM636.339 104.85C634.044 104.85 633.639 103.86 633.639 102.735C633.639 101.625 634.029 100.65 636.339 100.65C638.649 100.65 639.039 101.64 639.039 102.735C639.039 103.845 638.634 104.85 636.339 104.85ZM654.347 108H658.637L654.287 97.5H648.497L644.147 108H648.437L649.157 106.11H653.627L654.347 108ZM650.177 103.41L651.392 100.2L652.607 103.41H650.177ZM668.996 97.5H661.196V108H668.996C671.531 108 673.916 106.32 673.916 102.75C673.916 99.18 671.531 97.5 668.996 97.5ZM667.796 104.7H665.096V100.8H667.796C668.636 100.8 670.016 100.8 670.016 102.75C670.016 104.7 668.636 104.7 667.796 104.7Z" fill="black"/>
<rect x="537" y="139" width="145" height="35" rx="2" stroke="black" stroke-width="2"/>
<path d="M559.725 158.6V149H554.525C554.525 151 552.585 151 550.525 151V155.4C551.985 155.4 553.065 155.4 554.585 154.06L554.545 158.6H550.525V163H563.725V158.6H559.725ZM583.209 153.2C583.209 149.72 580.389 148.8 575.569 148.8C570.809 148.8 567.529 149.72 567.529 154.5H572.729C572.729 153.2 573.929 153.2 575.769 153.2C577.509 153.2 578.009 153.3 578.009 153.9C578.009 155.86 567.329 155.36 567.329 160.6V163H583.009V158.6H575.349C576.349 157.04 583.209 157.74 583.209 153.2ZM602.498 153.2C602.498 149.72 599.678 148.8 594.858 148.8C590.098 148.8 586.818 149.72 586.818 154.5H592.018C592.018 153.2 593.218 153.2 595.058 153.2C596.798 153.2 597.298 153.3 597.298 153.9C597.298 155.86 586.618 155.36 586.618 160.6V163H602.298V158.6H594.638C595.638 157.04 602.498 157.74 602.498 153.2ZM621.367 155.18C622.047 154.38 622.467 153.46 622.467 152.56C622.467 150.44 621.487 149 618.307 149H606.107V163H618.907C622.087 163 623.467 161.16 623.467 158.86C623.467 157.34 622.587 156.06 621.367 155.18ZM611.307 152.4H616.107C616.627 152.4 617.267 152.4 617.267 153.16C617.267 153.92 616.627 153.92 616.107 153.92H611.307V152.4ZM617.107 159.2H611.307V157.72H617.107C617.627 157.72 618.267 157.72 618.267 158.46C618.267 159.2 617.627 159.2 617.107 159.2ZM638.076 149H627.076V163H632.276V159.72H638.076C641.256 159.72 643.436 157.48 643.436 154.36C643.436 151.24 641.256 149 638.076 149ZM637.076 155.32H632.276V153.4H637.076C637.596 153.4 638.236 153.4 638.236 154.36C638.236 155.32 637.596 155.32 637.076 155.32ZM668.469 149H662.069L657.749 157L653.429 149H647.029V163H652.229V156.34L656.049 163H659.449L663.269 156.34V163H668.469V149Z" fill="black"/>
<rect x="691" y="32" width="145" height="35" rx="2" stroke="black" stroke-width="2"/>
<path d="M703.807 51.06C703.807 55.22 707.007 56.2 712.747 56.2C718.487 56.2 721.687 55.22 721.687 51.36C721.687 47.7 718.267 47.32 712.747 47.1C709.707 46.98 709.207 47 709.207 46.46C709.207 45.92 709.707 45.8 712.147 45.8C714.687 45.8 715.887 45.96 715.887 46.7H721.087C721.087 43.12 718.007 41.8 712.547 41.8C707.027 41.8 704.007 43.12 704.007 46.2C704.007 49.46 706.427 50.5 712.747 50.7C716.027 50.8 716.487 50.88 716.487 51.48C716.487 52 716.027 52.2 712.947 52.2C709.647 52.2 709.007 51.74 709.007 51.06H703.807ZM733.693 56.2C739.833 56.2 742.493 53.84 742.493 48.98C742.493 44.14 739.833 41.8 733.693 41.8C727.533 41.8 724.893 44.12 724.893 48.98C724.893 53.86 727.533 56.2 733.693 56.2ZM733.693 51.8C730.633 51.8 730.093 50.48 730.093 48.98C730.093 47.5 730.613 46.2 733.693 46.2C736.773 46.2 737.293 47.52 737.293 48.98C737.293 50.46 736.753 51.8 733.693 51.8ZM763.701 48.98V42H758.501V48.98C758.501 50.46 757.961 51.8 754.901 51.8C751.841 51.8 751.301 50.48 751.301 48.98V42H746.101V48.98C746.101 53.86 748.741 56.2 754.901 56.2C761.041 56.2 763.701 53.84 763.701 48.98ZM783.86 47.36C783.86 44.24 781.68 42 778.5 42H767.5V56H772.7V52.72H775.76L777.7 56H783.86L781.38 51.98C782.92 51.08 783.86 49.4 783.86 47.36ZM772.7 46.4H777.5C778.02 46.4 778.66 46.4 778.66 47.36C778.66 48.32 778.02 48.32 777.5 48.32H772.7V46.4ZM787.253 48.98C787.253 53.86 789.893 56.2 796.053 56.2C801.673 56.2 804.573 54.22 804.793 49.78H799.473C799.273 51.12 798.253 51.8 796.053 51.8C792.993 51.8 792.453 50.48 792.453 48.98C792.453 47.5 792.973 46.2 796.053 46.2C798.253 46.2 799.273 46.86 799.473 48.18H804.793C804.573 43.76 801.653 41.8 796.053 41.8C789.893 41.8 787.253 44.12 787.253 48.98ZM823.202 46V42H808.402V56H823.202V52H813.602V50.7H823.202V47.3H813.602V46H823.202Z" fill="black"/>
<rect x="691" y="85" width="145" height="35" rx="2" stroke="black" stroke-width="2"/>
<path d="M721.07 99.5V96.5H709.97V107H721.07V104H713.87V103.025H721.07V100.475H713.87V99.5H721.07ZM723.613 107H728.713L731.353 104L733.993 107H739.093L734.128 101.75L739.093 96.5H733.993L731.353 99.5L728.713 96.5H723.613L728.578 101.75L723.613 107ZM751.839 107H756.129L751.779 96.5H745.989L741.639 107H745.929L746.649 105.11H751.119L751.839 107ZM747.669 102.41L748.884 99.2L750.099 102.41H747.669ZM774.768 96.5H769.968L766.728 102.5L763.488 96.5H758.688V107H762.588V102.005L765.453 107H768.003L770.868 102.005V107H774.768V96.5ZM785.872 96.5H777.622V107H781.522V104.54H785.872C788.257 104.54 789.892 102.86 789.892 100.52C789.892 98.18 788.257 96.5 785.872 96.5ZM785.122 101.24H781.522V99.8H785.122C785.512 99.8 785.992 99.8 785.992 100.52C785.992 101.24 785.512 101.24 785.122 101.24ZM796.487 103.7V96.5H792.587V107H803.387V103.7H796.487ZM817.187 99.5V96.5H806.087V107H817.187V104H809.987V103.025H817.187V100.475H809.987V99.5H817.187Z" fill="black"/>
<rect x="691" y="138" width="145" height="35" rx="2" stroke="black" stroke-width="2"/>
<path d="M720.074 154.98V148H714.874V154.98C714.874 156.46 714.334 157.8 711.274 157.8C708.214 157.8 707.674 156.48 707.674 154.98V148H702.474V154.98C702.474 159.86 705.114 162.2 711.274 162.2C717.414 162.2 720.074 159.84 720.074 154.98ZM736.713 148V156.26L730.673 148H723.873V162H729.073V153.74L735.113 162H741.913V148H736.713ZM750.92 157.6V148H745.72V162H760.12V157.6H750.92ZM772.32 162.2C778.46 162.2 781.12 159.84 781.12 154.98C781.12 150.14 778.46 147.8 772.32 147.8C766.16 147.8 763.52 150.12 763.52 154.98C763.52 159.86 766.16 162.2 772.32 162.2ZM772.32 157.8C769.26 157.8 768.72 156.48 768.72 154.98C768.72 153.5 769.24 152.2 772.32 152.2C775.4 152.2 775.92 153.52 775.92 154.98C775.92 156.46 775.38 157.8 772.32 157.8ZM784.528 154.98C784.528 159.86 787.168 162.2 793.328 162.2C798.948 162.2 801.848 160.22 802.068 155.78H796.748C796.548 157.12 795.528 157.8 793.328 157.8C790.268 157.8 789.728 156.48 789.728 154.98C789.728 153.5 790.248 152.2 793.328 152.2C795.528 152.2 796.548 152.86 796.748 154.18H802.068C801.848 149.76 798.928 147.8 793.328 147.8C787.168 147.8 784.528 150.12 784.528 154.98ZM824.717 148H817.317L810.877 153.48V148H805.677V162H810.877V159.34L813.037 157.56L817.517 162H824.717L816.657 154.6L824.717 148Z" fill="black"/>
</g>
<defs>
<filter id="filter0_b_338_69" x="2" y="1" width="904" height="200" filterUnits="userSpaceOnUse" color-interpolation-filters="sRGB">
<feFlood flood-opacity="0" result="BackgroundImageFix"/>
<feGaussianBlur in="BackgroundImage" stdDeviation="2"/>
<feComposite in2="SourceAlpha" operator="in" result="effect1_backgroundBlur_338_69"/>
<feBlend mode="normal" in="SourceGraphic" in2="effect1_backgroundBlur_338_69" result="shape"/>
</filter>
<linearGradient id="paint0_linear_338_69" x1="511.5" y1="0" x2="511.5" y2="119" gradientUnits="userSpaceOnUse">
<stop offset="0.9999"/>
<stop offset="1" stop-color="white" stop-opacity="0"/>
</linearGradient>
<linearGradient id="paint1_linear_338_69" x1="511.5" y1="0" x2="511.5" y2="119" gradientUnits="userSpaceOnUse">
<stop stop-color="white" stop-opacity="0"/>
<stop offset="0.646938" stop-color="white"/>
</linearGradient>
<clipPath id="clip0_338_69">
<rect width="908" height="509" fill="white"/>
</clipPath>
<clipPath id="clip1_338_69">
<rect width="8.87129" height="10.0196" fill="white" transform="translate(33 121.776)"/>
</clipPath>
<clipPath id="clip2_338_69">
<rect width="8.87129" height="10.0196" fill="white" transform="translate(45.2002 134.302)"/>
</clipPath>
<clipPath id="clip3_338_69">
<rect width="8.87129" height="10.0196" fill="white" transform="translate(45.2002 146.827)"/>
</clipPath>
<clipPath id="clip4_338_69">
<rect width="8.87129" height="10.0196" fill="white" transform="translate(45.2002 159.349)"/>
</clipPath>
</defs>
</svg>
