<svg width="233" height="35" viewBox="0 0 233 35" fill="none" xmlns="http://www.w3.org/2000/svg">
<path d="M39.2624 15.9303C41.0264 13.9888 42.0345 11.5992 42.0345 9.1599C42.0345 4.03235 39.5648 0 31.551 0H0.503906V34.8475H32.7606C40.7744 34.8475 44.2521 30.5662 44.2521 24.6919C44.2521 20.6596 42.2865 17.7722 39.2624 15.9303ZM9.57611 6.47167H28.2749C30.7446 6.47167 32.9623 6.47167 32.9623 10.056C32.9623 13.6901 30.7446 13.6901 28.3253 13.6901H28.2749H9.57611V6.47167ZM30.543 27.9278H9.57611V20.56H30.543C32.9622 20.56 35.1799 20.56 35.1799 24.2439C35.1799 27.9277 32.9622 27.9278 30.543 27.9278Z" fill="white"/>
<path d="M82.3648 34.8475H92.3947L74.1494 0H61.902L43.7071 34.8475H53.6866L57.4667 27.4299H78.5848L82.3648 34.8475ZM60.8435 20.7591L68.0509 6.62102L75.2079 20.7591H60.8435Z" fill="white"/>
<path d="M103.635 0H94.5631V34.8475H103.635V0Z" fill="white"/>
<path d="M108.959 14.387V21.4561H149.28V14.387H108.959Z" fill="white"/>
<path d="M191.908 7.11884V0H154.611V34.8475H191.908V27.7286H163.684V20.6596H191.908V14.1879H163.684V7.11884H191.908Z" fill="white"/>
<path d="M232.515 7.11884V0H195.218V34.8475H232.515V27.7286H204.29V20.6596H232.515V14.1879H204.29V7.11884H232.515Z" fill="white"/>
</svg>
