<svg width="225" height="132" viewBox="0 0 225 132" fill="none" xmlns="http://www.w3.org/2000/svg">
<path d="M43.8944 83.186C36.0778 85.445 27.0842 87.7703 21.1212 88.9621C24.0384 86.4522 27.7065 83.5553 29.7009 81.8938C35.8991 76.9288 36.4348 76.5222 35.9346 74.395C35.45 72.3343 34.625 72.1074 28.3574 70.2141C26.0309 69.5686 21.9568 68.352 19.1885 67.3194C22.8214 64.5711 29.6725 60.2943 32.7617 58.5156C33.9541 59.7084 35.8268 62.0039 37.4023 64.2289C38.4422 65.668 40.491 66.028 41.9301 64.9881C43.3691 63.9482 43.6783 61.9814 42.6228 60.4759C35.7344 50.8718 33.7402 51.3407 32.1448 51.7159C30.5495 52.091 21.4225 58.0253 21.2895 58.0566C11.3765 64.5265 10.473 66.3524 10.8716 68.6438C11.3599 71.6155 14.4409 72.7851 26.3663 76.3644C26.1981 76.5443 25.9635 76.7397 25.7132 76.8687C12.1437 87.7761 9.73863 90.376 10.4577 93.4338C10.6765 94.3645 11.2942 95.2013 12.1817 95.6941C13.0028 96.2025 14.7114 97.2038 27.8068 94.1243C32.327 93.0614 38.1454 91.5529 45.6961 89.3564C47.3932 88.817 48.3788 87.042 47.9059 85.3293C47.433 83.6166 45.5915 82.6466 43.8944 83.186Z" fill="#373B40"/>
<path d="M75.9793 33.6916C74.1924 33.5506 72.6672 34.8212 72.4441 36.5572L70.0987 60.8895C68.1168 56.9362 65.6696 53.0922 63.0852 51.9462C61.9161 51.4494 60.6414 51.3984 59.4918 51.8792C54.3614 53.9274 49.5132 80.7423 49.4147 86.5879C49.3402 88.3592 49.2497 92.4492 52.2955 93.7673C52.8546 94.0567 53.793 94.4674 55.2554 94.1235C57.8479 93.5139 62.0165 90.359 68.3367 79.0518L67.581 86.8758C67.3579 88.6119 68.6441 90.2034 70.431 90.3445C70.7947 90.3992 71.1427 90.3876 71.475 90.3094C72.8045 89.9968 73.8135 88.9177 73.9662 87.4788L78.8449 37.2267C79.0524 35.4242 77.6997 33.8482 75.9793 33.6916ZM55.7804 86.2134C56.0863 79.7579 59.4548 65.1462 61.8056 59.3322C63.1191 61.3383 64.9407 64.9084 66.4613 68.6897C62.8121 76.1419 58.4905 83.1209 55.7804 86.2134Z" fill="#373B40"/>
<path d="M83.7596 60.413C81.9727 60.272 80.4788 61.6755 80.4043 63.4468C80.3612 64.1584 79.659 81.1595 79.5647 84.3384C79.5058 86.1761 80.8937 87.6035 82.7315 87.6624C82.9465 87.682 83.2124 87.6195 83.4783 87.5569C84.8743 87.2287 85.9184 86.0011 85.989 84.5113C86.0168 81.348 86.8246 63.9012 86.8598 63.7526C86.9344 61.9814 85.5308 60.4875 83.7596 60.413ZM85.1538 43.6701C83.3669 43.5291 81.7753 44.8153 81.6187 46.5357L80.9413 53.4995C80.7338 55.3021 82.02 56.8937 83.8069 57.0347C84.1706 57.0895 84.5186 57.0778 84.8509 56.9996C86.1804 56.687 87.1894 55.6079 87.3421 54.169L88.0194 47.2052C88.1604 45.4183 86.8899 43.8932 85.1538 43.6701Z" fill="#373B40"/>
<path d="M115.562 47.6032C111.515 47.9937 107.679 48.6853 104.324 49.3339L104.458 44.5323C104.532 42.761 103.129 41.2672 101.357 41.1926C99.5352 41.2002 98.1078 42.5881 98.0333 44.3594L97.876 50.8501C94.2199 51.7099 91.8738 52.472 91.6744 52.5189C89.9929 53.1248 89.0738 54.8842 89.6132 56.5813C90.1525 58.2783 91.9785 59.1818 93.6755 58.6424C93.6755 58.6424 95.1732 58.15 97.6171 57.5051L96.9845 80.172C96.9764 81.9276 98.3135 83.4371 100.136 83.4295C100.433 83.4999 100.699 83.4374 100.965 83.3749C102.294 83.0622 103.338 81.8346 103.409 80.3449L104.132 55.9732C107.67 55.2112 111.839 54.4415 116.218 53.9729C116.351 53.9416 116.484 53.9103 116.617 53.8791C118.212 53.5039 119.276 52.0612 119.1 50.419C118.893 48.6437 117.337 47.3962 115.562 47.6032Z" fill="#373B40"/>
<path d="M166.25 10.079C149.667 12.6458 107.663 27.9248 105.848 28.5619C104.233 29.1521 103.33 30.978 103.936 32.6594C104.51 34.2079 106.121 35.0918 107.716 34.7166C107.849 34.6854 107.967 34.5876 108.033 34.572C108.233 34.5251 114.892 32.1174 123.913 29.0139L120.068 68.1497C119.927 69.9366 121.198 71.4618 122.934 71.6849C123.297 71.7397 123.63 71.6615 123.962 71.5833C125.291 71.2707 126.3 70.1916 126.469 68.8192L130.603 26.7392C143.617 22.4163 158.988 17.6793 167.188 16.4527C168.932 16.1127 170.164 14.4902 169.906 12.7971C169.632 11.0375 167.943 9.82121 166.25 10.079Z" fill="#373B40"/>
<path d="M145.744 60.9896C146.092 60.9779 146.455 61.0327 146.788 60.9546C146.854 60.9389 146.921 60.9233 146.987 60.9077C148.317 60.595 149.388 59.7819 150.116 58.6989C155.861 49.4209 157.087 31.6653 153.388 28.4663C152.669 27.7937 151.48 27.512 150.534 27.6644C149.373 27.7972 147.695 28.1215 140.683 39.1705L140.883 35.5459C140.957 33.7746 139.62 32.2651 137.916 32.175C136.129 32.0339 134.553 33.3866 134.478 35.1579L133.542 51.1619C133.369 51.6232 133.346 52.1198 133.455 52.5851L131.958 76.6478C131.884 78.419 133.221 79.9285 134.992 80.003C135.289 80.0735 135.622 79.9953 135.888 79.9328C137.284 79.6045 138.277 78.459 138.363 77.0357L139.19 64.1442L168.13 95.9325C168.885 96.4566 169.843 96.6522 170.774 96.4334C171.505 96.2614 172.107 95.8392 172.596 95.2332C173.66 93.7905 173.324 91.7651 171.881 90.7013L145.744 60.9896ZM149.012 38.1941C148.862 42.9292 147.892 49.5411 145.072 54.5535C144.032 54.307 142.058 53.3683 140.236 52.1833C143.204 47.2061 146.524 41.9357 149.012 38.1941Z" fill="#373B40"/>
<path d="M181.403 28.613C179.616 28.472 178.091 29.7426 177.883 31.5452L177.527 35.6977C175.529 31.6778 173.082 27.8338 170.498 26.6878C169.329 26.1911 168.054 26.1401 166.904 26.6209C161.774 28.6691 156.926 55.484 156.827 61.3296C156.753 63.1008 156.662 67.1908 159.708 68.5089C160.267 68.7983 161.206 69.209 162.668 68.8651C165.26 68.2555 169.429 65.1006 175.749 53.7934L174.994 61.6174C174.771 63.3535 176.057 64.9451 177.844 65.0861C178.207 65.1409 178.555 65.1292 178.888 65.051C180.217 64.7384 181.226 63.6593 181.379 62.2204L184.268 32.1482C184.492 30.4121 183.205 28.8205 181.403 28.613ZM163.193 60.955C163.499 54.4995 166.867 39.8879 169.218 34.0738C170.532 36.0799 172.353 39.6501 173.874 43.4314C170.225 50.8835 165.903 57.8625 163.193 60.955Z" fill="#373B40"/>
<path d="M208.332 18.7029C206.752 17.952 204.821 18.6868 204.085 20.3329L197.827 34.2911L191.741 24.2179C190.818 22.6811 188.82 22.239 187.35 23.1459C185.813 24.0685 185.289 26.0157 186.211 27.5525L194.663 41.4188L187.31 57.8794C186.559 59.459 187.294 61.3907 188.94 62.126C189.565 62.3998 190.277 62.4429 190.942 62.2866C191.872 62.0678 192.709 61.4501 193.12 60.5117L198.694 48.1174L204.538 57.7566C205.249 58.9923 206.7 59.493 208.029 59.1804C208.295 59.1178 208.628 59.0397 208.929 58.8286C210.466 57.906 210.923 55.9745 210.001 54.4377L201.858 40.9897L209.962 22.9495C210.697 21.3035 209.978 19.4383 208.332 18.7029Z" fill="#373B40"/>
<path d="M179.355 82.37C179.355 81.4071 178.595 80.6461 177.384 80.6461C176.159 80.6461 175.398 81.4071 175.398 82.37C175.398 83.3174 176.159 84.0629 177.384 84.0629C178.595 84.0629 179.355 83.3174 179.355 82.37Z" fill="#373B40"/>
<path d="M187.723 72.9426V78.5649L184.077 72.9426H180.633V83.9387H184.077V78.4096L187.723 83.9387H191.168V72.9426H187.723Z" fill="#373B40"/>
<path d="M192.724 83.9387H196.169V79.7918H199.272V77.1981H196.169V75.6761H200.482V72.9426H192.724V83.9387Z" fill="#373B40"/>
<path d="M201.028 75.6761H203.914V83.9387H207.359V75.6761H210.276V72.9426H201.028V75.6761Z" fill="#373B40"/>
</svg>
