<svg width="585" height="277" viewBox="0 0 585 277" fill="none" xmlns="http://www.w3.org/2000/svg">
<path d="M569.808 199.085L562.393 205.826H400.602L393.861 199.085H191.622L184.881 205.826H23.0896L15 199.085M563.741 181.557L513.991 82.0557C510.603 75.28 503.677 71 496.102 71H89.3806C81.8051 71 74.8799 75.28 71.492 82.0557L21.7413 181.557" stroke="white"/>
<path d="M193.644 200.433H391.838L397.906 206.5H187.577L193.644 200.433Z" fill="white"/>
<path d="M100.614 77.0671H244.878L250.945 71H94.5472L100.614 77.0671Z" fill="white"/>
<path d="M339.256 77.0671H483.52L489.587 71H333.189L339.256 77.0671Z" fill="white"/>
<path d="M28.4684 180.245L62.879 111.529L60.1707 103.387L20.3269 182.954L28.4684 180.245Z" fill="white"/>
<path d="M556.98 180.245L522.569 111.529L525.278 103.387L565.122 182.954L556.98 180.245Z" fill="white"/>
<path d="M97.2437 189.647H65.5373C64.217 189.647 62.9098 189.385 61.6911 188.878L52.2167 184.93C49.5747 183.829 48.3942 180.739 49.6291 178.157L62.189 151.896L85.6824 104.909C88.2233 99.827 93.4172 96.6169 99.0988 96.6169H218.25M488.239 189.647H520.019C521.292 189.647 522.552 189.404 523.733 188.932L533.753 184.924C536.469 183.837 537.676 180.662 536.368 178.045L523.293 151.896L499.8 104.909C497.259 99.827 492.065 96.6169 486.384 96.6169H367.233" stroke="white"/>
<path d="M248.007 91.5316V102.876H244.215V91.5316H248.007ZM249.606 102.876V91.5316H250.87L254.022 95.6436V91.5316H257.798V102.876H256.534L253.398 98.7956V102.876H249.606ZM261.915 93.1156H258.763V91.5316H268.843V93.1156H265.691V102.876H261.915V93.1156ZM276.737 91.5316V93.1156H273.601V96.5716H274.849V97.8356H273.601V101.292H276.737V102.876H269.809V91.5316H276.737ZM286.11 99.7236C286.121 99.9583 286.174 100.172 286.27 100.364C286.355 100.524 286.478 100.668 286.638 100.796C286.809 100.924 287.054 100.988 287.374 100.988V102.876H285.486C285.166 102.876 284.883 102.844 284.638 102.78C284.403 102.705 284.195 102.609 284.014 102.492C283.843 102.374 283.694 102.241 283.566 102.092C283.449 101.942 283.353 101.788 283.278 101.628C283.086 101.265 282.979 100.844 282.958 100.364V98.4756C282.947 98.3583 282.921 98.2516 282.878 98.1556C282.835 98.0703 282.771 97.9956 282.686 97.9316C282.601 97.8676 282.483 97.8356 282.334 97.8356H281.71V102.876H277.934V91.5476H284.222C284.542 91.5476 284.819 91.5849 285.054 91.6596C285.299 91.7343 285.507 91.8303 285.678 91.9476C285.859 92.0649 286.009 92.1983 286.126 92.3476C286.243 92.4969 286.345 92.6516 286.43 92.8116C286.622 93.1743 286.729 93.5903 286.75 94.0596V94.6836C286.729 95.1636 286.649 95.5849 286.51 95.9476C286.393 96.2676 286.206 96.5609 285.95 96.8276C285.694 97.0836 285.331 97.2116 284.862 97.2116C285.086 97.2223 285.294 97.2756 285.486 97.3716C285.635 97.4569 285.774 97.5849 285.902 97.7556C286.041 97.9263 286.11 98.1663 286.11 98.4756V99.7236ZM282.958 93.4356C282.947 93.2116 282.894 93.0036 282.798 92.8116C282.713 92.6516 282.585 92.5076 282.414 92.3796C282.254 92.2409 282.019 92.1716 281.71 92.1716V96.5876C282.019 96.5876 282.254 96.5236 282.414 96.3956C282.585 96.2676 282.713 96.1236 282.798 95.9636C282.894 95.7716 282.947 95.5583 282.958 95.3236V93.4356ZM295.285 91.5316C295.594 91.5316 295.866 91.5689 296.101 91.6436C296.346 91.7183 296.554 91.8143 296.725 91.9316C296.906 92.0489 297.056 92.1823 297.173 92.3316C297.29 92.4809 297.392 92.6356 297.477 92.7956C297.669 93.1689 297.776 93.5903 297.797 94.0596V102.876H294.021V97.8356H292.757V102.876H288.981V94.0596C288.981 93.4303 289.109 92.9449 289.365 92.6036C289.632 92.2623 289.925 92.0116 290.245 91.8516C290.608 91.6596 291.029 91.5529 291.509 91.5316H295.285ZM294.021 92.7956C294.01 92.6889 293.984 92.5876 293.941 92.4916C293.898 92.4063 293.834 92.3316 293.749 92.2676C293.664 92.2036 293.546 92.1716 293.397 92.1716C293.237 92.1716 293.114 92.2036 293.029 92.2676C292.944 92.3316 292.88 92.4063 292.837 92.4916C292.794 92.5876 292.768 92.6889 292.757 92.7956V96.5716H294.021V92.7956ZM299.403 94.0596C299.403 93.7396 299.435 93.4623 299.499 93.2276C299.574 92.9823 299.67 92.7743 299.787 92.6036C299.904 92.4223 300.038 92.2729 300.187 92.1556C300.336 92.0383 300.491 91.9369 300.651 91.8516C301.014 91.6596 301.435 91.5529 301.915 91.5316H305.387C305.739 91.5316 306.048 91.5743 306.315 91.6596C306.582 91.7343 306.816 91.8409 307.019 91.9796C307.222 92.1183 307.392 92.2729 307.531 92.4436C307.67 92.6143 307.782 92.7849 307.867 92.9556C308.07 93.3716 308.187 93.8409 308.219 94.3636H304.443V92.7956C304.432 92.6889 304.406 92.5876 304.363 92.4916C304.32 92.4063 304.256 92.3316 304.171 92.2676C304.086 92.2036 303.963 92.1716 303.803 92.1716C303.643 92.1716 303.52 92.2036 303.435 92.2676C303.36 92.3316 303.302 92.4063 303.259 92.4916C303.216 92.5876 303.19 92.6889 303.179 92.7956V101.612C303.19 101.729 303.216 101.836 303.259 101.932C303.302 102.017 303.36 102.092 303.435 102.156C303.52 102.209 303.643 102.236 303.803 102.236C303.963 102.236 304.086 102.209 304.171 102.156C304.256 102.092 304.32 102.017 304.363 101.932C304.406 101.836 304.432 101.729 304.443 101.612V100.044H308.219C308.187 100.577 308.07 101.052 307.867 101.468C307.782 101.649 307.67 101.825 307.531 101.996C307.392 102.156 307.222 102.305 307.019 102.444C306.816 102.572 306.582 102.678 306.315 102.764C306.048 102.838 305.739 102.876 305.387 102.876H301.915C301.435 102.854 301.014 102.748 300.651 102.556C300.491 102.481 300.336 102.385 300.187 102.268C300.038 102.14 299.904 101.99 299.787 101.82C299.67 101.638 299.574 101.43 299.499 101.196C299.435 100.95 299.403 100.668 299.403 100.348V94.0596ZM311.931 93.1156H308.779V91.5316H318.859V93.1156H315.707V102.876H311.931V93.1156ZM323.617 91.5316V102.876H319.825V91.5316H323.617ZM324.815 91.5316H329.231V100.348C329.242 100.465 329.269 100.572 329.311 100.668C329.354 100.753 329.413 100.828 329.487 100.892C329.573 100.945 329.695 100.972 329.855 100.972C330.015 100.972 330.138 100.945 330.223 100.892C330.309 100.828 330.373 100.753 330.415 100.668C330.458 100.572 330.485 100.465 330.495 100.348V91.5316H334.895L332.383 102.876H327.343L324.815 91.5316ZM343.018 91.5316V93.1156H339.882V96.5716H341.13V97.8356H339.882V101.292H343.018V102.876H336.09V91.5316H343.018Z" fill="#DEDEDE"/>
<path d="M243.932 137.878C243.932 139.408 243.711 140.581 243.269 141.397C242.861 142.179 242.419 142.757 241.943 143.131C241.331 143.573 240.668 143.828 239.954 143.896C240.668 143.964 241.331 144.219 241.943 144.661C242.419 145.035 242.861 145.63 243.269 146.446C243.711 147.262 243.932 148.435 243.932 149.965V153.943C243.864 155.473 243.524 156.816 242.912 157.972C242.402 158.992 241.603 159.927 240.515 160.777C239.427 161.593 237.897 162.001 235.925 162.001H214.862V125.842H235.925C236.911 125.842 237.778 125.961 238.526 126.199C239.308 126.437 239.971 126.743 240.515 127.117C241.093 127.491 241.569 127.916 241.943 128.392C242.317 128.868 242.64 129.361 242.912 129.871C243.524 131.061 243.864 132.404 243.932 133.9V137.878ZM232.916 149.965C232.882 149.251 232.712 148.588 232.406 147.976C232.134 147.466 231.726 147.007 231.182 146.599C230.638 146.157 229.873 145.936 228.887 145.936V159.961C229.873 159.961 230.638 159.757 231.182 159.349C231.726 158.941 232.134 158.482 232.406 157.972C232.712 157.394 232.882 156.731 232.916 155.983V149.965ZM232.916 131.86C232.882 131.146 232.712 130.483 232.406 129.871C232.134 129.395 231.726 128.953 231.182 128.545C230.638 128.103 229.873 127.882 228.887 127.882V141.907C229.873 141.907 230.638 141.703 231.182 141.295C231.726 140.887 232.134 140.428 232.406 139.918C232.712 139.306 232.882 138.626 232.916 137.878V131.86ZM269.122 125.842C270.108 125.842 270.975 125.961 271.723 126.199C272.505 126.437 273.168 126.743 273.712 127.117C274.29 127.491 274.766 127.916 275.14 128.392C275.514 128.868 275.837 129.361 276.109 129.871C276.721 131.061 277.061 132.404 277.129 133.9V162.001H265.093V145.936H261.064V162.001H249.028V133.9C249.028 131.894 249.436 130.347 250.252 129.259C251.102 128.171 252.037 127.372 253.057 126.862C254.213 126.25 255.556 125.91 257.086 125.842H269.122ZM265.093 129.871C265.059 129.531 264.974 129.208 264.838 128.902C264.702 128.63 264.498 128.392 264.226 128.188C263.954 127.984 263.58 127.882 263.104 127.882C262.594 127.882 262.203 127.984 261.931 128.188C261.659 128.392 261.455 128.63 261.319 128.902C261.183 129.208 261.098 129.531 261.064 129.871V141.907H265.093V129.871ZM294.335 125.842V162.001H282.248V125.842H294.335ZM318.351 145.936V153.994H299.43V145.936H318.351ZM345.519 125.842V130.891H335.523V141.907H339.501V145.936H335.523V156.952H345.519V162.001H323.436V125.842H345.519ZM371.418 125.842V130.891H361.422V141.907H365.4V145.936H361.422V156.952H371.418V162.001H349.335V125.842H371.418Z" fill="white"/>
<path opacity="0.8" d="M116.45 194.906V183.578H117.714L121.17 187.354L124.642 183.578H125.906V194.906H122.114V190.826L121.17 191.77L120.226 190.826V194.906H116.45ZM132.248 183.562V193.642C132.259 193.759 132.286 193.866 132.328 193.962C132.371 194.047 132.43 194.122 132.504 194.186C132.59 194.239 132.712 194.266 132.872 194.266C133.032 194.266 133.155 194.239 133.24 194.186C133.326 194.122 133.39 194.047 133.432 193.962C133.475 193.866 133.502 193.759 133.512 193.642V183.562H137.288V192.378C137.267 192.858 137.16 193.279 136.968 193.642C136.808 193.962 136.558 194.255 136.216 194.522C135.875 194.778 135.39 194.906 134.76 194.906H130.984C130.504 194.884 130.083 194.778 129.72 194.586C129.56 194.511 129.406 194.415 129.256 194.298C129.107 194.17 128.974 194.02 128.856 193.85C128.739 193.668 128.643 193.46 128.568 193.226C128.504 192.98 128.472 192.698 128.472 192.378V183.562H132.248ZM139.694 186.09C139.694 185.471 139.822 184.991 140.078 184.65C140.345 184.308 140.638 184.058 140.958 183.898C141.321 183.706 141.742 183.599 142.222 183.578H145.998C146.308 183.578 146.58 183.615 146.814 183.69C147.06 183.764 147.268 183.86 147.438 183.978C147.62 184.095 147.769 184.228 147.886 184.378C148.004 184.527 148.105 184.682 148.19 184.842C148.382 185.204 148.489 185.62 148.51 186.09H144.734V184.826C144.724 184.719 144.697 184.618 144.654 184.522C144.612 184.436 144.548 184.362 144.462 184.298C144.377 184.234 144.26 184.202 144.11 184.202C143.95 184.202 143.828 184.234 143.742 184.298C143.657 184.362 143.593 184.436 143.55 184.522C143.508 184.618 143.481 184.719 143.47 184.826V187.354C143.47 187.514 143.502 187.636 143.566 187.722C143.63 187.796 143.705 187.855 143.79 187.898C143.886 187.94 143.993 187.967 144.11 187.978H145.998C146.308 187.978 146.58 188.015 146.814 188.09C147.06 188.164 147.268 188.26 147.438 188.378C147.62 188.495 147.769 188.628 147.886 188.778C148.004 188.927 148.105 189.082 148.19 189.242C148.382 189.615 148.489 190.036 148.51 190.506V192.394C148.51 192.714 148.473 192.991 148.398 193.226C148.324 193.46 148.228 193.668 148.11 193.85C147.993 194.02 147.86 194.17 147.71 194.298C147.561 194.415 147.406 194.511 147.246 194.586C146.884 194.778 146.468 194.884 145.998 194.906H142.222C141.902 194.906 141.62 194.874 141.374 194.81C141.14 194.735 140.932 194.639 140.75 194.522C140.58 194.404 140.43 194.271 140.302 194.122C140.185 193.972 140.089 193.818 140.014 193.658C139.822 193.295 139.716 192.874 139.694 192.394H143.47V193.642C143.481 193.759 143.508 193.866 143.55 193.962C143.593 194.047 143.657 194.122 143.742 194.186C143.828 194.25 143.95 194.282 144.11 194.282C144.26 194.282 144.377 194.25 144.462 194.186C144.548 194.122 144.612 194.047 144.654 193.962C144.697 193.866 144.724 193.759 144.734 193.642V191.13C144.734 190.98 144.702 190.863 144.638 190.778C144.574 190.692 144.5 190.628 144.414 190.586C144.318 190.543 144.217 190.516 144.11 190.506H142.222C141.593 190.506 141.108 190.378 140.766 190.122C140.425 189.855 140.174 189.562 140.014 189.242C139.822 188.879 139.716 188.458 139.694 187.978V186.09ZM154.7 183.562V194.906H150.908V183.562H154.7ZM157.259 186.09C157.259 185.77 157.291 185.492 157.355 185.258C157.429 185.012 157.525 184.804 157.643 184.634C157.76 184.452 157.893 184.303 158.043 184.186C158.192 184.068 158.347 183.967 158.507 183.882C158.869 183.69 159.291 183.583 159.771 183.562H163.243C163.595 183.562 163.904 183.604 164.171 183.69C164.437 183.764 164.672 183.871 164.875 184.01C165.077 184.148 165.248 184.303 165.387 184.474C165.525 184.644 165.637 184.815 165.723 184.986C165.925 185.402 166.043 185.871 166.075 186.394H162.299V184.826C162.288 184.719 162.261 184.618 162.219 184.522C162.176 184.436 162.112 184.362 162.027 184.298C161.941 184.234 161.819 184.202 161.659 184.202C161.499 184.202 161.376 184.234 161.291 184.298C161.216 184.362 161.157 184.436 161.115 184.522C161.072 184.618 161.045 184.719 161.035 184.826V193.642C161.045 193.759 161.072 193.866 161.115 193.962C161.157 194.047 161.216 194.122 161.291 194.186C161.376 194.239 161.499 194.266 161.659 194.266C161.819 194.266 161.941 194.239 162.027 194.186C162.112 194.122 162.176 194.047 162.219 193.962C162.261 193.866 162.288 193.759 162.299 193.642V192.074H166.075C166.043 192.607 165.925 193.082 165.723 193.498C165.637 193.679 165.525 193.855 165.387 194.026C165.248 194.186 165.077 194.335 164.875 194.474C164.672 194.602 164.437 194.708 164.171 194.794C163.904 194.868 163.595 194.906 163.243 194.906H159.771C159.291 194.884 158.869 194.778 158.507 194.586C158.347 194.511 158.192 194.415 158.043 194.298C157.893 194.17 157.76 194.02 157.643 193.85C157.525 193.668 157.429 193.46 157.355 193.226C157.291 192.98 157.259 192.698 157.259 192.378V186.09Z" fill="white"/>
<path opacity="0.8" d="M428.748 194.906V183.562H430.012L433.164 187.674V183.562H436.94V194.906H435.676L432.54 190.826V194.906H428.748ZM446.433 183.562V185.146H443.281V188.602H444.545V189.866H443.281V194.906H439.505V183.562H446.433ZM451.102 185.146H447.95V183.562H458.03V185.146H454.878V194.906H451.102V185.146Z" fill="white"/>
</svg>
