<svg width="524" height="179" viewBox="0 0 524 179" fill="none" xmlns="http://www.w3.org/2000/svg">
<g clip-path="url(#clip0_1112_7503)">
<path d="M513.441 151.675H514.208V154.311H515.122V151.675H515.897V150.803H513.441V151.675Z" fill="black"/>
<path opacity="0.5" d="M288.231 135H290.747L286.48 123.117H283.709L279.442 135H281.941L282.723 132.739H287.449L288.231 135ZM286.803 130.835H283.369L285.086 125.871L286.803 130.835ZM292.342 123.134V135H298.632V133.113H294.722V123.134H292.342ZM302.525 128.523V125.072H304.412C305.755 125.072 306.35 125.718 306.35 126.806C306.35 127.86 305.755 128.523 304.412 128.523H302.525ZM308.798 126.806C308.798 124.749 307.37 123.134 304.514 123.134H300.145V135H302.525V130.444H304.514C307.574 130.444 308.798 128.608 308.798 126.806ZM317.95 135H320.33V123.134H317.95V128.013H312.867V123.134H310.487V135H312.867V129.951H317.95V135ZM330.731 135H333.247L328.98 123.117H326.209L321.942 135H324.441L325.223 132.739H329.949L330.731 135ZM329.303 130.835H325.869L327.586 125.871L329.303 130.835ZM338.264 125.055H341.426V135H343.806V125.055H346.968V123.134H338.264V125.055ZM355.589 123.117H348.704V135H355.589V133.062H351.084V129.917H355.079V128.03H351.084V125.055H355.589V123.117ZM366.048 131.566C366.048 127.384 359.962 128.71 359.962 126.33C359.962 125.361 360.659 124.902 361.594 124.936C362.614 124.953 363.243 125.565 363.294 126.347H365.912C365.759 124.205 364.093 122.964 361.662 122.964C359.214 122.964 357.48 124.256 357.48 126.398C357.463 130.699 363.583 129.152 363.583 131.719C363.583 132.569 362.92 133.164 361.798 133.164C360.693 133.164 360.064 132.535 359.996 131.583H357.446C357.48 133.827 359.384 135.119 361.849 135.119C364.552 135.119 366.048 133.436 366.048 131.566ZM367.482 125.055H370.644V135H373.024V125.055H376.186V123.134H367.482V125.055ZM388.859 123.117H381.974V135H388.859V133.062H384.354V129.917H388.349V128.03H384.354V125.055H388.859V123.117ZM390.393 125.055H393.555V135H395.935V125.055H399.097V123.134H390.393V125.055ZM400.561 128.642C400.561 132.263 401.649 134.966 405.151 134.966C408.653 134.966 409.741 132.263 409.741 128.642C409.741 125.055 408.653 122.369 405.151 122.369C401.649 122.369 400.561 125.055 400.561 128.642ZM407.395 128.642C407.395 130.852 407.157 132.756 405.151 132.756C403.145 132.756 402.907 130.852 402.907 128.642C402.907 126.517 403.145 124.579 405.151 124.579C407.157 124.579 407.395 126.517 407.395 128.642ZM411.551 128.642C411.551 132.263 412.639 134.966 416.141 134.966C419.643 134.966 420.731 132.263 420.731 128.642C420.731 125.055 419.643 122.369 416.141 122.369C412.639 122.369 411.551 125.055 411.551 128.642ZM418.385 128.642C418.385 130.852 418.147 132.756 416.141 132.756C414.135 132.756 413.897 130.852 413.897 128.642C413.897 126.517 414.135 124.579 416.141 124.579C418.147 124.579 418.385 126.517 418.385 128.642ZM423.902 135H426.35V122.607H422.253V124.8H423.902V135ZM279.595 155.05C279.595 158.603 282.196 161.102 285.613 161.102C288.248 161.102 290.39 159.708 291.189 157.26H288.452C287.891 158.416 286.871 158.977 285.596 158.977C283.522 158.977 282.043 157.447 282.043 155.05C282.043 152.636 283.522 151.123 285.596 151.123C286.871 151.123 287.891 151.684 288.452 152.823H291.189C290.39 150.392 288.248 148.981 285.613 148.981C282.196 148.981 279.595 151.497 279.595 155.05ZM301.28 161H303.796L299.529 149.117H296.758L292.491 161H294.99L295.772 158.739H300.498L301.28 161ZM299.852 156.835H296.418L298.135 151.871L299.852 156.835ZM304.762 151.055H307.924V161H310.304V151.055H313.466V149.134H304.762V151.055ZM323.26 161H325.776L321.509 149.117H318.738L314.471 161H316.97L317.752 158.739H322.478L323.26 161ZM321.832 156.835H318.398L320.115 151.871L321.832 156.835ZM327.371 149.134V161H333.661V159.113H329.751V149.134H327.371ZM346.751 155.033C346.751 151.48 344.065 148.964 340.682 148.964C337.333 148.964 334.596 151.48 334.596 155.033C334.596 158.603 337.333 161.119 340.682 161.119C344.048 161.119 346.751 158.603 346.751 155.033ZM337.044 155.033C337.044 152.619 338.523 151.106 340.682 151.106C342.824 151.106 344.303 152.619 344.303 155.033C344.303 157.447 342.824 158.994 340.682 158.994C338.523 158.994 337.044 157.447 337.044 155.033ZM353.996 148.981C350.562 148.981 347.944 151.497 347.944 155.05C347.944 158.603 350.562 161.102 354.013 161.102C357.175 161.102 359.334 158.892 359.81 156.478V154.404H353.384V156.223H357.464C357.107 157.906 355.934 158.96 354.098 158.96C351.888 158.96 350.392 157.464 350.392 155.05C350.392 152.687 351.871 151.174 353.996 151.174C355.254 151.174 356.24 151.701 356.784 152.704H359.521C358.756 150.324 356.648 148.981 353.996 148.981ZM364.069 159.725C364.069 158.943 363.457 158.331 362.624 158.331C361.757 158.331 361.145 158.943 361.145 159.725C361.145 160.507 361.757 161.119 362.624 161.119C363.457 161.119 364.069 160.507 364.069 159.725ZM364.069 152.687C364.069 151.905 363.457 151.293 362.624 151.293C361.757 151.293 361.145 151.905 361.145 152.687C361.145 153.469 361.757 154.081 362.624 154.081C363.457 154.081 364.069 153.469 364.069 152.687ZM377.193 161H379.93L376.139 155.101L379.862 149.134H377.176L374.864 153.112L372.297 149.134H369.56L373.351 155.016L369.611 161H372.297L374.626 157.005L377.193 161ZM388.847 161H391.584L387.793 155.101L391.516 149.134H388.83L386.518 153.112L383.951 149.134H381.214L385.005 155.016L381.265 161H383.951L386.28 157.005L388.847 161ZM400.502 161H403.239L399.448 155.101L403.171 149.134H400.485L398.173 153.112L395.606 149.134H392.869L396.66 155.016L392.92 161H395.606L397.935 157.005L400.502 161ZM412.156 161H414.893L411.102 155.101L414.825 149.134H412.139L409.827 153.112L407.26 149.134H404.523L408.314 155.016L404.574 161H407.26L409.589 157.005L412.156 161ZM423.81 161H426.547L422.756 155.101L426.479 149.134H423.793L421.481 153.112L418.914 149.134H416.177L419.968 155.016L416.228 161H418.914L421.243 157.005L423.81 161Z" fill="#C1C1C1"/>
<path d="M281.208 101H284.927V90.9727H295.22V87.835H284.927V80.248H296.166V77.0439H281.208V101ZM305.878 101.349C310.875 101.349 314.162 97.8955 314.162 92.2676V92.2344C314.162 86.6396 310.842 83.2031 305.861 83.2031C300.897 83.2031 297.594 86.6562 297.594 92.2344V92.2676C297.594 97.8789 300.864 101.349 305.878 101.349ZM305.895 98.3438C303.089 98.3438 301.263 96.1357 301.263 92.2676V92.2344C301.263 88.416 303.105 86.208 305.861 86.208C308.667 86.208 310.493 88.416 310.493 92.2344V92.2676C310.493 96.1191 308.7 98.3438 305.895 98.3438ZM316.935 101H320.521V90.4912C320.521 88.0176 321.948 86.4736 324.256 86.4736C324.953 86.4736 325.584 86.5566 325.866 86.6729V83.3359C325.584 83.2861 325.136 83.2031 324.621 83.2031C322.562 83.2031 321.002 84.4316 320.471 86.4238H320.388V83.5352H316.935V101ZM335.429 101H339.147V92.8154H344.344C349.042 92.8154 352.296 89.6113 352.296 84.9297V84.8965C352.296 80.1982 349.042 77.0439 344.344 77.0439H335.429V101ZM343.414 80.1816C346.651 80.1816 348.511 81.9248 348.511 84.9131V84.9463C348.511 87.9512 346.651 89.6943 343.414 89.6943H339.147V80.1816H343.414ZM358.854 101.315C361.161 101.315 363.187 100.12 364.199 98.2441H364.266V101H367.868V88.9639C367.868 85.4609 365.162 83.2031 360.896 83.2031C356.596 83.2031 353.989 85.5107 353.74 88.5156L353.724 88.6982H357.11L357.144 88.5488C357.442 87.1543 358.721 86.1748 360.796 86.1748C363.021 86.1748 364.266 87.3369 364.266 89.2627V90.5742L359.518 90.8564C355.384 91.1055 353.026 92.9648 353.026 96.0029V96.0361C353.026 99.1738 355.367 101.315 358.854 101.315ZM356.646 95.9531V95.9199C356.646 94.4424 357.841 93.4961 359.999 93.3633L364.266 93.0977V94.459C364.266 96.7334 362.356 98.4434 359.833 98.4434C357.907 98.4434 356.646 97.4805 356.646 95.9531ZM377.298 101.349C379.954 101.349 381.73 100.137 382.644 98.377H382.727V101H386.329V83.5352H382.727V93.7285C382.727 96.4512 381.1 98.2607 378.576 98.2607C376.086 98.2607 374.857 96.7998 374.857 94.1602V83.5352H371.271V94.8574C371.271 98.875 373.463 101.349 377.298 101.349ZM390.015 101H393.601V77.0439H390.015V101Z" fill="white"/>
<rect x="48" y="4" width="183" height="178" fill="url(#paint0_radial_1112_7503)"/>
<g style="mix-blend-mode:soft-light">
<path d="M282.105 54H289.067V28.7422H289.274L299.367 54H304.284L314.351 28.7422H314.583V54H321.545V16.6567H312.513L301.903 43.4932H301.748L291.137 16.6567H282.105V54ZM331.457 63.1353C337.616 63.1353 341.342 61.0391 343.516 54.4917L353.04 26.2578H345.069L339.194 47.9443H338.987L333.139 26.2578H324.832L334.64 54L334.303 54.9058C333.63 56.7949 332.388 57.4419 330.137 57.4419C329.024 57.4419 328.144 57.2866 327.601 57.1831V62.7988C328.48 62.9541 329.981 63.1353 331.457 63.1353ZM366.937 54.5693C374.079 54.5693 379.074 50.998 379.074 45.5635V45.5376C379.074 41.4487 376.693 39.1714 370.896 37.9551L366.186 36.9458C363.391 36.3506 362.434 35.4189 362.434 33.9956V33.9697C362.434 32.1841 364.064 31.0195 366.678 31.0195C369.473 31.0195 371.103 32.5205 371.362 34.5132L371.388 34.7202H378.349V34.4614C378.168 29.5962 374.053 25.6885 366.678 25.6885C359.613 25.6885 355.058 29.1045 355.058 34.3838V34.4097C355.058 38.5503 357.775 41.2417 363.158 42.3804L367.868 43.3638C370.585 43.959 371.517 44.813 371.517 46.2881V46.314C371.517 48.0996 369.783 49.2124 366.937 49.2124C363.909 49.2124 362.278 47.9443 361.787 45.7705L361.735 45.5376H354.359L354.385 45.7705C354.98 51.0239 359.25 54.5693 366.937 54.5693ZM393.825 54.5693C395.403 54.5693 396.62 54.4141 397.474 54.2847V48.7466C397.008 48.7983 396.516 48.876 395.843 48.876C393.566 48.876 392.401 47.9961 392.401 45.4082V31.9512H397.474V26.2578H392.401V19.4775H384.767V26.2578H380.911V31.9512H384.767V46.2363C384.767 52.1885 387.666 54.5693 393.825 54.5693ZM405.574 22.6865C407.851 22.6865 409.611 20.9009 409.611 18.7529C409.611 16.605 407.851 14.8193 405.574 14.8193C403.296 14.8193 401.537 16.605 401.537 18.7529C401.537 20.9009 403.296 22.6865 405.574 22.6865ZM401.795 54H409.352V26.2578H401.795V54ZM427.105 54.5693C434.506 54.5693 439.294 49.9629 439.656 43.9072V43.752H432.617L432.591 43.9849C432.074 46.7798 430.185 48.6431 427.157 48.6431C423.43 48.6431 421.101 45.5635 421.101 40.1289V40.103C421.101 34.7979 423.43 31.6147 427.131 31.6147C430.262 31.6147 432.1 33.6333 432.565 36.2729L432.617 36.5059H439.63V36.3247C439.346 30.3208 434.558 25.6885 427.027 25.6885C418.72 25.6885 413.415 31.2007 413.415 40.0771V40.103C413.415 49.0571 418.643 54.5693 427.105 54.5693ZM454.459 54H470.996C478.966 54 483.909 49.8853 483.909 43.312V43.2603C483.909 38.3433 480.157 34.6426 474.955 34.2544V34.0991C479.044 33.5557 482.124 30.0879 482.124 26.0249V25.9731C482.124 20.2539 477.724 16.6567 470.711 16.6567H454.459V54ZM468.692 22.4536C472.315 22.4536 474.438 24.1616 474.438 27.1118V27.1636C474.438 30.269 472.057 32.1064 467.89 32.1064H462.274V22.4536H468.692ZM468.822 37.4116C473.428 37.4116 475.938 39.2749 475.938 42.7427V42.7944C475.938 46.314 473.48 48.1772 469.003 48.1772H462.274V37.4116H468.822ZM491.647 22.6865C493.924 22.6865 495.684 20.9009 495.684 18.7529C495.684 16.605 493.924 14.8193 491.647 14.8193C489.37 14.8193 487.61 16.605 487.61 18.7529C487.61 20.9009 489.37 22.6865 491.647 22.6865ZM487.869 54H495.425V26.2578H487.869V54ZM500.679 54H508.235V16.6567H500.679V54ZM513.515 54H521.071V16.6567H513.515V54Z" fill="white"/>
</g>
<rect x="1.66016" y="153.492" width="62.0335" height="23.5127" rx="11.7563" fill="#C4C4C4"/>
<path d="M5.56331 170.451H7.57931V160.245H4.20531V162.051H5.56331V170.451ZM9.40357 170.311H16.3196V168.687H12.1896C13.8136 167.315 16.0956 165.467 16.0956 163.101C16.0956 161.323 14.9896 160.021 12.7916 160.021C10.9576 160.021 9.45957 161.099 9.38957 163.437H11.2936C11.3076 162.359 11.8256 161.687 12.7636 161.687C13.7296 161.687 14.1356 162.303 14.1356 163.213C14.1356 165.089 11.7136 166.895 9.40357 168.855V170.311ZM18.0866 160.217V166.209H19.9626C20.1726 165.579 20.6906 165.131 21.5026 165.131C22.6086 165.131 23.1826 165.761 23.1826 166.909C23.1826 167.987 22.6646 168.799 21.5166 168.799C20.5646 168.799 19.9906 168.281 19.8226 167.567H17.9186C18.0866 169.233 19.3466 170.451 21.5446 170.451C23.8686 170.451 25.0726 168.967 25.0726 166.881C25.0726 165.299 24.2606 163.507 21.8806 163.507C21.0266 163.507 20.2566 163.871 19.8786 164.333V161.939H24.4146V160.217H18.0866ZM36.2666 167.361C36.2666 168.246 35.6666 168.741 34.6466 168.741H32.5316V165.921H34.6016C35.6216 165.921 36.2666 166.461 36.2666 167.361ZM36.0116 162.996C36.0116 163.851 35.4416 164.301 34.4516 164.301H32.5316V161.676H34.4516C35.4416 161.676 36.0116 162.156 36.0116 162.996ZM38.3966 167.616C38.3966 166.386 37.5566 165.291 36.3716 165.081C37.3916 164.751 38.1566 163.956 38.1566 162.681C38.1566 161.121 36.9416 159.981 34.7516 159.981H30.4316V170.451H34.9466C37.1216 170.451 38.3966 169.281 38.3966 167.616ZM42.1703 164.736V161.691H43.8353C45.0203 161.691 45.5453 162.261 45.5453 163.221C45.5453 164.151 45.0203 164.736 43.8353 164.736H42.1703ZM47.7053 163.221C47.7053 161.406 46.4453 159.981 43.9253 159.981H40.0703V170.451H42.1703V166.431H43.9253C46.6253 166.431 47.7053 164.811 47.7053 163.221ZM49.1963 170.451H51.2963V163.641L54.1163 170.451H55.7063L58.5113 163.641V170.451H60.6113V159.981H58.2413L54.9113 167.766L51.5813 159.981H49.1963V170.451Z" fill="black"/>
<rect x="1.66016" y="129" width="62.0335" height="23.5127" rx="11.7563" fill="#C4C4C4"/>
<path d="M15.2407 145.959H17.3407V135.489H15.2407V139.794H10.7557V135.489H8.65574V145.959H10.7557V141.504H15.2407V145.959ZM29.6227 140.694C29.6227 137.559 27.2527 135.339 24.2677 135.339C21.3127 135.339 18.8977 137.559 18.8977 140.694C18.8977 143.844 21.3127 146.064 24.2677 146.064C27.2377 146.064 29.6227 143.844 29.6227 140.694ZM21.0577 140.694C21.0577 138.564 22.3627 137.229 24.2677 137.229C26.1577 137.229 27.4627 138.564 27.4627 140.694C27.4627 142.824 26.1577 144.189 24.2677 144.189C22.3627 144.189 21.0577 142.824 21.0577 140.694ZM31.155 141.954C31.155 144.714 33.045 146.064 35.34 146.064C37.635 146.064 39.615 144.714 39.615 141.954V135.489H37.5V141.969C37.5 143.409 36.72 144.159 35.37 144.159C34.035 144.159 33.255 143.409 33.255 141.969V135.489H31.155V141.954ZM48.964 142.929C48.964 139.239 43.594 140.409 43.594 138.309C43.594 137.454 44.209 137.049 45.034 137.079C45.934 137.094 46.489 137.634 46.534 138.324H48.844C48.709 136.434 47.239 135.339 45.094 135.339C42.934 135.339 41.404 136.479 41.404 138.369C41.389 142.164 46.789 140.799 46.789 143.064C46.789 143.814 46.204 144.339 45.214 144.339C44.239 144.339 43.684 143.784 43.624 142.944H41.374C41.404 144.924 43.084 146.064 45.259 146.064C47.644 146.064 48.964 144.579 48.964 142.929ZM56.8596 135.474H50.7846V145.959H56.8596V144.249H52.8846V141.474H56.4096V139.809H52.8846V137.184H56.8596V135.474Z" fill="black"/>
</g>
<defs>
<radialGradient id="paint0_radial_1112_7503" cx="0" cy="0" r="1" gradientUnits="userSpaceOnUse" gradientTransform="translate(139.5 93) rotate(90) scale(89 91.5)">
<stop stop-color="#C4C4C4"/>
<stop offset="1" stop-color="#C4C4C4" stop-opacity="0"/>
</radialGradient>
<clipPath id="clip0_1112_7503">
<rect width="524" height="179" fill="white"/>
</clipPath>
</defs>
</svg>
