<svg width="524" height="179" viewBox="0 0 524 179" fill="none" xmlns="http://www.w3.org/2000/svg">
<g clip-path="url(#clip0_20_25)">
<path d="M121.438 80.04C124.658 76.452 126.498 72.036 126.498 67.528C126.498 58.052 121.99 50.6 107.362 50.6H50.6904V115H109.57C124.198 115 130.546 107.088 130.546 96.232C130.546 88.78 126.958 83.444 121.438 80.04ZM67.2504 62.56H101.382C105.89 62.56 109.938 62.56 109.938 69.184C109.938 75.9 105.89 75.9 101.474 75.9H101.382H67.2504V62.56ZM105.522 102.212H67.2504V88.596H105.522C109.938 88.596 113.986 88.596 113.986 95.404C113.986 102.212 109.938 102.212 105.522 102.212ZM200.116 115H218.424L185.12 50.6H162.764L129.552 115H147.768L154.668 101.292H193.216L200.116 115ZM160.832 88.964L173.988 62.836L187.052 88.964H160.832ZM238.942 50.6H222.382V115H238.942V50.6ZM248.659 77.188V90.252H322.259V77.188H248.659ZM400.071 63.756V50.6H331.991V115H400.071V101.844H348.551V88.78H400.071V76.82H348.551V63.756H400.071ZM474.192 63.756V50.6H406.112V115H474.192V101.844H422.672V88.78H474.192V76.82H422.672V63.756H474.192Z" fill="white"/>
<path d="M188.101 144.678V132.6H184.141V148H199.981V144.678H188.101ZM210.23 148.22C216.984 148.22 219.91 145.382 219.91 140.278C219.91 135.196 216.984 132.38 210.23 132.38C203.454 132.38 200.55 135.174 200.55 140.278C200.55 145.404 203.454 148.22 210.23 148.22ZM210.23 144.898C206.116 144.898 204.51 143.446 204.51 140.278C204.51 137.132 206.094 135.702 210.23 135.702C214.366 135.702 215.95 137.154 215.95 140.278C215.95 143.424 214.344 144.898 210.23 144.898ZM230.812 148.22C237.566 148.22 240.492 145.382 240.492 140.278C240.492 135.196 237.566 132.38 230.812 132.38C224.036 132.38 221.132 135.174 221.132 140.278C221.132 145.404 224.036 148.22 230.812 148.22ZM230.812 144.898C226.698 144.898 225.092 143.446 225.092 140.278C225.092 137.132 226.676 135.702 230.812 135.702C234.948 135.702 236.532 137.154 236.532 140.278C236.532 143.424 234.926 144.898 230.812 144.898ZM254.034 132.6H241.934V148H245.894V143.886H254.034C257.532 143.886 259.93 141.686 259.93 138.254C259.93 134.822 257.532 132.6 254.034 132.6ZM252.934 140.564H245.894V135.922H252.934C254.122 135.922 255.97 135.922 255.97 138.254C255.97 140.564 254.122 140.564 252.934 140.564ZM262.032 149.386V152.334H284.032V149.386H262.032ZM295.164 148.22C301.258 148.22 304.184 145.382 304.184 140.278C304.184 135.196 301.258 132.38 295.164 132.38C289.048 132.38 286.144 135.174 286.144 140.278C286.144 145.404 289.048 148.22 295.164 148.22ZM295.164 144.898C291.688 144.898 290.104 143.182 290.104 140.278C290.104 137.396 291.688 135.702 295.164 135.702C298.64 135.702 300.224 137.418 300.224 140.278C300.224 143.16 298.64 144.898 295.164 144.898ZM314.65 148.22C320.744 148.22 323.67 145.382 323.67 140.278C323.67 135.196 320.744 132.38 314.65 132.38C308.534 132.38 305.63 135.174 305.63 140.278C305.63 145.404 308.534 148.22 314.65 148.22ZM314.65 144.898C311.174 144.898 309.59 143.182 309.59 140.278C309.59 137.396 311.174 135.702 314.65 135.702C318.126 135.702 319.71 137.418 319.71 140.278C319.71 143.16 318.126 144.898 314.65 144.898ZM334.577 144.678V132.6H330.617C330.617 135.548 327.603 135.548 325.337 135.548V138.892C326.943 138.892 328.989 138.892 330.661 137.418L330.639 144.678H325.337V148H339.857V144.678H334.577Z" fill="white"/>
</g>
<defs>
<clipPath id="clip0_20_25">
<rect width="524" height="179" fill="white"/>
</clipPath>
</defs>
</svg>
