<svg width="896" height="306" viewBox="0 0 896 306" fill="none" xmlns="http://www.w3.org/2000/svg">
<g clip-path="url(#clip0_6_154)">
<g filter="url(#filter0_b_6_154)">
<path d="M896 198V27.4176C896 26.835 895.746 26.2815 895.305 25.9015L875.062 8.48398C874.7 8.17173 874.237 8 873.758 8H2C0.895431 8 0 8.89543 0 10V178L21.5 200H894C895.105 200 896 199.105 896 198Z" fill="#FF0000"/>
<path d="M874.084 9.62095L874.084 9.621L894.326 27.0386C894.437 27.1335 894.5 27.2719 894.5 27.4176V198C894.5 198.276 894.276 198.5 894 198.5H22.1314L1.5 177.389V10C1.5 9.72386 1.72386 9.5 2 9.5H873.758C873.878 9.5 873.993 9.54293 874.084 9.62095Z" stroke="white" stroke-width="3"/>
</g>
<path d="M219.027 56.021C221.373 53.261 222.822 50.087 222.822 46.982C222.822 39.668 219.441 34.7 208.47 34.7H166.38V83H210.54C221.511 83 226.272 76.652 226.272 68.717C226.272 63.473 223.236 59.057 219.027 56.021ZM184.32 46.43H200.88C202.674 46.43 204.882 46.43 204.882 49.052C204.882 51.674 202.674 51.674 200.88 51.674H184.32V46.43ZM204.33 69.89H184.32V64.784H204.33C206.124 64.784 208.332 64.784 208.332 67.337C208.332 69.89 206.124 69.89 204.33 69.89ZM270.492 83H290.226L270.216 34.7H243.582L223.572 83H243.306L246.618 74.306H267.18L270.492 83ZM251.31 61.886L256.899 47.12L262.488 61.886H251.31ZM309.585 34.7H291.645V83H309.585V34.7ZM313.711 52.64V66.44H368.911V52.64H313.711ZM424.103 48.5V34.7H373.043V83H424.103V69.2H390.983V64.715H424.103V52.985H390.983V48.5H424.103ZM477.201 48.5V34.7H426.141V83H477.201V69.2H444.081V64.715H477.201V52.985H444.081V48.5H477.201Z" fill="url(#paint0_linear_6_154)"/>
<path d="M219.027 56.021L218.646 55.6972L218.295 56.1097L218.735 56.4265L219.027 56.021ZM166.38 34.7V34.2H165.88V34.7H166.38ZM166.38 83H165.88V83.5H166.38V83ZM184.32 46.43V45.93H183.82V46.43H184.32ZM184.32 51.674H183.82V52.174H184.32V51.674ZM184.32 69.89H183.82V70.39H184.32V69.89ZM184.32 64.784V64.284H183.82V64.784H184.32ZM219.408 56.3448C221.805 53.5254 223.322 50.2408 223.322 46.982H222.322C222.322 49.9332 220.941 52.9966 218.646 55.6972L219.408 56.3448ZM223.322 46.982C223.322 43.2565 222.461 40.0282 220.109 37.7398C217.76 35.4553 214.02 34.2 208.47 34.2V35.2C213.891 35.2 217.327 36.4287 219.411 38.4566C221.492 40.4808 222.322 43.3935 222.322 46.982H223.322ZM208.47 34.2H166.38V35.2H208.47V34.2ZM165.88 34.7V83H166.88V34.7H165.88ZM166.38 83.5H210.54V82.5H166.38V83.5ZM210.54 83.5C216.122 83.5 220.197 81.8828 222.875 79.1865C225.551 76.4924 226.772 72.7827 226.772 68.717H225.772C225.772 72.5863 224.613 76.0181 222.165 78.4818C219.72 80.9432 215.929 82.5 210.54 82.5V83.5ZM226.772 68.717C226.772 63.2648 223.615 58.7137 219.32 55.6155L218.735 56.4265C222.857 59.4003 225.772 63.6812 225.772 68.717H226.772ZM184.32 46.93H200.88V45.93H184.32V46.93ZM200.88 46.93C201.806 46.93 202.695 46.9378 203.359 47.2184C203.674 47.3511 203.917 47.5382 204.087 47.8049C204.259 48.0743 204.382 48.4664 204.382 49.052H205.382C205.382 48.3266 205.229 47.7354 204.931 47.2674C204.631 46.7967 204.21 46.4921 203.748 46.2971C202.86 45.9221 201.748 45.93 200.88 45.93V46.93ZM204.382 49.052C204.382 49.6376 204.259 50.0297 204.087 50.2991C203.917 50.5658 203.674 50.7529 203.359 50.8856C202.695 51.1661 201.806 51.174 200.88 51.174V52.174C201.748 52.174 202.86 52.1819 203.748 51.8069C204.21 51.6119 204.631 51.3073 204.931 50.8366C205.229 50.3686 205.382 49.7774 205.382 49.052H204.382ZM200.88 51.174H184.32V52.174H200.88V51.174ZM184.82 51.674V46.43H183.82V51.674H184.82ZM204.33 69.39H184.32V70.39H204.33V69.39ZM184.82 69.89V64.784H183.82V69.89H184.82ZM184.32 65.284H204.33V64.284H184.32V65.284ZM204.33 65.284C205.255 65.284 206.147 65.2915 206.814 65.5656C207.13 65.6955 207.372 65.8778 207.541 66.1349C207.71 66.3938 207.832 66.771 207.832 67.337H208.832C208.832 66.6265 208.678 66.0463 208.377 65.5872C208.076 65.1263 207.654 64.8298 207.194 64.6407C206.308 64.2765 205.199 64.284 204.33 64.284V65.284ZM207.832 67.337C207.832 67.903 207.71 68.2802 207.541 68.5391C207.372 68.7962 207.13 68.9785 206.814 69.1084C206.147 69.3825 205.255 69.39 204.33 69.39V70.39C205.199 70.39 206.308 70.3975 207.194 70.0333C207.654 69.8441 208.076 69.5477 208.377 69.0868C208.678 68.6277 208.832 68.0475 208.832 67.337H207.832ZM270.492 83L270.025 83.178L270.147 83.5H270.492V83ZM290.226 83V83.5H290.974L290.688 82.8086L290.226 83ZM270.216 34.7L270.678 34.5086L270.55 34.2H270.216V34.7ZM243.582 34.7V34.2H243.248L243.12 34.5086L243.582 34.7ZM223.572 83L223.11 82.8086L222.823 83.5H223.572V83ZM243.306 83V83.5H243.65L243.773 83.178L243.306 83ZM246.618 74.306V73.806H246.273L246.151 74.128L246.618 74.306ZM267.18 74.306L267.647 74.128L267.524 73.806H267.18V74.306ZM251.31 61.886L250.842 61.709L250.586 62.386H251.31V61.886ZM256.899 47.12L257.366 46.943L256.899 45.7075L256.431 46.943L256.899 47.12ZM262.488 61.886V62.386H263.212L262.955 61.709L262.488 61.886ZM270.492 83.5H290.226V82.5H270.492V83.5ZM290.688 82.8086L270.678 34.5086L269.754 34.8914L289.764 83.1914L290.688 82.8086ZM270.216 34.2H243.582V35.2H270.216V34.2ZM243.12 34.5086L223.11 82.8086L224.034 83.1914L244.044 34.8914L243.12 34.5086ZM223.572 83.5H243.306V82.5H223.572V83.5ZM243.773 83.178L247.085 74.484L246.151 74.128L242.839 82.822L243.773 83.178ZM246.618 74.806H267.18V73.806H246.618V74.806ZM266.713 74.484L270.025 83.178L270.959 82.822L267.647 74.128L266.713 74.484ZM251.777 62.063L257.366 47.297L256.431 46.943L250.842 61.709L251.777 62.063ZM256.431 47.297L262.02 62.063L262.955 61.709L257.366 46.943L256.431 47.297ZM262.488 61.386H251.31V62.386H262.488V61.386ZM309.585 34.7H310.085V34.2H309.585V34.7ZM291.645 34.7V34.2H291.145V34.7H291.645ZM291.645 83H291.145V83.5H291.645V83ZM309.585 83V83.5H310.085V83H309.585ZM309.585 34.2H291.645V35.2H309.585V34.2ZM291.145 34.7V83H292.145V34.7H291.145ZM291.645 83.5H309.585V82.5H291.645V83.5ZM310.085 83V34.7H309.085V83H310.085ZM313.711 52.64V52.14H313.211V52.64H313.711ZM313.711 66.44H313.211V66.94H313.711V66.44ZM368.911 66.44V66.94H369.411V66.44H368.911ZM368.911 52.64H369.411V52.14H368.911V52.64ZM313.211 52.64V66.44H314.211V52.64H313.211ZM313.711 66.94H368.911V65.94H313.711V66.94ZM369.411 66.44V52.64H368.411V66.44H369.411ZM368.911 52.14H313.711V53.14H368.911V52.14ZM424.103 48.5V49H424.603V48.5H424.103ZM424.103 34.7H424.603V34.2H424.103V34.7ZM373.043 34.7V34.2H372.543V34.7H373.043ZM373.043 83H372.543V83.5H373.043V83ZM424.103 83V83.5H424.603V83H424.103ZM424.103 69.2H424.603V68.7H424.103V69.2ZM390.983 69.2H390.483V69.7H390.983V69.2ZM390.983 64.715V64.215H390.483V64.715H390.983ZM424.103 64.715V65.215H424.603V64.715H424.103ZM424.103 52.985H424.603V52.485H424.103V52.985ZM390.983 52.985H390.483V53.485H390.983V52.985ZM390.983 48.5V48H390.483V48.5H390.983ZM424.603 48.5V34.7H423.603V48.5H424.603ZM424.103 34.2H373.043V35.2H424.103V34.2ZM372.543 34.7V83H373.543V34.7H372.543ZM373.043 83.5H424.103V82.5H373.043V83.5ZM424.603 83V69.2H423.603V83H424.603ZM424.103 68.7H390.983V69.7H424.103V68.7ZM391.483 69.2V64.715H390.483V69.2H391.483ZM390.983 65.215H424.103V64.215H390.983V65.215ZM424.603 64.715V52.985H423.603V64.715H424.603ZM424.103 52.485H390.983V53.485H424.103V52.485ZM391.483 52.985V48.5H390.483V52.985H391.483ZM390.983 49H424.103V48H390.983V49ZM477.201 48.5V49H477.701V48.5H477.201ZM477.201 34.7H477.701V34.2H477.201V34.7ZM426.141 34.7V34.2H425.641V34.7H426.141ZM426.141 83H425.641V83.5H426.141V83ZM477.201 83V83.5H477.701V83H477.201ZM477.201 69.2H477.701V68.7H477.201V69.2ZM444.081 69.2H443.581V69.7H444.081V69.2ZM444.081 64.715V64.215H443.581V64.715H444.081ZM477.201 64.715V65.215H477.701V64.715H477.201ZM477.201 52.985H477.701V52.485H477.201V52.985ZM444.081 52.985H443.581V53.485H444.081V52.985ZM444.081 48.5V48H443.581V48.5H444.081ZM477.701 48.5V34.7H476.701V48.5H477.701ZM477.201 34.2H426.141V35.2H477.201V34.2ZM425.641 34.7V83H426.641V34.7H425.641ZM426.141 83.5H477.201V82.5H426.141V83.5ZM477.701 83V69.2H476.701V83H477.701ZM477.201 68.7H444.081V69.7H477.201V68.7ZM444.581 69.2V64.715H443.581V69.2H444.581ZM444.081 65.215H477.201V64.215H444.081V65.215ZM477.701 64.715V52.985H476.701V64.715H477.701ZM477.201 52.485H444.081V53.485H477.201V52.485ZM444.581 52.985V48.5H443.581V52.985H444.581ZM444.081 49H477.201V48H444.081V49Z" fill="url(#paint1_linear_6_154)"/>
<path opacity="0.2" d="M31 225H47V226.9H33.2857V299.1V301H31V225Z" fill="white"/>
<path opacity="0.2" d="M875 225H859V226.9H872.714V299.1V301H875V225Z" fill="white"/>
<path d="M35.3361 115H32.7361V122H35.3361V115ZM43.3541 115V119.13L40.3341 115H36.9341V122H39.5341V117.87L42.5541 122H45.9541V115H43.3541ZM56.058 115H47.458V117.2H50.458V122H53.058V117.2H56.058V115ZM64.9568 117V115H57.5568V122H64.9568V120H60.1568V119.35H64.9568V117.65H60.1568V117H64.9568ZM74.6321 117.68C74.6321 116.12 73.5421 115 71.9521 115H66.4521V122H69.0521V120.36H70.5821L71.5521 122H74.6321L73.3921 119.99C74.1621 119.54 74.6321 118.7 74.6321 117.68ZM69.0521 117.2H71.4521C71.7121 117.2 72.0321 117.2 72.0321 117.68C72.0321 118.16 71.7121 118.16 71.4521 118.16H69.0521V117.2ZM82.8287 122H85.6887L82.7887 115H78.9287L76.0287 122H78.8887L79.3687 120.74H82.3487L82.8287 122ZM80.0487 118.94L80.8587 116.8L81.6687 118.94H80.0487ZM86.1935 118.49C86.1935 120.93 87.5135 122.1 90.5935 122.1C93.4035 122.1 94.8535 121.11 94.9635 118.89H92.3035C92.2035 119.56 91.6935 119.9 90.5935 119.9C89.0635 119.9 88.7935 119.24 88.7935 118.49C88.7935 117.75 89.0535 117.1 90.5935 117.1C91.6935 117.1 92.2035 117.43 92.3035 118.09H94.9635C94.8535 115.88 93.3935 114.9 90.5935 114.9C87.5135 114.9 86.1935 116.06 86.1935 118.49ZM104.87 115H96.2705V117.2H99.2705V122H101.87V117.2H104.87V115ZM108.969 115H106.369V122H108.969V115ZM117.267 115L115.297 120.2L113.327 115H110.467L113.367 122H117.227L120.127 115H117.267ZM128.933 117V115H121.533V122H128.933V120H124.133V119.35H128.933V117.65H124.133V117H128.933Z" fill="white"/>
<path d="M44.8102 131.806C44.8169 131.952 44.8502 132.086 44.9102 132.206C44.9635 132.306 45.0402 132.396 45.1402 132.476C45.2469 132.556 45.4002 132.596 45.6002 132.596V133.776H44.4202C44.2202 133.776 44.0435 133.756 43.8902 133.716C43.7435 133.669 43.6135 133.609 43.5002 133.536C43.3935 133.462 43.3002 133.379 43.2202 133.286C43.1469 133.192 43.0869 133.096 43.0402 132.996C42.9202 132.769 42.8535 132.506 42.8402 132.206V131.026C42.8335 130.952 42.8169 130.886 42.7902 130.826C42.7635 130.772 42.7235 130.726 42.6702 130.686C42.6169 130.646 42.5435 130.626 42.4502 130.626H42.0602V133.776H39.7002V126.696H43.6302C43.8302 126.696 44.0035 126.719 44.1502 126.766C44.3035 126.812 44.4335 126.872 44.5402 126.946C44.6535 127.019 44.7469 127.102 44.8202 127.196C44.8935 127.289 44.9569 127.386 45.0102 127.486C45.1302 127.712 45.1969 127.972 45.2102 128.266V128.656C45.1969 128.956 45.1469 129.219 45.0602 129.446C44.9869 129.646 44.8702 129.829 44.7102 129.996C44.5502 130.156 44.3235 130.236 44.0302 130.236C44.1702 130.242 44.3002 130.276 44.4202 130.336C44.5135 130.389 44.6002 130.469 44.6802 130.576C44.7669 130.682 44.8102 130.832 44.8102 131.026V131.806ZM42.8402 127.876C42.8335 127.736 42.8002 127.606 42.7402 127.486C42.6869 127.386 42.6069 127.296 42.5002 127.216C42.4002 127.129 42.2535 127.086 42.0602 127.086V129.846C42.2535 129.846 42.4002 129.806 42.5002 129.726C42.6069 129.646 42.6869 129.556 42.7402 129.456C42.8002 129.336 42.8335 129.202 42.8402 129.056V127.876ZM52.1345 126.686V127.676H50.1745V129.836H50.9545V130.626H50.1745V132.786H52.1345V133.776H47.8045V126.686H52.1345ZM58.4126 126.686V127.676H56.4526V129.836H57.2326V130.626H56.4526V132.786H58.4126V133.776H54.0826V126.686H58.4126ZM64.2007 126.686C64.3941 126.686 64.5641 126.709 64.7107 126.756C64.8641 126.802 64.9941 126.862 65.1007 126.936C65.2141 127.009 65.3074 127.092 65.3807 127.186C65.4541 127.279 65.5174 127.376 65.5707 127.476C65.6907 127.709 65.7574 127.972 65.7707 128.266V132.206C65.7707 132.406 65.7474 132.579 65.7007 132.726C65.6541 132.872 65.5941 133.002 65.5207 133.116C65.4474 133.222 65.3641 133.316 65.2707 133.396C65.1774 133.469 65.0807 133.529 64.9807 133.576C64.7541 133.696 64.4941 133.762 64.2007 133.776H61.8407C61.5407 133.762 61.2774 133.696 61.0507 133.576C60.9507 133.529 60.8541 133.469 60.7607 133.396C60.6674 133.316 60.5807 133.222 60.5007 133.116C60.4274 133.002 60.3674 132.872 60.3207 132.726C60.2807 132.579 60.2607 132.406 60.2607 132.206V128.266C60.2607 127.879 60.3407 127.579 60.5007 127.366C60.6674 127.146 60.8507 126.986 61.0507 126.886C61.2774 126.766 61.5407 126.699 61.8407 126.686H64.2007ZM63.4107 127.476C63.4041 127.409 63.3874 127.346 63.3607 127.286C63.3341 127.232 63.2941 127.186 63.2407 127.146C63.1874 127.106 63.1141 127.086 63.0207 127.086C62.9207 127.086 62.8441 127.106 62.7907 127.146C62.7374 127.186 62.6974 127.232 62.6707 127.286C62.6441 127.346 62.6274 127.409 62.6207 127.476V132.986C62.6274 133.059 62.6441 133.126 62.6707 133.186C62.6974 133.239 62.7374 133.286 62.7907 133.326C62.8441 133.366 62.9207 133.386 63.0207 133.386C63.1141 133.386 63.1874 133.366 63.2407 133.326C63.2941 133.286 63.3341 133.239 63.3607 133.186C63.3874 133.126 63.4041 133.059 63.4107 132.986V127.476ZM70.2293 126.686V132.986C70.236 133.059 70.2527 133.126 70.2793 133.186C70.306 133.239 70.3427 133.286 70.3893 133.326C70.4427 133.359 70.5193 133.376 70.6193 133.376C70.7193 133.376 70.796 133.359 70.8493 133.326C70.9027 133.286 70.9427 133.239 70.9693 133.186C70.996 133.126 71.0127 133.059 71.0193 132.986V126.686H73.3793V132.196C73.366 132.496 73.2993 132.759 73.1793 132.986C73.0793 133.186 72.9227 133.369 72.7093 133.536C72.496 133.696 72.1927 133.776 71.7993 133.776H69.4393C69.1393 133.762 68.876 133.696 68.6493 133.576C68.5493 133.529 68.4527 133.469 68.3593 133.396C68.266 133.316 68.1827 133.222 68.1093 133.116C68.036 133.002 67.976 132.872 67.9293 132.726C67.8893 132.572 67.8693 132.396 67.8693 132.196V126.686H70.2293ZM77.153 127.676H75.183V126.686H81.483V127.676H79.513V133.776H77.153V127.676ZM85.6569 126.686V133.776H83.2869V126.686H85.6569ZM87.8561 133.776V126.686H88.6461L90.6161 129.256V126.686H92.9761V133.776H92.1861L90.2261 131.226V133.776H87.8561ZM95.1791 128.266C95.1791 128.066 95.1991 127.892 95.2391 127.746C95.2858 127.592 95.3458 127.462 95.4191 127.356C95.4924 127.242 95.5758 127.149 95.6691 127.076C95.7624 127.002 95.8591 126.939 95.9591 126.886C96.1858 126.766 96.4491 126.699 96.7491 126.686H98.9191C99.1391 126.686 99.3324 126.712 99.4991 126.766C99.6658 126.812 99.8124 126.879 99.9391 126.966C100.066 127.052 100.172 127.149 100.259 127.256C100.346 127.362 100.416 127.469 100.469 127.576C100.596 127.836 100.669 128.129 100.689 128.456H98.3291V127.476C98.3224 127.409 98.3058 127.346 98.2791 127.286C98.2524 127.232 98.2124 127.186 98.1591 127.146C98.1058 127.106 98.0291 127.086 97.9291 127.086C97.8291 127.086 97.7524 127.106 97.6991 127.146C97.6524 127.186 97.6158 127.232 97.5891 127.286C97.5624 127.346 97.5458 127.409 97.5391 127.476V132.986C97.5458 133.059 97.5624 133.126 97.5891 133.186C97.6158 133.239 97.6524 133.286 97.6991 133.326C97.7524 133.359 97.8291 133.376 97.9291 133.376C98.0291 133.376 98.1058 133.359 98.1591 133.326C98.2124 133.286 98.2524 133.239 98.2791 133.186C98.3058 133.126 98.3224 133.059 98.3291 132.986V131.416H97.9291V130.626H100.689V132.006C100.669 132.339 100.596 132.636 100.469 132.896C100.416 133.009 100.346 133.119 100.259 133.226C100.172 133.326 100.066 133.419 99.9391 133.506C99.8124 133.586 99.6658 133.652 99.4991 133.706C99.3324 133.752 99.1391 133.776 98.9191 133.776H96.7491C96.4491 133.762 96.1858 133.696 95.9591 133.576C95.8591 133.529 95.7624 133.469 95.6691 133.396C95.5758 133.316 95.4924 133.222 95.4191 133.116C95.3458 133.002 95.2858 132.872 95.2391 132.726C95.1991 132.572 95.1791 132.396 95.1791 132.196V128.266ZM107.091 128.266C107.091 128.066 107.111 127.892 107.151 127.746C107.197 127.592 107.257 127.462 107.331 127.356C107.404 127.242 107.487 127.149 107.581 127.076C107.674 127.002 107.771 126.939 107.871 126.886C108.097 126.766 108.361 126.699 108.661 126.686H110.831C111.051 126.686 111.244 126.712 111.411 126.766C111.577 126.812 111.724 126.879 111.851 126.966C111.977 127.052 112.084 127.149 112.171 127.256C112.257 127.362 112.327 127.469 112.381 127.576C112.507 127.836 112.581 128.129 112.601 128.456H110.241V127.476C110.234 127.409 110.217 127.346 110.191 127.286C110.164 127.232 110.124 127.186 110.071 127.146C110.017 127.106 109.941 127.086 109.841 127.086C109.741 127.086 109.664 127.106 109.611 127.146C109.564 127.186 109.527 127.232 109.501 127.286C109.474 127.346 109.457 127.409 109.451 127.476V132.986C109.457 133.059 109.474 133.126 109.501 133.186C109.527 133.239 109.564 133.286 109.611 133.326C109.664 133.359 109.741 133.376 109.841 133.376C109.941 133.376 110.017 133.359 110.071 133.326C110.124 133.286 110.164 133.239 110.191 133.186C110.217 133.126 110.234 133.059 110.241 132.986V132.006H112.601C112.581 132.339 112.507 132.636 112.381 132.896C112.327 133.009 112.257 133.119 112.171 133.226C112.084 133.326 111.977 133.419 111.851 133.506C111.724 133.586 111.577 133.652 111.411 133.706C111.244 133.752 111.051 133.776 110.831 133.776H108.661C108.361 133.762 108.097 133.696 107.871 133.576C107.771 133.529 107.674 133.469 107.581 133.396C107.487 133.316 107.404 133.222 107.331 133.116C107.257 133.002 107.197 132.872 107.151 132.726C107.111 132.572 107.091 132.396 107.091 132.196V128.266ZM118.491 126.686C118.684 126.686 118.854 126.709 119.001 126.756C119.154 126.802 119.284 126.862 119.391 126.936C119.504 127.009 119.597 127.092 119.671 127.186C119.744 127.279 119.807 127.376 119.861 127.476C119.981 127.709 120.047 127.972 120.061 128.266V133.776H117.701V130.626H116.911V133.776H114.551V128.266C114.551 127.872 114.631 127.569 114.791 127.356C114.957 127.142 115.141 126.986 115.341 126.886C115.567 126.766 115.831 126.699 116.131 126.686H118.491ZM117.701 127.476C117.694 127.409 117.677 127.346 117.651 127.286C117.624 127.232 117.584 127.186 117.531 127.146C117.477 127.106 117.404 127.086 117.311 127.086C117.211 127.086 117.134 127.106 117.081 127.146C117.027 127.186 116.987 127.232 116.961 127.286C116.934 127.346 116.917 127.409 116.911 127.476V129.836H117.701V127.476ZM123.834 127.676H121.864V126.686H128.164V127.676H126.194V133.776H123.834V127.676Z" fill="white" fill-opacity="0.6"/>
<path d="M32.9141 129.785L30.6963 132.29V127.281L32.9141 129.785Z" fill="white"/>
<path d="M45.1143 142.311L42.8965 144.816V139.806L45.1143 142.311Z" fill="white" fill-opacity="0.6"/>
<path d="M45.1143 154.837L42.8965 157.342V152.332L45.1143 154.837Z" fill="white" fill-opacity="0.6"/>
<path d="M45.1143 167.359L42.8965 169.864V164.854L45.1143 167.359Z" fill="white" fill-opacity="0.6"/>
<path d="M50.7871 146.302V139.222H51.5771L53.7371 141.582L55.9071 139.222H56.6971V146.302H54.3271V143.752L53.7371 144.342L53.1471 143.752V146.302H50.7871ZM62.8412 139.212C63.0345 139.212 63.2045 139.235 63.3512 139.282C63.5045 139.328 63.6345 139.388 63.7412 139.462C63.8545 139.535 63.9478 139.618 64.0212 139.712C64.0945 139.805 64.1578 139.902 64.2112 140.002C64.3312 140.235 64.3978 140.498 64.4112 140.792V146.302H62.0512V143.152H61.2612V146.302H58.9012V140.792C58.9012 140.398 58.9812 140.095 59.1412 139.882C59.3078 139.668 59.4912 139.512 59.6912 139.412C59.9178 139.292 60.1812 139.225 60.4812 139.212H62.8412ZM62.0512 140.002C62.0445 139.935 62.0278 139.872 62.0012 139.812C61.9745 139.758 61.9345 139.712 61.8812 139.672C61.8278 139.632 61.7545 139.612 61.6612 139.612C61.5612 139.612 61.4845 139.632 61.4312 139.672C61.3778 139.712 61.3378 139.758 61.3112 139.812C61.2845 139.872 61.2678 139.935 61.2612 140.002V142.362H62.0512V140.002ZM68.1848 140.202H66.2148V139.212H72.5148V140.202H70.5448V146.302H68.1848V140.202ZM76.6988 139.212L76.6888 142.372H77.6688V139.212H80.0288V146.302H77.6688V143.152H76.6888V146.302H74.3188V139.212H76.6988Z" fill="white" fill-opacity="0.6"/>
<path d="M54.7271 151.737C54.9204 151.737 55.0904 151.76 55.2371 151.807C55.3904 151.854 55.5204 151.914 55.6271 151.987C55.7404 152.06 55.8338 152.144 55.9071 152.237C55.9804 152.33 56.0438 152.427 56.0971 152.527C56.2171 152.76 56.2838 153.024 56.2971 153.317V157.247C56.2838 157.547 56.2171 157.81 56.0971 158.037C55.9971 158.237 55.8404 158.42 55.6271 158.587C55.4138 158.747 55.1138 158.827 54.7271 158.827H50.7871V151.737H54.7271ZM53.9371 152.917C53.9304 152.777 53.8971 152.647 53.8371 152.527C53.7838 152.434 53.7038 152.347 53.5971 152.267C53.4904 152.18 53.3404 152.137 53.1471 152.137V158.427C53.3404 158.427 53.4904 158.387 53.5971 158.307C53.7038 158.227 53.7838 158.137 53.8371 158.037C53.8971 157.924 53.9304 157.794 53.9371 157.647V152.917ZM62.8308 151.737V152.727H60.8708V154.887H61.6508V155.677H60.8708V157.837H62.8308V158.827H58.5008V151.737H62.8308ZM68.7189 151.737C68.9122 151.737 69.0822 151.76 69.2289 151.807C69.3822 151.854 69.5122 151.914 69.6189 151.987C69.7322 152.06 69.8256 152.144 69.8989 152.237C69.9722 152.33 70.0356 152.427 70.0889 152.527C70.2089 152.76 70.2756 153.024 70.2889 153.317V157.247C70.2756 157.547 70.2089 157.81 70.0889 158.037C69.9889 158.237 69.8322 158.42 69.6189 158.587C69.4056 158.747 69.1056 158.827 68.7189 158.827H64.7789V151.737H68.7189ZM67.9289 152.917C67.9222 152.777 67.8889 152.647 67.8289 152.527C67.7756 152.434 67.6956 152.347 67.5889 152.267C67.4822 152.18 67.3322 152.137 67.1389 152.137V158.427C67.3322 158.427 67.4822 158.387 67.5889 158.307C67.6956 158.227 67.7756 158.137 67.8289 158.037C67.8889 157.924 67.9222 157.794 67.9289 157.647V152.917ZM74.8526 151.737V158.037C74.8592 158.11 74.8759 158.177 74.9026 158.237C74.9292 158.29 74.9659 158.337 75.0126 158.377C75.0659 158.41 75.1426 158.427 75.2426 158.427C75.3426 158.427 75.4192 158.41 75.4726 158.377C75.5259 158.337 75.5659 158.29 75.5926 158.237C75.6192 158.177 75.6359 158.11 75.6426 158.037V151.737H78.0026V157.247C77.9892 157.547 77.9226 157.81 77.8026 158.037C77.7026 158.237 77.5459 158.42 77.3326 158.587C77.1192 158.747 76.8159 158.827 76.4226 158.827H74.0626C73.7626 158.814 73.4992 158.747 73.2726 158.627C73.1726 158.58 73.0759 158.52 72.9826 158.447C72.8892 158.367 72.8059 158.274 72.7326 158.167C72.6592 158.054 72.5992 157.924 72.5526 157.777C72.5126 157.624 72.4926 157.447 72.4926 157.247V151.737H74.8526ZM80.2062 153.317C80.2062 153.117 80.2262 152.944 80.2662 152.797C80.3129 152.644 80.3729 152.514 80.4462 152.407C80.5196 152.294 80.6029 152.2 80.6962 152.127C80.7896 152.054 80.8862 151.99 80.9862 151.937C81.2129 151.817 81.4762 151.75 81.7762 151.737H83.9462C84.1662 151.737 84.3596 151.764 84.5262 151.817C84.6929 151.864 84.8396 151.93 84.9662 152.017C85.0929 152.104 85.1996 152.2 85.2862 152.307C85.3729 152.414 85.4429 152.52 85.4962 152.627C85.6229 152.887 85.6962 153.18 85.7162 153.507H83.3562V152.527C83.3496 152.46 83.3329 152.397 83.3062 152.337C83.2796 152.284 83.2396 152.237 83.1862 152.197C83.1329 152.157 83.0562 152.137 82.9562 152.137C82.8562 152.137 82.7796 152.157 82.7262 152.197C82.6796 152.237 82.6429 152.284 82.6162 152.337C82.5896 152.397 82.5729 152.46 82.5662 152.527V158.037C82.5729 158.11 82.5896 158.177 82.6162 158.237C82.6429 158.29 82.6796 158.337 82.7262 158.377C82.7796 158.41 82.8562 158.427 82.9562 158.427C83.0562 158.427 83.1329 158.41 83.1862 158.377C83.2396 158.337 83.2796 158.29 83.3062 158.237C83.3329 158.177 83.3496 158.11 83.3562 158.037V157.057H85.7162C85.6962 157.39 85.6229 157.687 85.4962 157.947C85.4429 158.06 85.3729 158.17 85.2862 158.277C85.1996 158.377 85.0929 158.47 84.9662 158.557C84.8396 158.637 84.6929 158.704 84.5262 158.757C84.3596 158.804 84.1662 158.827 83.9462 158.827H81.7762C81.4762 158.814 81.2129 158.747 80.9862 158.627C80.8862 158.58 80.7896 158.52 80.6962 158.447C80.6029 158.367 80.5196 158.274 80.4462 158.167C80.3729 158.054 80.3129 157.924 80.2662 157.777C80.2262 157.624 80.2062 157.447 80.2062 157.247V153.317ZM89.236 152.727H87.266V151.737H93.566V152.727H91.596V158.827H89.236V152.727ZM97.7399 151.737V158.827H95.3699V151.737H97.7399ZM103.779 151.737C103.972 151.737 104.142 151.76 104.289 151.807C104.442 151.854 104.572 151.914 104.679 151.987C104.792 152.06 104.886 152.144 104.959 152.237C105.032 152.33 105.096 152.427 105.149 152.527C105.269 152.76 105.336 153.024 105.349 153.317V157.257C105.349 157.457 105.326 157.63 105.279 157.777C105.232 157.924 105.172 158.054 105.099 158.167C105.026 158.274 104.942 158.367 104.849 158.447C104.756 158.52 104.659 158.58 104.559 158.627C104.332 158.747 104.072 158.814 103.779 158.827H101.419C101.119 158.814 100.856 158.747 100.629 158.627C100.529 158.58 100.432 158.52 100.339 158.447C100.246 158.367 100.159 158.274 100.079 158.167C100.006 158.054 99.9457 157.924 99.8991 157.777C99.8591 157.63 99.8391 157.457 99.8391 157.257V153.317C99.8391 152.93 99.9191 152.63 100.079 152.417C100.246 152.197 100.429 152.037 100.629 151.937C100.856 151.817 101.119 151.75 101.419 151.737H103.779ZM102.989 152.527C102.982 152.46 102.966 152.397 102.939 152.337C102.912 152.284 102.872 152.237 102.819 152.197C102.766 152.157 102.692 152.137 102.599 152.137C102.499 152.137 102.422 152.157 102.369 152.197C102.316 152.237 102.276 152.284 102.249 152.337C102.222 152.397 102.206 152.46 102.199 152.527V158.037C102.206 158.11 102.222 158.177 102.249 158.237C102.276 158.29 102.316 158.337 102.369 158.377C102.422 158.417 102.499 158.437 102.599 158.437C102.692 158.437 102.766 158.417 102.819 158.377C102.872 158.337 102.912 158.29 102.939 158.237C102.966 158.177 102.982 158.11 102.989 158.037V152.527ZM107.448 158.827V151.737H108.238L110.208 154.307V151.737H112.568V158.827H111.778L109.818 156.277V158.827H107.448Z" fill="white" fill-opacity="0.6"/>
<path d="M54.7271 164.259C54.9204 164.259 55.0904 164.282 55.2371 164.329C55.3904 164.376 55.5204 164.436 55.6271 164.509C55.7404 164.582 55.8338 164.666 55.9071 164.759C55.9804 164.852 56.0438 164.949 56.0971 165.049C56.2171 165.282 56.2838 165.546 56.2971 165.839V169.769C56.2838 170.069 56.2171 170.332 56.0971 170.559C55.9971 170.759 55.8404 170.942 55.6271 171.109C55.4138 171.269 55.1138 171.349 54.7271 171.349H50.7871V164.259H54.7271ZM53.9371 165.439C53.9304 165.299 53.8971 165.169 53.8371 165.049C53.7838 164.956 53.7038 164.869 53.5971 164.789C53.4904 164.702 53.3404 164.659 53.1471 164.659V170.949C53.3404 170.949 53.4904 170.909 53.5971 170.829C53.7038 170.749 53.7838 170.659 53.8371 170.559C53.8971 170.446 53.9304 170.316 53.9371 170.169V165.439ZM62.8308 164.259V165.249H60.8708V167.409H61.6508V168.199H60.8708V170.359H62.8308V171.349H58.5008V164.259H62.8308ZM64.7789 165.839C64.7789 165.639 64.7989 165.466 64.8389 165.319C64.8856 165.166 64.9456 165.036 65.0189 164.929C65.0922 164.816 65.1756 164.722 65.2689 164.649C65.3622 164.576 65.4589 164.512 65.5589 164.459C65.7856 164.339 66.0489 164.272 66.3489 164.259H68.5189C68.7389 164.259 68.9322 164.286 69.0989 164.339C69.2656 164.386 69.4122 164.452 69.5389 164.539C69.6656 164.626 69.7722 164.722 69.8589 164.829C69.9456 164.936 70.0156 165.042 70.0689 165.149C70.1956 165.409 70.2689 165.702 70.2889 166.029H67.9289V165.049C67.9222 164.982 67.9056 164.919 67.8789 164.859C67.8522 164.806 67.8122 164.759 67.7589 164.719C67.7056 164.679 67.6289 164.659 67.5289 164.659C67.4289 164.659 67.3522 164.679 67.2989 164.719C67.2522 164.759 67.2156 164.806 67.1889 164.859C67.1622 164.919 67.1456 164.982 67.1389 165.049V170.559C67.1456 170.632 67.1622 170.699 67.1889 170.759C67.2156 170.812 67.2522 170.859 67.2989 170.899C67.3522 170.932 67.4289 170.949 67.5289 170.949C67.6289 170.949 67.7056 170.932 67.7589 170.899C67.8122 170.859 67.8522 170.812 67.8789 170.759C67.9056 170.699 67.9222 170.632 67.9289 170.559V169.579H70.2889C70.2689 169.912 70.1956 170.209 70.0689 170.469C70.0156 170.582 69.9456 170.692 69.8589 170.799C69.7722 170.899 69.6656 170.992 69.5389 171.079C69.4122 171.159 69.2656 171.226 69.0989 171.279C68.9322 171.326 68.7389 171.349 68.5189 171.349H66.3489C66.0489 171.336 65.7856 171.269 65.5589 171.149C65.4589 171.102 65.3622 171.042 65.2689 170.969C65.1756 170.889 65.0922 170.796 65.0189 170.689C64.9456 170.576 64.8856 170.446 64.8389 170.299C64.7989 170.146 64.7789 169.969 64.7789 169.769V165.839ZM74.6087 164.259V171.349H72.2387V164.259H74.6087ZM76.7078 165.839C76.7078 165.452 76.7878 165.152 76.9478 164.939C77.1145 164.726 77.2978 164.569 77.4978 164.469C77.7245 164.349 77.9878 164.282 78.2878 164.269H80.6478C80.8411 164.269 81.0111 164.292 81.1578 164.339C81.3111 164.386 81.4411 164.446 81.5478 164.519C81.6611 164.592 81.7545 164.676 81.8278 164.769C81.9011 164.862 81.9645 164.959 82.0178 165.059C82.1378 165.286 82.2045 165.546 82.2178 165.839H79.8578V165.049C79.8511 164.982 79.8345 164.919 79.8078 164.859C79.7811 164.806 79.7411 164.759 79.6878 164.719C79.6345 164.679 79.5611 164.659 79.4678 164.659C79.3678 164.659 79.2911 164.679 79.2378 164.719C79.1845 164.759 79.1445 164.806 79.1178 164.859C79.0911 164.919 79.0745 164.982 79.0678 165.049V166.629C79.0678 166.729 79.0878 166.806 79.1278 166.859C79.1678 166.906 79.2145 166.942 79.2678 166.969C79.3278 166.996 79.3945 167.012 79.4678 167.019H80.6478C80.8411 167.019 81.0111 167.042 81.1578 167.089C81.3111 167.136 81.4411 167.196 81.5478 167.269C81.6611 167.342 81.7545 167.426 81.8278 167.519C81.9011 167.612 81.9645 167.709 82.0178 167.809C82.1378 168.042 82.2045 168.306 82.2178 168.599V169.779C82.2178 169.979 82.1945 170.152 82.1478 170.299C82.1011 170.446 82.0411 170.576 81.9678 170.689C81.8945 170.796 81.8111 170.889 81.7178 170.969C81.6245 171.042 81.5278 171.102 81.4278 171.149C81.2011 171.269 80.9411 171.336 80.6478 171.349H78.2878C78.0878 171.349 77.9111 171.329 77.7578 171.289C77.6111 171.242 77.4811 171.182 77.3678 171.109C77.2611 171.036 77.1678 170.952 77.0878 170.859C77.0145 170.766 76.9545 170.669 76.9078 170.569C76.7878 170.342 76.7211 170.079 76.7078 169.779H79.0678V170.559C79.0745 170.632 79.0911 170.699 79.1178 170.759C79.1445 170.812 79.1845 170.859 79.2378 170.899C79.2911 170.939 79.3678 170.959 79.4678 170.959C79.5611 170.959 79.6345 170.939 79.6878 170.899C79.7411 170.859 79.7811 170.812 79.8078 170.759C79.8345 170.699 79.8511 170.632 79.8578 170.559V168.989C79.8578 168.896 79.8378 168.822 79.7978 168.769C79.7578 168.716 79.7111 168.676 79.6578 168.649C79.5978 168.622 79.5345 168.606 79.4678 168.599H78.2878C77.8945 168.599 77.5911 168.519 77.3778 168.359C77.1645 168.192 77.0078 168.009 76.9078 167.809C76.7878 167.582 76.7211 167.319 76.7078 167.019V165.839ZM86.6864 164.259V171.349H84.3164V164.259H86.6864ZM92.7255 164.259C92.9189 164.259 93.0889 164.282 93.2355 164.329C93.3889 164.376 93.5189 164.436 93.6255 164.509C93.7389 164.582 93.8322 164.666 93.9055 164.759C93.9789 164.852 94.0422 164.949 94.0955 165.049C94.2155 165.282 94.2822 165.546 94.2955 165.839V169.779C94.2955 169.979 94.2722 170.152 94.2255 170.299C94.1789 170.446 94.1189 170.576 94.0455 170.689C93.9722 170.796 93.8889 170.889 93.7955 170.969C93.7022 171.042 93.6055 171.102 93.5055 171.149C93.2789 171.269 93.0189 171.336 92.7255 171.349H90.3655C90.0655 171.336 89.8022 171.269 89.5755 171.149C89.4755 171.102 89.3789 171.042 89.2855 170.969C89.1922 170.889 89.1055 170.796 89.0255 170.689C88.9522 170.576 88.8922 170.446 88.8455 170.299C88.8055 170.152 88.7855 169.979 88.7855 169.779V165.839C88.7855 165.452 88.8655 165.152 89.0255 164.939C89.1922 164.719 89.3755 164.559 89.5755 164.459C89.8022 164.339 90.0655 164.272 90.3655 164.259H92.7255ZM91.9355 165.049C91.9289 164.982 91.9122 164.919 91.8855 164.859C91.8589 164.806 91.8189 164.759 91.7655 164.719C91.7122 164.679 91.6389 164.659 91.5455 164.659C91.4455 164.659 91.3689 164.679 91.3155 164.719C91.2622 164.759 91.2222 164.806 91.1955 164.859C91.1689 164.919 91.1522 164.982 91.1455 165.049V170.559C91.1522 170.632 91.1689 170.699 91.1955 170.759C91.2222 170.812 91.2622 170.859 91.3155 170.899C91.3689 170.939 91.4455 170.959 91.5455 170.959C91.6389 170.959 91.7122 170.939 91.7655 170.899C91.8189 170.859 91.8589 170.812 91.8855 170.759C91.9122 170.699 91.9289 170.632 91.9355 170.559V165.049ZM96.3941 171.349V164.259H97.1841L99.1541 166.829V164.259H101.514V171.349H100.724L98.7641 168.799V171.349H96.3941Z" fill="white" fill-opacity="0.6"/>
<path d="M470.986 142.075C470.881 137.812 470.253 134.512 469.416 134.512C468.578 134.512 467.95 137.469 467.845 141.456C467.636 141.319 467.322 141.25 467.008 141.25C466.589 141.25 466.17 141.456 465.856 141.731C465.752 136.437 465.228 132.313 464.495 132.313C463.762 132.313 463.239 136.231 463.134 141.387C462.82 140.769 462.192 140.288 461.564 140.288C460.831 140.288 460.203 140.769 459.889 141.525C459.68 140.769 459.156 140.288 458.633 140.288C458.109 140.288 457.586 140.769 457.377 141.525C457.167 140.631 456.539 140.012 455.911 140.012C455.388 140.012 454.864 140.494 454.55 141.181C454.445 129.631 453.922 120.625 453.294 120.625C452.666 120.625 452.037 130.113 452.037 142.144C451.933 140.906 451.409 140.081 450.781 140.081C450.572 140.081 450.363 140.219 450.153 140.494C449.944 137.056 449.316 134.581 448.583 134.581C447.745 134.581 447.117 137.537 447.013 141.525C446.803 141.387 446.489 141.319 446.175 141.319C445.756 141.319 445.338 141.525 445.023 141.8C444.919 136.506 444.395 132.381 443.662 132.381C442.93 132.381 442.406 136.3 442.302 141.456C441.988 140.838 441.359 140.356 440.731 140.356C439.998 140.356 439.37 140.838 439.056 141.594C438.847 140.838 438.323 140.356 437.8 140.356C437.277 140.356 436.753 140.838 436.544 141.594C436.334 140.7 435.706 140.012 435.078 140.012C434.555 140.012 434.031 140.494 433.717 141.181C433.612 129.631 433.089 120.625 432.461 120.625C431.833 120.625 431.205 130.113 431.205 142.144C431.1 140.906 430.577 140.081 429.948 140.081C429.425 140.081 429.006 140.769 428.797 141.731C428.692 137.675 427.75 134.581 426.598 134.581C425.552 134.581 424.609 137.537 424.4 141.525C424.086 141.387 423.667 141.319 423.353 141.319C422.725 141.319 422.202 141.525 421.783 141.8C421.678 136.506 420.841 132.381 419.898 132.381C418.956 132.381 418.119 136.3 418.014 141.456C417.595 140.769 416.758 140.356 415.816 140.356C414.873 140.356 414.036 140.838 413.617 141.594C413.303 140.906 412.675 140.425 411.838 140.425C411.105 140.425 410.477 140.906 410.058 141.663C409.744 140.769 409.011 140.15 408.069 140.15C407.336 140.15 406.708 140.631 406.289 141.319C406.184 129.769 405.452 120.763 404.614 120.763C403.672 120.763 402.939 130.25 402.939 142.281H402.834C402.625 141.044 401.997 140.219 401.159 140.219C400.741 140.219 400.427 140.494 400.112 140.837C400.008 137.262 399.484 134.65 398.856 134.65C398.228 134.65 397.705 137.606 397.6 141.594C397.391 141.456 397.181 141.387 396.972 141.387C396.658 141.387 396.239 141.594 396.03 141.869C396.03 136.575 395.506 132.381 394.983 132.381C394.459 132.381 393.936 136.3 393.936 141.456C393.622 140.769 393.203 140.356 392.68 140.356C392.156 140.356 391.633 140.838 391.319 141.594C391.109 140.906 390.795 140.356 390.377 140.356C389.958 140.356 389.539 140.838 389.33 141.594C389.12 140.7 388.702 140.081 388.178 140.081C387.759 140.081 387.341 140.563 387.131 141.25C387.131 129.7 386.712 120.694 386.189 120.694C385.666 120.694 385.247 130.181 385.247 142.212C385.142 140.975 384.723 140.15 384.305 140.15C383.886 140.15 383.467 141.044 383.362 142.212H381.688C381.583 140.7 381.269 139.531 380.745 139.531C380.222 139.531 379.908 140.7 379.803 142.212H379.698C379.594 141.181 379.175 140.425 378.756 140.425C378.652 140.425 378.547 140.494 378.442 140.631C378.338 136.781 378.023 134.031 377.605 134.031C377.186 134.031 376.767 137.606 376.767 142.281H376.453C376.348 141.044 376.139 140.219 375.825 140.219C375.511 140.219 375.302 141.113 375.197 142.281H373.941C373.836 142.075 373.731 142.006 373.522 142.006C373.417 142.006 373.208 142.144 373.103 142.281H371.428C371.428 137.95 371.009 134.581 370.591 134.581C370.172 134.581 369.753 137.95 369.753 142.281H369.02C368.916 141.525 368.706 140.906 368.497 140.906C368.287 140.906 368.078 141.456 367.973 142.281H367.869C367.764 141.8 367.555 141.456 367.241 141.456C367.031 141.456 366.717 141.8 366.613 142.281H366.089C365.984 141.456 365.566 140.837 365.147 140.837C364.728 140.837 364.309 141.456 364.205 142.281C364.205 138.431 363.786 135.406 363.262 135.406C362.739 135.406 362.32 138.088 362.32 141.663C361.797 141.663 361.378 141.938 361.064 142.281H360.645C360.436 141.25 359.912 140.563 359.18 140.563C358.447 140.563 357.923 141.319 357.714 142.281H357.505C357.295 141.663 356.772 141.319 356.144 141.319C355.516 141.319 355.097 141.731 354.783 142.281H352.27C351.956 141.8 351.537 141.525 350.909 141.525C350.7 141.525 350.491 141.525 350.386 141.594C350.177 141.388 349.863 141.25 349.548 141.25C349.025 141.25 348.606 141.663 348.397 142.281H344V143.725H348.397C348.606 144.344 349.025 144.756 349.548 144.756C349.863 144.756 350.072 144.687 350.281 144.481C350.491 144.55 350.7 144.619 350.909 144.619C351.537 144.619 352.061 144.275 352.375 143.725H355.097C355.411 144.137 355.83 144.412 356.248 144.412C356.667 144.412 357.086 144.137 357.4 143.725H357.819C358.028 144.619 358.552 145.237 359.18 145.237C359.808 145.237 360.331 144.619 360.541 143.725H360.959C361.273 144.069 361.692 144.344 362.216 144.344C362.32 147.713 362.739 150.256 363.158 150.256C363.681 150.256 364.1 147.369 364.1 143.725H364.309C364.519 144.206 364.833 144.55 365.147 144.55C365.461 144.55 365.775 144.206 365.984 143.725H366.717C366.822 144 367.031 144.206 367.241 144.206C367.45 144.206 367.555 144 367.764 143.725H368.078C368.183 144.206 368.392 144.55 368.497 144.55C368.602 144.55 368.811 144.206 368.916 143.725H369.648C369.648 148.125 370.067 151.562 370.486 151.562C370.905 151.562 371.323 148.125 371.323 143.725H372.789C372.894 144.206 373.103 144.55 373.417 144.55C373.731 144.55 373.941 144.206 374.045 143.725H375.092C375.197 144.825 375.406 145.65 375.72 145.65C376.034 145.65 376.244 144.825 376.348 143.725H376.767C376.767 148.331 377.186 151.975 377.605 151.975C378.023 151.975 378.338 149.087 378.442 145.1C378.547 145.237 378.652 145.306 378.756 145.306C379.175 145.306 379.489 144.619 379.698 143.725H379.803C379.908 145.1 380.222 146.131 380.641 146.131C381.059 146.131 381.373 145.1 381.478 143.725H383.258C383.363 144.825 383.781 145.65 384.2 145.65C384.619 145.65 385.037 144.825 385.142 143.725H385.247C385.247 156.512 385.666 166.894 386.189 166.894C386.712 166.894 387.131 156.719 387.131 144.137C387.341 144.825 387.759 145.306 388.178 145.306C388.702 145.306 389.12 144.687 389.33 143.725C389.33 143.725 389.33 143.725 389.33 143.656V143.725C389.539 144.481 389.853 144.963 390.272 144.963C390.691 144.963 391.109 144.481 391.319 143.725C391.528 144.481 392.052 144.963 392.575 144.963C393.098 144.963 393.517 144.55 393.831 143.862C393.831 143.794 393.831 143.794 393.831 143.725C393.831 143.794 393.831 143.794 393.831 143.862C393.936 149.156 394.355 153.213 394.878 153.213C395.402 153.213 395.925 149.019 395.925 143.656C395.925 143.587 395.925 143.588 395.925 143.519C395.925 143.588 396.03 143.587 396.03 143.656C396.239 143.931 396.553 144.069 396.867 144.069C397.077 144.069 397.286 144 397.495 143.862C397.6 147.987 398.123 151.15 398.752 151.15C399.38 151.15 399.798 148.538 400.008 144.963C400.322 145.375 400.636 145.581 401.055 145.581C401.787 145.581 402.416 144.756 402.625 143.656H402.73C402.73 156.444 403.463 166.825 404.405 166.825C405.347 166.825 406.08 156.719 406.08 144.069C406.498 144.756 407.127 145.237 407.859 145.237C408.697 145.237 409.43 144.619 409.848 143.656C409.848 143.656 409.848 143.656 409.848 143.588C409.848 143.588 409.848 143.587 409.848 143.656C410.163 144.413 410.791 144.894 411.628 144.894C412.361 144.894 412.989 144.413 413.408 143.656C413.827 144.344 414.664 144.894 415.606 144.894C416.548 144.894 417.281 144.481 417.805 143.794C417.909 149.087 418.747 153.144 419.689 153.144C420.631 153.144 421.469 148.95 421.573 143.588H421.678C422.097 143.863 422.516 144 423.039 144C423.458 144 423.772 143.931 424.086 143.794C424.191 147.919 425.133 151.081 426.284 151.081C427.436 151.081 428.273 147.988 428.483 143.931C428.692 144.894 429.111 145.581 429.634 145.581C430.158 145.581 430.681 144.756 430.786 143.656H430.891C430.891 156.444 431.414 166.825 432.147 166.825C432.88 166.825 433.403 156.719 433.403 144.137C433.717 144.825 434.136 145.306 434.659 145.306C435.287 145.306 435.811 144.619 436.125 143.725C436.334 144.481 436.858 144.963 437.381 144.963C437.905 144.963 438.428 144.481 438.638 143.725C438.952 144.481 439.58 144.963 440.312 144.963C441.045 144.963 441.569 144.55 441.883 143.862C441.883 143.794 441.883 143.794 441.883 143.725H441.987C441.987 143.794 441.988 143.794 441.883 143.862C441.988 149.156 442.511 153.213 443.244 153.213C443.977 153.213 444.605 149.019 444.605 143.656V143.588L444.709 143.656C445.023 143.931 445.337 144.069 445.756 144.069C446.07 144.069 446.28 144 446.594 143.862C446.698 147.987 447.327 151.15 448.164 151.15C448.897 151.15 449.525 148.675 449.734 145.237C449.944 145.512 450.153 145.65 450.362 145.65C450.886 145.65 451.409 144.825 451.514 143.725H456.853C456.853 143.725 456.853 143.725 456.853 143.794C457.167 144.55 457.586 145.031 458.109 145.031C458.633 145.031 459.156 144.55 459.366 143.794C459.68 144.55 460.308 145.031 461.041 145.031C461.773 145.031 462.297 144.619 462.611 143.931C462.611 143.863 462.611 143.862 462.611 143.794H462.716C462.716 143.862 462.716 143.863 462.611 143.931C462.716 149.225 463.239 153.281 463.972 153.281C464.705 153.281 465.333 149.087 465.333 143.725V143.656L465.438 143.725C465.752 144 466.066 144.137 466.484 144.137C466.798 144.137 467.008 144.069 467.322 143.931V143.725H467.531C467.427 143.794 467.427 143.863 467.322 143.931C467.427 148.056 468.055 151.219 468.892 151.219C469.73 151.219 470.463 147.919 470.463 143.794H477.477V142.144H470.986V142.075ZM465.856 142.075H465.542C465.647 141.937 465.647 141.8 465.856 141.663C465.856 141.8 465.856 141.937 465.856 142.075Z" fill="white"/>
<path d="M194.76 132.296C194.76 133.736 194.552 134.84 194.136 135.608C193.752 136.344 193.336 136.888 192.888 137.24C192.312 137.656 191.688 137.896 191.016 137.96C191.688 138.024 192.312 138.264 192.888 138.68C193.336 139.032 193.752 139.592 194.136 140.36C194.552 141.128 194.76 142.232 194.76 143.672V147.416C194.696 148.856 194.376 150.12 193.8 151.208C193.32 152.168 192.568 153.048 191.544 153.848C190.52 154.616 189.08 155 187.224 155H167.4V120.968H187.224C188.152 120.968 188.968 121.08 189.672 121.304C190.408 121.528 191.032 121.816 191.544 122.168C192.088 122.52 192.536 122.92 192.888 123.368C193.24 123.816 193.544 124.28 193.8 124.76C194.376 125.88 194.696 127.144 194.76 128.552V132.296ZM184.392 143.672C184.36 143 184.2 142.376 183.912 141.8C183.656 141.32 183.272 140.888 182.76 140.504C182.248 140.088 181.528 139.88 180.6 139.88V153.08C181.528 153.08 182.248 152.888 182.76 152.504C183.272 152.12 183.656 151.688 183.912 151.208C184.2 150.664 184.36 150.04 184.392 149.336V143.672ZM184.392 126.632C184.36 125.96 184.2 125.336 183.912 124.76C183.656 124.312 183.272 123.896 182.76 123.512C182.248 123.096 181.528 122.888 180.6 122.888V136.088C181.528 136.088 182.248 135.896 182.76 135.512C183.272 135.128 183.656 134.696 183.912 134.216C184.2 133.64 184.36 133 184.392 132.296V126.632ZM210.884 120.968V151.208C210.916 151.56 210.996 151.88 211.124 152.168C211.252 152.424 211.428 152.648 211.652 152.84C211.908 153 212.276 153.08 212.756 153.08C213.236 153.08 213.604 153 213.86 152.84C214.116 152.648 214.308 152.424 214.436 152.168C214.564 151.88 214.644 151.56 214.676 151.208V120.968H226.004V147.416C225.94 148.856 225.62 150.12 225.044 151.208C224.564 152.168 223.812 153.048 222.788 153.848C221.764 154.616 220.308 155 218.42 155H207.092C205.652 154.936 204.388 154.616 203.3 154.04C202.82 153.816 202.356 153.528 201.908 153.176C201.46 152.792 201.06 152.344 200.708 151.832C200.356 151.288 200.068 150.664 199.844 149.96C199.652 149.224 199.556 148.376 199.556 147.416V120.968H210.884ZM255.35 145.544C255.382 146.248 255.542 146.888 255.83 147.464C256.086 147.944 256.454 148.376 256.934 148.76C257.446 149.144 258.182 149.336 259.142 149.336V155H253.478C252.518 155 251.67 154.904 250.934 154.712C250.23 154.488 249.606 154.2 249.062 153.848C248.55 153.496 248.102 153.096 247.718 152.648C247.366 152.2 247.078 151.736 246.854 151.256C246.278 150.168 245.958 148.904 245.894 147.464V141.8C245.862 141.448 245.782 141.128 245.654 140.84C245.526 140.584 245.334 140.36 245.078 140.168C244.822 139.976 244.47 139.88 244.022 139.88H242.15V155H230.822V121.016H249.686C250.646 121.016 251.478 121.128 252.182 121.352C252.918 121.576 253.542 121.864 254.054 122.216C254.598 122.568 255.046 122.968 255.398 123.416C255.75 123.864 256.054 124.328 256.31 124.808C256.886 125.896 257.206 127.144 257.27 128.552V130.424C257.206 131.864 256.966 133.128 256.55 134.216C256.198 135.176 255.638 136.056 254.87 136.856C254.102 137.624 253.014 138.008 251.606 138.008C252.278 138.04 252.902 138.2 253.478 138.488C253.926 138.744 254.342 139.128 254.726 139.64C255.142 140.152 255.35 140.872 255.35 141.8V145.544ZM245.894 126.68C245.862 126.008 245.702 125.384 245.414 124.808C245.158 124.328 244.774 123.896 244.262 123.512C243.782 123.096 243.078 122.888 242.15 122.888V136.136C243.078 136.136 243.782 135.944 244.262 135.56C244.774 135.176 245.158 134.744 245.414 134.264C245.702 133.688 245.862 133.048 245.894 132.344V126.68ZM263.963 155V120.968H267.755L277.211 133.304V120.968H288.539V155H284.747L275.339 142.76V155H263.963ZM300.889 125.72H291.433V120.968H321.673V125.72H312.217V155H300.889V125.72Z" fill="white"/>
<rect x="523" y="36" width="145" height="35" rx="2" stroke="white" stroke-width="2"/>
<path d="M562.616 55.6V46H557.416V60H571.816V55.6H562.616ZM584.016 60.2C590.156 60.2 592.816 57.84 592.816 52.98C592.816 48.14 590.156 45.8 584.016 45.8C577.856 45.8 575.216 48.12 575.216 52.98C575.216 57.86 577.856 60.2 584.016 60.2ZM584.016 55.8C580.956 55.8 580.416 54.48 580.416 52.98C580.416 51.5 580.936 50.2 584.016 50.2C587.096 50.2 587.616 51.52 587.616 52.98C587.616 54.46 587.076 55.8 584.016 55.8ZM605.023 60.2C611.163 60.2 613.823 57.84 613.823 52.98C613.823 48.14 611.163 45.8 605.023 45.8C598.863 45.8 596.223 48.12 596.223 52.98C596.223 57.86 598.863 60.2 605.023 60.2ZM605.023 55.8C601.963 55.8 601.423 54.48 601.423 52.98C601.423 51.5 601.943 50.2 605.023 50.2C608.103 50.2 608.623 51.52 608.623 52.98C608.623 54.46 608.083 55.8 605.023 55.8ZM628.431 46H617.431V60H622.631V56.72H628.431C631.611 56.72 633.791 54.48 633.791 51.36C633.791 48.24 631.611 46 628.431 46ZM627.431 52.32H622.631V50.4H627.431C627.951 50.4 628.591 50.4 628.591 51.36C628.591 52.32 627.951 52.32 627.431 52.32Z" fill="white"/>
<rect x="523" y="89" width="145" height="35" rx="2" stroke="white" stroke-width="2"/>
<path d="M542.927 113H548.647L542.847 99H535.127L529.327 113H535.047L536.007 110.48H541.967L542.927 113ZM537.367 106.88L538.987 102.6L540.607 106.88H537.367ZM568.418 104.36C568.418 101.24 566.238 99 563.058 99H552.058V113H557.258V109.72H560.318L562.258 113H568.418L565.938 108.98C567.478 108.08 568.418 106.4 568.418 104.36ZM557.258 103.4H562.058C562.578 103.4 563.218 103.4 563.218 104.36C563.218 105.32 562.578 105.32 562.058 105.32H557.258V103.4ZM571.811 105.98C571.811 110.86 574.451 113.2 580.611 113.2C586.231 113.2 589.131 111.22 589.351 106.78H584.031C583.831 108.12 582.811 108.8 580.611 108.8C577.551 108.8 577.011 107.48 577.011 105.98C577.011 104.5 577.531 103.2 580.611 103.2C582.811 103.2 583.831 103.86 584.031 105.18H589.351C589.131 100.76 586.211 98.8 580.611 98.8C574.451 98.8 571.811 101.12 571.811 105.98ZM606.361 99V103.8H598.161V99H592.961V113H598.161V108.2H606.361V113H611.561V99H606.361ZM620.555 99H615.355V113H620.555V99ZM637.751 99L633.811 109.4L629.871 99H624.151L629.951 113H637.671L643.471 99H637.751ZM661.682 103V99H646.882V113H661.682V109H652.082V107.7H661.682V104.3H652.082V103H661.682Z" fill="white"/>
<rect x="523" y="142" width="145" height="35" rx="2" stroke="white" stroke-width="2"/>
<path d="M542.927 166H548.647L542.847 152H535.127L529.327 166H535.047L536.007 163.48H541.967L542.927 166ZM537.367 159.88L538.987 155.6L540.607 159.88H537.367ZM568.418 157.36C568.418 154.24 566.238 152 563.058 152H552.058V166H557.258V162.72H560.318L562.258 166H568.418L565.938 161.98C567.478 161.08 568.418 159.4 568.418 157.36ZM557.258 156.4H562.058C562.578 156.4 563.218 156.4 563.218 157.36C563.218 158.32 562.578 158.32 562.058 158.32H557.258V156.4ZM571.811 158.98C571.811 163.86 574.451 166.2 580.611 166.2C586.231 166.2 589.131 164.22 589.351 159.78H584.031C583.831 161.12 582.811 161.8 580.611 161.8C577.551 161.8 577.011 160.48 577.011 158.98C577.011 157.5 577.531 156.2 580.611 156.2C582.811 156.2 583.831 156.86 584.031 158.18H589.351C589.131 153.76 586.211 151.8 580.611 151.8C574.451 151.8 571.811 154.12 571.811 158.98ZM606.361 152V156.8H598.161V152H592.961V166H598.161V161.2H606.361V166H611.561V152H606.361ZM620.555 152H615.355V166H620.555V152ZM637.751 152L633.811 162.4L629.871 152H624.151L629.951 166H637.671L643.471 152H637.751ZM661.682 156V152H646.882V166H661.682V162H652.082V160.7H661.682V157.3H652.082V156H661.682Z" fill="white"/>
<rect x="678" y="36" width="145" height="35" rx="2" stroke="white" stroke-width="2"/>
<path d="M717.616 55.6V46H712.416V60H726.816V55.6H717.616ZM739.016 60.2C745.156 60.2 747.816 57.84 747.816 52.98C747.816 48.14 745.156 45.8 739.016 45.8C732.856 45.8 730.216 48.12 730.216 52.98C730.216 57.86 732.856 60.2 739.016 60.2ZM739.016 55.8C735.956 55.8 735.416 54.48 735.416 52.98C735.416 51.5 735.936 50.2 739.016 50.2C742.096 50.2 742.616 51.52 742.616 52.98C742.616 54.46 742.076 55.8 739.016 55.8ZM760.023 60.2C766.163 60.2 768.823 57.84 768.823 52.98C768.823 48.14 766.163 45.8 760.023 45.8C753.863 45.8 751.223 48.12 751.223 52.98C751.223 57.86 753.863 60.2 760.023 60.2ZM760.023 55.8C756.963 55.8 756.423 54.48 756.423 52.98C756.423 51.5 756.943 50.2 760.023 50.2C763.103 50.2 763.623 51.52 763.623 52.98C763.623 54.46 763.083 55.8 760.023 55.8ZM783.431 46H772.431V60H777.631V56.72H783.431C786.611 56.72 788.791 54.48 788.791 51.36C788.791 48.24 786.611 46 783.431 46ZM782.431 52.32H777.631V50.4H782.431C782.951 50.4 783.591 50.4 783.591 51.36C783.591 52.32 782.951 52.32 782.431 52.32Z" fill="white"/>
<rect x="678" y="89" width="145" height="35" rx="2" stroke="white" stroke-width="2"/>
<path d="M697.927 113H703.647L697.847 99H690.127L684.327 113H690.047L691.007 110.48H696.967L697.927 113ZM692.367 106.88L693.987 102.6L695.607 106.88H692.367ZM723.418 104.36C723.418 101.24 721.238 99 718.058 99H707.058V113H712.258V109.72H715.318L717.258 113H723.418L720.938 108.98C722.478 108.08 723.418 106.4 723.418 104.36ZM712.258 103.4H717.058C717.578 103.4 718.218 103.4 718.218 104.36C718.218 105.32 717.578 105.32 717.058 105.32H712.258V103.4ZM726.811 105.98C726.811 110.86 729.451 113.2 735.611 113.2C741.231 113.2 744.131 111.22 744.351 106.78H739.031C738.831 108.12 737.811 108.8 735.611 108.8C732.551 108.8 732.011 107.48 732.011 105.98C732.011 104.5 732.531 103.2 735.611 103.2C737.811 103.2 738.831 103.86 739.031 105.18H744.351C744.131 100.76 741.211 98.8 735.611 98.8C729.451 98.8 726.811 101.12 726.811 105.98ZM761.361 99V103.8H753.161V99H747.961V113H753.161V108.2H761.361V113H766.561V99H761.361ZM775.555 99H770.355V113H775.555V99ZM792.751 99L788.811 109.4L784.871 99H779.151L784.951 113H792.671L798.471 99H792.751ZM816.682 103V99H801.882V113H816.682V109H807.082V107.7H816.682V104.3H807.082V103H816.682Z" fill="white"/>
<rect x="678" y="142" width="145" height="35" rx="2" stroke="white" stroke-width="2"/>
<path d="M697.927 166H703.647L697.847 152H690.127L684.327 166H690.047L691.007 163.48H696.967L697.927 166ZM692.367 159.88L693.987 155.6L695.607 159.88H692.367ZM723.418 157.36C723.418 154.24 721.238 152 718.058 152H707.058V166H712.258V162.72H715.318L717.258 166H723.418L720.938 161.98C722.478 161.08 723.418 159.4 723.418 157.36ZM712.258 156.4H717.058C717.578 156.4 718.218 156.4 718.218 157.36C718.218 158.32 717.578 158.32 717.058 158.32H712.258V156.4ZM726.811 158.98C726.811 163.86 729.451 166.2 735.611 166.2C741.231 166.2 744.131 164.22 744.351 159.78H739.031C738.831 161.12 737.811 161.8 735.611 161.8C732.551 161.8 732.011 160.48 732.011 158.98C732.011 157.5 732.531 156.2 735.611 156.2C737.811 156.2 738.831 156.86 739.031 158.18H744.351C744.131 153.76 741.211 151.8 735.611 151.8C729.451 151.8 726.811 154.12 726.811 158.98ZM761.361 152V156.8H753.161V152H747.961V166H753.161V161.2H761.361V166H766.561V152H761.361ZM775.555 152H770.355V166H775.555V152ZM792.751 152L788.811 162.4L784.871 152H779.151L784.951 166H792.671L798.471 152H792.751ZM816.682 156V152H801.882V166H816.682V162H807.082V160.7H816.682V157.3H807.082V156H816.682Z" fill="white"/>
</g>
<defs>
<filter id="filter0_b_6_154" x="-4" y="4" width="904" height="200" filterUnits="userSpaceOnUse" color-interpolation-filters="sRGB">
<feFlood flood-opacity="0" result="BackgroundImageFix"/>
<feGaussianBlur in="BackgroundImage" stdDeviation="2"/>
<feComposite in2="SourceAlpha" operator="in" result="effect1_backgroundBlur_6_154"/>
<feBlend mode="normal" in="SourceGraphic" in2="effect1_backgroundBlur_6_154" result="shape"/>
</filter>
<linearGradient id="paint0_linear_6_154" x1="505.5" y1="3" x2="505.5" y2="122" gradientUnits="userSpaceOnUse">
<stop offset="0.9999" stop-color="white"/>
<stop offset="1" stop-color="white" stop-opacity="0"/>
</linearGradient>
<linearGradient id="paint1_linear_6_154" x1="505.5" y1="3" x2="505.5" y2="122" gradientUnits="userSpaceOnUse">
<stop stop-color="white" stop-opacity="0"/>
<stop offset="0.646938" stop-color="white"/>
</linearGradient>
<clipPath id="clip0_6_154">
<rect width="896" height="306" fill="white"/>
</clipPath>
</defs>
</svg>
