<svg width="896" height="306" viewBox="0 0 896 306" fill="none" xmlns="http://www.w3.org/2000/svg">
<g clip-path="url(#clip0_6_154)">
<path d="M306.765 49.682C310.097 45.762 312.155 41.254 312.155 36.844C312.155 26.456 307.353 19.4 291.771 19.4H231.991V88H294.711C310.293 88 317.055 78.984 317.055 67.714C317.055 60.266 312.743 53.994 306.765 49.682ZM257.471 36.06H280.991C283.539 36.06 286.675 36.06 286.675 39.784C286.675 43.508 283.539 43.508 280.991 43.508H257.471V36.06ZM285.891 69.38H257.471V62.128H285.891C288.439 62.128 291.575 62.128 291.575 65.754C291.575 69.38 288.439 69.38 285.891 69.38ZM404.364 53.602V19.4H378.884V53.602C378.884 60.854 376.238 67.42 361.244 67.42C346.25 67.42 343.604 60.952 343.604 53.602V19.4H318.124V53.602C318.124 77.514 331.06 88.98 361.244 88.98C391.33 88.98 404.364 77.416 404.364 53.602ZM488.44 45.664C488.44 30.376 477.758 19.4 462.176 19.4H408.276V88H433.756V71.928H448.75L458.256 88H488.44L476.288 68.302C483.834 63.892 488.44 55.66 488.44 45.664ZM433.756 40.96H457.276C459.824 40.96 462.96 40.96 462.96 45.664C462.96 50.368 459.824 50.368 457.276 50.368H433.756V40.96ZM554.263 19.4V59.874L524.667 19.4H491.347V88H516.827V47.526L546.423 88H579.743V19.4H554.263ZM667 19.4H582.72V40.96H612.12V88H637.6V40.96H667V19.4Z" fill="url(#paint0_linear_6_154)"/>
<path d="M306.765 49.682L306.384 49.3582L306.034 49.7707L306.473 50.0875L306.765 49.682ZM231.991 19.4V18.9H231.491V19.4H231.991ZM231.991 88H231.491V88.5H231.991V88ZM257.471 36.06V35.56H256.971V36.06H257.471ZM257.471 43.508H256.971V44.008H257.471V43.508ZM257.471 69.38H256.971V69.88H257.471V69.38ZM257.471 62.128V61.628H256.971V62.128H257.471ZM307.146 50.0058C310.529 46.0264 312.655 41.4078 312.655 36.844H311.655C311.655 41.1002 309.666 45.4976 306.384 49.3582L307.146 50.0058ZM312.655 36.844C312.655 31.5815 311.439 27.0627 308.155 23.8681C304.875 20.6773 299.626 18.9 291.771 18.9V19.9C299.498 19.9 304.442 21.6507 307.458 24.5849C310.47 27.5153 311.655 31.7185 311.655 36.844H312.655ZM291.771 18.9H231.991V19.9H291.771V18.9ZM231.491 19.4V88H232.491V19.4H231.491ZM231.991 88.5H294.711V87.5H231.991V88.5ZM294.711 88.5C302.599 88.5 308.326 86.2158 312.081 82.4356C315.834 78.6577 317.555 73.4472 317.555 67.714H316.555C316.555 73.2508 314.896 78.1833 311.372 81.7309C307.85 85.2762 302.405 87.5 294.711 87.5V88.5ZM317.555 67.714C317.555 60.0578 313.122 53.6507 307.058 49.2765L306.473 50.0875C312.365 54.3373 316.555 60.4742 316.555 67.714H317.555ZM257.471 36.56H280.991V35.56H257.471V36.56ZM280.991 36.56C282.294 36.56 283.604 36.5678 284.594 36.9861C285.072 37.1878 285.455 37.4781 285.724 37.8998C285.994 38.3242 286.175 38.9229 286.175 39.784H287.175C287.175 38.7831 286.964 37.9853 286.567 37.3623C286.168 36.7367 285.608 36.3287 284.983 36.0649C283.769 35.5521 282.236 35.56 280.991 35.56V36.56ZM286.175 39.784C286.175 40.6451 285.994 41.2438 285.724 41.6682C285.455 42.0899 285.072 42.3802 284.594 42.5819C283.604 43.0001 282.294 43.008 280.991 43.008V44.008C282.236 44.008 283.769 44.0159 284.983 43.5031C285.608 43.2393 286.168 42.8313 286.567 42.2057C286.964 41.5827 287.175 40.7849 287.175 39.784H286.175ZM280.991 43.008H257.471V44.008H280.991V43.008ZM257.971 43.508V36.06H256.971V43.508H257.971ZM285.891 68.88H257.471V69.88H285.891V68.88ZM257.971 69.38V62.128H256.971V69.38H257.971ZM257.471 62.628H285.891V61.628H257.471V62.628ZM285.891 62.628C287.194 62.628 288.506 62.6355 289.499 63.0437C289.978 63.2407 290.36 63.5236 290.627 63.9316C290.895 64.3414 291.075 64.9197 291.075 65.754H292.075C292.075 64.7753 291.863 63.9939 291.464 63.3839C291.063 62.772 290.502 62.375 289.879 62.1188C288.667 61.6205 287.137 61.628 285.891 61.628V62.628ZM291.075 65.754C291.075 66.5883 290.895 67.1666 290.627 67.5764C290.36 67.9844 289.978 68.2673 289.499 68.4643C288.506 68.8725 287.194 68.88 285.891 68.88V69.88C287.137 69.88 288.667 69.8875 289.879 69.3892C290.502 69.133 291.063 68.7359 291.464 68.1241C291.863 67.5141 292.075 66.7327 292.075 65.754H291.075ZM404.364 19.4H404.864V18.9H404.364V19.4ZM378.884 19.4V18.9H378.384V19.4H378.884ZM343.604 19.4H344.104V18.9H343.604V19.4ZM318.124 19.4V18.9H317.624V19.4H318.124ZM404.864 53.602V19.4H403.864V53.602H404.864ZM404.364 18.9H378.884V19.9H404.364V18.9ZM378.384 19.4V53.602H379.384V19.4H378.384ZM378.384 53.602C378.384 57.1807 377.729 60.4701 375.332 62.8778C372.933 65.2889 368.683 66.92 361.244 66.92V67.92C368.799 67.92 373.369 66.2681 376.041 63.5832C378.717 60.8949 379.384 57.2753 379.384 53.602H378.384ZM361.244 66.92C353.803 66.92 349.554 65.3126 347.155 62.9137C344.76 60.519 344.104 57.2311 344.104 53.602H343.104C343.104 57.3229 343.771 60.944 346.448 63.6208C349.12 66.2934 353.691 67.92 361.244 67.92V66.92ZM344.104 53.602V19.4H343.104V53.602H344.104ZM343.604 18.9H318.124V19.9H343.604V18.9ZM317.624 19.4V53.602H318.624V19.4H317.624ZM317.624 53.602C317.624 65.6469 320.885 74.6588 328.044 80.6417C335.184 86.6077 346.105 89.48 361.244 89.48V88.48C346.199 88.48 335.56 85.6193 328.686 79.8743C321.831 74.1462 318.624 65.469 318.624 53.602H317.624ZM361.244 89.48C376.335 89.48 387.256 86.5826 394.407 80.6049C401.578 74.6105 404.864 65.5996 404.864 53.602H403.864C403.864 65.4184 400.633 74.0965 393.766 79.8376C386.878 85.5954 376.239 88.48 361.244 88.48V89.48ZM408.276 19.4V18.9H407.776V19.4H408.276ZM408.276 88H407.776V88.5H408.276V88ZM433.756 88V88.5H434.256V88H433.756ZM433.756 71.928V71.428H433.256V71.928H433.756ZM448.75 71.928L449.181 71.6735L449.036 71.428H448.75V71.928ZM458.256 88L457.826 88.2545L457.971 88.5H458.256V88ZM488.44 88V88.5H489.336L488.866 87.7375L488.44 88ZM476.288 68.302L476.036 67.8703L475.594 68.1287L475.863 68.5645L476.288 68.302ZM433.756 40.96V40.46H433.256V40.96H433.756ZM433.756 50.368H433.256V50.868H433.756V50.368ZM488.94 45.664C488.94 37.9009 486.226 31.2042 481.507 26.4468C476.786 21.6889 470.088 18.9 462.176 18.9V19.9C469.846 19.9 476.281 22.5991 480.797 27.1511C485.313 31.7038 487.94 38.1391 487.94 45.664H488.94ZM462.176 18.9H408.276V19.9H462.176V18.9ZM407.776 19.4V88H408.776V19.4H407.776ZM408.276 88.5H433.756V87.5H408.276V88.5ZM434.256 88V71.928H433.256V88H434.256ZM433.756 72.428H448.75V71.428H433.756V72.428ZM448.32 72.1825L457.826 88.2545L458.687 87.7455L449.181 71.6735L448.32 72.1825ZM458.256 88.5H488.44V87.5H458.256V88.5ZM488.866 87.7375L476.714 68.0395L475.863 68.5645L488.015 88.2625L488.866 87.7375ZM476.541 68.7337C484.255 64.2251 488.94 55.8192 488.94 45.664H487.94C487.94 55.5008 483.413 63.5589 476.036 67.8703L476.541 68.7337ZM433.756 41.46H457.276V40.46H433.756V41.46ZM457.276 41.46C458.583 41.46 459.867 41.4712 460.839 41.9892C461.304 42.2376 461.7 42.6057 461.984 43.1698C462.273 43.7417 462.46 44.5407 462.46 45.664H463.46C463.46 44.4353 463.256 43.4703 462.877 42.7192C462.494 41.9603 461.946 41.4464 461.309 41.1068C460.075 40.4488 458.517 40.46 457.276 40.46V41.46ZM462.46 45.664C462.46 46.7873 462.273 47.5863 461.984 48.1582C461.7 48.7223 461.304 49.0904 460.839 49.3388C459.867 49.8568 458.583 49.868 457.276 49.868V50.868C458.517 50.868 460.075 50.8792 461.309 50.2212C461.946 49.8816 462.494 49.3677 462.877 48.6088C463.256 47.8577 463.46 46.8927 463.46 45.664H462.46ZM457.276 49.868H433.756V50.868H457.276V49.868ZM434.256 50.368V40.96H433.256V50.368H434.256ZM554.263 19.4V18.9H553.763V19.4H554.263ZM554.263 59.874L553.859 60.1691L554.763 61.4049V59.874H554.263ZM524.667 19.4L525.07 19.1049L524.921 18.9H524.667V19.4ZM491.347 19.4V18.9H490.847V19.4H491.347ZM491.347 88H490.847V88.5H491.347V88ZM516.827 88V88.5H517.327V88H516.827ZM516.827 47.526L517.23 47.2309L516.327 45.9951V47.526H516.827ZM546.423 88L546.019 88.2951L546.169 88.5H546.423V88ZM579.743 88V88.5H580.243V88H579.743ZM579.743 19.4H580.243V18.9H579.743V19.4ZM553.763 19.4V59.874H554.763V19.4H553.763ZM554.666 59.5789L525.07 19.1049L524.263 19.6951L553.859 60.1691L554.666 59.5789ZM524.667 18.9H491.347V19.9H524.667V18.9ZM490.847 19.4V88H491.847V19.4H490.847ZM491.347 88.5H516.827V87.5H491.347V88.5ZM517.327 88V47.526H516.327V88H517.327ZM516.423 47.8211L546.019 88.2951L546.826 87.7049L517.23 47.2309L516.423 47.8211ZM546.423 88.5H579.743V87.5H546.423V88.5ZM580.243 88V19.4H579.243V88H580.243ZM579.743 18.9H554.263V19.9H579.743V18.9ZM667 19.4H667.5V18.9H667V19.4ZM582.72 19.4V18.9H582.22V19.4H582.72ZM582.72 40.96H582.22V41.46H582.72V40.96ZM612.12 40.96H612.62V40.46H612.12V40.96ZM612.12 88H611.62V88.5H612.12V88ZM637.6 88V88.5H638.1V88H637.6ZM637.6 40.96V40.46H637.1V40.96H637.6ZM667 40.96V41.46H667.5V40.96H667ZM667 18.9H582.72V19.9H667V18.9ZM582.22 19.4V40.96H583.22V19.4H582.22ZM582.72 41.46H612.12V40.46H582.72V41.46ZM611.62 40.96V88H612.62V40.96H611.62ZM612.12 88.5H637.6V87.5H612.12V88.5ZM638.1 88V40.96H637.1V88H638.1ZM637.6 41.46H667V40.46H637.6V41.46ZM667.5 40.96V19.4H666.5V40.96H667.5Z" fill="url(#paint1_linear_6_154)"/>
<rect x="207" y="139" width="145" height="35" rx="2" stroke="white" stroke-width="2"/>
<path d="M242.318 155.18C242.998 154.38 243.418 153.46 243.418 152.56C243.418 150.44 242.438 149 239.258 149H227.058V163H239.858C243.038 163 244.418 161.16 244.418 158.86C244.418 157.34 243.538 156.06 242.318 155.18ZM232.258 152.4H237.058C237.578 152.4 238.218 152.4 238.218 153.16C238.218 153.92 237.578 153.92 237.058 153.92H232.258V152.4ZM238.058 159.2H232.258V157.72H238.058C238.578 157.72 239.218 157.72 239.218 158.46C239.218 159.2 238.578 159.2 238.058 159.2ZM260.236 163H265.956L260.156 149H252.436L246.636 163H252.356L253.316 160.48H259.276L260.236 163ZM254.676 156.88L256.296 152.6L257.916 156.88H254.676ZM274.567 149H269.367V163H274.567V149ZM278.763 154.2V158.2H294.763V154.2H278.763ZM313.761 153V149H298.961V163H313.761V159H304.161V157.7H313.761V154.3H304.161V153H313.761ZM332.151 153V149H317.351V163H332.151V159H322.551V157.7H332.151V154.3H322.551V153H332.151Z" fill="white"/>
<rect x="375" y="139" width="145" height="35" rx="2" stroke="white" stroke-width="2"/>
<path d="M414.616 158.6V149H409.416V163H423.816V158.6H414.616ZM436.016 163.2C442.156 163.2 444.816 160.84 444.816 155.98C444.816 151.14 442.156 148.8 436.016 148.8C429.856 148.8 427.216 151.12 427.216 155.98C427.216 160.86 429.856 163.2 436.016 163.2ZM436.016 158.8C432.956 158.8 432.416 157.48 432.416 155.98C432.416 154.5 432.936 153.2 436.016 153.2C439.096 153.2 439.616 154.52 439.616 155.98C439.616 157.46 439.076 158.8 436.016 158.8ZM457.023 163.2C463.163 163.2 465.823 160.84 465.823 155.98C465.823 151.14 463.163 148.8 457.023 148.8C450.863 148.8 448.223 151.12 448.223 155.98C448.223 160.86 450.863 163.2 457.023 163.2ZM457.023 158.8C453.963 158.8 453.423 157.48 453.423 155.98C453.423 154.5 453.943 153.2 457.023 153.2C460.103 153.2 460.623 154.52 460.623 155.98C460.623 157.46 460.083 158.8 457.023 158.8ZM480.431 149H469.431V163H474.631V159.72H480.431C483.611 159.72 485.791 157.48 485.791 154.36C485.791 151.24 483.611 149 480.431 149ZM479.431 155.32H474.631V153.4H479.431C479.951 153.4 480.591 153.4 480.591 154.36C480.591 155.32 479.951 155.32 479.431 155.32Z" fill="white"/>
<rect x="543" y="139" width="145" height="35" rx="2" stroke="white" stroke-width="2"/>
<path d="M562.927 163H568.647L562.847 149H555.127L549.327 163H555.047L556.007 160.48H561.967L562.927 163ZM557.367 156.88L558.987 152.6L560.607 156.88H557.367ZM588.418 154.36C588.418 151.24 586.238 149 583.058 149H572.058V163H577.258V159.72H580.318L582.258 163H588.418L585.938 158.98C587.478 158.08 588.418 156.4 588.418 154.36ZM577.258 153.4H582.058C582.578 153.4 583.218 153.4 583.218 154.36C583.218 155.32 582.578 155.32 582.058 155.32H577.258V153.4ZM591.811 155.98C591.811 160.86 594.451 163.2 600.611 163.2C606.231 163.2 609.131 161.22 609.351 156.78H604.031C603.831 158.12 602.811 158.8 600.611 158.8C597.551 158.8 597.011 157.48 597.011 155.98C597.011 154.5 597.531 153.2 600.611 153.2C602.811 153.2 603.831 153.86 604.031 155.18H609.351C609.131 150.76 606.211 148.8 600.611 148.8C594.451 148.8 591.811 151.12 591.811 155.98ZM626.361 149V153.8H618.161V149H612.961V163H618.161V158.2H626.361V163H631.561V149H626.361ZM640.555 149H635.355V163H640.555V149ZM657.751 149L653.811 159.4L649.871 149H644.151L649.951 163H657.671L663.471 149H657.751ZM681.682 153V149H666.882V163H681.682V159H672.082V157.7H681.682V154.3H672.082V153H681.682Z" fill="white"/>
<path opacity="0.2" d="M31 225H47V226.9H33.2857V299.1V301H31V225Z" fill="white"/>
<path opacity="0.2" d="M875 225H859V226.9H872.714V299.1V301H875V225Z" fill="white"/>
<g opacity="0.5">
<path d="M35.3361 115H32.7361V122H35.3361V115ZM43.3541 115V119.13L40.3341 115H36.9341V122H39.5341V117.87L42.5541 122H45.9541V115H43.3541ZM56.058 115H47.458V117.2H50.458V122H53.058V117.2H56.058V115ZM64.9568 117V115H57.5568V122H64.9568V120H60.1568V119.35H64.9568V117.65H60.1568V117H64.9568ZM74.6321 117.68C74.6321 116.12 73.5421 115 71.9521 115H66.4521V122H69.0521V120.36H70.5821L71.5521 122H74.6321L73.3921 119.99C74.1621 119.54 74.6321 118.7 74.6321 117.68ZM69.0521 117.2H71.4521C71.7121 117.2 72.0321 117.2 72.0321 117.68C72.0321 118.16 71.7121 118.16 71.4521 118.16H69.0521V117.2ZM82.8287 122H85.6887L82.7887 115H78.9287L76.0287 122H78.8887L79.3687 120.74H82.3487L82.8287 122ZM80.0487 118.94L80.8587 116.8L81.6687 118.94H80.0487ZM86.1935 118.49C86.1935 120.93 87.5135 122.1 90.5935 122.1C93.4035 122.1 94.8535 121.11 94.9635 118.89H92.3035C92.2035 119.56 91.6935 119.9 90.5935 119.9C89.0635 119.9 88.7935 119.24 88.7935 118.49C88.7935 117.75 89.0535 117.1 90.5935 117.1C91.6935 117.1 92.2035 117.43 92.3035 118.09H94.9635C94.8535 115.88 93.3935 114.9 90.5935 114.9C87.5135 114.9 86.1935 116.06 86.1935 118.49ZM104.87 115H96.2705V117.2H99.2705V122H101.87V117.2H104.87V115ZM108.969 115H106.369V122H108.969V115ZM117.267 115L115.297 120.2L113.327 115H110.467L113.367 122H117.227L120.127 115H117.267ZM128.933 117V115H121.533V122H128.933V120H124.133V119.35H128.933V117.65H124.133V117H128.933Z" fill="white"/>
<path d="M44.8102 131.806C44.8169 131.952 44.8502 132.086 44.9102 132.206C44.9635 132.306 45.0402 132.396 45.1402 132.476C45.2469 132.556 45.4002 132.596 45.6002 132.596V133.776H44.4202C44.2202 133.776 44.0435 133.756 43.8902 133.716C43.7435 133.669 43.6135 133.609 43.5002 133.536C43.3935 133.462 43.3002 133.379 43.2202 133.286C43.1469 133.192 43.0869 133.096 43.0402 132.996C42.9202 132.769 42.8535 132.506 42.8402 132.206V131.026C42.8335 130.952 42.8169 130.886 42.7902 130.826C42.7635 130.772 42.7235 130.726 42.6702 130.686C42.6169 130.646 42.5435 130.626 42.4502 130.626H42.0602V133.776H39.7002V126.696H43.6302C43.8302 126.696 44.0035 126.719 44.1502 126.766C44.3035 126.812 44.4335 126.872 44.5402 126.946C44.6535 127.019 44.7469 127.102 44.8202 127.196C44.8935 127.289 44.9569 127.386 45.0102 127.486C45.1302 127.712 45.1969 127.972 45.2102 128.266V128.656C45.1969 128.956 45.1469 129.219 45.0602 129.446C44.9869 129.646 44.8702 129.829 44.7102 129.996C44.5502 130.156 44.3235 130.236 44.0302 130.236C44.1702 130.242 44.3002 130.276 44.4202 130.336C44.5135 130.389 44.6002 130.469 44.6802 130.576C44.7669 130.682 44.8102 130.832 44.8102 131.026V131.806ZM42.8402 127.876C42.8335 127.736 42.8002 127.606 42.7402 127.486C42.6869 127.386 42.6069 127.296 42.5002 127.216C42.4002 127.129 42.2535 127.086 42.0602 127.086V129.846C42.2535 129.846 42.4002 129.806 42.5002 129.726C42.6069 129.646 42.6869 129.556 42.7402 129.456C42.8002 129.336 42.8335 129.202 42.8402 129.056V127.876ZM52.1345 126.686V127.676H50.1745V129.836H50.9545V130.626H50.1745V132.786H52.1345V133.776H47.8045V126.686H52.1345ZM58.4126 126.686V127.676H56.4526V129.836H57.2326V130.626H56.4526V132.786H58.4126V133.776H54.0826V126.686H58.4126ZM64.2007 126.686C64.3941 126.686 64.5641 126.709 64.7107 126.756C64.8641 126.802 64.9941 126.862 65.1007 126.936C65.2141 127.009 65.3074 127.092 65.3807 127.186C65.4541 127.279 65.5174 127.376 65.5707 127.476C65.6907 127.709 65.7574 127.972 65.7707 128.266V132.206C65.7707 132.406 65.7474 132.579 65.7007 132.726C65.6541 132.872 65.5941 133.002 65.5207 133.116C65.4474 133.222 65.3641 133.316 65.2707 133.396C65.1774 133.469 65.0807 133.529 64.9807 133.576C64.7541 133.696 64.4941 133.762 64.2007 133.776H61.8407C61.5407 133.762 61.2774 133.696 61.0507 133.576C60.9507 133.529 60.8541 133.469 60.7607 133.396C60.6674 133.316 60.5807 133.222 60.5007 133.116C60.4274 133.002 60.3674 132.872 60.3207 132.726C60.2807 132.579 60.2607 132.406 60.2607 132.206V128.266C60.2607 127.879 60.3407 127.579 60.5007 127.366C60.6674 127.146 60.8507 126.986 61.0507 126.886C61.2774 126.766 61.5407 126.699 61.8407 126.686H64.2007ZM63.4107 127.476C63.4041 127.409 63.3874 127.346 63.3607 127.286C63.3341 127.232 63.2941 127.186 63.2407 127.146C63.1874 127.106 63.1141 127.086 63.0207 127.086C62.9207 127.086 62.8441 127.106 62.7907 127.146C62.7374 127.186 62.6974 127.232 62.6707 127.286C62.6441 127.346 62.6274 127.409 62.6207 127.476V132.986C62.6274 133.059 62.6441 133.126 62.6707 133.186C62.6974 133.239 62.7374 133.286 62.7907 133.326C62.8441 133.366 62.9207 133.386 63.0207 133.386C63.1141 133.386 63.1874 133.366 63.2407 133.326C63.2941 133.286 63.3341 133.239 63.3607 133.186C63.3874 133.126 63.4041 133.059 63.4107 132.986V127.476ZM70.2293 126.686V132.986C70.236 133.059 70.2527 133.126 70.2793 133.186C70.306 133.239 70.3427 133.286 70.3893 133.326C70.4427 133.359 70.5193 133.376 70.6193 133.376C70.7193 133.376 70.796 133.359 70.8493 133.326C70.9027 133.286 70.9427 133.239 70.9693 133.186C70.996 133.126 71.0127 133.059 71.0193 132.986V126.686H73.3793V132.196C73.366 132.496 73.2993 132.759 73.1793 132.986C73.0793 133.186 72.9227 133.369 72.7093 133.536C72.496 133.696 72.1927 133.776 71.7993 133.776H69.4393C69.1393 133.762 68.876 133.696 68.6493 133.576C68.5493 133.529 68.4527 133.469 68.3593 133.396C68.266 133.316 68.1827 133.222 68.1093 133.116C68.036 133.002 67.976 132.872 67.9293 132.726C67.8893 132.572 67.8693 132.396 67.8693 132.196V126.686H70.2293ZM77.153 127.676H75.183V126.686H81.483V127.676H79.513V133.776H77.153V127.676ZM85.6569 126.686V133.776H83.2869V126.686H85.6569ZM87.8561 133.776V126.686H88.6461L90.6161 129.256V126.686H92.9761V133.776H92.1861L90.2261 131.226V133.776H87.8561ZM95.1791 128.266C95.1791 128.066 95.1991 127.892 95.2391 127.746C95.2858 127.592 95.3458 127.462 95.4191 127.356C95.4924 127.242 95.5758 127.149 95.6691 127.076C95.7624 127.002 95.8591 126.939 95.9591 126.886C96.1858 126.766 96.4491 126.699 96.7491 126.686H98.9191C99.1391 126.686 99.3324 126.712 99.4991 126.766C99.6658 126.812 99.8124 126.879 99.9391 126.966C100.066 127.052 100.172 127.149 100.259 127.256C100.346 127.362 100.416 127.469 100.469 127.576C100.596 127.836 100.669 128.129 100.689 128.456H98.3291V127.476C98.3224 127.409 98.3058 127.346 98.2791 127.286C98.2524 127.232 98.2124 127.186 98.1591 127.146C98.1058 127.106 98.0291 127.086 97.9291 127.086C97.8291 127.086 97.7524 127.106 97.6991 127.146C97.6524 127.186 97.6158 127.232 97.5891 127.286C97.5624 127.346 97.5458 127.409 97.5391 127.476V132.986C97.5458 133.059 97.5624 133.126 97.5891 133.186C97.6158 133.239 97.6524 133.286 97.6991 133.326C97.7524 133.359 97.8291 133.376 97.9291 133.376C98.0291 133.376 98.1058 133.359 98.1591 133.326C98.2124 133.286 98.2524 133.239 98.2791 133.186C98.3058 133.126 98.3224 133.059 98.3291 132.986V131.416H97.9291V130.626H100.689V132.006C100.669 132.339 100.596 132.636 100.469 132.896C100.416 133.009 100.346 133.119 100.259 133.226C100.172 133.326 100.066 133.419 99.9391 133.506C99.8124 133.586 99.6658 133.652 99.4991 133.706C99.3324 133.752 99.1391 133.776 98.9191 133.776H96.7491C96.4491 133.762 96.1858 133.696 95.9591 133.576C95.8591 133.529 95.7624 133.469 95.6691 133.396C95.5758 133.316 95.4924 133.222 95.4191 133.116C95.3458 133.002 95.2858 132.872 95.2391 132.726C95.1991 132.572 95.1791 132.396 95.1791 132.196V128.266ZM107.091 128.266C107.091 128.066 107.111 127.892 107.151 127.746C107.197 127.592 107.257 127.462 107.331 127.356C107.404 127.242 107.487 127.149 107.581 127.076C107.674 127.002 107.771 126.939 107.871 126.886C108.097 126.766 108.361 126.699 108.661 126.686H110.831C111.051 126.686 111.244 126.712 111.411 126.766C111.577 126.812 111.724 126.879 111.851 126.966C111.977 127.052 112.084 127.149 112.171 127.256C112.257 127.362 112.327 127.469 112.381 127.576C112.507 127.836 112.581 128.129 112.601 128.456H110.241V127.476C110.234 127.409 110.217 127.346 110.191 127.286C110.164 127.232 110.124 127.186 110.071 127.146C110.017 127.106 109.941 127.086 109.841 127.086C109.741 127.086 109.664 127.106 109.611 127.146C109.564 127.186 109.527 127.232 109.501 127.286C109.474 127.346 109.457 127.409 109.451 127.476V132.986C109.457 133.059 109.474 133.126 109.501 133.186C109.527 133.239 109.564 133.286 109.611 133.326C109.664 133.359 109.741 133.376 109.841 133.376C109.941 133.376 110.017 133.359 110.071 133.326C110.124 133.286 110.164 133.239 110.191 133.186C110.217 133.126 110.234 133.059 110.241 132.986V132.006H112.601C112.581 132.339 112.507 132.636 112.381 132.896C112.327 133.009 112.257 133.119 112.171 133.226C112.084 133.326 111.977 133.419 111.851 133.506C111.724 133.586 111.577 133.652 111.411 133.706C111.244 133.752 111.051 133.776 110.831 133.776H108.661C108.361 133.762 108.097 133.696 107.871 133.576C107.771 133.529 107.674 133.469 107.581 133.396C107.487 133.316 107.404 133.222 107.331 133.116C107.257 133.002 107.197 132.872 107.151 132.726C107.111 132.572 107.091 132.396 107.091 132.196V128.266ZM118.491 126.686C118.684 126.686 118.854 126.709 119.001 126.756C119.154 126.802 119.284 126.862 119.391 126.936C119.504 127.009 119.597 127.092 119.671 127.186C119.744 127.279 119.807 127.376 119.861 127.476C119.981 127.709 120.047 127.972 120.061 128.266V133.776H117.701V130.626H116.911V133.776H114.551V128.266C114.551 127.872 114.631 127.569 114.791 127.356C114.957 127.142 115.141 126.986 115.341 126.886C115.567 126.766 115.831 126.699 116.131 126.686H118.491ZM117.701 127.476C117.694 127.409 117.677 127.346 117.651 127.286C117.624 127.232 117.584 127.186 117.531 127.146C117.477 127.106 117.404 127.086 117.311 127.086C117.211 127.086 117.134 127.106 117.081 127.146C117.027 127.186 116.987 127.232 116.961 127.286C116.934 127.346 116.917 127.409 116.911 127.476V129.836H117.701V127.476ZM123.834 127.676H121.864V126.686H128.164V127.676H126.194V133.776H123.834V127.676Z" fill="white" fill-opacity="0.6"/>
<path d="M32.9141 129.785L30.6963 132.29V127.281L32.9141 129.785Z" fill="white"/>
<path d="M45.1143 142.311L42.8965 144.816V139.806L45.1143 142.311Z" fill="white" fill-opacity="0.6"/>
<path d="M45.1143 154.837L42.8965 157.342V152.332L45.1143 154.837Z" fill="white" fill-opacity="0.6"/>
<path d="M45.1143 167.359L42.8965 169.864V164.854L45.1143 167.359Z" fill="white" fill-opacity="0.6"/>
<path d="M50.7871 146.302V139.222H51.5771L53.7371 141.582L55.9071 139.222H56.6971V146.302H54.3271V143.752L53.7371 144.342L53.1471 143.752V146.302H50.7871ZM62.8412 139.212C63.0345 139.212 63.2045 139.235 63.3512 139.282C63.5045 139.328 63.6345 139.388 63.7412 139.462C63.8545 139.535 63.9478 139.618 64.0212 139.712C64.0945 139.805 64.1578 139.902 64.2112 140.002C64.3312 140.235 64.3978 140.498 64.4112 140.792V146.302H62.0512V143.152H61.2612V146.302H58.9012V140.792C58.9012 140.398 58.9812 140.095 59.1412 139.882C59.3078 139.668 59.4912 139.512 59.6912 139.412C59.9178 139.292 60.1812 139.225 60.4812 139.212H62.8412ZM62.0512 140.002C62.0445 139.935 62.0278 139.872 62.0012 139.812C61.9745 139.758 61.9345 139.712 61.8812 139.672C61.8278 139.632 61.7545 139.612 61.6612 139.612C61.5612 139.612 61.4845 139.632 61.4312 139.672C61.3778 139.712 61.3378 139.758 61.3112 139.812C61.2845 139.872 61.2678 139.935 61.2612 140.002V142.362H62.0512V140.002ZM68.1848 140.202H66.2148V139.212H72.5148V140.202H70.5448V146.302H68.1848V140.202ZM76.6988 139.212L76.6888 142.372H77.6688V139.212H80.0288V146.302H77.6688V143.152H76.6888V146.302H74.3188V139.212H76.6988Z" fill="white" fill-opacity="0.6"/>
<path d="M54.7271 151.737C54.9204 151.737 55.0904 151.76 55.2371 151.807C55.3904 151.854 55.5204 151.914 55.6271 151.987C55.7404 152.06 55.8338 152.144 55.9071 152.237C55.9804 152.33 56.0438 152.427 56.0971 152.527C56.2171 152.76 56.2838 153.024 56.2971 153.317V157.247C56.2838 157.547 56.2171 157.81 56.0971 158.037C55.9971 158.237 55.8404 158.42 55.6271 158.587C55.4138 158.747 55.1138 158.827 54.7271 158.827H50.7871V151.737H54.7271ZM53.9371 152.917C53.9304 152.777 53.8971 152.647 53.8371 152.527C53.7838 152.434 53.7038 152.347 53.5971 152.267C53.4904 152.18 53.3404 152.137 53.1471 152.137V158.427C53.3404 158.427 53.4904 158.387 53.5971 158.307C53.7038 158.227 53.7838 158.137 53.8371 158.037C53.8971 157.924 53.9304 157.794 53.9371 157.647V152.917ZM62.8308 151.737V152.727H60.8708V154.887H61.6508V155.677H60.8708V157.837H62.8308V158.827H58.5008V151.737H62.8308ZM68.7189 151.737C68.9122 151.737 69.0822 151.76 69.2289 151.807C69.3822 151.854 69.5122 151.914 69.6189 151.987C69.7322 152.06 69.8256 152.144 69.8989 152.237C69.9722 152.33 70.0356 152.427 70.0889 152.527C70.2089 152.76 70.2756 153.024 70.2889 153.317V157.247C70.2756 157.547 70.2089 157.81 70.0889 158.037C69.9889 158.237 69.8322 158.42 69.6189 158.587C69.4056 158.747 69.1056 158.827 68.7189 158.827H64.7789V151.737H68.7189ZM67.9289 152.917C67.9222 152.777 67.8889 152.647 67.8289 152.527C67.7756 152.434 67.6956 152.347 67.5889 152.267C67.4822 152.18 67.3322 152.137 67.1389 152.137V158.427C67.3322 158.427 67.4822 158.387 67.5889 158.307C67.6956 158.227 67.7756 158.137 67.8289 158.037C67.8889 157.924 67.9222 157.794 67.9289 157.647V152.917ZM74.8526 151.737V158.037C74.8592 158.11 74.8759 158.177 74.9026 158.237C74.9292 158.29 74.9659 158.337 75.0126 158.377C75.0659 158.41 75.1426 158.427 75.2426 158.427C75.3426 158.427 75.4192 158.41 75.4726 158.377C75.5259 158.337 75.5659 158.29 75.5926 158.237C75.6192 158.177 75.6359 158.11 75.6426 158.037V151.737H78.0026V157.247C77.9892 157.547 77.9226 157.81 77.8026 158.037C77.7026 158.237 77.5459 158.42 77.3326 158.587C77.1192 158.747 76.8159 158.827 76.4226 158.827H74.0626C73.7626 158.814 73.4992 158.747 73.2726 158.627C73.1726 158.58 73.0759 158.52 72.9826 158.447C72.8892 158.367 72.8059 158.274 72.7326 158.167C72.6592 158.054 72.5992 157.924 72.5526 157.777C72.5126 157.624 72.4926 157.447 72.4926 157.247V151.737H74.8526ZM80.2062 153.317C80.2062 153.117 80.2262 152.944 80.2662 152.797C80.3129 152.644 80.3729 152.514 80.4462 152.407C80.5196 152.294 80.6029 152.2 80.6962 152.127C80.7896 152.054 80.8862 151.99 80.9862 151.937C81.2129 151.817 81.4762 151.75 81.7762 151.737H83.9462C84.1662 151.737 84.3596 151.764 84.5262 151.817C84.6929 151.864 84.8396 151.93 84.9662 152.017C85.0929 152.104 85.1996 152.2 85.2862 152.307C85.3729 152.414 85.4429 152.52 85.4962 152.627C85.6229 152.887 85.6962 153.18 85.7162 153.507H83.3562V152.527C83.3496 152.46 83.3329 152.397 83.3062 152.337C83.2796 152.284 83.2396 152.237 83.1862 152.197C83.1329 152.157 83.0562 152.137 82.9562 152.137C82.8562 152.137 82.7796 152.157 82.7262 152.197C82.6796 152.237 82.6429 152.284 82.6162 152.337C82.5896 152.397 82.5729 152.46 82.5662 152.527V158.037C82.5729 158.11 82.5896 158.177 82.6162 158.237C82.6429 158.29 82.6796 158.337 82.7262 158.377C82.7796 158.41 82.8562 158.427 82.9562 158.427C83.0562 158.427 83.1329 158.41 83.1862 158.377C83.2396 158.337 83.2796 158.29 83.3062 158.237C83.3329 158.177 83.3496 158.11 83.3562 158.037V157.057H85.7162C85.6962 157.39 85.6229 157.687 85.4962 157.947C85.4429 158.06 85.3729 158.17 85.2862 158.277C85.1996 158.377 85.0929 158.47 84.9662 158.557C84.8396 158.637 84.6929 158.704 84.5262 158.757C84.3596 158.804 84.1662 158.827 83.9462 158.827H81.7762C81.4762 158.814 81.2129 158.747 80.9862 158.627C80.8862 158.58 80.7896 158.52 80.6962 158.447C80.6029 158.367 80.5196 158.274 80.4462 158.167C80.3729 158.054 80.3129 157.924 80.2662 157.777C80.2262 157.624 80.2062 157.447 80.2062 157.247V153.317ZM89.236 152.727H87.266V151.737H93.566V152.727H91.596V158.827H89.236V152.727ZM97.7399 151.737V158.827H95.3699V151.737H97.7399ZM103.779 151.737C103.972 151.737 104.142 151.76 104.289 151.807C104.442 151.854 104.572 151.914 104.679 151.987C104.792 152.06 104.886 152.144 104.959 152.237C105.032 152.33 105.096 152.427 105.149 152.527C105.269 152.76 105.336 153.024 105.349 153.317V157.257C105.349 157.457 105.326 157.63 105.279 157.777C105.232 157.924 105.172 158.054 105.099 158.167C105.026 158.274 104.942 158.367 104.849 158.447C104.756 158.52 104.659 158.58 104.559 158.627C104.332 158.747 104.072 158.814 103.779 158.827H101.419C101.119 158.814 100.856 158.747 100.629 158.627C100.529 158.58 100.432 158.52 100.339 158.447C100.246 158.367 100.159 158.274 100.079 158.167C100.006 158.054 99.9457 157.924 99.8991 157.777C99.8591 157.63 99.8391 157.457 99.8391 157.257V153.317C99.8391 152.93 99.9191 152.63 100.079 152.417C100.246 152.197 100.429 152.037 100.629 151.937C100.856 151.817 101.119 151.75 101.419 151.737H103.779ZM102.989 152.527C102.982 152.46 102.966 152.397 102.939 152.337C102.912 152.284 102.872 152.237 102.819 152.197C102.766 152.157 102.692 152.137 102.599 152.137C102.499 152.137 102.422 152.157 102.369 152.197C102.316 152.237 102.276 152.284 102.249 152.337C102.222 152.397 102.206 152.46 102.199 152.527V158.037C102.206 158.11 102.222 158.177 102.249 158.237C102.276 158.29 102.316 158.337 102.369 158.377C102.422 158.417 102.499 158.437 102.599 158.437C102.692 158.437 102.766 158.417 102.819 158.377C102.872 158.337 102.912 158.29 102.939 158.237C102.966 158.177 102.982 158.11 102.989 158.037V152.527ZM107.448 158.827V151.737H108.238L110.208 154.307V151.737H112.568V158.827H111.778L109.818 156.277V158.827H107.448Z" fill="white" fill-opacity="0.6"/>
<path d="M54.7271 164.259C54.9204 164.259 55.0904 164.282 55.2371 164.329C55.3904 164.376 55.5204 164.436 55.6271 164.509C55.7404 164.582 55.8338 164.666 55.9071 164.759C55.9804 164.852 56.0438 164.949 56.0971 165.049C56.2171 165.282 56.2838 165.546 56.2971 165.839V169.769C56.2838 170.069 56.2171 170.332 56.0971 170.559C55.9971 170.759 55.8404 170.942 55.6271 171.109C55.4138 171.269 55.1138 171.349 54.7271 171.349H50.7871V164.259H54.7271ZM53.9371 165.439C53.9304 165.299 53.8971 165.169 53.8371 165.049C53.7838 164.956 53.7038 164.869 53.5971 164.789C53.4904 164.702 53.3404 164.659 53.1471 164.659V170.949C53.3404 170.949 53.4904 170.909 53.5971 170.829C53.7038 170.749 53.7838 170.659 53.8371 170.559C53.8971 170.446 53.9304 170.316 53.9371 170.169V165.439ZM62.8308 164.259V165.249H60.8708V167.409H61.6508V168.199H60.8708V170.359H62.8308V171.349H58.5008V164.259H62.8308ZM64.7789 165.839C64.7789 165.639 64.7989 165.466 64.8389 165.319C64.8856 165.166 64.9456 165.036 65.0189 164.929C65.0922 164.816 65.1756 164.722 65.2689 164.649C65.3622 164.576 65.4589 164.512 65.5589 164.459C65.7856 164.339 66.0489 164.272 66.3489 164.259H68.5189C68.7389 164.259 68.9322 164.286 69.0989 164.339C69.2656 164.386 69.4122 164.452 69.5389 164.539C69.6656 164.626 69.7722 164.722 69.8589 164.829C69.9456 164.936 70.0156 165.042 70.0689 165.149C70.1956 165.409 70.2689 165.702 70.2889 166.029H67.9289V165.049C67.9222 164.982 67.9056 164.919 67.8789 164.859C67.8522 164.806 67.8122 164.759 67.7589 164.719C67.7056 164.679 67.6289 164.659 67.5289 164.659C67.4289 164.659 67.3522 164.679 67.2989 164.719C67.2522 164.759 67.2156 164.806 67.1889 164.859C67.1622 164.919 67.1456 164.982 67.1389 165.049V170.559C67.1456 170.632 67.1622 170.699 67.1889 170.759C67.2156 170.812 67.2522 170.859 67.2989 170.899C67.3522 170.932 67.4289 170.949 67.5289 170.949C67.6289 170.949 67.7056 170.932 67.7589 170.899C67.8122 170.859 67.8522 170.812 67.8789 170.759C67.9056 170.699 67.9222 170.632 67.9289 170.559V169.579H70.2889C70.2689 169.912 70.1956 170.209 70.0689 170.469C70.0156 170.582 69.9456 170.692 69.8589 170.799C69.7722 170.899 69.6656 170.992 69.5389 171.079C69.4122 171.159 69.2656 171.226 69.0989 171.279C68.9322 171.326 68.7389 171.349 68.5189 171.349H66.3489C66.0489 171.336 65.7856 171.269 65.5589 171.149C65.4589 171.102 65.3622 171.042 65.2689 170.969C65.1756 170.889 65.0922 170.796 65.0189 170.689C64.9456 170.576 64.8856 170.446 64.8389 170.299C64.7989 170.146 64.7789 169.969 64.7789 169.769V165.839ZM74.6087 164.259V171.349H72.2387V164.259H74.6087ZM76.7078 165.839C76.7078 165.452 76.7878 165.152 76.9478 164.939C77.1145 164.726 77.2978 164.569 77.4978 164.469C77.7245 164.349 77.9878 164.282 78.2878 164.269H80.6478C80.8411 164.269 81.0111 164.292 81.1578 164.339C81.3111 164.386 81.4411 164.446 81.5478 164.519C81.6611 164.592 81.7545 164.676 81.8278 164.769C81.9011 164.862 81.9645 164.959 82.0178 165.059C82.1378 165.286 82.2045 165.546 82.2178 165.839H79.8578V165.049C79.8511 164.982 79.8345 164.919 79.8078 164.859C79.7811 164.806 79.7411 164.759 79.6878 164.719C79.6345 164.679 79.5611 164.659 79.4678 164.659C79.3678 164.659 79.2911 164.679 79.2378 164.719C79.1845 164.759 79.1445 164.806 79.1178 164.859C79.0911 164.919 79.0745 164.982 79.0678 165.049V166.629C79.0678 166.729 79.0878 166.806 79.1278 166.859C79.1678 166.906 79.2145 166.942 79.2678 166.969C79.3278 166.996 79.3945 167.012 79.4678 167.019H80.6478C80.8411 167.019 81.0111 167.042 81.1578 167.089C81.3111 167.136 81.4411 167.196 81.5478 167.269C81.6611 167.342 81.7545 167.426 81.8278 167.519C81.9011 167.612 81.9645 167.709 82.0178 167.809C82.1378 168.042 82.2045 168.306 82.2178 168.599V169.779C82.2178 169.979 82.1945 170.152 82.1478 170.299C82.1011 170.446 82.0411 170.576 81.9678 170.689C81.8945 170.796 81.8111 170.889 81.7178 170.969C81.6245 171.042 81.5278 171.102 81.4278 171.149C81.2011 171.269 80.9411 171.336 80.6478 171.349H78.2878C78.0878 171.349 77.9111 171.329 77.7578 171.289C77.6111 171.242 77.4811 171.182 77.3678 171.109C77.2611 171.036 77.1678 170.952 77.0878 170.859C77.0145 170.766 76.9545 170.669 76.9078 170.569C76.7878 170.342 76.7211 170.079 76.7078 169.779H79.0678V170.559C79.0745 170.632 79.0911 170.699 79.1178 170.759C79.1445 170.812 79.1845 170.859 79.2378 170.899C79.2911 170.939 79.3678 170.959 79.4678 170.959C79.5611 170.959 79.6345 170.939 79.6878 170.899C79.7411 170.859 79.7811 170.812 79.8078 170.759C79.8345 170.699 79.8511 170.632 79.8578 170.559V168.989C79.8578 168.896 79.8378 168.822 79.7978 168.769C79.7578 168.716 79.7111 168.676 79.6578 168.649C79.5978 168.622 79.5345 168.606 79.4678 168.599H78.2878C77.8945 168.599 77.5911 168.519 77.3778 168.359C77.1645 168.192 77.0078 168.009 76.9078 167.809C76.7878 167.582 76.7211 167.319 76.7078 167.019V165.839ZM86.6864 164.259V171.349H84.3164V164.259H86.6864ZM92.7255 164.259C92.9189 164.259 93.0889 164.282 93.2355 164.329C93.3889 164.376 93.5189 164.436 93.6255 164.509C93.7389 164.582 93.8322 164.666 93.9055 164.759C93.9789 164.852 94.0422 164.949 94.0955 165.049C94.2155 165.282 94.2822 165.546 94.2955 165.839V169.779C94.2955 169.979 94.2722 170.152 94.2255 170.299C94.1789 170.446 94.1189 170.576 94.0455 170.689C93.9722 170.796 93.8889 170.889 93.7955 170.969C93.7022 171.042 93.6055 171.102 93.5055 171.149C93.2789 171.269 93.0189 171.336 92.7255 171.349H90.3655C90.0655 171.336 89.8022 171.269 89.5755 171.149C89.4755 171.102 89.3789 171.042 89.2855 170.969C89.1922 170.889 89.1055 170.796 89.0255 170.689C88.9522 170.576 88.8922 170.446 88.8455 170.299C88.8055 170.152 88.7855 169.979 88.7855 169.779V165.839C88.7855 165.452 88.8655 165.152 89.0255 164.939C89.1922 164.719 89.3755 164.559 89.5755 164.459C89.8022 164.339 90.0655 164.272 90.3655 164.259H92.7255ZM91.9355 165.049C91.9289 164.982 91.9122 164.919 91.8855 164.859C91.8589 164.806 91.8189 164.759 91.7655 164.719C91.7122 164.679 91.6389 164.659 91.5455 164.659C91.4455 164.659 91.3689 164.679 91.3155 164.719C91.2622 164.759 91.2222 164.806 91.1955 164.859C91.1689 164.919 91.1522 164.982 91.1455 165.049V170.559C91.1522 170.632 91.1689 170.699 91.1955 170.759C91.2222 170.812 91.2622 170.859 91.3155 170.899C91.3689 170.939 91.4455 170.959 91.5455 170.959C91.6389 170.959 91.7122 170.939 91.7655 170.899C91.8189 170.859 91.8589 170.812 91.8855 170.759C91.9122 170.699 91.9289 170.632 91.9355 170.559V165.049ZM96.3941 171.349V164.259H97.1841L99.1541 166.829V164.259H101.514V171.349H100.724L98.7641 168.799V171.349H96.3941Z" fill="white" fill-opacity="0.6"/>
</g>
</g>
<defs>
<linearGradient id="paint0_linear_6_154" x1="449" y1="-1" x2="449" y2="118" gradientUnits="userSpaceOnUse">
<stop offset="0.9999" stop-color="white"/>
<stop offset="1" stop-color="white" stop-opacity="0"/>
</linearGradient>
<linearGradient id="paint1_linear_6_154" x1="449" y1="-1" x2="449" y2="118" gradientUnits="userSpaceOnUse">
<stop stop-color="white" stop-opacity="0"/>
<stop offset="0.646938" stop-color="white"/>
</linearGradient>
<clipPath id="clip0_6_154">
<rect width="896" height="306" fill="white"/>
</clipPath>
</defs>
</svg>
