<svg width="896" height="306" viewBox="0 0 896 306" fill="none" xmlns="http://www.w3.org/2000/svg">
<g clip-path="url(#clip0_6_154)">
<path d="M306.765 49.682C310.097 45.762 312.155 41.254 312.155 36.844C312.155 26.456 307.353 19.4 291.771 19.4H231.991V88H294.711C310.293 88 317.055 78.984 317.055 67.714C317.055 60.266 312.743 53.994 306.765 49.682ZM257.471 36.06H280.991C283.539 36.06 286.675 36.06 286.675 39.784C286.675 43.508 283.539 43.508 280.991 43.508H257.471V36.06ZM285.891 69.38H257.471V62.128H285.891C288.439 62.128 291.575 62.128 291.575 65.754C291.575 69.38 288.439 69.38 285.891 69.38ZM404.364 53.602V19.4H378.884V53.602C378.884 60.854 376.238 67.42 361.244 67.42C346.25 67.42 343.604 60.952 343.604 53.602V19.4H318.124V53.602C318.124 77.514 331.06 88.98 361.244 88.98C391.33 88.98 404.364 77.416 404.364 53.602ZM488.44 45.664C488.44 30.376 477.758 19.4 462.176 19.4H408.276V88H433.756V71.928H448.75L458.256 88H488.44L476.288 68.302C483.834 63.892 488.44 55.66 488.44 45.664ZM433.756 40.96H457.276C459.824 40.96 462.96 40.96 462.96 45.664C462.96 50.368 459.824 50.368 457.276 50.368H433.756V40.96ZM554.263 19.4V59.874L524.667 19.4H491.347V88H516.827V47.526L546.423 88H579.743V19.4H554.263ZM667 19.4H582.72V40.96H612.12V88H637.6V40.96H667V19.4Z" fill="url(#paint0_linear_6_154)"/>
<path d="M306.765 49.682L306.384 49.3582L306.034 49.7707L306.473 50.0875L306.765 49.682ZM231.991 19.4V18.9H231.491V19.4H231.991ZM231.991 88H231.491V88.5H231.991V88ZM257.471 36.06V35.56H256.971V36.06H257.471ZM257.471 43.508H256.971V44.008H257.471V43.508ZM257.471 69.38H256.971V69.88H257.471V69.38ZM257.471 62.128V61.628H256.971V62.128H257.471ZM307.146 50.0058C310.529 46.0264 312.655 41.4078 312.655 36.844H311.655C311.655 41.1002 309.666 45.4976 306.384 49.3582L307.146 50.0058ZM312.655 36.844C312.655 31.5815 311.439 27.0627 308.155 23.8681C304.875 20.6773 299.626 18.9 291.771 18.9V19.9C299.498 19.9 304.442 21.6507 307.458 24.5849C310.47 27.5153 311.655 31.7185 311.655 36.844H312.655ZM291.771 18.9H231.991V19.9H291.771V18.9ZM231.491 19.4V88H232.491V19.4H231.491ZM231.991 88.5H294.711V87.5H231.991V88.5ZM294.711 88.5C302.599 88.5 308.326 86.2158 312.081 82.4356C315.834 78.6577 317.555 73.4472 317.555 67.714H316.555C316.555 73.2508 314.896 78.1833 311.372 81.7309C307.85 85.2762 302.405 87.5 294.711 87.5V88.5ZM317.555 67.714C317.555 60.0578 313.122 53.6507 307.058 49.2765L306.473 50.0875C312.365 54.3373 316.555 60.4742 316.555 67.714H317.555ZM257.471 36.56H280.991V35.56H257.471V36.56ZM280.991 36.56C282.294 36.56 283.604 36.5678 284.594 36.9861C285.072 37.1878 285.455 37.4781 285.724 37.8998C285.994 38.3242 286.175 38.9229 286.175 39.784H287.175C287.175 38.7831 286.964 37.9853 286.567 37.3623C286.168 36.7367 285.608 36.3287 284.983 36.0649C283.769 35.5521 282.236 35.56 280.991 35.56V36.56ZM286.175 39.784C286.175 40.6451 285.994 41.2438 285.724 41.6682C285.455 42.0899 285.072 42.3802 284.594 42.5819C283.604 43.0001 282.294 43.008 280.991 43.008V44.008C282.236 44.008 283.769 44.0158 284.983 43.5031C285.608 43.2393 286.168 42.8313 286.567 42.2057C286.964 41.5827 287.175 40.7849 287.175 39.784H286.175ZM280.991 43.008H257.471V44.008H280.991V43.008ZM257.971 43.508V36.06H256.971V43.508H257.971ZM285.891 68.88H257.471V69.88H285.891V68.88ZM257.971 69.38V62.128H256.971V69.38H257.971ZM257.471 62.628H285.891V61.628H257.471V62.628ZM285.891 62.628C287.194 62.628 288.506 62.6355 289.499 63.0437C289.978 63.2407 290.36 63.5236 290.627 63.9316C290.895 64.3414 291.075 64.9197 291.075 65.754H292.075C292.075 64.7753 291.863 63.9939 291.464 63.3839C291.063 62.772 290.502 62.375 289.879 62.1188C288.667 61.6205 287.137 61.628 285.891 61.628V62.628ZM291.075 65.754C291.075 66.5883 290.895 67.1666 290.627 67.5764C290.36 67.9844 289.978 68.2673 289.499 68.4643C288.506 68.8725 287.194 68.88 285.891 68.88V69.88C287.137 69.88 288.667 69.8875 289.879 69.3892C290.502 69.133 291.063 68.7359 291.464 68.1241C291.863 67.5141 292.075 66.7327 292.075 65.754H291.075ZM404.364 19.4H404.864V18.9H404.364V19.4ZM378.884 19.4V18.9H378.384V19.4H378.884ZM343.604 19.4H344.104V18.9H343.604V19.4ZM318.124 19.4V18.9H317.624V19.4H318.124ZM404.864 53.602V19.4H403.864V53.602H404.864ZM404.364 18.9H378.884V19.9H404.364V18.9ZM378.384 19.4V53.602H379.384V19.4H378.384ZM378.384 53.602C378.384 57.1807 377.729 60.4701 375.332 62.8778C372.933 65.2889 368.683 66.92 361.244 66.92V67.92C368.799 67.92 373.369 66.2681 376.041 63.5832C378.717 60.8949 379.384 57.2753 379.384 53.602H378.384ZM361.244 66.92C353.803 66.92 349.554 65.3126 347.155 62.9137C344.76 60.519 344.104 57.2311 344.104 53.602H343.104C343.104 57.3229 343.771 60.944 346.448 63.6208C349.12 66.2934 353.691 67.92 361.244 67.92V66.92ZM344.104 53.602V19.4H343.104V53.602H344.104ZM343.604 18.9H318.124V19.9H343.604V18.9ZM317.624 19.4V53.602H318.624V19.4H317.624ZM317.624 53.602C317.624 65.6469 320.885 74.6588 328.044 80.6417C335.184 86.6077 346.105 89.48 361.244 89.48V88.48C346.199 88.48 335.56 85.6193 328.686 79.8743C321.831 74.1462 318.624 65.4691 318.624 53.602H317.624ZM361.244 89.48C376.335 89.48 387.256 86.5826 394.407 80.6049C401.578 74.6105 404.864 65.5996 404.864 53.602H403.864C403.864 65.4184 400.633 74.0965 393.766 79.8376C386.878 85.5954 376.239 88.48 361.244 88.48V89.48ZM408.276 19.4V18.9H407.776V19.4H408.276ZM408.276 88H407.776V88.5H408.276V88ZM433.756 88V88.5H434.256V88H433.756ZM433.756 71.928V71.428H433.256V71.928H433.756ZM448.75 71.928L449.181 71.6735L449.036 71.428H448.75V71.928ZM458.256 88L457.826 88.2545L457.971 88.5H458.256V88ZM488.44 88V88.5H489.336L488.866 87.7375L488.44 88ZM476.288 68.302L476.036 67.8703L475.594 68.1287L475.863 68.5645L476.288 68.302ZM433.756 40.96V40.46H433.256V40.96H433.756ZM433.756 50.368H433.256V50.868H433.756V50.368ZM488.94 45.664C488.94 37.9009 486.226 31.2042 481.507 26.4468C476.786 21.6889 470.088 18.9 462.176 18.9V19.9C469.846 19.9 476.281 22.5991 480.797 27.1511C485.313 31.7038 487.94 38.1391 487.94 45.664H488.94ZM462.176 18.9H408.276V19.9H462.176V18.9ZM407.776 19.4V88H408.776V19.4H407.776ZM408.276 88.5H433.756V87.5H408.276V88.5ZM434.256 88V71.928H433.256V88H434.256ZM433.756 72.428H448.75V71.428H433.756V72.428ZM448.32 72.1825L457.826 88.2545L458.687 87.7455L449.181 71.6735L448.32 72.1825ZM458.256 88.5H488.44V87.5H458.256V88.5ZM488.866 87.7375L476.714 68.0395L475.863 68.5645L488.015 88.2625L488.866 87.7375ZM476.541 68.7337C484.255 64.2251 488.94 55.8192 488.94 45.664H487.94C487.94 55.5008 483.413 63.5589 476.036 67.8703L476.541 68.7337ZM433.756 41.46H457.276V40.46H433.756V41.46ZM457.276 41.46C458.584 41.46 459.867 41.4712 460.839 41.9892C461.304 42.2376 461.7 42.6057 461.984 43.1698C462.273 43.7417 462.46 44.5407 462.46 45.664H463.46C463.46 44.4353 463.256 43.4703 462.877 42.7192C462.494 41.9603 461.946 41.4464 461.309 41.1068C460.075 40.4488 458.517 40.46 457.276 40.46V41.46ZM462.46 45.664C462.46 46.7873 462.273 47.5863 461.984 48.1582C461.7 48.7223 461.304 49.0904 460.839 49.3388C459.867 49.8568 458.584 49.868 457.276 49.868V50.868C458.517 50.868 460.075 50.8792 461.309 50.2212C461.946 49.8816 462.494 49.3677 462.877 48.6088C463.256 47.8577 463.46 46.8927 463.46 45.664H462.46ZM457.276 49.868H433.756V50.868H457.276V49.868ZM434.256 50.368V40.96H433.256V50.368H434.256ZM554.263 19.4V18.9H553.763V19.4H554.263ZM554.263 59.874L553.859 60.1691L554.763 61.4049V59.874H554.263ZM524.667 19.4L525.07 19.1049L524.921 18.9H524.667V19.4ZM491.347 19.4V18.9H490.847V19.4H491.347ZM491.347 88H490.847V88.5H491.347V88ZM516.827 88V88.5H517.327V88H516.827ZM516.827 47.526L517.23 47.2309L516.327 45.9951V47.526H516.827ZM546.423 88L546.019 88.2951L546.169 88.5H546.423V88ZM579.743 88V88.5H580.243V88H579.743ZM579.743 19.4H580.243V18.9H579.743V19.4ZM553.763 19.4V59.874H554.763V19.4H553.763ZM554.666 59.5789L525.07 19.1049L524.263 19.6951L553.859 60.1691L554.666 59.5789ZM524.667 18.9H491.347V19.9H524.667V18.9ZM490.847 19.4V88H491.847V19.4H490.847ZM491.347 88.5H516.827V87.5H491.347V88.5ZM517.327 88V47.526H516.327V88H517.327ZM516.423 47.8211L546.019 88.2951L546.826 87.7049L517.23 47.2309L516.423 47.8211ZM546.423 88.5H579.743V87.5H546.423V88.5ZM580.243 88V19.4H579.243V88H580.243ZM579.743 18.9H554.263V19.9H579.743V18.9ZM667 19.4H667.5V18.9H667V19.4ZM582.72 19.4V18.9H582.22V19.4H582.72ZM582.72 40.96H582.22V41.46H582.72V40.96ZM612.12 40.96H612.62V40.46H612.12V40.96ZM612.12 88H611.62V88.5H612.12V88ZM637.6 88V88.5H638.1V88H637.6ZM637.6 40.96V40.46H637.1V40.96H637.6ZM667 40.96V41.46H667.5V40.96H667ZM667 18.9H582.72V19.9H667V18.9ZM582.22 19.4V40.96H583.22V19.4H582.22ZM582.72 41.46H612.12V40.46H582.72V41.46ZM611.62 40.96V88H612.62V40.96H611.62ZM612.12 88.5H637.6V87.5H612.12V88.5ZM638.1 88V40.96H637.1V88H638.1ZM637.6 41.46H667V40.46H637.6V41.46ZM667.5 40.96V19.4H666.5V40.96H667.5Z" fill="url(#paint1_linear_6_154)"/>
<rect x="207" y="123" width="145" height="35" rx="2" stroke="white" stroke-width="2"/>
<path d="M259.083 147H264.803L259.003 133H251.283L245.483 147H251.203L252.163 144.48H258.123L259.083 147ZM253.523 140.88L255.143 136.6L256.763 140.88H253.523ZM266.413 139.98C266.413 144.86 269.053 147.2 275.213 147.2C280.833 147.2 283.733 145.22 283.953 140.78H278.633C278.433 142.12 277.413 142.8 275.213 142.8C272.153 142.8 271.613 141.48 271.613 139.98C271.613 138.5 272.133 137.2 275.213 137.2C277.413 137.2 278.433 137.86 278.633 139.18H283.953C283.733 134.76 280.813 132.8 275.213 132.8C269.053 132.8 266.413 135.12 266.413 139.98ZM292.762 133H287.562V147H292.762V133ZM306.958 133H296.558V147H306.958C310.338 147 313.518 144.76 313.518 140C313.518 135.24 310.338 133 306.958 133ZM305.358 142.6H301.758V137.4H305.358C306.478 137.4 308.318 137.4 308.318 140C308.318 142.6 306.478 142.6 305.358 142.6Z" fill="white"/>
<rect x="375" y="123" width="145" height="35" rx="2" stroke="white" stroke-width="2"/>
<path d="M410.661 133V137.8H402.461V133H397.261V147H402.461V142.2H410.661V147H415.861V133H410.661ZM428.061 147.2C434.201 147.2 436.861 144.84 436.861 139.98C436.861 135.14 434.201 132.8 428.061 132.8C421.901 132.8 419.261 135.12 419.261 139.98C419.261 144.86 421.901 147.2 428.061 147.2ZM428.061 142.8C425.001 142.8 424.461 141.48 424.461 139.98C424.461 138.5 424.981 137.2 428.061 137.2C431.141 137.2 431.661 138.52 431.661 139.98C431.661 141.46 431.121 142.8 428.061 142.8ZM458.068 139.98V133H452.868V139.98C452.868 141.46 452.328 142.8 449.268 142.8C446.208 142.8 445.668 141.48 445.668 139.98V133H440.468V139.98C440.468 144.86 443.108 147.2 449.268 147.2C455.408 147.2 458.068 144.84 458.068 139.98ZM461.667 142.06C461.667 146.22 464.867 147.2 470.607 147.2C476.347 147.2 479.547 146.22 479.547 142.36C479.547 138.7 476.127 138.32 470.607 138.1C467.567 137.98 467.067 138 467.067 137.46C467.067 136.92 467.567 136.8 470.007 136.8C472.547 136.8 473.747 136.96 473.747 137.7H478.947C478.947 134.12 475.867 132.8 470.407 132.8C464.887 132.8 461.867 134.12 461.867 137.2C461.867 140.46 464.287 141.5 470.607 141.7C473.887 141.8 474.347 141.88 474.347 142.48C474.347 143 473.887 143.2 470.807 143.2C467.507 143.2 466.867 142.74 466.867 142.06H461.667ZM497.948 137V133H483.148V147H497.948V143H488.348V141.7H497.948V138.3H488.348V137H497.948Z" fill="white"/>
<rect x="543" y="123" width="145" height="35" rx="2" stroke="white" stroke-width="2"/>
<path d="M565.471 142.6V133H560.271C560.271 135 558.331 135 556.271 135V139.4C557.731 139.4 558.811 139.4 560.331 138.06L560.291 142.6H556.271V147H569.471V142.6H565.471ZM588.955 137.2C588.955 133.72 586.135 132.8 581.315 132.8C576.555 132.8 573.275 133.72 573.275 138.5H578.475C578.475 137.2 579.675 137.2 581.515 137.2C583.255 137.2 583.755 137.3 583.755 137.9C583.755 139.86 573.075 139.36 573.075 144.6V147H588.755V142.6H581.095C582.095 141.04 588.955 141.74 588.955 137.2ZM600.564 147.2C606.104 147.2 608.764 144.84 608.764 139.98C608.764 135.14 606.104 132.8 600.564 132.8C595.004 132.8 592.364 135.12 592.364 139.98C592.364 144.86 595.004 147.2 600.564 147.2ZM600.564 142.8C598.104 142.8 597.564 141.48 597.564 139.98C597.564 138.5 598.084 137.2 600.564 137.2C603.044 137.2 603.564 138.52 603.564 139.98C603.564 141.46 603.024 142.8 600.564 142.8ZM627.621 139.18C628.301 138.38 628.721 137.46 628.721 136.56C628.721 134.44 627.741 133 624.561 133H612.361V147H625.161C628.341 147 629.721 145.16 629.721 142.86C629.721 141.34 628.841 140.06 627.621 139.18ZM617.561 136.4H622.361C622.881 136.4 623.521 136.4 623.521 137.16C623.521 137.92 622.881 137.92 622.361 137.92H617.561V136.4ZM623.361 143.2H617.561V141.72H623.361C623.881 141.72 624.521 141.72 624.521 142.46C624.521 143.2 623.881 143.2 623.361 143.2ZM644.33 133H633.33V147H638.53V143.72H644.33C647.51 143.72 649.69 141.48 649.69 138.36C649.69 135.24 647.51 133 644.33 133ZM643.33 139.32H638.53V137.4H643.33C643.85 137.4 644.49 137.4 644.49 138.36C644.49 139.32 643.85 139.32 643.33 139.32ZM674.723 133H668.323L664.003 141L659.683 133H653.283V147H658.483V140.34L662.303 147H665.703L669.523 140.34V147H674.723V133Z" fill="white"/>
<path d="M391.153 196.661C391.153 197.951 390.966 198.94 390.594 199.628C390.25 200.287 389.877 200.775 389.476 201.09C388.96 201.463 388.401 201.678 387.799 201.735C388.401 201.792 388.96 202.007 389.476 202.38C389.877 202.695 390.25 203.197 390.594 203.885C390.966 204.573 391.153 205.562 391.153 206.852V210.206C391.095 211.496 390.809 212.628 390.293 213.603C389.863 214.463 389.189 215.251 388.272 215.968C387.354 216.656 386.064 217 384.402 217H366.643V186.513H384.402C385.233 186.513 385.964 186.613 386.595 186.814C387.254 187.015 387.813 187.273 388.272 187.588C388.759 187.903 389.16 188.262 389.476 188.663C389.791 189.064 390.063 189.48 390.293 189.91C390.809 190.913 391.095 192.046 391.153 193.307V196.661ZM381.865 206.852C381.836 206.25 381.693 205.691 381.435 205.175C381.205 204.745 380.861 204.358 380.403 204.014C379.944 203.641 379.299 203.455 378.468 203.455V215.28C379.299 215.28 379.944 215.108 380.403 214.764C380.861 214.42 381.205 214.033 381.435 213.603C381.693 213.116 381.836 212.557 381.865 211.926V206.852ZM381.865 191.587C381.836 190.985 381.693 190.426 381.435 189.91C381.205 189.509 380.861 189.136 380.403 188.792C379.944 188.419 379.299 188.233 378.468 188.233V200.058C379.299 200.058 379.944 199.886 380.403 199.542C380.861 199.198 381.205 198.811 381.435 198.381C381.693 197.865 381.836 197.292 381.865 196.661V191.587ZM417.551 186.513C418.383 186.513 419.114 186.613 419.744 186.814C420.404 187.015 420.963 187.273 421.421 187.588C421.909 187.903 422.31 188.262 422.625 188.663C422.941 189.064 423.213 189.48 423.442 189.91C423.958 190.913 424.245 192.046 424.302 193.307V217H414.154V203.455H410.757V217H400.609V193.307C400.609 191.616 400.953 190.311 401.641 189.394C402.358 188.477 403.146 187.803 404.006 187.373C404.981 186.857 406.113 186.57 407.403 186.513H417.551ZM414.154 189.91C414.126 189.623 414.054 189.351 413.939 189.093C413.825 188.864 413.653 188.663 413.423 188.491C413.194 188.319 412.879 188.233 412.477 188.233C412.047 188.233 411.718 188.319 411.488 188.491C411.259 188.663 411.087 188.864 410.972 189.093C410.858 189.351 410.786 189.623 410.757 189.91V200.058H414.154V189.91ZM443.969 186.513V217H433.778V186.513H443.969ZM469.378 203.455V210.249H453.425V203.455H469.378ZM497.445 186.513V190.77H489.017V200.058H492.371V203.455H489.017V212.743H497.445V217H478.826V186.513H497.445ZM524.441 186.513V190.77H516.013V200.058H519.367V203.455H516.013V212.743H524.441V217H505.822V186.513H524.441Z" fill="white"/>
<rect x="213" y="203" width="111" height="5" fill="white" fill-opacity="0.16"/>
<path d="M562 203H673V208H617.5H562V203Z" fill="white" fill-opacity="0.16"/>
<path opacity="0.2" d="M31 225H47V226.9H33.2857V299.1V301H31V225Z" fill="white"/>
<path opacity="0.2" d="M875 225H859V226.9H872.714V299.1V301H875V225Z" fill="white"/>
<path opacity="0.5" d="M99.8305 266.6V257H94.6305V271H109.03V266.6H99.8305ZM118.23 271.2C124.37 271.2 127.03 268.84 127.03 263.98C127.03 259.14 124.37 256.8 118.23 256.8C112.07 256.8 109.43 259.12 109.43 263.98C109.43 268.86 112.07 271.2 118.23 271.2ZM118.23 266.8C115.17 266.8 114.63 265.48 114.63 263.98C114.63 262.5 115.15 261.2 118.23 261.2C121.31 261.2 121.83 262.52 121.83 263.98C121.83 265.46 121.29 266.8 118.23 266.8ZM139.241 271H144.961L139.161 257H131.441L125.641 271H131.361L132.321 268.48H138.281L139.241 271ZM133.681 264.88L135.301 260.6L136.921 264.88H133.681ZM155.773 257H145.373V271H155.773C159.153 271 162.333 268.76 162.333 264C162.333 259.24 159.153 257 155.773 257ZM154.173 266.6H150.573V261.4H154.173C155.293 261.4 157.133 261.4 157.133 264C157.133 266.6 155.293 266.6 154.173 266.6ZM181.939 257H170.939V271H176.139V267.72H181.939C185.119 267.72 187.299 265.48 187.299 262.36C187.299 259.24 185.119 257 181.939 257ZM180.939 263.32H176.139V261.4H180.939C181.459 261.4 182.099 261.4 182.099 262.36C182.099 263.32 181.459 263.32 180.939 263.32ZM204.252 262.36C204.252 259.24 202.072 257 198.892 257H187.892V271H193.092V267.72H196.152L198.092 271H204.252L201.772 266.98C203.312 266.08 204.252 264.4 204.252 262.36ZM193.092 261.4H197.892C198.412 261.4 199.052 261.4 199.052 262.36C199.052 263.32 198.412 263.32 197.892 263.32H193.092V261.4ZM219.645 261V257H204.845V271H219.645V267H210.045V265.7H219.645V262.3H210.045V261H219.645ZM220.036 266.06C220.036 270.22 223.236 271.2 228.976 271.2C234.716 271.2 237.916 270.22 237.916 266.36C237.916 262.7 234.496 262.32 228.976 262.1C225.936 261.98 225.436 262 225.436 261.46C225.436 260.92 225.936 260.8 228.376 260.8C230.916 260.8 232.116 260.96 232.116 261.7H237.316C237.316 258.12 234.236 256.8 228.776 256.8C223.256 256.8 220.236 258.12 220.236 261.2C220.236 264.46 222.656 265.5 228.976 265.7C232.256 265.8 232.716 265.88 232.716 266.48C232.716 267 232.256 267.2 229.176 267.2C225.876 267.2 225.236 266.74 225.236 266.06H220.036ZM253.317 261V257H238.517V271H253.317V267H243.717V265.7H253.317V262.3H243.717V261H253.317ZM270.908 257H253.708V261.4H259.708V271H264.908V261.4H270.908V257ZM279.913 262.2V266.2H295.913V262.2H279.913ZM319.919 261V257H305.119V271H319.919V267H310.319V265.7H319.919V262.3H310.319V261H319.919ZM330.909 257H320.509V271H330.909C334.289 271 337.469 268.76 337.469 264C337.469 259.24 334.289 257 330.909 257ZM329.309 266.6H325.709V261.4H329.309C330.429 261.4 332.269 261.4 332.269 264C332.269 266.6 330.429 266.6 329.309 266.6ZM343.268 257H338.068V271H343.268V257ZM361.064 257H343.864V261.4H349.864V271H355.064V261.4H361.064V257ZM374.87 266.6V257H369.67V271H384.07V266.6H374.87ZM393.27 271.2C399.41 271.2 402.07 268.84 402.07 263.98C402.07 259.14 399.41 256.8 393.27 256.8C387.11 256.8 384.47 259.12 384.47 263.98C384.47 268.86 387.11 271.2 393.27 271.2ZM393.27 266.8C390.21 266.8 389.67 265.48 389.67 263.98C389.67 262.5 390.19 261.2 393.27 261.2C396.35 261.2 396.87 262.52 396.87 263.98C396.87 265.46 396.33 266.8 393.27 266.8ZM411.277 271.2C417.417 271.2 420.077 268.84 420.077 263.98C420.077 259.14 417.417 256.8 411.277 256.8C405.117 256.8 402.477 259.12 402.477 263.98C402.477 268.86 405.117 271.2 411.277 271.2ZM411.277 266.8C408.217 266.8 407.677 265.48 407.677 263.98C407.677 262.5 408.197 261.2 411.277 261.2C414.357 261.2 414.877 262.52 414.877 263.98C414.877 265.46 414.337 266.8 411.277 266.8ZM431.685 257H420.685V271H425.885V267.72H431.685C434.865 267.72 437.045 265.48 437.045 262.36C437.045 259.24 434.865 257 431.685 257ZM430.685 263.32H425.885V261.4H430.685C431.205 261.4 431.845 261.4 431.845 262.36C431.845 263.32 431.205 263.32 430.685 263.32ZM458.486 257V265.26L452.446 257H445.646V271H450.846V262.74L456.886 271H463.686V257H458.486ZM482.094 263.98V257H476.894V263.98C476.894 265.46 476.354 266.8 473.294 266.8C470.234 266.8 469.694 265.48 469.694 263.98V257H464.494V263.98C464.494 268.86 467.134 271.2 473.294 271.2C479.434 271.2 482.094 268.84 482.094 263.98ZM504.332 257H497.932L493.612 265L489.292 257H482.892V271H488.092V264.34L491.912 271H495.312L499.132 264.34V271H504.332V257ZM520.398 263.18C521.078 262.38 521.498 261.46 521.498 260.56C521.498 258.44 520.518 257 517.338 257H505.138V271H517.938C521.118 271 522.498 269.16 522.498 266.86C522.498 265.34 521.618 264.06 520.398 263.18ZM510.338 260.4H515.138C515.658 260.4 516.298 260.4 516.298 261.16C516.298 261.92 515.658 261.92 515.138 261.92H510.338V260.4ZM516.138 267.2H510.338V265.72H516.138C516.658 265.72 517.298 265.72 517.298 266.46C517.298 267.2 516.658 267.2 516.138 267.2ZM537.907 261V257H523.107V271H537.907V267H528.307V265.7H537.907V262.3H528.307V261H537.907ZM554.858 262.36C554.858 259.24 552.678 257 549.498 257H538.498V271H543.698V267.72H546.758L548.698 271H554.858L552.378 266.98C553.918 266.08 554.858 264.4 554.858 262.36ZM543.698 261.4H548.498C549.018 261.4 549.658 261.4 549.658 262.36C549.658 263.32 549.018 263.32 548.498 263.32H543.698V261.4ZM563.859 262.2V266.2H579.859V262.2H563.859ZM599.464 257H589.064V271H599.464C602.844 271 606.024 268.76 606.024 264C606.024 259.24 602.844 257 599.464 257ZM597.864 266.6H594.264V261.4H597.864C598.984 261.4 600.824 261.4 600.824 264C600.824 266.6 598.984 266.6 597.864 266.6ZM615.223 271.2C621.363 271.2 624.023 268.84 624.023 263.98C624.023 259.14 621.363 256.8 615.223 256.8C609.063 256.8 606.423 259.12 606.423 263.98C606.423 268.86 609.063 271.2 615.223 271.2ZM615.223 266.8C612.163 266.8 611.623 265.48 611.623 263.98C611.623 262.5 612.143 261.2 615.223 261.2C618.303 261.2 618.823 262.52 618.823 263.98C618.823 265.46 618.283 266.8 615.223 266.8ZM646.899 257L643.999 266.88L640.959 257H634.759L631.719 266.88L628.819 257H623.239L627.839 271H635.559L637.859 262.94L640.159 271H647.879L652.479 257H646.899ZM665.928 257V265.26L659.888 257H653.088V271H658.288V262.74L664.328 271H671.128V257H665.928ZM677.135 266.6V257H671.935V271H686.335V266.6H677.135ZM695.535 271.2C701.675 271.2 704.335 268.84 704.335 263.98C704.335 259.14 701.675 256.8 695.535 256.8C689.375 256.8 686.735 259.12 686.735 263.98C686.735 268.86 689.375 271.2 695.535 271.2ZM695.535 266.8C692.475 266.8 691.935 265.48 691.935 263.98C691.935 262.5 692.455 261.2 695.535 261.2C698.615 261.2 699.135 262.52 699.135 263.98C699.135 265.46 698.595 266.8 695.535 266.8ZM716.546 271H722.266L716.466 257H708.746L702.946 271H708.666L709.626 268.48H715.586L716.546 271ZM710.986 264.88L712.606 260.6L714.226 264.88H710.986ZM733.077 257H722.677V271H733.077C736.457 271 739.637 268.76 739.637 264C739.637 259.24 736.457 257 733.077 257ZM731.477 266.6H727.877V261.4H731.477C732.597 261.4 734.437 261.4 734.437 264C734.437 266.6 732.597 266.6 731.477 266.6ZM748.244 267.4V271H753.044V267.4H748.244ZM776.118 257L773.218 266.88L770.178 257H763.978L760.938 266.88L758.038 257H752.458L757.058 271H764.778L767.078 262.94L769.378 271H777.098L781.698 257H776.118ZM791.507 271H797.227L791.427 257H783.707L777.907 271H783.627L784.587 268.48H790.547L791.507 271ZM785.947 264.88L787.567 260.6L789.187 264.88H785.947ZM805.843 257L801.903 267.4L797.963 257H792.243L798.043 271H805.763L811.563 257H805.843Z" fill="white"/>
<g opacity="0.5">
<path d="M35.3361 1H32.7361V8H35.3361V1ZM43.3541 1V5.13L40.3341 1H36.9341V8H39.5341V3.87L42.5541 8H45.9541V1H43.3541ZM56.058 1H47.458V3.2H50.458V8H53.058V3.2H56.058V1ZM64.9568 3V1H57.5568V8H64.9568V6H60.1568V5.35H64.9568V3.65H60.1568V3H64.9568ZM74.6321 3.68C74.6321 2.12 73.5421 1 71.9521 1H66.4521V8H69.0521V6.36H70.5821L71.5521 8H74.6321L73.3921 5.99C74.1621 5.54 74.6321 4.7 74.6321 3.68ZM69.0521 3.2H71.4521C71.7121 3.2 72.0321 3.2 72.0321 3.68C72.0321 4.16 71.7121 4.16 71.4521 4.16H69.0521V3.2ZM82.8287 8H85.6887L82.7887 1H78.9287L76.0287 8H78.8887L79.3687 6.74H82.3487L82.8287 8ZM80.0487 4.94L80.8587 2.8L81.6687 4.94H80.0487ZM86.1935 4.49C86.1935 6.93 87.5135 8.1 90.5935 8.1C93.4035 8.1 94.8535 7.11 94.9635 4.89H92.3035C92.2035 5.56 91.6935 5.9 90.5935 5.9C89.0635 5.9 88.7935 5.24 88.7935 4.49C88.7935 3.75 89.0535 3.1 90.5935 3.1C91.6935 3.1 92.2035 3.43 92.3035 4.09H94.9635C94.8535 1.88 93.3935 0.9 90.5935 0.9C87.5135 0.9 86.1935 2.06 86.1935 4.49ZM104.87 1H96.2705V3.2H99.2705V8H101.87V3.2H104.87V1ZM108.969 1H106.369V8H108.969V1ZM117.267 1L115.297 6.2L113.327 1H110.467L113.367 8H117.227L120.127 1H117.267ZM128.933 3V1H121.533V8H128.933V6H124.133V5.35H128.933V3.65H124.133V3H128.933Z" fill="white"/>
<path d="M44.8102 17.8056C44.8169 17.9523 44.8502 18.0856 44.9102 18.2056C44.9635 18.3056 45.0402 18.3956 45.1402 18.4756C45.2469 18.5556 45.4002 18.5956 45.6002 18.5956V19.7756H44.4202C44.2202 19.7756 44.0435 19.7556 43.8902 19.7156C43.7435 19.669 43.6135 19.609 43.5002 19.5356C43.3935 19.4623 43.3002 19.379 43.2202 19.2856C43.1469 19.1923 43.0869 19.0956 43.0402 18.9956C42.9202 18.769 42.8535 18.5056 42.8402 18.2056V17.0256C42.8335 16.9523 42.8169 16.8856 42.7902 16.8256C42.7635 16.7723 42.7235 16.7256 42.6702 16.6856C42.6169 16.6456 42.5435 16.6256 42.4502 16.6256H42.0602V19.7756H39.7002V12.6956H43.6302C43.8302 12.6956 44.0035 12.719 44.1502 12.7656C44.3035 12.8123 44.4335 12.8723 44.5402 12.9456C44.6535 13.019 44.7469 13.1023 44.8202 13.1956C44.8935 13.289 44.9569 13.3856 45.0102 13.4856C45.1302 13.7123 45.1969 13.9723 45.2102 14.2656V14.6556C45.1969 14.9556 45.1469 15.219 45.0602 15.4456C44.9869 15.6456 44.8702 15.829 44.7102 15.9956C44.5502 16.1556 44.3235 16.2356 44.0302 16.2356C44.1702 16.2423 44.3002 16.2756 44.4202 16.3356C44.5135 16.389 44.6002 16.469 44.6802 16.5756C44.7669 16.6823 44.8102 16.8323 44.8102 17.0256V17.8056ZM42.8402 13.8756C42.8335 13.7356 42.8002 13.6056 42.7402 13.4856C42.6869 13.3856 42.6069 13.2956 42.5002 13.2156C42.4002 13.129 42.2535 13.0856 42.0602 13.0856V15.8456C42.2535 15.8456 42.4002 15.8056 42.5002 15.7256C42.6069 15.6456 42.6869 15.5556 42.7402 15.4556C42.8002 15.3356 42.8335 15.2023 42.8402 15.0556V13.8756ZM52.1345 12.6856V13.6756H50.1745V15.8356H50.9545V16.6256H50.1745V18.7856H52.1345V19.7756H47.8045V12.6856H52.1345ZM58.4126 12.6856V13.6756H56.4526V15.8356H57.2326V16.6256H56.4526V18.7856H58.4126V19.7756H54.0826V12.6856H58.4126ZM64.2007 12.6856C64.3941 12.6856 64.5641 12.709 64.7107 12.7556C64.8641 12.8023 64.9941 12.8623 65.1007 12.9356C65.2141 13.009 65.3074 13.0923 65.3807 13.1856C65.4541 13.279 65.5174 13.3756 65.5707 13.4756C65.6907 13.709 65.7574 13.9723 65.7707 14.2656V18.2056C65.7707 18.4056 65.7474 18.579 65.7007 18.7256C65.6541 18.8723 65.5941 19.0023 65.5207 19.1156C65.4474 19.2223 65.3641 19.3156 65.2707 19.3956C65.1774 19.469 65.0807 19.529 64.9807 19.5756C64.7541 19.6956 64.4941 19.7623 64.2007 19.7756H61.8407C61.5407 19.7623 61.2774 19.6956 61.0507 19.5756C60.9507 19.529 60.8541 19.469 60.7607 19.3956C60.6674 19.3156 60.5807 19.2223 60.5007 19.1156C60.4274 19.0023 60.3674 18.8723 60.3207 18.7256C60.2807 18.579 60.2607 18.4056 60.2607 18.2056V14.2656C60.2607 13.879 60.3407 13.579 60.5007 13.3656C60.6674 13.1456 60.8507 12.9856 61.0507 12.8856C61.2774 12.7656 61.5407 12.699 61.8407 12.6856H64.2007ZM63.4107 13.4756C63.4041 13.409 63.3874 13.3456 63.3607 13.2856C63.3341 13.2323 63.2941 13.1856 63.2407 13.1456C63.1874 13.1056 63.1141 13.0856 63.0207 13.0856C62.9207 13.0856 62.8441 13.1056 62.7907 13.1456C62.7374 13.1856 62.6974 13.2323 62.6707 13.2856C62.6441 13.3456 62.6274 13.409 62.6207 13.4756V18.9856C62.6274 19.059 62.6441 19.1256 62.6707 19.1856C62.6974 19.239 62.7374 19.2856 62.7907 19.3256C62.8441 19.3656 62.9207 19.3856 63.0207 19.3856C63.1141 19.3856 63.1874 19.3656 63.2407 19.3256C63.2941 19.2856 63.3341 19.239 63.3607 19.1856C63.3874 19.1256 63.4041 19.059 63.4107 18.9856V13.4756ZM70.2293 12.6856V18.9856C70.236 19.059 70.2527 19.1256 70.2793 19.1856C70.306 19.239 70.3427 19.2856 70.3893 19.3256C70.4427 19.359 70.5193 19.3756 70.6193 19.3756C70.7193 19.3756 70.796 19.359 70.8493 19.3256C70.9027 19.2856 70.9427 19.239 70.9693 19.1856C70.996 19.1256 71.0127 19.059 71.0193 18.9856V12.6856H73.3793V18.1956C73.366 18.4956 73.2993 18.759 73.1793 18.9856C73.0793 19.1856 72.9227 19.369 72.7093 19.5356C72.496 19.6956 72.1927 19.7756 71.7993 19.7756H69.4393C69.1393 19.7623 68.876 19.6956 68.6493 19.5756C68.5493 19.529 68.4527 19.469 68.3593 19.3956C68.266 19.3156 68.1827 19.2223 68.1093 19.1156C68.036 19.0023 67.976 18.8723 67.9293 18.7256C67.8893 18.5723 67.8693 18.3956 67.8693 18.1956V12.6856H70.2293ZM77.153 13.6756H75.183V12.6856H81.483V13.6756H79.513V19.7756H77.153V13.6756ZM85.6569 12.6856V19.7756H83.2869V12.6856H85.6569ZM87.8561 19.7756V12.6856H88.6461L90.6161 15.2556V12.6856H92.9761V19.7756H92.1861L90.2261 17.2256V19.7756H87.8561ZM95.1791 14.2656C95.1791 14.0656 95.1991 13.8923 95.2391 13.7456C95.2858 13.5923 95.3458 13.4623 95.4191 13.3556C95.4924 13.2423 95.5758 13.149 95.6691 13.0756C95.7624 13.0023 95.8591 12.939 95.9591 12.8856C96.1858 12.7656 96.4491 12.699 96.7491 12.6856H98.9191C99.1391 12.6856 99.3324 12.7123 99.4991 12.7656C99.6658 12.8123 99.8124 12.879 99.9391 12.9656C100.066 13.0523 100.172 13.149 100.259 13.2556C100.346 13.3623 100.416 13.469 100.469 13.5756C100.596 13.8356 100.669 14.129 100.689 14.4556H98.3291V13.4756C98.3224 13.409 98.3058 13.3456 98.2791 13.2856C98.2524 13.2323 98.2124 13.1856 98.1591 13.1456C98.1058 13.1056 98.0291 13.0856 97.9291 13.0856C97.8291 13.0856 97.7524 13.1056 97.6991 13.1456C97.6524 13.1856 97.6158 13.2323 97.5891 13.2856C97.5624 13.3456 97.5458 13.409 97.5391 13.4756V18.9856C97.5458 19.059 97.5624 19.1256 97.5891 19.1856C97.6158 19.239 97.6524 19.2856 97.6991 19.3256C97.7524 19.359 97.8291 19.3756 97.9291 19.3756C98.0291 19.3756 98.1058 19.359 98.1591 19.3256C98.2124 19.2856 98.2524 19.239 98.2791 19.1856C98.3058 19.1256 98.3224 19.059 98.3291 18.9856V17.4156H97.9291V16.6256H100.689V18.0056C100.669 18.339 100.596 18.6356 100.469 18.8956C100.416 19.009 100.346 19.119 100.259 19.2256C100.172 19.3256 100.066 19.419 99.9391 19.5056C99.8124 19.5856 99.6658 19.6523 99.4991 19.7056C99.3324 19.7523 99.1391 19.7756 98.9191 19.7756H96.7491C96.4491 19.7623 96.1858 19.6956 95.9591 19.5756C95.8591 19.529 95.7624 19.469 95.6691 19.3956C95.5758 19.3156 95.4924 19.2223 95.4191 19.1156C95.3458 19.0023 95.2858 18.8723 95.2391 18.7256C95.1991 18.5723 95.1791 18.3956 95.1791 18.1956V14.2656ZM107.091 14.2656C107.091 14.0656 107.111 13.8923 107.151 13.7456C107.197 13.5923 107.257 13.4623 107.331 13.3556C107.404 13.2423 107.487 13.149 107.581 13.0756C107.674 13.0023 107.771 12.939 107.871 12.8856C108.097 12.7656 108.361 12.699 108.661 12.6856H110.831C111.051 12.6856 111.244 12.7123 111.411 12.7656C111.577 12.8123 111.724 12.879 111.851 12.9656C111.977 13.0523 112.084 13.149 112.171 13.2556C112.257 13.3623 112.327 13.469 112.381 13.5756C112.507 13.8356 112.581 14.129 112.601 14.4556H110.241V13.4756C110.234 13.409 110.217 13.3456 110.191 13.2856C110.164 13.2323 110.124 13.1856 110.071 13.1456C110.017 13.1056 109.941 13.0856 109.841 13.0856C109.741 13.0856 109.664 13.1056 109.611 13.1456C109.564 13.1856 109.527 13.2323 109.501 13.2856C109.474 13.3456 109.457 13.409 109.451 13.4756V18.9856C109.457 19.059 109.474 19.1256 109.501 19.1856C109.527 19.239 109.564 19.2856 109.611 19.3256C109.664 19.359 109.741 19.3756 109.841 19.3756C109.941 19.3756 110.017 19.359 110.071 19.3256C110.124 19.2856 110.164 19.239 110.191 19.1856C110.217 19.1256 110.234 19.059 110.241 18.9856V18.0056H112.601C112.581 18.339 112.507 18.6356 112.381 18.8956C112.327 19.009 112.257 19.119 112.171 19.2256C112.084 19.3256 111.977 19.419 111.851 19.5056C111.724 19.5856 111.577 19.6523 111.411 19.7056C111.244 19.7523 111.051 19.7756 110.831 19.7756H108.661C108.361 19.7623 108.097 19.6956 107.871 19.5756C107.771 19.529 107.674 19.469 107.581 19.3956C107.487 19.3156 107.404 19.2223 107.331 19.1156C107.257 19.0023 107.197 18.8723 107.151 18.7256C107.111 18.5723 107.091 18.3956 107.091 18.1956V14.2656ZM118.491 12.6856C118.684 12.6856 118.854 12.709 119.001 12.7556C119.154 12.8023 119.284 12.8623 119.391 12.9356C119.504 13.009 119.597 13.0923 119.671 13.1856C119.744 13.279 119.807 13.3756 119.861 13.4756C119.981 13.709 120.047 13.9723 120.061 14.2656V19.7756H117.701V16.6256H116.911V19.7756H114.551V14.2656C114.551 13.8723 114.631 13.569 114.791 13.3556C114.957 13.1423 115.141 12.9856 115.341 12.8856C115.567 12.7656 115.831 12.699 116.131 12.6856H118.491ZM117.701 13.4756C117.694 13.409 117.677 13.3456 117.651 13.2856C117.624 13.2323 117.584 13.1856 117.531 13.1456C117.477 13.1056 117.404 13.0856 117.311 13.0856C117.211 13.0856 117.134 13.1056 117.081 13.1456C117.027 13.1856 116.987 13.2323 116.961 13.2856C116.934 13.3456 116.917 13.409 116.911 13.4756V15.8356H117.701V13.4756ZM123.834 13.6756H121.864V12.6856H128.164V13.6756H126.194V19.7756H123.834V13.6756Z" fill="white" fill-opacity="0.6"/>
<path d="M32.9141 15.7854L30.6963 18.2903V13.2805L32.9141 15.7854Z" fill="white"/>
<path d="M45.1143 28.3113L42.8965 30.8162V25.8064L45.1143 28.3113Z" fill="white" fill-opacity="0.6"/>
<path d="M45.1143 40.8369L42.8965 43.3418V38.332L45.1143 40.8369Z" fill="white" fill-opacity="0.6"/>
<path d="M45.1143 53.3589L42.8965 55.8638V50.854L45.1143 53.3589Z" fill="white" fill-opacity="0.6"/>
<path d="M50.7871 32.3015V25.2215H51.5771L53.7371 27.5815L55.9071 25.2215H56.6971V32.3015H54.3271V29.7515L53.7371 30.3415L53.1471 29.7515V32.3015H50.7871ZM62.8412 25.2115C63.0345 25.2115 63.2045 25.2348 63.3512 25.2815C63.5045 25.3282 63.6345 25.3882 63.7412 25.4615C63.8545 25.5348 63.9478 25.6182 64.0212 25.7115C64.0945 25.8048 64.1578 25.9015 64.2112 26.0015C64.3312 26.2348 64.3978 26.4982 64.4112 26.7915V32.3015H62.0512V29.1515H61.2612V32.3015H58.9012V26.7915C58.9012 26.3982 58.9812 26.0948 59.1412 25.8815C59.3078 25.6682 59.4912 25.5115 59.6912 25.4115C59.9178 25.2915 60.1812 25.2248 60.4812 25.2115H62.8412ZM62.0512 26.0015C62.0445 25.9348 62.0278 25.8715 62.0012 25.8115C61.9745 25.7582 61.9345 25.7115 61.8812 25.6715C61.8278 25.6315 61.7545 25.6115 61.6612 25.6115C61.5612 25.6115 61.4845 25.6315 61.4312 25.6715C61.3778 25.7115 61.3378 25.7582 61.3112 25.8115C61.2845 25.8715 61.2678 25.9348 61.2612 26.0015V28.3615H62.0512V26.0015ZM68.1848 26.2015H66.2148V25.2115H72.5148V26.2015H70.5448V32.3015H68.1848V26.2015ZM76.6988 25.2115L76.6888 28.3715H77.6688V25.2115H80.0288V32.3015H77.6688V29.1515H76.6888V32.3015H74.3188V25.2115H76.6988Z" fill="white" fill-opacity="0.6"/>
<path d="M54.7271 37.7371C54.9204 37.7371 55.0904 37.7605 55.2371 37.8071C55.3904 37.8538 55.5204 37.9138 55.6271 37.9871C55.7404 38.0605 55.8338 38.1438 55.9071 38.2371C55.9804 38.3305 56.0438 38.4271 56.0971 38.5271C56.2171 38.7605 56.2838 39.0238 56.2971 39.3171V43.2471C56.2838 43.5471 56.2171 43.8105 56.0971 44.0371C55.9971 44.2371 55.8404 44.4205 55.6271 44.5871C55.4138 44.7471 55.1138 44.8271 54.7271 44.8271H50.7871V37.7371H54.7271ZM53.9371 38.9171C53.9304 38.7771 53.8971 38.6471 53.8371 38.5271C53.7838 38.4338 53.7038 38.3471 53.5971 38.2671C53.4904 38.1805 53.3404 38.1371 53.1471 38.1371V44.4271C53.3404 44.4271 53.4904 44.3871 53.5971 44.3071C53.7038 44.2271 53.7838 44.1371 53.8371 44.0371C53.8971 43.9238 53.9304 43.7938 53.9371 43.6471V38.9171ZM62.8308 37.7371V38.7271H60.8708V40.8871H61.6508V41.6771H60.8708V43.8371H62.8308V44.8271H58.5008V37.7371H62.8308ZM68.7189 37.7371C68.9122 37.7371 69.0822 37.7605 69.2289 37.8071C69.3822 37.8538 69.5122 37.9138 69.6189 37.9871C69.7322 38.0605 69.8256 38.1438 69.8989 38.2371C69.9722 38.3305 70.0356 38.4271 70.0889 38.5271C70.2089 38.7605 70.2756 39.0238 70.2889 39.3171V43.2471C70.2756 43.5471 70.2089 43.8105 70.0889 44.0371C69.9889 44.2371 69.8322 44.4205 69.6189 44.5871C69.4056 44.7471 69.1056 44.8271 68.7189 44.8271H64.7789V37.7371H68.7189ZM67.9289 38.9171C67.9222 38.7771 67.8889 38.6471 67.8289 38.5271C67.7756 38.4338 67.6956 38.3471 67.5889 38.2671C67.4822 38.1805 67.3322 38.1371 67.1389 38.1371V44.4271C67.3322 44.4271 67.4822 44.3871 67.5889 44.3071C67.6956 44.2271 67.7756 44.1371 67.8289 44.0371C67.8889 43.9238 67.9222 43.7938 67.9289 43.6471V38.9171ZM74.8526 37.7371V44.0371C74.8592 44.1105 74.8759 44.1771 74.9026 44.2371C74.9292 44.2905 74.9659 44.3371 75.0126 44.3771C75.0659 44.4105 75.1426 44.4271 75.2426 44.4271C75.3426 44.4271 75.4192 44.4105 75.4726 44.3771C75.5259 44.3371 75.5659 44.2905 75.5926 44.2371C75.6192 44.1771 75.6359 44.1105 75.6426 44.0371V37.7371H78.0026V43.2471C77.9892 43.5471 77.9226 43.8105 77.8026 44.0371C77.7026 44.2371 77.5459 44.4205 77.3326 44.5871C77.1192 44.7471 76.8159 44.8271 76.4226 44.8271H74.0626C73.7626 44.8138 73.4992 44.7471 73.2726 44.6271C73.1726 44.5805 73.0759 44.5205 72.9826 44.4471C72.8892 44.3671 72.8059 44.2738 72.7326 44.1671C72.6592 44.0538 72.5992 43.9238 72.5526 43.7771C72.5126 43.6238 72.4926 43.4471 72.4926 43.2471V37.7371H74.8526ZM80.2062 39.3171C80.2062 39.1171 80.2262 38.9438 80.2662 38.7971C80.3129 38.6438 80.3729 38.5138 80.4462 38.4071C80.5196 38.2938 80.6029 38.2005 80.6962 38.1271C80.7896 38.0538 80.8862 37.9905 80.9862 37.9371C81.2129 37.8171 81.4762 37.7505 81.7762 37.7371H83.9462C84.1662 37.7371 84.3596 37.7638 84.5262 37.8171C84.6929 37.8638 84.8396 37.9305 84.9662 38.0171C85.0929 38.1038 85.1996 38.2005 85.2862 38.3071C85.3729 38.4138 85.4429 38.5205 85.4962 38.6271C85.6229 38.8871 85.6962 39.1805 85.7162 39.5071H83.3562V38.5271C83.3496 38.4605 83.3329 38.3971 83.3062 38.3371C83.2796 38.2838 83.2396 38.2371 83.1862 38.1971C83.1329 38.1571 83.0562 38.1371 82.9562 38.1371C82.8562 38.1371 82.7796 38.1571 82.7262 38.1971C82.6796 38.2371 82.6429 38.2838 82.6162 38.3371C82.5896 38.3971 82.5729 38.4605 82.5662 38.5271V44.0371C82.5729 44.1105 82.5896 44.1771 82.6162 44.2371C82.6429 44.2905 82.6796 44.3371 82.7262 44.3771C82.7796 44.4105 82.8562 44.4271 82.9562 44.4271C83.0562 44.4271 83.1329 44.4105 83.1862 44.3771C83.2396 44.3371 83.2796 44.2905 83.3062 44.2371C83.3329 44.1771 83.3496 44.1105 83.3562 44.0371V43.0571H85.7162C85.6962 43.3905 85.6229 43.6871 85.4962 43.9471C85.4429 44.0605 85.3729 44.1705 85.2862 44.2771C85.1996 44.3771 85.0929 44.4705 84.9662 44.5571C84.8396 44.6371 84.6929 44.7038 84.5262 44.7571C84.3596 44.8038 84.1662 44.8271 83.9462 44.8271H81.7762C81.4762 44.8138 81.2129 44.7471 80.9862 44.6271C80.8862 44.5805 80.7896 44.5205 80.6962 44.4471C80.6029 44.3671 80.5196 44.2738 80.4462 44.1671C80.3729 44.0538 80.3129 43.9238 80.2662 43.7771C80.2262 43.6238 80.2062 43.4471 80.2062 43.2471V39.3171ZM89.236 38.7271H87.266V37.7371H93.566V38.7271H91.596V44.8271H89.236V38.7271ZM97.7399 37.7371V44.8271H95.3699V37.7371H97.7399ZM103.779 37.7371C103.972 37.7371 104.142 37.7605 104.289 37.8071C104.442 37.8538 104.572 37.9138 104.679 37.9871C104.792 38.0605 104.886 38.1438 104.959 38.2371C105.032 38.3305 105.096 38.4271 105.149 38.5271C105.269 38.7605 105.336 39.0238 105.349 39.3171V43.2571C105.349 43.4571 105.326 43.6305 105.279 43.7771C105.232 43.9238 105.172 44.0538 105.099 44.1671C105.026 44.2738 104.942 44.3671 104.849 44.4471C104.756 44.5205 104.659 44.5805 104.559 44.6271C104.332 44.7471 104.072 44.8138 103.779 44.8271H101.419C101.119 44.8138 100.856 44.7471 100.629 44.6271C100.529 44.5805 100.432 44.5205 100.339 44.4471C100.246 44.3671 100.159 44.2738 100.079 44.1671C100.006 44.0538 99.9457 43.9238 99.8991 43.7771C99.8591 43.6305 99.8391 43.4571 99.8391 43.2571V39.3171C99.8391 38.9305 99.9191 38.6305 100.079 38.4171C100.246 38.1971 100.429 38.0371 100.629 37.9371C100.856 37.8171 101.119 37.7505 101.419 37.7371H103.779ZM102.989 38.5271C102.982 38.4605 102.966 38.3971 102.939 38.3371C102.912 38.2838 102.872 38.2371 102.819 38.1971C102.766 38.1571 102.692 38.1371 102.599 38.1371C102.499 38.1371 102.422 38.1571 102.369 38.1971C102.316 38.2371 102.276 38.2838 102.249 38.3371C102.222 38.3971 102.206 38.4605 102.199 38.5271V44.0371C102.206 44.1105 102.222 44.1771 102.249 44.2371C102.276 44.2905 102.316 44.3371 102.369 44.3771C102.422 44.4171 102.499 44.4371 102.599 44.4371C102.692 44.4371 102.766 44.4171 102.819 44.3771C102.872 44.3371 102.912 44.2905 102.939 44.2371C102.966 44.1771 102.982 44.1105 102.989 44.0371V38.5271ZM107.448 44.8271V37.7371H108.238L110.208 40.3071V37.7371H112.568V44.8271H111.778L109.818 42.2771V44.8271H107.448Z" fill="white" fill-opacity="0.6"/>
<path d="M54.7271 50.2591C54.9204 50.2591 55.0904 50.2825 55.2371 50.3291C55.3904 50.3758 55.5204 50.4358 55.6271 50.5091C55.7404 50.5825 55.8338 50.6658 55.9071 50.7591C55.9804 50.8525 56.0438 50.9491 56.0971 51.0491C56.2171 51.2825 56.2838 51.5458 56.2971 51.8391V55.7691C56.2838 56.0691 56.2171 56.3325 56.0971 56.5591C55.9971 56.7591 55.8404 56.9425 55.6271 57.1091C55.4138 57.2691 55.1138 57.3491 54.7271 57.3491H50.7871V50.2591H54.7271ZM53.9371 51.4391C53.9304 51.2991 53.8971 51.1691 53.8371 51.0491C53.7838 50.9558 53.7038 50.8691 53.5971 50.7891C53.4904 50.7025 53.3404 50.6591 53.1471 50.6591V56.9491C53.3404 56.9491 53.4904 56.9091 53.5971 56.8291C53.7038 56.7491 53.7838 56.6591 53.8371 56.5591C53.8971 56.4458 53.9304 56.3158 53.9371 56.1691V51.4391ZM62.8308 50.2591V51.2491H60.8708V53.4091H61.6508V54.1991H60.8708V56.3591H62.8308V57.3491H58.5008V50.2591H62.8308ZM64.7789 51.8391C64.7789 51.6391 64.7989 51.4658 64.8389 51.3191C64.8856 51.1658 64.9456 51.0358 65.0189 50.9291C65.0922 50.8158 65.1756 50.7225 65.2689 50.6491C65.3622 50.5758 65.4589 50.5125 65.5589 50.4591C65.7856 50.3391 66.0489 50.2725 66.3489 50.2591H68.5189C68.7389 50.2591 68.9322 50.2858 69.0989 50.3391C69.2656 50.3858 69.4122 50.4525 69.5389 50.5391C69.6656 50.6258 69.7722 50.7225 69.8589 50.8291C69.9456 50.9358 70.0156 51.0425 70.0689 51.1491C70.1956 51.4091 70.2689 51.7025 70.2889 52.0291H67.9289V51.0491C67.9222 50.9825 67.9056 50.9191 67.8789 50.8591C67.8522 50.8058 67.8122 50.7591 67.7589 50.7191C67.7056 50.6791 67.6289 50.6591 67.5289 50.6591C67.4289 50.6591 67.3522 50.6791 67.2989 50.7191C67.2522 50.7591 67.2156 50.8058 67.1889 50.8591C67.1622 50.9191 67.1456 50.9825 67.1389 51.0491V56.5591C67.1456 56.6325 67.1622 56.6991 67.1889 56.7591C67.2156 56.8125 67.2522 56.8591 67.2989 56.8991C67.3522 56.9325 67.4289 56.9491 67.5289 56.9491C67.6289 56.9491 67.7056 56.9325 67.7589 56.8991C67.8122 56.8591 67.8522 56.8125 67.8789 56.7591C67.9056 56.6991 67.9222 56.6325 67.9289 56.5591V55.5791H70.2889C70.2689 55.9125 70.1956 56.2091 70.0689 56.4691C70.0156 56.5825 69.9456 56.6925 69.8589 56.7991C69.7722 56.8991 69.6656 56.9925 69.5389 57.0791C69.4122 57.1591 69.2656 57.2258 69.0989 57.2791C68.9322 57.3258 68.7389 57.3491 68.5189 57.3491H66.3489C66.0489 57.3358 65.7856 57.2691 65.5589 57.1491C65.4589 57.1025 65.3622 57.0425 65.2689 56.9691C65.1756 56.8891 65.0922 56.7958 65.0189 56.6891C64.9456 56.5758 64.8856 56.4458 64.8389 56.2991C64.7989 56.1458 64.7789 55.9691 64.7789 55.7691V51.8391ZM74.6087 50.2591V57.3491H72.2387V50.2591H74.6087ZM76.7078 51.8391C76.7078 51.4525 76.7878 51.1525 76.9478 50.9391C77.1145 50.7258 77.2978 50.5691 77.4978 50.4691C77.7245 50.3491 77.9878 50.2825 78.2878 50.2691H80.6478C80.8411 50.2691 81.0111 50.2925 81.1578 50.3391C81.3111 50.3858 81.4411 50.4458 81.5478 50.5191C81.6611 50.5925 81.7545 50.6758 81.8278 50.7691C81.9011 50.8625 81.9645 50.9591 82.0178 51.0591C82.1378 51.2858 82.2045 51.5458 82.2178 51.8391H79.8578V51.0491C79.8511 50.9825 79.8345 50.9191 79.8078 50.8591C79.7811 50.8058 79.7411 50.7591 79.6878 50.7191C79.6345 50.6791 79.5611 50.6591 79.4678 50.6591C79.3678 50.6591 79.2911 50.6791 79.2378 50.7191C79.1845 50.7591 79.1445 50.8058 79.1178 50.8591C79.0911 50.9191 79.0745 50.9825 79.0678 51.0491V52.6291C79.0678 52.7291 79.0878 52.8058 79.1278 52.8591C79.1678 52.9058 79.2145 52.9425 79.2678 52.9691C79.3278 52.9958 79.3945 53.0125 79.4678 53.0191H80.6478C80.8411 53.0191 81.0111 53.0425 81.1578 53.0891C81.3111 53.1358 81.4411 53.1958 81.5478 53.2691C81.6611 53.3425 81.7545 53.4258 81.8278 53.5191C81.9011 53.6125 81.9645 53.7091 82.0178 53.8091C82.1378 54.0425 82.2045 54.3058 82.2178 54.5991V55.7791C82.2178 55.9791 82.1945 56.1525 82.1478 56.2991C82.1011 56.4458 82.0411 56.5758 81.9678 56.6891C81.8945 56.7958 81.8111 56.8891 81.7178 56.9691C81.6245 57.0425 81.5278 57.1025 81.4278 57.1491C81.2011 57.2691 80.9411 57.3358 80.6478 57.3491H78.2878C78.0878 57.3491 77.9111 57.3291 77.7578 57.2891C77.6111 57.2425 77.4811 57.1825 77.3678 57.1091C77.2611 57.0358 77.1678 56.9525 77.0878 56.8591C77.0145 56.7658 76.9545 56.6691 76.9078 56.5691C76.7878 56.3425 76.7211 56.0791 76.7078 55.7791H79.0678V56.5591C79.0745 56.6325 79.0911 56.6991 79.1178 56.7591C79.1445 56.8125 79.1845 56.8591 79.2378 56.8991C79.2911 56.9391 79.3678 56.9591 79.4678 56.9591C79.5611 56.9591 79.6345 56.9391 79.6878 56.8991C79.7411 56.8591 79.7811 56.8125 79.8078 56.7591C79.8345 56.6991 79.8511 56.6325 79.8578 56.5591V54.9891C79.8578 54.8958 79.8378 54.8225 79.7978 54.7691C79.7578 54.7158 79.7111 54.6758 79.6578 54.6491C79.5978 54.6225 79.5345 54.6058 79.4678 54.5991H78.2878C77.8945 54.5991 77.5911 54.5191 77.3778 54.3591C77.1645 54.1925 77.0078 54.0091 76.9078 53.8091C76.7878 53.5825 76.7211 53.3191 76.7078 53.0191V51.8391ZM86.6864 50.2591V57.3491H84.3164V50.2591H86.6864ZM92.7255 50.2591C92.9189 50.2591 93.0889 50.2825 93.2355 50.3291C93.3889 50.3758 93.5189 50.4358 93.6255 50.5091C93.7389 50.5825 93.8322 50.6658 93.9055 50.7591C93.9789 50.8525 94.0422 50.9491 94.0955 51.0491C94.2155 51.2825 94.2822 51.5458 94.2955 51.8391V55.7791C94.2955 55.9791 94.2722 56.1525 94.2255 56.2991C94.1789 56.4458 94.1189 56.5758 94.0455 56.6891C93.9722 56.7958 93.8889 56.8891 93.7955 56.9691C93.7022 57.0425 93.6055 57.1025 93.5055 57.1491C93.2789 57.2691 93.0189 57.3358 92.7255 57.3491H90.3655C90.0655 57.3358 89.8022 57.2691 89.5755 57.1491C89.4755 57.1025 89.3789 57.0425 89.2855 56.9691C89.1922 56.8891 89.1055 56.7958 89.0255 56.6891C88.9522 56.5758 88.8922 56.4458 88.8455 56.2991C88.8055 56.1525 88.7855 55.9791 88.7855 55.7791V51.8391C88.7855 51.4525 88.8655 51.1525 89.0255 50.9391C89.1922 50.7191 89.3755 50.5591 89.5755 50.4591C89.8022 50.3391 90.0655 50.2725 90.3655 50.2591H92.7255ZM91.9355 51.0491C91.9289 50.9825 91.9122 50.9191 91.8855 50.8591C91.8589 50.8058 91.8189 50.7591 91.7655 50.7191C91.7122 50.6791 91.6389 50.6591 91.5455 50.6591C91.4455 50.6591 91.3689 50.6791 91.3155 50.7191C91.2622 50.7591 91.2222 50.8058 91.1955 50.8591C91.1689 50.9191 91.1522 50.9825 91.1455 51.0491V56.5591C91.1522 56.6325 91.1689 56.6991 91.1955 56.7591C91.2222 56.8125 91.2622 56.8591 91.3155 56.8991C91.3689 56.9391 91.4455 56.9591 91.5455 56.9591C91.6389 56.9591 91.7122 56.9391 91.7655 56.8991C91.8189 56.8591 91.8589 56.8125 91.8855 56.7591C91.9122 56.6991 91.9289 56.6325 91.9355 56.5591V51.0491ZM96.3941 57.3491V50.2591H97.1841L99.1541 52.8291V50.2591H101.514V57.3491H100.724L98.7641 54.7991V57.3491H96.3941Z" fill="white" fill-opacity="0.6"/>
</g>
</g>
<defs>
<linearGradient id="paint0_linear_6_154" x1="449" y1="-1" x2="449" y2="118" gradientUnits="userSpaceOnUse">
<stop offset="0.9999" stop-color="white"/>
<stop offset="1" stop-color="white" stop-opacity="0"/>
</linearGradient>
<linearGradient id="paint1_linear_6_154" x1="449" y1="-1" x2="449" y2="118" gradientUnits="userSpaceOnUse">
<stop stop-color="white" stop-opacity="0"/>
<stop offset="0.646938" stop-color="white"/>
</linearGradient>
<clipPath id="clip0_6_154">
<rect width="896" height="306" fill="white"/>
</clipPath>
</defs>
</svg>
