<svg width="720" height="13" viewBox="0 0 720 13" fill="none" xmlns="http://www.w3.org/2000/svg">
<path d="M4.83092 8.48V0.799999H0.670922V12H12.1909V8.48H4.83092ZM71.0709 12.16C75.9829 12.16 78.1109 10.272 78.1109 6.384C78.1109 2.512 75.9829 0.639999 71.0709 0.639999C66.1429 0.639999 64.0309 2.496 64.0309 6.384C64.0309 10.288 66.1429 12.16 71.0709 12.16ZM71.0709 8.64C68.6229 8.64 68.1909 7.584 68.1909 6.384C68.1909 5.2 68.6069 4.16 71.0709 4.16C73.5349 4.16 73.9509 5.216 73.9509 6.384C73.9509 7.568 73.5189 8.64 71.0709 8.64ZM136.997 12.16C141.909 12.16 144.037 10.272 144.037 6.384C144.037 2.512 141.909 0.639999 136.997 0.639999C132.069 0.639999 129.957 2.496 129.957 6.384C129.957 10.288 132.069 12.16 136.997 12.16ZM136.997 8.64C134.549 8.64 134.117 7.584 134.117 6.384C134.117 5.2 134.533 4.16 136.997 4.16C139.461 4.16 139.877 5.216 139.877 6.384C139.877 7.568 139.445 8.64 136.997 8.64ZM204.843 0.799999H196.043V12H200.203V9.376H204.843C207.387 9.376 209.131 7.584 209.131 5.088C209.131 2.592 207.387 0.799999 204.843 0.799999ZM204.043 5.856H200.203V4.32H204.043C204.459 4.32 204.971 4.32 204.971 5.088C204.971 5.856 204.459 5.856 204.043 5.856ZM329.772 12H334.348L329.708 0.799999H323.532L318.892 12H323.468L324.236 9.984H329.004L329.772 12ZM325.324 7.104L326.62 3.68L327.916 7.104H325.324ZM399.285 5.088C399.285 2.592 397.541 0.799999 394.997 0.799999H386.197V12H390.357V9.376H392.805L394.357 12H399.285L397.301 8.784C398.533 8.064 399.285 6.72 399.285 5.088ZM390.357 4.32H394.197C394.613 4.32 395.125 4.32 395.125 5.088C395.125 5.856 394.613 5.856 394.197 5.856H390.357V4.32ZM451.12 6.384C451.12 10.288 453.232 12.16 458.16 12.16C462.656 12.16 464.976 10.576 465.152 7.024H460.896C460.736 8.096 459.92 8.64 458.16 8.64C455.712 8.64 455.28 7.584 455.28 6.384C455.28 5.2 455.696 4.16 458.16 4.16C459.92 4.16 460.736 4.688 460.896 5.744H465.152C464.976 2.208 462.64 0.639999 458.16 0.639999C453.232 0.639999 451.12 2.496 451.12 6.384ZM527.879 0.799999V4.64H521.319V0.799999H517.159V12H521.319V8.16H527.879V12H532.039V0.799999H527.879ZM588.355 0.799999H584.195V12H588.355V0.799999ZM651.232 0.799999L648.08 9.12L644.928 0.799999H640.352L644.992 12H651.168L655.808 0.799999H651.232ZM719.497 4V0.799999H707.657V12H719.497V8.8H711.817V7.76H719.497V5.04H711.817V4H719.497Z" fill="white"/>
</svg>
